<?xml version="1.0" encoding="utf-8"?>
<!-- Generator: Adobe Illustrator 27.3.0, SVG Export Plug-In . SVG Version: 6.00 Build 0)  -->
<svg version="1.1" id="Layer_1" xmlns="http://www.w3.org/2000/svg" xmlns:xlink="http://www.w3.org/1999/xlink" x="0px" y="0px"
	 viewBox="0 0 92.6 59.1" style="enable-background:new 0 0 92.6 59.1;" xml:space="preserve">
<style type="text/css">
	.st0{fill:#161C21;}
</style>
<g id="c" transform="translate(0.003 0.002)">
	<path id="Path_352" class="st0" d="M10.5,5.8C22.8-1,34.9-2,47.3,3.8c1.5,0.8,3.1,1.2,4.8,1.1c13.3-1.2,22.7,4.3,27.7,16.6
		c2.2,5,5.2,9.7,8.8,13.8c2.8,3.4,5.9,7.3,2.7,11.5s-8.5,5-13.5,3.7c-6-1.6-11.5-4.4-17-7.5c-2.1-1.2-4.8-3.8-6.9-0.8s1.2,4.5,3,6.2
		c2,1.9,6.1,3.6,3.6,6.5c-2.1,2.5-5.8,5.5-9.9,3.7c-6.2-2.7-11.8-6.2-13.7-13.5c-1.1-4.2-9.5-8.8-13.6-7.4c-4.2,1.5-4.6,4.2-2.2,7.8
		c7.1,10.6,2.6,9.3-4.5,12.8c-3.4,1.7-5.5,0.3-7.2-2.4C4.5,48-1,40.6,2.1,30.1c1.1-3.7-0.8-8.4-1.6-12.6c-0.8-4.6-0.9-9,2.5-13.3
		C5.3,4.3,6.9,8.7,10.5,5.8z"/>
</g>
</svg>
