<svg xmlns="http://www.w3.org/2000/svg" width="76.385" height="78.936" viewBox="0 0 76.385 78.936">
  <g id="c" transform="translate(0.005 0.008)">
    <path id="Path_340" data-name="Path 340" d="M49.28,5.71c3.2,1.4,6.7,1.5,7.8,5.7-4.1,2.4-7.5-.5-10.8-1.2-5.7-1.2-8.4,1-8.2,6.5a103.5,103.5,0,0,0,1.6,13.5c.9,4.6,1.4,8.8-1.5,13-2.7,3.9.1,5.8,3.5,6.6,3.9.9,8,1.3,12,2,12.3,2.1,22.7,12.5,22.7,23.2-5.2-1.2-7.7-5.4-10.6-8.9-6.2-7.5-8.6-7.9-17.3-2.6,11.3-2.9,17.2.6,24.1,14.8-3.7,1.8-6-.7-7.9-2.8-3.8-4.3-7.3-4.8-12.5-2-9.9,5.3-20.4,6.4-31.2,2.4-4.4-1.6-8.7-2.4-13.2-.2-2.2,1.1-4.8,1.1-6.6-1-2.2-2.4-.9-5,.4-7.3,4.5-8,10.2-14.8,18.7-19.1,11.4-5.8,11.6-19.9.7-26.4-4.5-2.7-9.1-5-7.7-11.3,1.3-6,7.8-10.7,14.6-10.61,7.7-.2,14,3.6,21.4,5.7Z" fill="#161c21"/>
  </g>
</svg>
