<svg xmlns="http://www.w3.org/2000/svg" width="67.181" height="73.481" viewBox="0 0 67.181 73.481">
  <g id="c" transform="translate(128.003 562.004)">
    <g id="Group_175" data-name="Group 175" transform="translate(-128 -562)">
      <path id="Path_357" data-name="Path 357" d="M59.13,15.29c1.2-2.6,1-5.4,4.4-6.7,4.9,3.8,3.9,9.2,2.5,13.9a30.55,30.55,0,0,1-18.9,21.1c-7.9,3.1-10.1,9.2-5.8,16.7,1.5,2.6,2.9,4.9,2.4,8-.5,2.8-2.3,6-4.9,5-5.6-2.2-11.2-.3-16.5-.8-1.1-3.2,1.2-4.3,2.5-5.8,7.4-8.7,5.8-18.6-3.8-24a46.771,46.771,0,0,1-19-19.9,16.552,16.552,0,0,1-2-9c.1-1.5.3-2.9,1.8-3.6a3.44,3.44,0,0,1,4.4,1.3c3.1,4,5.8,8.2,8.9,12.1,7.5,9.7,18,12.8,29.3,9.7,9.2-2.4,12.7-9.1,14.7-18Z" fill="#161c21"/>
      <path id="Path_358" data-name="Path 358" d="M40.73,16.29c-1.9.5-3.4,1.1-4.7.9-4.9-.5-10-1.2-11.1-7-.9-4.4,2.2-7,5.9-8.8,4.3-2.1,8.8-2.1,11.7,1.9C45.53,7.39,45.53,12.19,40.73,16.29Z" fill="#161c21"/>
    </g>
  </g>
</svg>
