<svg id="c" xmlns="http://www.w3.org/2000/svg" width="86.715" height="46.567" viewBox="0 0 86.715 46.567">
  <g id="Group_176" data-name="Group 176">
    <path id="Path_359" data-name="Path 359" d="M0,23.5C1.3,11.3,13.4,3.3,28.5,6c3,.5,5.5,2.3,5.6,5.6.1,3.9-3.3,4.2-6.1,4.7-3.5.7-7.1,1-10.6,1.7-3.9.7-5.9,3.2-5.3,7.1s3.7,4.7,6.9,4.8c3.8,0,7.5-1.4,11.4-.4,2.2.6,4,1.8,4.1,4.3.1,2.1-1.2,3.5-2.9,4.6C21.4,44.8,2,36.1,0,23.5Z" fill="#161c21"/>
    <path id="Path_360" data-name="Path 360" d="M73,16.3c-5.2-1.6-10-.5-14.8-1-2.5-.3-4.9-1-5.2-3.9-.4-3.1,2-4.3,4.4-4.8,7.9-1.7,15.8-1.4,22.9,2.8,8.1,4.8,8.6,19.1,1.1,25.8-4.7,4.2-19,6.3-24.7,3.5-2.1-1-3.6-2.4-3.5-4.9.1-2.6,2-3.9,4.1-4.3,4.2-.9,8.5-1.1,12.7-2,6.4-1.6,7.4-5,3-11.2Z" fill="#161c21"/>
    <path id="Path_361" data-name="Path 361" d="M48,11c.7,10.6,2.3,20.5.1,30.5-.5,2.1-.9,4.5-3.3,5-2.8.5-3.8-1.9-4.2-4-2.4-13.4-2.7-26.9.2-40.3C41,1.1,41.9.1,43.9,0c3.8,2.1,2.6,6.8,4.1,11Z" fill="#161c21"/>
  </g>
</svg>
