<svg xmlns="http://www.w3.org/2000/svg" width="82.3" height="71.614" viewBox="0 0 82.3 71.614">
  <g id="c" transform="translate(0 0.003)">
    <path id="Path_335" data-name="Path 335" d="M57,63.9c1.7,5.2.4,7.9-5,7.7-5.5-.2-11,0-16.5,0-5.2,0-7.2-2.4-6.3-7.7a70.515,70.515,0,0,0,.1-20c-.8-6.1-4.1-9.7-10.4-9.3-8.2.4-12.2-3.9-14-11.3C3.4,17,.6,11,0,3.5c7.5,2.3,8.7,8.6,11.8,13,2.9,4,4.4,8.9,10.8,9.1,4.9.1,7.7-1.3,8.8-6.2a36.041,36.041,0,0,0,1-9.2c-.2-4.5.1-8.8,5.7-10C43.2-.9,49.9,2.6,51.4,7.4c.8,2.5,1.2,5,3.5,6.8,2.7,2.1,4.2,4.7,1.9,8-2.2,3.1-4.9,2.1-7.7.8a26.163,26.163,0,0,0-3-1c-3.2,3.6-4.5,8.5-1.6,11.5,3.4,3.6,6.7,9,13.4,7.9,4.7-.8,9.4-1.3,14.2-1.7,3.9-.3,7.6.3,10.2,3.6-.3,2.8-2.6,2.5-4.3,2.9-6.6,1.2-13.1,3.1-19.7,3.3-8.4.2-12.8,3.6-13.6,12.3,3.6,2.5,8.4-1.5,12.3,2.1Z" fill="#161c21"/>
  </g>
</svg>
