<svg xmlns="http://www.w3.org/2000/svg" width="99.347" height="52.039" viewBox="0 0 99.347 52.039">
  <g id="c" transform="translate(-0.003 0.004)">
    <path id="Path_341" data-name="Path 341" d="M77.79.53c5.2-1.5,7.6.2,10,4.6,4.1,7.4,6,15.6,10.3,22.8,1,1.6,2.2,3.5.1,5-1.7,1.2-4.4,1.5-5.3.1-3.9-5.9-12.8-5.9-15.5-13.2a4.373,4.373,0,0,0-4.5-2.9c-2,.2-2.1,2.3-3,3.7-2.8,4.8-.5,8.7,2.1,12.5,1.9,2.7,3.6,5.5-1.1,7.3-3.7,1.4-7.4,5.4-10.3-1.3-2.7-6.2-5.3-12.2-2.4-19.6a57.271,57.271,0,0,0-27.3,0c-3.6.8-4.9,4-2.4,7.2a66.877,66.877,0,0,0,6.9,7.2c1.7,1.7,5.4,3.7,2.1,6-2.8,1.9-5.9,7.6-10.8,2.5-5.5-5.6-8.3-12.6-9.6-20.5-5.4,5.3-5.6,10.5-1.5,15.9,3.7,4.8,10.2,5.8,14.4,10.2-8.2,5.8-12.5,5.3-18.1-1.5-2.1-2.6-4.4-5.1-6.6-7.6-6.9-7.9-6.2-16.5-2.7-25.5,3.3-8.4,9.7-12.3,18.4-12.1,16.4.5,33-1.9,49.3,2C73.49,4.23,75.19,2.43,77.79.53Z" fill="#161c21"/>
  </g>
</svg>
