<svg xmlns="http://www.w3.org/2000/svg" width="72.462" height="80.824" viewBox="0 0 72.462 80.824">
  <g id="c" transform="translate(0.002)">
    <path id="Path_337" data-name="Path 337" d="M16.57,14.6c10,2.3,17.5,6.8,22.6,15.6,3.4,5.9,9.6,8.5,16.4,8.9,4,.3,8,.2,12.2,2.5.8-4.7-2.4-6.1-4.4-8.1-6.3-6.2-14.6-10.1-19.8-17.5-3.8-5.4-4.7-10.7-.2-16,1,.4,1.7.6,1.8.7.4,11.5,7.1,18.8,16.6,24,13.5,7.5,11,20.1,9.4,31.7-1.2,8.3-5,16.2-7.6,24.4-3.2.4-4.1-4.4-8.4-2.4-2.5,1.1-1.9-3.2-1.2-5.4,2.1-7.5.6-10.4-6.6-12.9A37.182,37.182,0,0,1,30.87,49c-4,.4-4.9,4-6.5,6.8-1.9,3.2-4.3,4.6-7.7,2.8-3.3-1.7-3-4.6-1.6-7.4,2.7-5.5,3.9-10.8-1.2-15.7-2.9-1.1-5.7,2.8-8.8.3-1.2-2.7,2.8-3.1,2.3-5.9-1.7-2.7-9.1-1-7-7.3,1.4-4.6,11.8-9.7,16.2-8Z" fill="#161c21"/>
  </g>
</svg>
