<?xml version="1.0" encoding="utf-8"?>
<!-- Generator: Adobe Illustrator 27.3.0, SVG Export Plug-In . SVG Version: 6.00 Build 0)  -->
<svg version="1.1" id="b" xmlns="http://www.w3.org/2000/svg" xmlns:xlink="http://www.w3.org/1999/xlink" x="0px" y="0px"
	 viewBox="0 0 64.1 56.2" style="enable-background:new 0 0 64.1 56.2;" xml:space="preserve">
<style type="text/css">
	.st0{fill:#161C21;}
</style>
<g id="c">
	<path class="st0" d="M61.4,11.4c6.5,12.2,0.6,29.7-12.9,38.7C41.1,55,32.9,57.3,24,55.8c-3.8-0.6-7.3-2.1-9.6-7.4
		c11.1-2.2,21-6.1,26.1-17.1c5.4-11.5-0.3-20.6-7-30.2C46.4-2.6,53.8,4,61.4,11.4 M51.9,21.7c-1.1,4.7-2.2,9.4-3.6,15.4
		c6.7-7.6,5-14.8,2.9-22C51.4,16.9,51.7,18.7,51.9,21.7z"/>
	<path class="st0" d="M28.2,7.8c7.9,7.6,9.2,19.2,3.4,26.8c-5.8,7.7-16.2,9.1-25.7,3.5c-3.8-2.3-5.8-5.7-5.9-10
		C-0.4,14.5,14.8,3.3,28.2,7.8z"/>
</g>
</svg>
