<?xml version="1.0" encoding="utf-8"?>
<!-- Generator: Adobe Illustrator 27.3.0, SVG Export Plug-In . SVG Version: 6.00 Build 0)  -->
<svg version="1.1" id="b" xmlns="http://www.w3.org/2000/svg" xmlns:xlink="http://www.w3.org/1999/xlink" x="0px" y="0px"
	 viewBox="0 0 24.1 94.8" style="enable-background:new 0 0 24.1 94.8;" xml:space="preserve">
<style type="text/css">
	.st0{fill:#161C21;}
</style>
<g id="c">
	<path class="st0" d="M20.6,83.1c-2.6,5.2-3.4,12.2-10.4,11.7c-7.1-0.5-6.7-7.7-8.5-12.6c-1.7-4.5-3.4-8.8,2-12.6
		c3.2-2.2,1.2-5.8-0.4-8.4c-2.4-4.1-3.1-7.9,0.1-11.9c0.4-0.5,1.1-1.4,1-1.8C2,39.3,6.2,31,4,22.9c-0.8-2.9-1.5-5.6,0-8.3
		C7.1,9,11.2,4.2,16.1,0c2.3,2.7,0.7,5,0,7c-1.8,5-2.6,9.6,1.9,13.8c2.4,2.2,2.3,5.1,0.6,7.9c-0.4,0.6-1.1,1.3-1,1.9
		c1.8,13.7-8.3,28.7,5,41.1C26.6,75.4,21.6,79,20.6,83.1z"/>
</g>
</svg>
