<svg id="logo" xmlns="http://www.w3.org/2000/svg" width="501.069" height="98.754" viewBox="0 0 501.069 98.754">
  <g id="Group_167" data-name="Group 167" transform="translate(0 10.19)">
    <path id="Path_264" data-name="Path 264" d="M110.746,279.794c-.056.886-.079,1.784-.079,2.726s-.022,1.874-.079,2.8a18.125,18.125,0,0,1-.37,2.726,10.628,10.628,0,0,1-.864,2.479,13.815,13.815,0,0,0,.539,1.279,4.874,4.874,0,0,1,.449,1.279,41.877,41.877,0,0,1-.079,4.622c-.112,1.212-.247,2.266-.415,3.175s-.359,1.773-.583,2.6a18.17,18.17,0,0,0-.494,2.895l.909-1.986.494-.079-.168,6.518.168.168a12.706,12.706,0,0,0-.37,2.266q-.118,1.363-.2,2.895c-.056,1.021-.079,2.008-.079,2.973v2.435h-1.818l-4.375-3.556a.686.686,0,0,0-.292-.707c-.247-.191-.539-.4-.864-.617s-.651-.438-.954-.662a1.068,1.068,0,0,1-.449-.909q-1.161-.993-2.39-2.188c-.83-.8-1.694-1.582-2.6-2.356s-1.817-1.47-2.726-2.109a11.517,11.517,0,0,0-2.771-1.447l1.324-.83a2.89,2.89,0,0,0-1.234-1.279,9.006,9.006,0,0,1-1.481-.864,44.273,44.273,0,0,1-4.993-3.59,51.66,51.66,0,0,1-4.589-4.174,11.47,11.47,0,0,1-1.447-2.109,2.613,2.613,0,0,0-2.019-1.447l-1.481-1.481h-.325A5.539,5.539,0,0,1,73,289.555a4.807,4.807,0,0,0-1.032-1.616,1.142,1.142,0,0,0,0-.617q-.084-.37-.168-.2l-.662.326-.168.415-.74-.583a4.191,4.191,0,0,1-1.324-1.234c-.168-.325.079-.583.74-.74l-1.817-.247-.74.415c-.112,0-.146-.067-.123-.2a2.606,2.606,0,0,0,.045-.415.872.872,0,0,0-.045-.325c-.022-.079-.123-.045-.292.123l-.909-.83-.168-.583c1.212-1.436,2.435-2.861,3.68-4.3s2.491-2.861,3.758-4.3a6.41,6.41,0,0,1,1.649-.123,1.314,1.314,0,0,0,1.324-.864l-.325-1.571c.056-.112.135-.28.247-.494a.567.567,0,0,0,.079-.494c.168-.168.628-.561,1.4-1.2s1.683-1.4,2.726-2.311,2.143-1.9,3.3-2.973,2.244-2.132,3.265-3.175,1.885-2.008,2.6-2.894A5.448,5.448,0,0,0,90.54,256.4l3.3-2.39c.325.056.662.123.987.2a3.914,3.914,0,0,0,.909.123,1.11,1.11,0,0,0,1.111-.583,2.548,2.548,0,0,0,.247-1.324,5.808,5.808,0,0,0-.292-1.526,8.192,8.192,0,0,1-.325-1.279,7.116,7.116,0,0,0,1.694-1.111,5.734,5.734,0,0,0,1.279-1.616l8.089,7.023-.909,1.156a10.01,10.01,0,0,0-2.6,1.986q-1.531,1.481-3.265,3.422c-1.156,1.29-2.356,2.659-3.59,4.084s-2.446,2.749-3.635,3.96a32.056,32.056,0,0,1-3.343,3.018,4.864,4.864,0,0,1-2.8,1.2l.74,1.986a11.119,11.119,0,0,0-3.714,2.188,6.72,6.72,0,0,0-1.481,2.143,11.185,11.185,0,0,0-.583,1.9,2.686,2.686,0,0,1-.909,1.526v.415a1.971,1.971,0,0,0,.123.662c.079.224.146.415.2.583l1.571.247-.415,3.141a8.913,8.913,0,0,0,1.358-.247,10.205,10.205,0,0,0,1.357-.494q3.719,3.214,7.147,6.485t7.225,6.238l-.583-11.23c.381,0,.595-.292.617-.864a2.681,2.681,0,0,1,.292-1.279l.325-.415a3.912,3.912,0,0,1-.987-1.773,19.128,19.128,0,0,1-.909-4.084l5.206-.079ZM75.9,292.18a.785.785,0,0,1,.83.168,3.289,3.289,0,0,0-.662-.785,2.223,2.223,0,0,0-1.324-.449L75.9,292.18Zm24.357-3.635a1.616,1.616,0,0,0,.583-.415,2.839,2.839,0,0,0,.538-.74,1.4,1.4,0,0,0,.168-.74.6.6,0,0,0-.37-.494.557.557,0,0,0-.247.37c-.056.191-.135.426-.247.707a2.132,2.132,0,0,1-.123.74A3.86,3.86,0,0,1,100.256,288.545Z" transform="translate(-65.6 -237.487)" fill="#ab917c"/>
    <path id="Path_265" data-name="Path 265" d="M576.328,209.761l-2.894,5.363-.415-.583-.168.168-.987-1.234a22.835,22.835,0,0,1-2.39,6.485,50.62,50.62,0,0,1-3.96,6.148q-2.221,2.979-4.667,5.823c-1.627,1.9-3.119,3.725-4.5,5.486l-.494-.168a15.461,15.461,0,0,1-3.388,5.363l-2.233-.079-.662-1.818-.987,1.649q-3.214-4.544-6.316-9t-6.238-9.166l.662-.494,1.077.247.078-.325a2.348,2.348,0,0,0-.045-.539,2.585,2.585,0,0,0-.2-.538l-3.141-.494a7.93,7.93,0,0,1-.987-1.4c-.28-.494-.55-.987-.83-1.481a6.381,6.381,0,0,1-1.279-.662,12.131,12.131,0,0,1-1.526-1.156A15.46,15.46,0,0,1,528.478,216a11.8,11.8,0,0,1-.954-1.2l.079-1.4-.079-1.649a3.708,3.708,0,0,1-1.986.987L523.8,210.5l1.4-1.571q.252,0,.168-.168a.526.526,0,0,0-.247-.247c1.38-1.761,2.816-3.579,4.331-5.452a12.4,12.4,0,0,1,5.329-3.96l-.325-.247-.584-1.234c1.38-1.761,2.693-3.568,3.961-5.408s2.5-3.725,3.713-5.654l1.739-.325.741-2.233a19.161,19.161,0,0,0,2.266-2.311c.684-.83,1.414-1.649,2.188-2.479h.325a1.321,1.321,0,0,1,1.155.583l.168-.583h1.818q1.733,1.9,3.467,4.084t3.388,4.5q1.649,2.306,3.1,4.712t2.513,4.622a2.5,2.5,0,0,1-.987.123c-.325-.022-.628-.045-.909-.045-.056,0-.078.112-.078.325a3.518,3.518,0,0,0,.078.785c.056.247.112.5.168.785l3.388-.583a1.764,1.764,0,0,1,.662,1.357,3.033,3.033,0,0,0,.415,1.526,3.511,3.511,0,0,1,1.694.864,13.91,13.91,0,0,1,1.773,1.773,10.223,10.223,0,0,1,1.358,2.064,3.069,3.069,0,0,1,.449,1.649c.606.381,1.223.774,1.862,1.156a6.435,6.435,0,0,0,2.042.853Zm-11.8,1.907-1.156.079c-.438-.325-.528-.662-.247-.987V210.1h-.168a14.242,14.242,0,0,0-1.571-2.479c-.606-.774-1.234-1.526-1.9-2.266s-1.313-1.481-1.941-2.233a17.4,17.4,0,0,1-1.694-2.356,7.6,7.6,0,0,1-.741-1.571q-.336-.909-.74-1.818a9.754,9.754,0,0,0-.954-1.649,2.514,2.514,0,0,0-1.358-.987c-.494-.606-.965-1.223-1.4-1.862s-.886-1.257-1.324-1.862a19.064,19.064,0,0,0-2.065,3.714,9.689,9.689,0,0,1-2.558,3.467h-1.324l.494.83-.415,1.324-.247-.415c-.112,0-.135.1-.079.292a1.632,1.632,0,0,1,.079.37c0,.112-.1.146-.292.123s-.348-.045-.449-.045a.933.933,0,0,1-.707-.325,3.42,3.42,0,0,0-.539-.494c.112.381.224.774.325,1.156a4.377,4.377,0,0,1,.168,1.234,1.65,1.65,0,0,1-.583,1.324,15.805,15.805,0,0,1-1.279.987,8.494,8.494,0,0,0-1.324,1.156,2.974,2.974,0,0,0-.707,1.9l-2.558,2.233c.224.168.561.438,1.032.83s.931.808,1.4,1.279a13.965,13.965,0,0,1,1.2,1.358,2.013,2.013,0,0,1,.494,1.077l-.078.079.078-.079a7.943,7.943,0,0,0,.954,2.928,3.927,3.927,0,0,0,2.266,1.941q.488.74,1.279,2.019c.527.853,1.088,1.717,1.694,2.6a27.665,27.665,0,0,0,1.818,2.39,3.376,3.376,0,0,0,1.649,1.234l-.079.741c0,.437.146.684.449.74a7.051,7.051,0,0,1,.954.247,51.034,51.034,0,0,1,3.3-4.5,36.692,36.692,0,0,0,3.22-4.589l5.363-1.739c-.281-.168-.539-.314-.785-.449a7.277,7.277,0,0,0-.785-.37l.078-.247c0-.112-.056-.135-.168-.078a.6.6,0,0,1-.247.078l-.326-.168a3.541,3.541,0,0,1,.584-1.526,10.507,10.507,0,0,1,1.2-1.526c.471-.494.954-.965,1.447-1.4.516-.415.92-.774,1.256-1.043Zm-17.592-37.82c-.437.056-.774.1-.987.123a9.707,9.707,0,0,1-.988.045l-1.481-1.481c-.112,0-.123.079-.045.247a6.085,6.085,0,0,1,.247.583c.078.224.146.415.2.583s.056.247,0,.247a2.355,2.355,0,0,0-1.234-.583,2.942,2.942,0,0,0-1.4,0,2.085,2.085,0,0,0-3.22.4h-1.649c0-1.268.022-2.266.079-3.018s.168-1.717.325-2.928a4.694,4.694,0,0,1,.415-1.111,2.258,2.258,0,0,0,.247-1.111,1.83,1.83,0,0,0-.292-.909,1.829,1.829,0,0,1-.292-.662,2.447,2.447,0,0,1,.045-.494,3.52,3.52,0,0,0,.045-.415h2.973l.415,2.558.494-2.8,5.531.247a1.838,1.838,0,0,0,0,.785,4.748,4.748,0,0,1,.079.864.7.7,0,0,1-.247.494,3.229,3.229,0,0,1-.494.415,1.914,1.914,0,0,0-.415.37.245.245,0,0,0,0,.37l1.156.662a.92.92,0,0,0-.123.617,7.518,7.518,0,0,0,.123.785,4.157,4.157,0,0,1,.079.83,1.156,1.156,0,0,1-.168.662q-.656.909-.37,1.279c.191.247.482.617.864,1.111l.09,1.234Zm16.515-10.737c0,1.268-.023,2.289-.078,3.052a25.135,25.135,0,0,1-.415,2.894,3.324,3.324,0,0,1-.325,1.111,2.618,2.618,0,0,0-.247,1.2,1.753,1.753,0,0,0,.247.864,1.618,1.618,0,0,1,.247.617v.987H559.9l-.415-2.558-.494,2.726-5.531-.168a1.661,1.661,0,0,0-.045-.83,3.221,3.221,0,0,1-.123-.83.65.65,0,0,1,.247-.539c.168-.135.348-.28.538-.415a2.807,2.807,0,0,0,.449-.37c.112-.112.112-.247,0-.415l-1.234-.583a1.079,1.079,0,0,0,.168-.617,4.576,4.576,0,0,0-.079-.83,4.579,4.579,0,0,1-.078-.83,1.08,1.08,0,0,1,.168-.617q.656-.909.37-1.279c-.191-.247-.482-.617-.864-1.111l-.078-1.234a8.633,8.633,0,0,0,.987-.168,4.329,4.329,0,0,1,.987-.079l1.481,1.571c.056,0,.056-.079,0-.247s-.123-.359-.2-.583a6.12,6.12,0,0,0-.247-.583c-.079-.168-.067-.247.045-.247a2.174,2.174,0,0,0,1.234.538,3.36,3.36,0,0,0,1.4-.045,1.981,1.981,0,0,0,1.4.662,1.683,1.683,0,0,0,.987-.292,5.8,5.8,0,0,0,.83-.707,4.162,4.162,0,0,1,.83-.078l.808.034Z" transform="translate(-472.394 -163)" fill="#ab917c"/>
    <path id="Path_266" data-name="Path 266" d="M1077.068,344.743c-.494.28-1.223.729-2.188,1.357s-1.952,1.313-2.973,2.019-1.952,1.358-2.8,1.941-1.447.976-1.773,1.2a5.353,5.353,0,0,1-.987.539,1.667,1.667,0,0,1-1.077.045.14.14,0,0,1-.124-.045.14.14,0,0,0-.124-.045c-.168,0-.292.112-.37.325s-.348.774-.785,1.649l-9.491,5.946a1.682,1.682,0,0,1-1.324.325,2.87,2.87,0,0,1-.83-.415l-.247-.168v0l-.908,2.233a5.9,5.9,0,0,0-1.9.539,16.027,16.027,0,0,1-1.986.707,3.27,3.27,0,0,0-1.772.247,4.048,4.048,0,0,0-1.2,1.077,4.778,4.778,0,0,0-.617.37c-.19.135-.482.348-.863.617l-.909-1.818-1.649,1.481-.168-7.18v-2.143a9.433,9.433,0,0,1,.079-1.324c0-.438.011-.886.045-1.324s.067-1.077.124-1.9a12.384,12.384,0,0,0,.785-2.479,6.192,6.192,0,0,0,.045-1.571c-.112-.55-.236-1.189-.37-1.9a18.816,18.816,0,0,1-.2-3.22,22,22,0,0,1,.831-5.7,5.218,5.218,0,0,1-.124-1.571c.022-.662-.067-1.043-.292-1.156q0-.084.168-.909a1.645,1.645,0,0,0,0-1.077v-.078l-.078-.079a1.108,1.108,0,0,1-.325-.83,10.165,10.165,0,0,1,.415-2.064c.225.056.325.112.325.168a.14.14,0,0,1,.045-.123c.023-.022.011-.1-.045-.2V327.8a3.217,3.217,0,0,1,.168-1.111c.112-.3.382-.426.83-.37a.791.791,0,0,0-.246-.583,3.206,3.206,0,0,1-.415-.494,1.36,1.36,0,0,1-.2-.662,1.944,1.944,0,0,1,.371-1.077l.078-.247.079-.168c-.168-.224-.325-.437-.494-.662a6.081,6.081,0,0,0-.662-.74c-.056-1.761-.123-3.512-.2-5.239s-.146-3.512-.2-5.329v-1.234l.74-.909-.493-1.649a6.26,6.26,0,0,0,.292-1.077,2.311,2.311,0,0,0-.045-1.156,1.216,1.216,0,0,1-.078-.785c.056-.3.224-1.01.494-2.109.606.224,1.144.415,1.615.583s.976.325,1.526.494l.247,1.156a.233.233,0,0,0,.168-.079.141.141,0,0,0,.124-.045c.022-.034.1-.045.2-.045a1.585,1.585,0,0,0,.539.123.921.921,0,0,1,.538.2c0,.056.146.168.449.325a8.086,8.086,0,0,1,1.032.662l1.077.74a3.892,3.892,0,0,0,.416.247c.112.056.224.112.325.168l7.842,2.894.909,1.4,1.234.247h-.079a11.311,11.311,0,0,1,1.9,1.156c1.156.774,2.446,1.649,3.882,2.648s2.917,1.93,4.454,2.8,2.693,1.571,3.467,2.064a14.594,14.594,0,0,0-3.388,2.8c-.438.494-.886.976-1.324,1.447a5.607,5.607,0,0,1-1.234,1.032,2.389,2.389,0,0,0-.83.707,7.732,7.732,0,0,1-.74.864,4.353,4.353,0,0,1-1.358.864,9.05,9.05,0,0,1-2.513.539l.493,1.077a4.55,4.55,0,0,0-.909.662l-.74.74-.831.662a8.344,8.344,0,0,1-.987.662,17.993,17.993,0,0,1,3.511,1.986c.965.718,1.862,1.436,2.681,2.143q1.33,1.161,2.558,2.188a7.3,7.3,0,0,0,2.973,1.447,29.344,29.344,0,0,1,2.973,2.726,9.005,9.005,0,0,0,3.433,2.244Zm-14.7-.662-5.7-3.467a.524.524,0,0,1-.326-.494v-.247a.477.477,0,0,1-.078-.325c-.437-.662-.83-.987-1.156-.987a3.8,3.8,0,0,1-.83-.123q-.488-.118-.909-.2a.529.529,0,0,1-.415-.292c-.056-.135-.113-.281-.168-.415a1.71,1.71,0,0,0-.168-.325c-.056-.078-.168-.067-.325.045l-1.818-.909a7.655,7.655,0,0,0-.168,1.694c0,.628.011,1.279.045,1.941s.067,1.268.124,1.818.112.965.168,1.234c-.112.774-.224,1.537-.325,2.311a15.483,15.483,0,0,0-.168,2.233,2.584,2.584,0,0,0,.247,1.111,3.3,3.3,0,0,0,.662.954,1.857,1.857,0,0,1,.045.617,2.587,2.587,0,0,1-.2.538,1.628,1.628,0,0,1-.078.37q-.084.286-.168.707l9-5.531a1.618,1.618,0,0,1,.448-.449c.247-.191.527-.415.83-.662s.595-.471.864-.662a7.469,7.469,0,0,0,.572-.483Zm-2.064-21.967a5.689,5.689,0,0,1-.83-.415,12.174,12.174,0,0,0-1.234-.785c-.437-.247-.886-.5-1.324-.785-.83-.55-1.57-1.043-2.232-1.481s-1.077-.606-1.234-.494a.662.662,0,0,1-.583-.079.26.26,0,0,0-.325-.078.662.662,0,0,1-.415-.74l.078-.079.583.079c0-.056-.179-.224-.539-.494a1.678,1.678,0,0,0-.864-.415l-.908-.415a6.7,6.7,0,0,0,.247,2.188,7.018,7.018,0,0,1,.247,2.266.6.6,0,0,0-.079.247.594.594,0,0,1-.078.247l-.078.079v.415a.233.233,0,0,1,.078.168.6.6,0,0,0,.078.247v.247l-.168.415a16.388,16.388,0,0,1,.168,2.356v2.356c.326,0,.685-.011,1.077-.045a3.519,3.519,0,0,0,.83-.123,11.146,11.146,0,0,0,1.694-.785,14.008,14.008,0,0,0,1.616-1.111l1.9-1.324q.656-.488,1.279-.909C1059.678,322.585,1060.026,322.338,1060.307,322.114Z" transform="translate(-930.681 -286.583)" fill="#ab917c"/>
    <path id="Path_267" data-name="Path 267" d="M1422.346,351.863l-7.1,8.919a22.714,22.714,0,0,1-1.863-2.233,2.854,2.854,0,0,1-.37-.662.442.442,0,0,1,.168-.325,4.35,4.35,0,0,0-.987-.987.859.859,0,0,1-.292-.247q-.118-.168-.707-.909v.247c-.437-.494-.987-1.077-1.649-1.739s-1.335-1.346-2.019-2.064-1.335-1.414-1.941-2.109-1.1-1.257-1.48-1.694l-1.739-2.143a14.012,14.012,0,0,0-1.032-1.234c-.359-.381-.729-.8-1.11-1.234l-1.077-2.233v.325c-.438-.381-.729-.628-.865-.74a4.533,4.533,0,0,0-.448-.325l-.415-.583c-.281-.112-.505-.224-.707-.325a2.228,2.228,0,0,1-.617-.583,11.444,11.444,0,0,1-1.032-1.481,3.03,3.03,0,0,0-1.2-1.234,1.044,1.044,0,0,1-.326-.045,2.027,2.027,0,0,0-.415-.045c-.718-.774-1.458-1.514-2.233-2.233v-.909l.583-1.324h-1.234l.078.325c.113.168.113.258,0,.292a.334.334,0,0,1-.325-.123,6.585,6.585,0,0,1-1.357-.74,6.767,6.767,0,0,0-.953-.583,1.446,1.446,0,0,1-.741-1.234h-.415l-.494-.583-.584.909-.246-3.141.662.74c.931-1.156,1.885-2.311,2.849-3.467s1.964-2.345,3.018-3.556a1.9,1.9,0,0,0,1.279-.74,6.816,6.816,0,0,0,.864-1.324l.079-.079.079-.247a.314.314,0,0,1,.045-.168.644.644,0,0,0,.045-.247c1.044-1.156,2.053-2.3,3.018-3.422s1.918-2.266,2.85-3.422a7.041,7.041,0,0,0,1.234-.864,14.807,14.807,0,0,0,1.481-1.447c.493-.55.976-1.111,1.447-1.694a9.1,9.1,0,0,0,1.11-1.694v.079a2.545,2.545,0,0,0,.326-.707c.056-.191.112-.4.168-.617.168-.224.325-.426.494-.617s.359-.426.583-.707l.325.079a.56.56,0,0,1,.415-.168c.112,0,.348.011.707.045s.707.045,1.032.045c.056,0,.135-.056.247-.168l-.079-.079a4.65,4.65,0,0,0-.37-.617c-.135-.191-.067-.4.2-.617.056-.168.225-.247.493-.247l.584-.079a.868.868,0,0,1,.449.123c.135.079.179.067.123-.045v-1.077a2.607,2.607,0,0,1,.37-.617c.247-.359.539-.774.864-1.234s.662-.909.987-1.324.583-.729.74-.954l4.869,5.453.987.662-.246.247.987,1.156c-.325.325-.684.662-1.077.987l-1.155.987c-.831.382-1.28.785-1.358,1.2s-.235.976-.448,1.694a49.112,49.112,0,0,1-5.083,5.161,37.56,37.56,0,0,0-4.914,5.239c-.168.112-.359.236-.583.37a8.962,8.962,0,0,0-1.077.864l-.247.079-.168.247a4.025,4.025,0,0,0-.325.583,1.828,1.828,0,0,1-.079.583c-.437.381-.852.74-1.234,1.077s-.775.684-1.156,1.077a18.277,18.277,0,0,1,2.895.2,8.241,8.241,0,0,0,3.052-.2c.056,0,.246-.011.583-.045s.684-.056,1.076-.079.752-.067,1.111-.123a2.892,2.892,0,0,0,.707-.168l.494.079.079.168.741.078.662.325h1.155a2.512,2.512,0,0,1,.617-.079h.539a.7.7,0,0,0,.583-.662l3.142.583.079,9.088c-1.212.168-2.413.381-3.59.662a11.477,11.477,0,0,1-3.68.247c-.224-.112-.427-.224-.617-.325a1.371,1.371,0,0,0-.706-.168,2.21,2.21,0,0,1-.707-.168c-.3-.112-.606-.2-.909-.292a6.86,6.86,0,0,0-.864-.168.6.6,0,0,0-.583.2l-.662.325h-2.558c.549.606,1.077,1.234,1.571,1.9s1.021,1.324,1.571,1.986a1.309,1.309,0,0,0,.415.494,7.915,7.915,0,0,0,1.156,1.649q.909,1.077,2.019,2.188a23.88,23.88,0,0,0,2.233,1.986,4.121,4.121,0,0,0,1.773.954l-.168.83c.056,0,.078.056.078.168a1.644,1.644,0,0,0,.168,1.234,5.01,5.01,0,0,0,1.358,1.616,8.582,8.582,0,0,0,3.421,1.447c.382.437.774.853,1.156,1.234.415.393.852.83,1.346,1.335Z" transform="translate(-1237.152 -280.812)" fill="#ab917c"/>
    <path id="Path_268" data-name="Path 268" d="M1814.186,359.218l-.415.247c0,.056-.079.022-.247-.079a.726.726,0,0,0-.325-.078l.583.662a6.256,6.256,0,0,0-.078.83c0,.168-.169.415-.494.74l-.583,1.077a4.944,4.944,0,0,1-.662-.123c-.057-.022-.225-.1-.493-.2-.056,0-.056.011,0,.045s.055.067,0,.123l-.741-.325c.113-.112.057-.224-.168-.325s-.437-.224-.661-.325a1.818,1.818,0,0,1-.539-.37c-.135-.135-.258-.18-.37-.123l.247,1.571,1.481.662-.247.741c.056-.112.112-.135.168-.079a.233.233,0,0,0,.168.079,1.253,1.253,0,0,0-.168.494c-.325.606-.606.909-.83.909h-.584a1.143,1.143,0,0,0-.583.079,2.4,2.4,0,0,0-.079.909,3.611,3.611,0,0,0-.662.909c-.168.325-.325.628-.494.909a3.184,3.184,0,0,1-.74.83,13.582,13.582,0,0,0-1.817-1.941,12.14,12.14,0,0,1-1.818-2.019,7.264,7.264,0,0,0-.707-.987,5.975,5.975,0,0,0-.617-.583,2.448,2.448,0,0,0-.538-.539,3.185,3.185,0,0,1-.617-.617,2.653,2.653,0,0,0-2.064-1.907,8.565,8.565,0,0,0-1.694-1.817c-.471-.325-1.054-.8-1.773-1.4-.224-.224-.426-.437-.617-.662s-.426-.494-.707-.83a7.492,7.492,0,0,1-.325-.987.815.815,0,0,0-.292-.494,1.994,1.994,0,0,0-.538-.292q-.337-.118-.909-.37a11.69,11.69,0,0,0-1.4-1.616,11.679,11.679,0,0,1-1.4-1.616,2.034,2.034,0,0,0-.045-1.234,8.365,8.365,0,0,1-.292-1.234l-.494,1.4-.988-1.739-.583-.987c0,.55-.022,1.167-.078,1.862s-.1,1.346-.124,1.986-.045,1.2-.045,1.694v.987a2.235,2.235,0,0,0,.292.909,3.577,3.577,0,0,0,.707.987l.168,3.3c-.281.55-.5,1.032-.707,1.447a3.463,3.463,0,0,0-.292,1.526,4.23,4.23,0,0,0,.415,1.862,6.746,6.746,0,0,0,.987,1.526,2.129,2.129,0,0,1-.079.662v.494a6.764,6.764,0,0,0-.078,1.324,5,5,0,0,1-1.447-.168,11.148,11.148,0,0,0-1.448-.325,1.51,1.51,0,0,1-.37-.045,3.218,3.218,0,0,0-.538-.045,1.684,1.684,0,0,1-.247-.292c-.056-.078.056-.146.326-.2a.232.232,0,0,1,.078-.168c.112-.112.191-.135.247-.078a.6.6,0,0,1,0,.74,1.3,1.3,0,0,1-.83.449,5.117,5.117,0,0,1-.987.123l-.326-.078a1.511,1.511,0,0,0-.37.045,5.6,5.6,0,0,0-1.111.617l1.235-2.558c-.438.112-.718.112-.83,0-.056-.112-.068-.079-.045.078a.458.458,0,0,1-.123.415c-.112.168-.258.381-.449.662a.83.83,0,0,1-.707.415.483.483,0,0,1-.247-.045.646.646,0,0,0-.247-.045h-1.313a11.13,11.13,0,0,0-1.234.079c0-.718.011-1.661.045-2.85s.056-2.322.079-3.422.067-2.446.123-4.05a5.028,5.028,0,0,1,.325-.954,2.223,2.223,0,0,0,.168-1.032,3.528,3.528,0,0,0-.079-.785,5.216,5.216,0,0,0-.247-.785c0-.168-.022-.28-.079-.325,0-1.593.023-3.153.079-4.667s.112-3.04.168-4.589a2.627,2.627,0,0,0,.123-1.9,6.853,6.853,0,0,1-.292-1.9,1.258,1.258,0,0,1,.449-1.032,1.07,1.07,0,0,0,.37-1.032,1.472,1.472,0,0,0-.449-1.156,4.3,4.3,0,0,1-.785-.987v-3.321l1.57-.583c-.28-.168-.415-.314-.415-.449a6.217,6.217,0,0,0-.079-.785h-.494a1.157,1.157,0,0,0-.785-.415,2.11,2.11,0,0,0-.785.168l-.325-.662.987-.662a.486.486,0,0,1,.045-.247.487.487,0,0,0,.045-.247v-.078l-.246-.325a2.906,2.906,0,0,0,.493-.583,1.24,1.24,0,0,0,0-.662,1.572,1.572,0,0,1,.494-1.739c-.112-1.537-.2-3.018-.292-4.42s-.179-2.85-.292-4.331l.584-.247-.169-.583v-.168l.831.078-.079.247-.74-.247c.056-.112.112-.224.168-.325s.112-.224.168-.325l.078-.247a.105.105,0,0,1-.168,0l-.168-.079-.078-.168a.678.678,0,0,1-.168-.662l.908-.415-.247-.247a1.4,1.4,0,0,0-1.155-1.4c-.113-.112-.168-.191-.168-.247l.662-.325.079.247-.74.168a1.744,1.744,0,0,1,.246-1.156l.168-.168a1.615,1.615,0,0,0,0-.74c.606,0,1.156.011,1.649.045a5.049,5.049,0,0,1,1.571.37c.281.112.549.2.83.292a4.9,4.9,0,0,0,1.571.045,6.012,6.012,0,0,1,2.39-.83,13.135,13.135,0,0,1,2.973,0c-.112.382-.225.8-.325,1.234a8,8,0,0,0-.247,1.234,11.113,11.113,0,0,0-.078,1.4c-.112.112-.135.4-.079.864a3.431,3.431,0,0,0,.169.864v.078l.078.079a.487.487,0,0,0-.2.707.728.728,0,0,1-.045.785v.078h-.079c-.112.224-.258.483-.448.785a1.55,1.55,0,0,0-.291.785,2.765,2.765,0,0,0,.661,1.739,2.347,2.347,0,0,1-.168,1.481,11.351,11.351,0,0,0-.493,1.481,1.722,1.722,0,0,1,.2.83,5.006,5.006,0,0,0,.124.909l-.079.078h-.168l.415.325c0,.112-.011.449-.045,1.032s-.067,1.144-.123,1.694l3.96-4.207a2.562,2.562,0,0,1,1.032-.662c.359-.112.751-.224,1.2-.325.168,0,.281-.056.325-.168a1.694,1.694,0,0,0-.078-.83,5.944,5.944,0,0,0,1.773-1.571c.583-.718,1.088-1.346,1.526-1.9a23.561,23.561,0,0,1,2.233-2.266,13.638,13.638,0,0,1,2.648-1.862c.325-.438.606-.617.83-.539a7.506,7.506,0,0,1,.831.37q.167.084.2,0a.455.455,0,0,1,.2-.168h-.078a7.551,7.551,0,0,1-.325-1.032,1.007,1.007,0,0,1,.246-1.032l4.454-4.454,6.608,6.361c-.381.325-.92.83-1.616,1.481s-1.38,1.346-2.064,2.064-1.313,1.414-1.862,2.109a10.675,10.675,0,0,0-1.077,1.526c-.112.112-.314.3-.617.583s-.628.55-.987.83-.707.55-1.032.83-.583.471-.74.583c-.55-.168-.718-.606-.494-1.324-.326.606-.662,1.223-.988,1.862a20.533,20.533,0,0,1-1.077,1.862v.079a.937.937,0,0,1-.247.494c-.168.224-.359.449-.583.707s-.426.471-.617.662l-.37.37a5.444,5.444,0,0,1-1.4,1.032c-.493.247-.886.236-1.156-.045l-.247.741a8.309,8.309,0,0,1-.415,1.447,4.694,4.694,0,0,1-.325.707,6.309,6.309,0,0,0-1.649,1.279c-.55.572-1.043,1.088-1.481,1.526-.494.494-1.021.987-1.571,1.481a6.246,6.246,0,0,1-1.818,1.156c.224.224.538.494.954.83s.83.662,1.234.987.774.617,1.077.864a3.563,3.563,0,0,0,.617.449,19.674,19.674,0,0,1,1.739,2.558l.415-.325,1.324.909a3.115,3.115,0,0,0,.584,1.111c.325.471.583.841.74,1.111.224-.056.359,0,.415.168s-.022.325-.247.494a.94.94,0,0,1-.662.168,1.716,1.716,0,0,0-.662.078.348.348,0,0,0-.247.37,1.258,1.258,0,0,0,.124.538,1.442,1.442,0,0,0,.291.415.2.2,0,0,0,.326,0,1.82,1.82,0,0,0,.2-.247,4.59,4.59,0,0,1,.449-.494,1.375,1.375,0,0,1,.987-.415,1.394,1.394,0,0,1,.707.37c.2.191.4.37.617.538.718.112,1.234.191,1.57.247s.718.438,1.156,1.156a11.973,11.973,0,0,1,.584,1.156,2.13,2.13,0,0,0,.74.987,6.92,6.92,0,0,1,.449.864,7.776,7.776,0,0,0,.448.864.8.8,0,0,0,.494.2c.224.023.628.068,1.234.124a7.318,7.318,0,0,0,.662.74l.741.741c0,.112.1.224.292.325a1.922,1.922,0,0,1,.448.325l.247.247a.943.943,0,0,1,.168.247,2.4,2.4,0,0,0,1.4,1.818c.661.224,1.4.438,2.232.662a5.116,5.116,0,0,0,.449.538,2.5,2.5,0,0,0,.426.494Z" transform="translate(-1583.487 -290.489)" fill="#ab917c"/>
    <path id="Path_269" data-name="Path 269" d="M2200.4,379.618a3,3,0,0,1,.2.909,3.43,3.43,0,0,1-.045.909,2.849,2.849,0,0,1-.325.909c-2.042-.224-3.849-.348-5.453-.37s-2.782-.045-3.557-.045a3.593,3.593,0,0,0-1.11.2,2.194,2.194,0,0,0-1.032.707,7.646,7.646,0,0,1-1.526.168H2186.2a4.84,4.84,0,0,0-.707-.37,1.549,1.549,0,0,1-.616-.539,7.663,7.663,0,0,1-.539-.583.649.649,0,0,0-.538-.247,2.939,2.939,0,0,0-1.156.123c-.112.078-.381.348-.83.785-.281.056-.674.112-1.2.168s-.919.112-1.2.168l-1.156-.987-2.311.662q-.337-.253-.168-.37t-.168-.2q-.169.084,0-.168a.806.806,0,0,0,.168-.415l-.079-.494h-.415l-.169-.325-.168-.494-.494-.078.079,2.311-.74.168c-.224-.224-.415-.426-.583-.617a.761.761,0,0,0-.583-.292.983.983,0,0,0-.707.292,7,7,0,0,0-.618.707h-1.234l-.987.078H2168l1.078-1.156-.326-.247.169-.078c-.057,0-.08-.011-.08-.045s-.022-.045-.078-.045-.079-.022-.079-.078a10.619,10.619,0,0,0,.292-1.077,1.863,1.863,0,0,1,.538-.987,3.048,3.048,0,0,0-.538-.707.948.948,0,0,1-.292-.864c.112-.886.191-1.481.247-1.818a2.921,2.921,0,0,1,.247-.83,2.145,2.145,0,0,0,.079-.662c0-.28.023-.83.078-1.649a4.047,4.047,0,0,0,.415-1.111,5.114,5.114,0,0,0,.168-1.111,1.149,1.149,0,0,0-.247-.83.6.6,0,0,0-.247-.079h1.156c.381,0,.583-.079.583-.247l-1.324-.494.168-.325v-.37h-.325c-.168,0-.281-.135-.325-.415,0-1.156.01-2.008.044-2.558s.056-.987.079-1.324.056-.662.078-.987.046-.886.046-1.649a4.614,4.614,0,0,0,.078-2.648,13.112,13.112,0,0,1-.325-2.726,3.685,3.685,0,0,1,.247-1.324,4.1,4.1,0,0,0,.246-1.481,6.928,6.928,0,0,0-.583-2.558v-1.649a6.566,6.566,0,0,0,.908-.662c.326-.28.583-.471.741-.583a2.285,2.285,0,0,0,.741-1.649,3.579,3.579,0,0,0-.617-1.773,9.074,9.074,0,0,0-1.28-1.694h-.168a.233.233,0,0,1-.168-.078v-.325c0-1.649-.045-3.3-.124-4.959s-.18-3.3-.291-4.959l.493-.325-.078-.583a.855.855,0,0,0,.123-.583,7.112,7.112,0,0,0-.123-.741l-.079-.909v-.494l-.741-4.129,3.3-.168a.37.37,0,0,1,.415-.079,1.028,1.028,0,0,1,.416.247c.056.112.19.325.415.662l.078.168h.079l.247-.247a1.964,1.964,0,0,0,.325-.2c.112-.079.134-.292.078-.617l5.946.078c-.113,1.436-.168,2.794-.168,4.084s-.023,2.569-.079,3.837l-.078.247c-.224.281-.415.527-.583.741a1.62,1.62,0,0,0-.248.987,2.7,2.7,0,0,0,.74,1.571l-.168,2.233-.325.247.168.415a4.2,4.2,0,0,1,.045,1.077c-.023.494-.056,1.01-.079,1.526s-.056,1.01-.078,1.447a2.216,2.216,0,0,0,.045.83,9.663,9.663,0,0,1,.74,3.68c0,1.245-.056,2.513-.168,3.837a.561.561,0,0,0,.2.37c.135.135.2.236.2.292a1.451,1.451,0,0,1-.326.247l-.325.168a1.217,1.217,0,0,1-.707.539c-.36.135-.595.146-.707.045,0,.056.079.168.247.325a1.482,1.482,0,0,0,.325.247c.112.112.28.1.494-.045s.381-.179.494-.123a3.062,3.062,0,0,0-.079.954v1.941c0,.774.012,1.47.046,2.109a4.634,4.634,0,0,1-.046,1.2l-.415,1.986-.741.325-.493-.078v.168c0,.056.168.191.493.415l.247.247c.438.224.662.494.662.83a4.93,4.93,0,0,1,.123.617,5.8,5.8,0,0,1,.045.707c0,.381-.011.931-.045,1.649s-.045,1.458-.045,2.233-.011,1.5-.045,2.188-.045,1.223-.045,1.616a1.642,1.642,0,0,1-.415,1.234,22.73,22.73,0,0,1,4.331-.078,21.931,21.931,0,0,0,3.837,0,3.228,3.228,0,0,0,.863.37,3.144,3.144,0,0,0,.617.123,2.506,2.506,0,0,0,1.234-.325,3.538,3.538,0,0,0,.583-.168.328.328,0,0,0,.247-.078H2198c.909,0,1.639-.022,2.188-.079a22.666,22.666,0,0,1,0,3.96,3.983,3.983,0,0,1-.988,2.233l1.2.942Z" transform="translate(-1932.128 -305.437)" fill="#ab917c"/>
    <path id="Path_270" data-name="Path 270" d="M2530.048,382.42l-1.649.079h-2.389a2.7,2.7,0,0,1-.662-.168v.168l-1.233-.079a1.456,1.456,0,0,1-.708,0,2.411,2.411,0,0,1-.616-.494.231.231,0,0,1-.079-.168.231.231,0,0,0-.08-.168c-.437,0-.93.325-1.48.987h-.538a.584.584,0,0,1-.448-.168H2520c-.057-.056-.247-.079-.583-.079l.326-.415c-.225.112-.326,0-.326-.325a1.952,1.952,0,0,0,.493-.494c.224-.28.3-.438.247-.494l-1.077-1.649c.112-.987.179-1.705.2-2.143a4.546,4.546,0,0,0-.044-1.077,7.277,7.277,0,0,1-.124-1.077c-.022-.438-.044-1.189-.044-2.233l.908-1.077.831-2.558a.668.668,0,0,1-.417.247h-.493a.984.984,0,0,1-.449-.2l-.2-.2a12.823,12.823,0,0,1-.2-3.467q.116-1.733.37-3.467c.168-1.156.326-2.311.493-3.467a23.925,23.925,0,0,0,.247-3.467,20.449,20.449,0,0,0-.292-3.422,29.146,29.146,0,0,1-.37-3.59,1.8,1.8,0,0,0,.987-.909,4.9,4.9,0,0,0,.168-1.481,2.9,2.9,0,0,0-.2-1.279,4.462,4.462,0,0,0-.954-1.032c0-.886-.012-1.683-.045-2.39s-.057-1.414-.079-2.109-.056-1.391-.078-2.109-.067-1.481-.123-2.311q-.168-.253.168-.741l.168-.168a2.663,2.663,0,0,0,.494-.83,16.014,16.014,0,0,1-.741-1.773,2.864,2.864,0,0,1-.168-1.862,4.255,4.255,0,0,1-.325-1.324,7.09,7.09,0,0,0-.248-1.324,1.43,1.43,0,0,0-.415-.909l1.234-1.324,9.906-.079c-.057,1.436-.067,2.782-.045,4.05a32.082,32.082,0,0,1-.123,3.635,2.474,2.474,0,0,1-.416.954,3.91,3.91,0,0,0-.494,1.111c.112.281.225.527.325.741a7.558,7.558,0,0,1,.326.74,1.14,1.14,0,0,1,.078.987,10.772,10.772,0,0,0-.246,1.324,11.16,11.16,0,0,1-.248,1.324l.584.415-.494.83a1.375,1.375,0,0,1,.449.662,5.116,5.116,0,0,1,.2,1.739,1.83,1.83,0,0,1-.583-.247,3.178,3.178,0,0,1-.416-.168.725.725,0,0,0-.325-.078l1.4,2.233a9.1,9.1,0,0,0-.247,1.739c-.056.774-.079,1.324-.079,1.649,0,1.043.022,2.233.079,3.556s.079,2.614.079,3.882q.084,1.986,0,3.8a14.307,14.307,0,0,1-.415,3.052l.662,4.454-1.571-1.649a5.748,5.748,0,0,0-.247,1.2c0,.191.056.314.168.37a.588.588,0,0,0,.37.045.4.4,0,0,1,.371.123,1.436,1.436,0,0,1,.583,1.234,12.958,12.958,0,0,1,.044,1.862,2,2,0,0,0,.449,1.616l-.493,2.8a2.731,2.731,0,0,0-.37,1.649c.022.662.045,1.234.045,1.739a5.68,5.68,0,0,0,1.323,3.467l.078,1.773Z" transform="translate(-2242.95 -305.76)" fill="#ab917c"/>
  </g>
  <g id="Group_168" data-name="Group 168" transform="translate(379.858 25.526)">
    <path id="Path_271" data-name="Path 271" d="M3488.547,355.863l-7.1,8.919a22.657,22.657,0,0,1-1.863-2.233,2.869,2.869,0,0,1-.37-.662.444.444,0,0,1,.168-.325,4.326,4.326,0,0,0-.987-.987.863.863,0,0,1-.292-.247q-.118-.168-.707-.909v.247c-.437-.494-.987-1.077-1.649-1.739s-1.335-1.346-2.019-2.064-1.335-1.414-1.941-2.109-1.1-1.257-1.481-1.694l-1.739-2.143a14.042,14.042,0,0,0-1.033-1.234c-.358-.381-.729-.8-1.11-1.234l-1.077-2.232v.325c-.437-.381-.729-.628-.864-.74a4.743,4.743,0,0,0-.449-.325l-.415-.583c-.28-.112-.5-.225-.707-.326a1.949,1.949,0,0,1-.617-.583,11.417,11.417,0,0,1-1.032-1.481,2.965,2.965,0,0,0-1.2-1.234,1.04,1.04,0,0,1-.326-.045,2.041,2.041,0,0,0-.415-.045c-.719-.774-1.459-1.515-2.233-2.233v-.909l.583-1.324h-1.234l.079.325c.112.168.112.258,0,.292a.313.313,0,0,1-.326-.123,6.624,6.624,0,0,1-1.358-.74,6.748,6.748,0,0,0-.952-.583,1.444,1.444,0,0,1-.741-1.234h-.415l-.494-.583-.583.909-.247-3.141.662.74c.932-1.156,1.885-2.311,2.849-3.467s1.964-2.345,3.019-3.557a1.905,1.905,0,0,0,1.279-.74,6.853,6.853,0,0,0,.865-1.324l.077-.078.079-.247a.32.32,0,0,1,.045-.168.485.485,0,0,0,.044-.247c1.044-1.156,2.054-2.3,3.019-3.422s1.918-2.266,2.849-3.422a7.053,7.053,0,0,0,1.234-.864,14.859,14.859,0,0,0,1.481-1.447c.494-.55.976-1.111,1.447-1.694a9.116,9.116,0,0,0,1.111-1.694v.079a2.553,2.553,0,0,0,.326-.707c.055-.191.111-.4.168-.617.168-.224.325-.426.493-.617s.359-.426.583-.707l.325.078a.558.558,0,0,1,.415-.168c.112,0,.348.011.707.045s.707.045,1.032.045c.056,0,.135-.056.247-.168l-.079-.079a4.726,4.726,0,0,0-.37-.617c-.135-.191-.067-.4.2-.617.056-.168.224-.247.494-.247l.583-.079a.866.866,0,0,1,.449.123c.135.079.18.067.124-.045v-1.077a2.585,2.585,0,0,1,.371-.617c.247-.359.539-.774.864-1.234s.662-.909.987-1.324.584-.729.741-.954l4.869,5.453.988.662-.248.247.987,1.156c-.325.325-.684.662-1.077.987l-1.155.987c-.831.381-1.279.785-1.358,1.2s-.235.976-.449,1.694a49.1,49.1,0,0,1-5.082,5.161,38.232,38.232,0,0,0-4.915,5.239c-.168.112-.359.236-.583.37a9.086,9.086,0,0,0-1.077.864l-.247.079-.168.247a3.958,3.958,0,0,0-.325.583,1.835,1.835,0,0,1-.079.583c-.437.381-.853.74-1.234,1.077s-.774.684-1.155,1.077a18.287,18.287,0,0,1,2.895.2,8.24,8.24,0,0,0,3.052-.2c.056,0,.246-.011.583-.045s.684-.056,1.077-.079.751-.067,1.11-.123a2.914,2.914,0,0,0,.707-.168l.493.078.079.168.741.079.662.325h1.155a2.521,2.521,0,0,1,.618-.079h.539a.7.7,0,0,0,.583-.662l3.142.583.078,9.088c-1.211.168-2.412.381-3.59.662a11.489,11.489,0,0,1-3.679.247c-.225-.112-.427-.224-.617-.325a1.374,1.374,0,0,0-.707-.168,2.217,2.217,0,0,1-.707-.168c-.3-.112-.606-.2-.908-.292a6.873,6.873,0,0,0-.865-.168.586.586,0,0,0-.583.2l-.662.325h-2.558c.549.606,1.077,1.234,1.57,1.9s1.021,1.324,1.57,1.986a1.313,1.313,0,0,0,.415.494,7.893,7.893,0,0,0,1.156,1.649q.909,1.077,2.02,2.188a23.918,23.918,0,0,0,2.232,1.986,4.179,4.179,0,0,0,1.773.954l-.168.83c.056,0,.079.056.079.168a1.641,1.641,0,0,0,.168,1.234,5.008,5.008,0,0,0,1.357,1.616,8.583,8.583,0,0,0,3.422,1.447c.381.438.774.853,1.156,1.234.415.4.852.841,1.346,1.335Z" transform="translate(-3451.4 -299.7)" fill="#ab917c"/>
    <path id="Path_272" data-name="Path 272" d="M3879.092,331.226l-1.078,1.818-3.141,2.558-3.8,3.22a6.7,6.7,0,0,0-1.818.74c-.83.438-1.772,1.021-2.85,1.739s-2.22,1.526-3.42,2.435-2.379,1.818-3.512,2.726-2.188,1.773-3.175,2.6-1.784,1.537-2.39,2.143a2.278,2.278,0,0,0-1.4.123,10.571,10.571,0,0,1-1.4.449c.057,1.268.124,2.188.2,2.771s.134,1.032.168,1.358a2.7,2.7,0,0,1-.078.954,11.9,11.9,0,0,1-.539,1.447,3.459,3.459,0,0,0-.415,1.571,1.471,1.471,0,0,0,.247.954c.168.191.382.426.662.707a2.094,2.094,0,0,1,.741.83l-.494,2.648c-.987.056-1.705.1-2.143.123a9.113,9.113,0,0,1-1.111,0,2.578,2.578,0,0,1-.954-.292c-.337-.168-.853-.415-1.571-.74l-1.076.83h-1.9c-.437.438-.774.628-.987.583s-.606-.135-1.155-.247c0-1.986.078-3.9.247-5.778s.381-3.8.661-5.778c.281-.056.371-.135.292-.247a.864.864,0,0,1-.124-.494c-.112-.281-.2-.55-.292-.83a2.672,2.672,0,0,1-.124-.83q0-5.2.168-10.153c.112-3.3.135-6.72.078-10.243.606-.28.932-.561.987-.864a7.546,7.546,0,0,0,.079-1.279,8.4,8.4,0,0,0-.325-1.817,3.179,3.179,0,0,0-.83-1.649l-.325-8.089h.325v-.079a7.3,7.3,0,0,0,.371-1.324,2.947,2.947,0,0,1,.538-1.234l-1.48-.83,1.48-3.141-.415-7.517,1.324.247c.83.718,1.806,1.47,2.928,2.266s2.131,1.5,3.018,2.109c.662.438,1.156.774,1.481.987l.247-.247,2.648,3.3,2.479.987,8.673,8.089c.718.438,1.4.909,2.064,1.4l1.986,1.481c.718.55,1.47,1.077,2.267,1.571a12.534,12.534,0,0,0,2.681,1.234l-1.234,2.311a2.587,2.587,0,0,0,.864-.2,7.414,7.414,0,0,1,1.11-.325,2.726,2.726,0,0,1,1.032-.045.635.635,0,0,1,.539.583,3.678,3.678,0,0,1,.785.583,1.9,1.9,0,0,0,.955.325l1.234,1.47Zm-14.866.74a8.113,8.113,0,0,1-1.862-1.234,3.1,3.1,0,0,1-1.11-1.9h-.416a18.669,18.669,0,0,0-1.985-1.571q-1.076-.74-2.188-1.447c-.74-.471-1.458-.965-2.143-1.481a8.052,8.052,0,0,1-1.693-1.694c-.437-.606-.9-1.212-1.358-1.818s-.976-1.212-1.525-1.817a.2.2,0,0,0,0,.325,5.979,5.979,0,0,1,.74,1.111,2.366,2.366,0,0,1,.325,1.111,4.227,4.227,0,0,1-.123.785,5.95,5.95,0,0,1-.292.954,1.562,1.562,0,0,1-.494.662.5.5,0,0,1-.662,0c0,.056.08.123.248.2s.247.18.247.292a.72.72,0,0,0,.2.583,2.3,2.3,0,0,0,.494.292,1.092,1.092,0,0,1,.7,1.2,2.476,2.476,0,0,1-.079.83l-.416-.168a.359.359,0,0,0,.079.2.353.353,0,0,1,.079.2,6.773,6.773,0,0,0-.864.83,3.149,3.149,0,0,0-.708,1.077c-.168.224-.3.415-.415.583l-.325.494a3.858,3.858,0,0,0-.079.74v.168c0-.056.079-.146.247-.292s.246-.236.246-.292c.281-.168.382-.314.326-.449s.057-.292.325-.449c.282-.224.494-.292.663-.2s.247.258.247.539v12.8l.494-.83c.28-.438.527-.841.74-1.2a4.812,4.812,0,0,1,.493-.707q.825-.488,2.559-1.447c1.155-.628,2.311-1.324,3.466-2.064a22.755,22.755,0,0,0,3.052-2.311,3.21,3.21,0,0,0,1.324-2.188l1.447-.426Z" transform="translate(-3797.024 -302.718)" fill="#ab917c"/>
    <path id="Path_273" data-name="Path 273" d="M4237.846,355.863l-7.1,8.919a22.731,22.731,0,0,1-1.863-2.233,2.826,2.826,0,0,1-.37-.662.447.447,0,0,1,.168-.325,4.326,4.326,0,0,0-.987-.987.867.867,0,0,1-.293-.247q-.116-.168-.707-.909v.247c-.437-.494-.986-1.077-1.648-1.739s-1.336-1.346-2.02-2.064-1.335-1.414-1.94-2.109-1.1-1.257-1.482-1.694l-1.739-2.143a13.944,13.944,0,0,0-1.032-1.234c-.358-.381-.729-.8-1.111-1.234l-1.077-2.232v.325c-.437-.381-.73-.628-.864-.74a4.4,4.4,0,0,0-.449-.325l-.415-.583c-.281-.112-.5-.225-.707-.326a1.96,1.96,0,0,1-.617-.583,11.561,11.561,0,0,1-1.033-1.481,2.965,2.965,0,0,0-1.2-1.234,1.041,1.041,0,0,1-.325-.045,1.424,1.424,0,0,0-.416-.045c-.718-.774-1.458-1.515-2.232-2.233v-.909l.584-1.324h-1.234l.078.325c.113.168.113.258,0,.292a.331.331,0,0,1-.324-.123,6.522,6.522,0,0,1-1.357-.74,6.731,6.731,0,0,0-.955-.583,1.446,1.446,0,0,1-.74-1.234h-.415l-.495-.583-.583.909-.246-3.141.661.74c.931-1.156,1.886-2.311,2.851-3.467s1.963-2.345,3.018-3.557a1.905,1.905,0,0,0,1.279-.74,6.912,6.912,0,0,0,.863-1.324l.078-.078.079-.247a.312.312,0,0,1,.045-.168.643.643,0,0,0,.045-.247c1.042-1.156,2.053-2.3,3.017-3.422s1.919-2.266,2.851-3.422a7.033,7.033,0,0,0,1.232-.864,14.706,14.706,0,0,0,1.481-1.447c.495-.55.977-1.111,1.448-1.694a9.153,9.153,0,0,0,1.11-1.694v.079a2.574,2.574,0,0,0,.327-.707c.054-.191.111-.4.168-.617.168-.224.325-.426.493-.617s.36-.426.584-.707l.325.078a.556.556,0,0,1,.415-.168c.113,0,.349.011.708.045s.708.045,1.032.045c.056,0,.134-.056.247-.168l-.079-.079a4.726,4.726,0,0,0-.37-.617c-.134-.191-.068-.4.2-.617.056-.168.225-.247.493-.247l.585-.079a.863.863,0,0,1,.447.123c.134.079.179.067.124-.045v-1.077a2.615,2.615,0,0,1,.369-.617c.249-.359.539-.774.866-1.234s.662-.909.987-1.324.583-.729.741-.954l4.868,5.453.989.662-.248.247.987,1.156c-.325.325-.684.662-1.077.987l-1.155.987c-.831.381-1.279.785-1.357,1.2s-.236.976-.45,1.694a48.953,48.953,0,0,1-5.082,5.161,38.165,38.165,0,0,0-4.914,5.239c-.17.112-.359.236-.584.37a8.92,8.92,0,0,0-1.078.864l-.246.079-.168.247a3.787,3.787,0,0,0-.325.583,1.806,1.806,0,0,1-.08.583c-.437.381-.852.74-1.234,1.077s-.773.684-1.155,1.077a18.3,18.3,0,0,1,2.9.2,8.231,8.231,0,0,0,3.05-.2c.057,0,.248-.011.584-.045s.685-.056,1.077-.079.752-.067,1.111-.123a2.9,2.9,0,0,0,.707-.168l.493.078.079.168.741.079.662.325h1.156a2.507,2.507,0,0,1,.616-.079h.539a.7.7,0,0,0,.584-.662l3.142.583.077,9.088c-1.212.168-2.411.381-3.589.662a11.473,11.473,0,0,1-3.681.247c-.223-.112-.426-.224-.616-.325a1.5,1.5,0,0,0-.707-.168,2.216,2.216,0,0,1-.708-.168c-.3-.112-.606-.2-.908-.292a6.866,6.866,0,0,0-.864-.168.6.6,0,0,0-.583.2l-.662.325h-2.558c.549.606,1.076,1.234,1.572,1.9s1.02,1.324,1.568,1.986a1.308,1.308,0,0,0,.416.494,7.843,7.843,0,0,0,1.157,1.649q.906,1.077,2.018,2.188a23.872,23.872,0,0,0,2.234,1.986,4.116,4.116,0,0,0,1.772.954l-.168.83c.057,0,.08.056.08.168a1.632,1.632,0,0,0,.168,1.234,5.009,5.009,0,0,0,1.356,1.616,8.587,8.587,0,0,0,3.422,1.447c.381.438.775.853,1.156,1.234.4.4.852.841,1.346,1.335Z" transform="translate(-4116.634 -299.7)" fill="#ab917c"/>
  </g>
  <g id="Group_169" data-name="Group 169" transform="translate(317.67 0)">
    <g id="b" transform="translate(3.251 0.452)">
      <path id="Path_274" data-name="Path 274" d="M2979.876,101.466c-.079-.247-.146-.595-.348-.684-1.694-.853-1.414-3.388-3.646-3.859,0,0-1.155-.348-1.188-.325-.651,0-1.044-.359-1.437-.393a3.346,3.346,0,0,1-1.087-.123c-2.255-1.212-1.1-1.088-2.379-1.93-.18-.112-1.537-1.212-1.93-1.582-.033-.034-.056-.079-.089-.112-1.639-.595-.528-.056-3.321-.987a7.981,7.981,0,0,1-1.6-.92c.023-.09-.561-.426-.561-.426a4.909,4.909,0,0,1-.708-.482,7.182,7.182,0,0,0-2.871-1.918c-2-.74-3.949-1.66-6.047-2.58a7.07,7.07,0,0,0-.686-.325c-.291.034-1.155-.987-1.155-.987s-1.178-2.031-1.918-2.322c-1.547-.628-8.179-3.467-9.749-4.061-.83-.3-6.037-.976-7.494-1.245,1,.034-1.414-.09-1.482.18a14.458,14.458,0,0,1-.639,2.435,34.349,34.349,0,0,0-.595,3.568c-.023.146-.482,4.5-.562,4.88-.235,1.638-.987,3.624-1,4.645,0,.09-.09,5.711-.135,5.789-1.638,2.794-1.189,4.3-.819,6.137-.505-.022.964.314,1.145.37,2.042.684,6.62,2.614,8.426,2.816,2.793.325,5.138,1.806,7.729,2.58a40.374,40.374,0,0,0,8.6,1.952c2.076.157,4.13.539,6.183.83,1.817.247,3.658.5,5.587.74a.6.6,0,0,1,.235.09l8.617,6.406c.145.112-.8-4.005-.65-4.073.471-.18.8.5,3.41,1.717a15.807,15.807,0,0,0,2.749,1.088c.482-1.874,1.223-7.214,1.335-7.449.471-.987.942-6.328.079-9.435Z" transform="translate(-2926.077 -76.2)" fill="#ab917c"/>
      <path id="Path_275" data-name="Path 275" d="M3058.9,413.379c-2.254-.18-7.381-.3-9.625-.426a15.848,15.848,0,0,0-6.406.449c-1.3.247-3.086.449-3.827.662-4.566,1.313-7.842.3-12.521.3-1.223,0-2.76.157-4.062.236a.5.5,0,0,1-.538-.483c-.022-.348.056-.752.034-.909-.18-1.75-.3-2.322-.393-4.095-.078-1.481-.247-3.556-.191-5.082-.01.4-.055-.8-.1-.864.325-.494-.124-1.582.045-1.84,0,0-.314-4.061-.325-4.286-.236-3.736-2.738-43.317-3-48.938-.022-.3.381-1.346.684-1.313,15.045,1.761,36.238,9.11,35.587,10.153-.022.5.057,8.336.27,8.661.539.853.292,2.749.393,4.432a9.422,9.422,0,0,0-.213,1.313c.146.325.359.415.348.74-.113,1.75-.292-.662.146,1.784-.124.18.112.931.123,1.257.326-.247.393,2.042.471,1.986.247.864.27,2.322.427,3.1.18.92,1.223,4.779.908,5.52-.448,1.088-.123-.269-.2.527-.561,1.369-.021,1.133-.358,2.468a.607.607,0,0,0-.023.2c.112.651.75,2.58.583,3.478a9.112,9.112,0,0,0,.035,2.468c.157,1.874.448,3.736.538,5.587.124,2.468-.078,4.959.628,7.394.449,1.548.663,3.175,1.043,4.757.191.572.157.853-.483.763" transform="translate(-3007.679 -316.435)" fill="#ab917c"/>
    </g>
    <g id="c" transform="translate(0 0.558)">
      <path id="Path_276" data-name="Path 276" d="M2982.72,408.376a4.8,4.8,0,0,1-.123-.583c0-.157.023-.247.089-.247,1.009-.415.057-.853.033-1.257-.055-2.917-.325-5.845-.381-8.762-.078-3.714-.055-7.416,0-11.129a25.481,25.481,0,0,1,.527-2.85,8.78,8.78,0,0,0-.123-1.761.392.392,0,0,1,0-.236c0-.325.078-.628-.057-.752-1.222-1.178-.8-2.648-.807-4.039-.034-3.332-.023-6.687-.056-10.03,0-.292-.269-.583-.449-.931-.023-.112-.034-.146.055-.2.977-.92,1.84-1.817,2.749-2.726a7.553,7.553,0,0,1,.8-.684.523.523,0,0,1,.831.393c0,.213.021.426.021.662.112,1.458.213,2.827.326,4.3.033.325.078.561.089.864v1.6c.022.482.034.886.056,1.357.035.561.09,1.043.125,1.627.325,6.552.65,12.981,1.009,19.409.27,4.959.6,9.918.886,14.966.09,1.492.2,2.906.27,4.387v.112c-.246,1.638.168,1.862.3,4.656a.62.62,0,0,1,.112.3c0,1.459-.033,2.917.023,4.387.078,1.761.246,3.523.416,5.284a6.517,6.517,0,0,1,.156.909.5.5,0,0,1-.583.538c-1.458-.213-3.175-.393-4.656-.651a.5.5,0,0,1-.415-.471c-.146-1.952-.2-3.837-.326-5.733-.247-3.915-.56-7.842-.751-11.847.213-.18.348-.247.482-.348-.2-.034-.381-.09-.583-.123a.1.1,0,0,1-.022-.09,1.014,1.014,0,0,0-.023-.3Z" transform="translate(-2971.906 -330.117)" fill="#dcc099"/>
      <path id="Path_277" data-name="Path 277" d="M2898.289,94.7c.562-2.614,1.1-5.251,1.684-8.044V86.6c.111-1.01.2-1.84.291-2.648,0,0-.022,0,.078-.056.348-1.088.594-2.109.853-3.153h0a18.454,18.454,0,0,1,1.01-1.986,8.444,8.444,0,0,1,1.582-1.571,1.21,1.21,0,0,1,.707.022c-.179.774-.482,1.458-.594,2.165q-.488,3.248-.808,6.5c-.022.236.381.527.595.8a.921.921,0,0,1,.124.415c-1.582.628-1.492,1.806-1.178,3.085l-.5-.034c-.236-.022,1.3,2.558.471,1.75-.247.662-.606.83-.4,1.178,1.123,1.9-1.694,3.153-.3,4.959.056.056-.022.213-.057.325-.359,1.032-.651,2.087-1.087,3.1a3.6,3.6,0,0,0,.347,3.276c-.213.269,10.21,2.614,10.187,2.962-.079,1.6-4.3,4.566-4.633,4.959-.416.471-8.224-3.141-8.852-3.478-.269-.146-.236-.3-.415-.348-.09-1.335-.112-2.636-.124-3.983a.521.521,0,0,0-.157-.236.327.327,0,0,1,.055-.213c.146-1.088.213-2.109.348-3.119.235-1.986.482-3.972.751-6.025.035-.213.057-.381.079-.527Z" transform="translate(-2897.101 -77.147)" fill="#c99c73"/>
      <path id="Path_278" data-name="Path 278" d="M3336.088,424.4c-.213.269,6.474,2.883,6.182,3.063-.662.381-1.963,1.256-2.289.864-.583-.684-3.051.292-3.208.415-.562.471-.831-2.053-.652-2.053-.111-1.324-.033,1.728-.033-2.289Z" transform="translate(-3286.813 -385.441)" fill="#c99c73"/>
    </g>
    <g id="d" transform="translate(22.31 75.024)">
      <path id="Path_279" data-name="Path 279" d="M3096.5,749.7c-.157.079-.348.124-.538.213-.034-2.131.079-2.311,1.986-3.063.022,0,.033-.022.056-.022,2.49-1.3,4.891-2.637,7.382-3.77a12.826,12.826,0,0,1,4.039-1.032,45.313,45.313,0,0,1,4.926.146c.65.022,1.334.247,1.626-.74.09-.292.852-.527,1.313-.538a1.277,1.277,0,0,1,.909.651c.471.886.808,1.818,1.222,2.749.3.684.988,1.257.483,2.165-.057.09.078.292.212.471a.523.523,0,0,1-.022.617c-.809,1.043-.954.987-2.042.112a8.624,8.624,0,0,1-1.043-1.066c-.921-.864-1.919-.864-1.919-.157a12.212,12.212,0,0,0,.381,2.423.666.666,0,0,0,.158.3,20.522,20.522,0,0,1,1.548,1.369.777.777,0,0,1-.023.752.752.752,0,0,1-.75.056,11.108,11.108,0,0,0-1.729-1.425c.112.269.146.628.348.83.538.539,1.334.954.807,2-.954-.808-1.9-1.537-2.771-2.345-1.122-1.043-.3-2.367-.393-3.714-.415-.292-.3-.3-.359-.359-2.2.247-4.431.449-6.642.752-.022,0-.033.123-.079.325.325,0,.663-.034.976-.056a.524.524,0,0,1,.506.292c.123.292.269.628.381.92,0,.09-.2-.034-.2-.034-.471.112-1.1-.449-1.246.449a1.294,1.294,0,0,0,.955,1.515c.235.09.415.359.65.707-.09.987-.538.651-.83.359a3.864,3.864,0,0,1-1.437-.236c.27.325.5.684.8.987.157.157.348.3.527.471a.5.5,0,0,1-.18.886,1.139,1.139,0,0,1-1.392-.594c-.078-.112-.146-.269-.235-.292-1.549-.236-1.627-1.492-1.818-2.648-.09-.561-.236-1.178-.326-1.874a.5.5,0,0,0-.381-.426,1.083,1.083,0,0,1-.359-.112c-1.717.471-3.445.92-5.139,1.458-.158,0-.225.325-.337.527Z" transform="translate(-3095.96 -740.891)" fill="#877668"/>
    </g>
    <g id="e" transform="translate(2.952)">
      <path id="Path_280" data-name="Path 280" d="M3301.83,413.678c.033.022.079.034.09.056a23.811,23.811,0,0,1,1.963,1.548.894.894,0,0,1-.618.146c-1.918-.987-3.792-1.952-5.677-2.962-.471-.236-.886-.393-1.39-.595a.136.136,0,0,0-.09-.022c-.482-.112-.909-.18-1.313-.269a.967.967,0,0,1-.213-.09,2.161,2.161,0,0,1-.482-.482,5.934,5.934,0,0,1,.864-.18.453.453,0,0,1,.27.034c.8.325,1.581.662,2.378,1.01,1.392.572,2.76,1.167,4.219,1.806Z" transform="translate(-3252.512 -372.826)" fill="#6d5744"/>
      <path id="Path_281" data-name="Path 281" d="M2931.911,319.395a1.168,1.168,0,0,1,.326-.595,51.119,51.119,0,0,0,5.677,1.414c2.794.325,5.139,1.806,7.73,2.581a40.411,40.411,0,0,0,8.347,1.93c.5.034,1.009.09,1.515.157,3.713.527,6.91.931,10.713,1.481h.034a12.159,12.159,0,0,1,1.28.3.716.716,0,0,1,.18.112c.111.112.235.18.348.292,0,.056.021.146-.079.146-.236,0-.381.022-.538.022h-.112c-1.179-.179-2.322-.381-3.5-.539a7.681,7.681,0,0,0-1.279-.022,7.754,7.754,0,0,1-.807.034.134.134,0,0,1-.09-.022c-.91-.179-1.807-.393-2.7-.5-2.434-.292-4.745-1.122-7.248-1.133-1.6,0-3.2-.83-4.8-1.3-1.762-.527-3.534-1.043-5.387-1.582-2.7-.662-5.316-1.313-7.919-2.019a7.629,7.629,0,0,1-1.695-.74Z" transform="translate(-2930.948 -291.131)" fill="#6d5744"/>
      <path id="Path_282" data-name="Path 282" d="M2923.952,122.24c-.09-.236-.191-.426.045-.471.325-.09.427-.426.8-.471-.236-.471-.607-.8-.326-1.313.146-.236.427-.236.8.09-.326-.561-.841-.886-.561-1.548.145-.281.325-.236.561-.381a.734.734,0,0,1-.191-1.122,5.027,5.027,0,0,1,.561-.381,1.54,1.54,0,0,0,.427-.325c.281-.191.426-.471.751-.516s.426.146.562.325c.145-.191.09-.381.145-.606a5.779,5.779,0,0,1,.146-1.313c.236-.651.28-1.313.471-1.963a3.246,3.246,0,0,0,.281-1.122,3.8,3.8,0,0,0,.146-.561.611.611,0,0,1,.325-.516,1.109,1.109,0,0,1,.381-.045c.089.045.146.045.19.146a3.077,3.077,0,0,1,.236.752,1.212,1.212,0,0,0,.19.381c.09.09.191.09.325.191.046,0,.091.09.146.09a.159.159,0,0,1,.089.045.157.157,0,0,0,.045-.09,1.088,1.088,0,0,1,1.123-.236.709.709,0,0,1,.281.516.517.517,0,0,0,.044.28.356.356,0,0,0,.191.191h.281a1.5,1.5,0,0,0,.931-.606.887.887,0,0,1,.471-.09.628.628,0,0,1,.326.191c.045.09.045.146.09.236a.6.6,0,0,1-.09.381c-.045.09-.045.146-.146.191a1.628,1.628,0,0,1-.382.28,7.692,7.692,0,0,1-.93.516.953.953,0,0,1-.325.09c-.236.045-.427-.045-.651.045-.145.146-.235.281-.382.426a1.026,1.026,0,0,1-.28.191,3.831,3.831,0,0,1-.652.191c-.145.045-.235.045-.28.191a1.079,1.079,0,0,1-.146.381c-.189.28-.47.28-.8.28a1.646,1.646,0,0,0-.562,1.268,1.639,1.639,0,0,1-.381.886l-.044.045c.191-.236.281-.561.707-.381.235.236.191.471.325.752a1.173,1.173,0,0,0,.472.841,7.451,7.451,0,0,0,.325,2.244v.381a1.174,1.174,0,0,0,.09.426c.044.146.044.191.09.325.043.191.145.325.19.516,0,.931-.146,1.739-.19,2.67v.381a1.627,1.627,0,0,1-.046.471,2.231,2.231,0,0,1-.09.325.756.756,0,0,1-.145.325.979.979,0,0,1-.146.191c-.089.146-.146.236-.235.381a3.458,3.458,0,0,0-.28.426c0,.09-.046.146-.046.191l-.146.281a.96.96,0,0,1-.146.191.624.624,0,0,1-.28.191,2.074,2.074,0,0,1-1.077.045c-.428-.236-.707-.651-1.223-.841a1.287,1.287,0,0,1-.8.931.776.776,0,0,0-.516.752.7.7,0,0,1-.044.325.623.623,0,0,0,0,.707.852.852,0,0,1,.044.325c0,.325-.145.561-.044.886a1.635,1.635,0,0,1-.089.8,2.057,2.057,0,0,0-.09.561,1.217,1.217,0,0,1-.089.381.761.761,0,0,1-.988.516.355.355,0,0,1-.19-.191,14.162,14.162,0,0,1,.19-4.263,10.787,10.787,0,0,0-.044-1.683,3.725,3.725,0,0,1,.189-2.479,2.411,2.411,0,0,0-.146-1.032v-.561c.191-.426-.044-.8.09-1.223.191-.1.191-.146.146-.2Z" transform="translate(-2923.416 -105.756)" fill="#6d5744"/>
      <path id="Path_283" data-name="Path 283" d="M3227.113,193.11a3.138,3.138,0,0,1,.964.247,10.248,10.248,0,0,1,1.066.46c.1.079.146.1.247.18a1.925,1.925,0,0,1,.606.247c.179.079.28.1.459.18.247.213.572.18.785.426a.406.406,0,0,0,.213.034,12.308,12.308,0,0,0,1.392.606,1.2,1.2,0,0,1,.359.886.364.364,0,0,1-.393.247c-.214-.034-.248-.359-.573-.179-.213.078-.359-.079-.572-.1a.347.347,0,0,0-.146.034.6.6,0,0,0-.246.146c-.1.078-.213.1-.326.179a.574.574,0,0,0-.247.18.207.207,0,0,1-.146.079c-.46-.079-.46-.426-.639-.752-.079-.1-.146-.146-.213-.247-.1-.1-.146-.213-.28-.28l-.213-.213a1.842,1.842,0,0,1-.819-.572c-.078-.034-.078-.079-.146-.1a1.562,1.562,0,0,1-.392-.325,1.678,1.678,0,0,0-.685-.46l-.213-.1a1.023,1.023,0,0,0-.427-.213,3.106,3.106,0,0,1-.606-.179,2.078,2.078,0,0,1-1.245-.886.878.878,0,0,1-.079-.28.6.6,0,0,1,.146-.247.546.546,0,0,1,.247.034,1.917,1.917,0,0,0,.887.46c.426-.079.639.18.964.393.1.056.168.123.27.123Z" transform="translate(-3190.809 -178.645)" fill="#6d5744"/>
      <path id="Path_284" data-name="Path 284" d="M3052.369,476.422c-.326.292-.729.5-.729,1.021-.247.325-.437.617-.651.942-.146.078-.325,0-.437.146a.6.6,0,0,0-.18.258l-.079.146c-.225.292-.437.471-.359.83.034.179-.079.438-.225.438-.763.034-.616.651-.829,1.133a.337.337,0,0,1-.258.079c-.325-.247-.5-.034-.651.146-.5.841-1.312,1.492-1.493,2.581-.246.179-.649.078-.649.583-.08.146-.179.258-.292.258-.83-.079-.875.617-1.167,1.167-.034.179-.146.292-.079.5a.357.357,0,0,1,.034.179.406.406,0,0,1-.292.438.32.32,0,0,1-.179-.034l-.113-.112a.173.173,0,0,0-.034-.078l-.033.034c0,.079-.034.146-.034.224a.524.524,0,0,1-.146.224c-.471.18-.471.617-.618,1.021-.179.359-.291.763-.763.841-.078-.034-.111-.078-.179-.078a2.157,2.157,0,0,1-.18.4,13.843,13.843,0,0,1-1.414,2.042c-.325.292-.359.651-.549,1.021a4.967,4.967,0,0,1-.618.583,2.351,2.351,0,0,0-.729,1.346c-.359.763-1.055,1.234-1.312,2.042a1.859,1.859,0,0,0-.583.763,2.27,2.27,0,0,1-.583.729,11.784,11.784,0,0,0-1.38,2.221,4.121,4.121,0,0,1-.247.438,1.356,1.356,0,0,0-.4.617c-.112.224-.325.224-.5.4-.078.112-.146.146-.224.258l-.112.112a3.25,3.25,0,0,0-.146.292c-.078.146-.225.258-.325.4-.213.505-.618.943-.55,1.56a2.2,2.2,0,0,0-.4,1.055,2.466,2.466,0,0,1-.326.729,2.37,2.37,0,0,1-.078.258.877.877,0,0,1-.146.325,10.286,10.286,0,0,0-.618,2.289,1.77,1.77,0,0,0-.326,1.526c-.034.078-.034.112-.078.146-.078.112-.146.146-.225.258a.527.527,0,0,0-.033.224c0,.292-.146.471-.146.763a2.292,2.292,0,0,1-.325.987.912.912,0,0,0-.078.325.715.715,0,0,0,.078.292.339.339,0,0,1,.034.146.586.586,0,0,0,.224.325c.438.247.808.5.7,1.133a.6.6,0,0,0,.18.875,2.206,2.206,0,0,0,.875.617c.112.034.145.079.258.112.078.034.078.078.179.146.145.146.224.112.325-.034.034-.078.079-.078.146-.146.583-.224.942.146,1.345.5a.315.315,0,0,1,.113.247,2.546,2.546,0,0,1,.034.583.539.539,0,0,1-.146.112c-.224.034-.359-.112-.55-.18.326.359.472.7.112,1.088a.692.692,0,0,0-.033.258v.146a.528.528,0,0,1,.033.224v.146c-.033.146-.145.224-.212.325a.508.508,0,0,0-.146.292.518.518,0,0,1-.146.224c-.729,0-.909-.213-.7-.83a6.548,6.548,0,0,1,.213-.651c.079-.146.146-.292-.079-.4-.179-.112-.325-.112-.471.146a.556.556,0,0,1-.247.146.86.86,0,0,1-.291-.034.916.916,0,0,1-.326-.179.649.649,0,0,1-.145-.224,3.3,3.3,0,0,1-.112-.325.554.554,0,0,0-.146-.18,2.826,2.826,0,0,1-.292-.325.969.969,0,0,0-.078-.146c-.146-.437-.617-.5-.842-.83l-.18-.179a.841.841,0,0,1-.224-.146.911.911,0,0,1-.146-.078c-.079-.034-.079-.079-.146-.112-.291-.18-.695-.146-.807-.583a24.323,24.323,0,0,1-.517-3.489c-.079-.438.18-.808.146-1.234a.161.161,0,0,0-.078-.146.915.915,0,0,1-.146-.078c-.033,0-.078-.034-.111-.034s.033.034.078.034a.3.3,0,0,1,.225.146.783.783,0,0,1,.033.292c-.213.651-.549.763-1.021.437a2.206,2.206,0,0,0-.505-.4,1.024,1.024,0,0,1-.179-.729.693.693,0,0,1,.079-.292,1.96,1.96,0,0,1,.112-.258c.079-.146.18-.146.247-.258a.291.291,0,0,1-.146-.034.544.544,0,0,1-.111-.146,1.917,1.917,0,0,1-.034-.438,2.59,2.59,0,0,1-.078-.55,2.221,2.221,0,0,1,.034-.471c.033-.112.033-.179.111-.258a.694.694,0,0,1,.472-.112,5.231,5.231,0,0,1,.729.437c.033.112.146.146.033.224.146-.079,0-.18.034-.325a.572.572,0,0,1,.079-.258c.18-.258.18-.55.359-.808a.888.888,0,0,1,.292-.146c.078-.034.146-.078.224-.112a1.739,1.739,0,0,0,.225-.079h.112a.179.179,0,0,0,.08-.034.544.544,0,0,1,.145-.4.555.555,0,0,1,.146-.112c.8-.4.831-1.234,1.156-1.9.078-.55.5-.808.763-1.234a.82.82,0,0,1,.079-.18,1.792,1.792,0,0,0,.18-1.055v-.179c.033-.146.078-.224.113-.359a1.98,1.98,0,0,1,.291-.437.429.429,0,0,1,.112-.146,2.13,2.13,0,0,1,.4-.326c.112-.112.224-.146.325-.258a.266.266,0,0,0,.146-.146.451.451,0,0,0,.034-.224c0-.112.033-.112.033-.18a1.6,1.6,0,0,1,.18-.359,4.341,4.341,0,0,1,.584-.987.634.634,0,0,1,.224-.146c.292-.224.584-.292.763-.583.583-.224.651-.841,1.054-1.2l.179-.179c.225-.224.326-.438.618-.583a.689.689,0,0,0,.4-.763.473.473,0,0,1,.079-.258c.045-.078.079-.078.146-.146a1.81,1.81,0,0,0,.83-.987,4.073,4.073,0,0,1,.584-1.021,18.831,18.831,0,0,0,2.075-2.951,1.961,1.961,0,0,1,.4-.4c.246-.224.212-.5.357-.808a.358.358,0,0,0,.034-.179.526.526,0,0,1,.146-.224,1.177,1.177,0,0,1,.292-.325,2.415,2.415,0,0,0,.684-1.021c.326-.4.079-.942.359-1.346a2.436,2.436,0,0,0,.4-.617c.078-.112.112-.224.225-.292.079-.112.179-.146.247-.258.079-.146.112-.258.18-.359a.621.621,0,0,1,.179-.146.533.533,0,0,1,.146-.18l.112-.225c.079-.112.112-.179.18-.292l.146-.146c.223-.179.437-.224.583-.4a.527.527,0,0,0,.112-.146,2.28,2.28,0,0,1,.7-.55c.224-.079.4-.034.583-.146,1.087-1.021,1.559-2.479,2.613-3.534.079-.034.079-.079.146-.112a.712.712,0,0,0,.292-.146,4.206,4.206,0,0,1,1.785-1.862,1.21,1.21,0,0,1,.225-.146,21.093,21.093,0,0,1,1.93-1.425c.549-.4,1.233-.7,1.379-1.459a.392.392,0,0,1,.292-.224,12.467,12.467,0,0,1,2.581-1.2c.146-.034.292-.112.359,0,.112.112-.079.112-.112.224a.367.367,0,0,0-.033.179c-.146.079-.326,0-.439.258-.033.325-.4.325-.5.583a3.276,3.276,0,0,1-1.133,1.346,7.4,7.4,0,0,1-1.133.987,3.338,3.338,0,0,0-.359.079c-.079.079-.079.18-.112.224a2.253,2.253,0,0,0-1.235.875c.112.247-.146.258-.358.325h.022Z" transform="translate(-3014.135 -426.505)" fill="#6d5744"/>
      <path id="Path_285" data-name="Path 285" d="M3013.3,200.131a3.112,3.112,0,0,0-.393-.931c-.247-.426-.034-.931-.214-1.4-.178-.426-.391-.83.035-1.257.034-.079.078-.112.112-.18.651-.213.752-.146,1.01.583a2.973,2.973,0,0,1-.112.651c-.214.179-.146.393-.112.583a1.034,1.034,0,0,0,.718-.325.281.281,0,0,1,.079-.112c.213.18.292.359,0,.5a.242.242,0,0,0-.079.393c.247.325,0,.684.146,1.01a4.33,4.33,0,0,0,.583.864c.078.078-.034.213-.078.292a1.835,1.835,0,0,0,.078,1.515c-.292.112-.18.471-.393.651-.393-.112-.213-.5-.359-.8a1.412,1.412,0,0,1-.079-.5c.146-.471-.034-.684-.5-.752-.112,0-.146-.146-.18-.292a1.555,1.555,0,0,1-.258-.494Z" transform="translate(-3002.49 -182.334)" fill="#6d5744"/>
      <path id="Path_286" data-name="Path 286" d="M3197.764,251.226c.157-.18.212-.426.493-.426.18.179.034.37.056.583a1.144,1.144,0,0,1,.034.337.684.684,0,0,1,.057.281.632.632,0,0,1-.157.337c-.123.09-.213.18-.337.18a.076.076,0,0,1-.056-.034s-.034.034,0,.034.033.056.033.09a.552.552,0,0,1-.056.179,1.5,1.5,0,0,1-.74.123.529.529,0,0,1-.158-.3.915.915,0,0,1,.034-.426c.035-.09.124-.123.056-.247a.529.529,0,0,1,.18-.494.781.781,0,0,1,.46-.157l.034-.034c.034.056.067.034.067-.022Z" transform="translate(-3166.239 -230.76)" fill="#6d5744"/>
      <path id="Path_287" data-name="Path 287" d="M3022.182,503.745c0-.359-.045-.684-.045-1.043,0-.684-.044-1.268-.044-1.9-.045-.449-.135-.819-.18-1.268.313-.135.358-.5.18-.954-.135-.269.044-.269-.124-.583a2.924,2.924,0,0,1-.18-.684v-.18a1.722,1.722,0,0,1-.045-.5,2.046,2.046,0,0,0,.18-.5.976.976,0,0,1,.045-.359,1.384,1.384,0,0,0-.135-.853.756.756,0,0,1-.045-.314.5.5,0,0,0,.045-.359.643.643,0,0,1-.09-.314.408.408,0,0,1-.044-.224.707.707,0,0,1,.314-.314.844.844,0,0,1,.358-.09c.09,0,.135.045.225.045.134.045.179.135.269.224a.822.822,0,0,1,.09.314c0,.09-.045.135-.045.225a.947.947,0,0,1-.18.269.355.355,0,0,0-.044.18c.044.18.089.224.269.135.359-.269.134-.729.4-1.043.36-.09.448.18.684.4a1.176,1.176,0,0,1-.224,1.492c-.36.314-.134.729,0,1.133,0,.628-.449,1.178-.225,1.818,0-.4-.179-.853.27-1.223a.9.9,0,0,1,.683-.135c.505.853.315,1.447-.5,2.087.314.135.685-.135,1.044.135a.38.38,0,0,1,.089.314,3.412,3.412,0,0,0-.269.583.408.408,0,0,1-.359.179c-.18.045-.18.135-.18.269,0,.045.045,0,.045-.045.044-.09.089-.09.224-.135.27.09.4.314.583.5a3.829,3.829,0,0,1,.314,1.178.987.987,0,0,1-.045.359.5.5,0,0,1-.4.135.408.408,0,0,0-.314.135.613.613,0,0,1,.18-.135,3.954,3.954,0,0,1,.729,0,.523.523,0,0,0,.45.09.775.775,0,0,1,.448.045,2.147,2.147,0,0,1,.359,1.582c-.179.4-.179,1-.908.729-.09-.045-.09-.09-.18-.179s-.18-.18-.27-.18a.044.044,0,0,0,.045.045.231.231,0,0,1,.179.09l.135.135a.654.654,0,0,1,.09.314,6.714,6.714,0,0,1-.36,1.268c-.179.269-.449.4-.4.774-.045.359.09.684.045,1.043a.337.337,0,0,0,.045.359.782.782,0,0,0,.224.18.867.867,0,0,1,.045.314c0,.09-.045.179,0,.045a.14.14,0,0,0,.089-.045.38.38,0,0,1,.314,0,.443.443,0,0,1,.358.269.333.333,0,0,1,0,.4.63.63,0,0,1-.269.09l-.135.135a.768.768,0,0,0-.314.583c.629.4.539.954.4,1.537,0,.18.046.269-.043.449a.559.559,0,0,1-.36.269h-.044a.6.6,0,0,0,.224-.135.6.6,0,0,1,.18-.135.4.4,0,0,1,.223.045,1.445,1.445,0,0,1,.225.269,1.1,1.1,0,0,1-.314,1.043,2.087,2.087,0,0,0-.134.314c-.136.539,0,1.088-.18,1.627-.045.09-.045-.045,0,.09.044.09.044-.045.134-.045.359-.045.505.135.685.4a.49.49,0,0,1,0,.359,1.97,1.97,0,0,1-1.042,1,.8.8,0,0,0-.27.4,1.886,1.886,0,0,0-.09.5.858.858,0,0,1-.224.449,1.455,1.455,0,0,0-.135.269c.089.135.269.135.4.225a1.178,1.178,0,0,1,.315.774.576.576,0,0,1-.18.449.569.569,0,0,1-.27.18H3025c-.044,0-.089-.045-.134-.09s-.09-.045-.045,0a.267.267,0,0,1,.045.179c-.045.18-.09.314.045.449a.95.95,0,0,1,.18.269,1.609,1.609,0,0,1,.179.4,1.2,1.2,0,0,1-.134.685,2.274,2.274,0,0,1-.539.583,1.9,1.9,0,0,1-1,.09c-.09-.045-.135-.045-.179-.135-.135-.269-.09-.505-.27-.774a17,17,0,0,1-.729-4.937,5.281,5.281,0,0,0-.135-1.672,6.755,6.755,0,0,1,.135-2.984,29.813,29.813,0,0,0,.27-3.355,6.11,6.11,0,0,0-.5-2.67,18.436,18.436,0,0,1-.045-2.221v-.449a2.179,2.179,0,0,0,.045-.763Z" transform="translate(-3010.673 -446.053)" fill="#6d5744"/>
      <path id="Path_288" data-name="Path 288" d="M3015.012,380.158a5.716,5.716,0,0,1-.381-2.491,3.253,3.253,0,0,0-.09-1.458c-.191-.382.09-.752-.09-1.133a3.935,3.935,0,0,0-.146-1.032,1.207,1.207,0,0,1,.146-.9.48.48,0,0,1,.381-.146c.146.045.236.09.28.236a2.251,2.251,0,0,0,.326.752c.089.09.089.191.191.28a1.366,1.366,0,0,1,.045.426.608.608,0,0,1-.045.28v.146a.1.1,0,0,0,.089.09c.046.045.091.045.146.146a.713.713,0,0,1-.089.516,2.1,2.1,0,0,0-.089.516.561.561,0,0,0,.045.471.952.952,0,0,1,.19.707c-.045.191-.146.281-.089.471v.426a2.053,2.053,0,0,0-.09.516v.236a1.444,1.444,0,0,1-.325.942,2.425,2.425,0,0,1-.4,0Z" transform="translate(-3004.087 -339.25)" fill="#6d5744"/>
      <path id="Path_289" data-name="Path 289" d="M3020.408,442.351c-.224-.325-.325-.1-.392.034s.066.325-.135.426c-.393-.393-.225-.886-.2-1.324a1.4,1.4,0,0,0-.034-.527,7.306,7.306,0,0,1-.034-1.716,6.849,6.849,0,0,1,.169-2.177c.067-.067.1-.067.2-.067.46.1.393.393.3.662a1.146,1.146,0,0,0,.067,1.088.872.872,0,0,1,.135.83,1.716,1.716,0,0,0-.034.83,2.2,2.2,0,0,0-.033.46c0,.1.033.067.135.067a.912.912,0,0,1-.146,1.414Z" transform="translate(-3008.787 -396.07)" fill="#6d5744"/>
      <path id="Path_290" data-name="Path 290" d="M2944.222,113.23c.471-.135.5-.236.168-.628-.034-.034,0-.1,0-.1a1.735,1.735,0,0,1,.336-.37,7.674,7.674,0,0,1,.134-1.963c.168,0,.27-.067.4-.067.471.034.527.236.4.606a3.423,3.423,0,0,1-.3.606.336.336,0,0,0,.034.426c-.1.37.135.7.033,1.066a1.451,1.451,0,0,0-.067.527c0,.135-.033.236-.033.37a.426.426,0,0,1-.034.2.427.427,0,0,0-.034.2.2.2,0,0,1-.033.135c0,.067-.035.067-.035.135-.022.045-.044.09-.067.135a.918.918,0,0,0-.1.426v.168c-.067.2.034.37,0,.606a.469.469,0,0,1-.662.236c-.067-.067-.1-.067-.134-.168a1.061,1.061,0,0,1,.134-.662V114.8a1,1,0,0,0-.134-.426.2.2,0,0,1-.034-.135c.034-.067.034-.1.067-.168.124-.3-.079-.5-.045-.841Z" transform="translate(-2941.868 -105.845)" fill="#6d5744"/>
      <path id="Path_291" data-name="Path 291" d="M2951.192,72.918c-.28-.056-.28-.247-.179-.46a1.583,1.583,0,0,1,1.884.056c.247.157.18.28,0,.426a.5.5,0,0,1-.213.056.766.766,0,0,0-.157.09v.123a1.755,1.755,0,0,0,.056.337,1.412,1.412,0,0,1-.033.808c-.213.213-.427.4-.617-.034-.034-.179.056-.247.056-.4-.034-.034-.034-.056-.056-.123.033-.056.033-.09.056-.09h0c.033.056-.09,0-.034.034-.034.09.034.157.056.247a.507.507,0,0,1-.157.247c-.336.056-.46-.123-.55-.37-.055-.337-.313-.617-.111-.942Z" transform="translate(-2947.862 -72.174)" fill="#6d5744"/>
      <path id="Path_292" data-name="Path 292" d="M2949.257,89.806v-.28c0-.034.034-.067.067-.1a.508.508,0,0,0,.1-.157c.034-.034.068-.034.1-.067a.255.255,0,0,1,.124.034c.158.191.1.471.4.5.067,0,.1,0,.123.034.1.1-.19.247.1.314.034.1.067.123.034.224-.314.157-.7.247-.471.752a.131.131,0,0,1,0,.157c-.068.157-.191.191-.314.247a.175.175,0,0,1-.156.067.31.31,0,0,1-.247-.191,2.935,2.935,0,0,1,0-1.29c.079-.056.168-.09.134-.247Z" transform="translate(-2946.173 -87.29)" fill="#6d5744"/>
      <path id="Path_293" data-name="Path 293" d="M2991.4,79.2a3.963,3.963,0,0,0,1.335-.18,2.292,2.292,0,0,1,1.515.1c.034.067.067.067.067.146-.034.1-.1.146-.213.213-.068.034-.1.067-.18.1a.329.329,0,0,0-.1.247,1.007,1.007,0,0,1-.067.348.237.237,0,0,0,0,.213c.146.348-.034.46-.348.494a.879.879,0,0,1-.427-.067.82.82,0,0,1-.146-.1l.034.034a1.147,1.147,0,0,1,.146.314.851.851,0,0,1-.067.28.42.42,0,0,1-.146.1c-.313,0-.348-.281-.561-.46-.18-.18-.314-.314-.314-.527a2.6,2.6,0,0,0-.527-1.257Z" transform="translate(-2983.772 -78.178)" fill="#6d5744"/>
      <path id="Path_294" data-name="Path 294" d="M3043.068,94.538c-.1.763-.168,1.481-.2,2.289a.246.246,0,0,1-.236.146.71.71,0,0,1-.416-.213.468.468,0,0,1-.067-.359.953.953,0,0,1,.236-.359,1.23,1.23,0,0,0-.034-.617c-.1-.538-.348-.8-.887-.538-.1.034-.134.079-.235.079h-.134a.288.288,0,0,0-.281.034.182.182,0,0,1-.133.079.573.573,0,0,1-.236-.034c-.068-.034-.068-.079-.1-.146a.666.666,0,0,1,.135-.651c.281-.213.55-.112.853-.146a3.874,3.874,0,0,1,1.739.438Z" transform="translate(-3027.195 -91.64)" fill="#6d5744"/>
    </g>
  </g>
</svg>
