<?xml version="1.0" encoding="utf-8"?>
<!-- Generator: Adobe Illustrator 27.2.0, SVG Export Plug-In . SVG Version: 6.00 Build 0)  -->
<svg version="1.1" id="a" xmlns="http://www.w3.org/2000/svg" xmlns:xlink="http://www.w3.org/1999/xlink" x="0px" y="0px"
	 viewBox="0 0 4597.1 1061.5" style="enable-background:new 0 0 4597.1 1061.5;" xml:space="preserve">
<style type="text/css">
	.st0{fill:#AB917C;}
	.st1{fill:#DCC099;}
	.st2{fill:#C99C73;}
	.st3{fill:#877668;}
	.st4{fill:#6D5744;}
</style>
<g>
	<path class="st0" d="M468,540.1c-0.5,7.9-0.7,15.9-0.7,24.3s-0.2,16.7-0.7,25s-1.6,16.4-3.3,24.3c-1.7,7.9-4.3,15.2-7.7,22.1
		c1,2.9,2.6,6.7,4.8,11.4s3.6,8.5,4,11.4c0.5,16.7,0.2,30.4-0.7,41.2c-1,10.8-2.2,20.2-3.7,28.3c-1.5,8.1-3.2,15.8-5.2,23.2
		s-3.4,15.9-4.4,25.8l8.1-17.7l4.4-0.7l-1.5,58.1l1.5,1.5c-1.5,5.4-2.6,12.1-3.3,20.2s-1.3,16.7-1.8,25.8
		c-0.5,9.1-0.7,17.9-0.7,26.5v21.7h-16.2l-39-31.7c0.5-2.5-0.4-4.5-2.6-6.3c-2.2-1.7-4.8-3.6-7.7-5.5c-2.9-2-5.8-3.9-8.5-5.9
		c-2.7-2-4-4.7-4-8.1c-6.9-5.9-14-12.4-21.3-19.5c-7.4-7.1-15.1-14.1-23.2-21c-8.1-6.9-16.2-13.1-24.3-18.8s-16.3-9.9-24.7-12.9
		l11.8-7.4c-3.4-5.9-7.1-9.7-11-11.4c-3.9-1.7-8.3-4.3-13.2-7.7c-13.7-8.3-28.6-19-44.5-32c-15.9-13-29.6-25.4-40.9-37.2
		c-4.4-4.9-8.7-11.2-12.9-18.8c-4.2-7.6-10.2-11.9-18-12.9l-13.2-13.2h-2.9c-3.9-4.4-7-9.4-9.2-15.1c-2.2-5.6-5.3-10.4-9.2-14.4
		c0.5-1.5,0.5-3.3,0-5.5c-0.5-2.2-1-2.8-1.5-1.8l-5.9,2.9l-1.5,3.7l-6.6-5.2c-6.4-4.4-10.3-8.1-11.8-11c-1.5-2.9,0.7-5.2,6.6-6.6
		l-16.2-2.2l-6.6,3.7c-1,0-1.3-0.6-1.1-1.8c0.2-1.2,0.4-2.5,0.4-3.7c0-1.2-0.1-2.2-0.4-2.9c-0.2-0.7-1.1-0.4-2.6,1.1l-8.1-7.4
		l-1.5-5.2c10.8-12.8,21.7-25.5,32.8-38.3c11-12.8,22.2-25.5,33.5-38.3c4.4-1,9.3-1.3,14.7-1.1c5.4,0.2,9.3-2.3,11.8-7.7l-2.9-14
		c0.5-1,1.2-2.5,2.2-4.4c1-2,1.2-3.4,0.7-4.4c1.5-1.5,5.6-5,12.5-10.7c6.9-5.6,15-12.5,24.3-20.6s19.1-16.9,29.4-26.5
		s20-19,29.1-28.3c9.1-9.3,16.8-17.9,23.2-25.8c6.4-7.9,10.1-14.2,11-19.1l29.4-21.3c2.9,0.5,5.9,1.1,8.8,1.8s5.6,1.1,8.1,1.1
		c4.9,0,8.2-1.7,9.9-5.2c1.7-3.4,2.5-7.4,2.2-11.8c-0.2-4.4-1.1-9-2.6-13.6c-1.5-4.7-2.5-8.5-2.9-11.4c5.4-2.5,10.4-5.8,15.1-9.9
		s8.5-9,11.4-14.4l72.1,62.6l-8.1,10.3c-6.4,2.9-14.1,8.8-23.2,17.7c-9.1,8.8-18.8,19-29.1,30.5c-10.3,11.5-21,23.7-32,36.4
		c-11,12.8-21.8,24.5-32.4,35.3c-10.6,10.8-20.5,19.8-29.8,26.9s-17.7,10.7-25,10.7l6.6,17.7c-15.7,6.4-26.7,12.9-33.1,19.5
		s-10.8,13-13.2,19.1s-4.2,11.8-5.2,16.9c-1,5.2-3.7,9.7-8.1,13.6v3.7c0,2,0.4,3.9,1.1,5.9c0.7,2,1.3,3.7,1.8,5.2l14,2.2l-3.7,28
		c4.4-0.5,8.5-1.2,12.1-2.2c3.7-1,7.7-2.5,12.1-4.4c22.1,19.1,43.3,38.4,63.7,57.8c20.4,19.4,41.8,37.9,64.4,55.6l-5.2-100.1
		c3.4,0,5.3-2.6,5.5-7.7c0.2-5.2,1.1-9,2.6-11.4l2.9-3.7c-2.5-1.5-5.4-6.7-8.8-15.8c-3.4-9.1-6.1-21.2-8.1-36.4l46.4-0.7L468,540.1
		L468,540.1z M157.4,650.5c2.5-1,4.9-0.5,7.4,1.5c-1.5-2.5-3.4-4.8-5.9-7c-2.5-2.2-6.4-3.6-11.8-4L157.4,650.5L157.4,650.5z
		 M374.5,618.1c1.5-0.5,3.2-1.7,5.2-3.7c2-2,3.6-4.2,4.8-6.6c1.2-2.5,1.7-4.7,1.5-6.6c-0.2-2-1.3-3.4-3.3-4.4
		c-1,0.5-1.7,1.6-2.2,3.3c-0.5,1.7-1.2,3.8-2.2,6.3c0,2.5-0.4,4.7-1.1,6.6C376.3,614.9,375.5,616.7,374.5,618.1z"/>
	<path class="st0" d="M992,579.8l-25.8,47.8l-3.7-5.2l-1.5,1.5l-8.8-11c-3.9,19.6-11,38.9-21.3,57.8c-10.3,18.9-22.1,37.2-35.3,54.8
		c-13.2,17.7-27.1,35-41.6,51.9c-14.5,16.9-27.8,33.2-40.1,48.9l-4.4-1.5c-6.9,18.2-16.9,34.1-30.2,47.8l-19.9-0.7l-5.9-16.2
		l-8.8,14.7c-19.1-27-37.9-53.7-56.3-80.2c-18.4-26.5-36.9-53.7-55.6-81.7l5.9-4.4l9.6,2.2l0.7-2.9c0-2-0.1-3.6-0.4-4.8
		c-0.2-1.2-0.9-2.8-1.8-4.8l-28-4.4c-3.4-3.9-6.4-8.1-8.8-12.5c-2.5-4.4-4.9-8.8-7.4-13.2c-2.9-1-6.7-2.9-11.4-5.9
		s-9.2-6.4-13.6-10.3c-4.4-3.9-8.5-8-12.1-12.1c-3.7-4.2-6.5-7.7-8.5-10.7l0.7-12.5l-0.7-14.7c-4.4,4.4-10.3,7.4-17.7,8.8
		l-15.5-19.9l12.5-14c1.5,0,2-0.5,1.5-1.5c-0.5-1-1.2-1.7-2.2-2.2c12.3-15.7,25.1-31.9,38.6-48.6c13.5-16.7,29.3-28.5,47.5-35.3
		l-2.9-2.2l-5.2-11c12.3-15.7,24-31.8,35.3-48.2c11.3-16.4,22.3-33.2,33.1-50.4l15.5-2.9l6.6-19.9c7.4-6.4,14.1-13.2,20.2-20.6
		c6.1-7.4,12.6-14.7,19.5-22.1h2.9c4.4,0,7.9,1.7,10.3,5.2l1.5-5.2h16.2c10.3,11.3,20.6,23.4,30.9,36.4s20.4,26.4,30.2,40.1
		c9.8,13.7,19,27.7,27.6,42s16.1,28,22.4,41.2c-2.9,1-5.9,1.3-8.8,1.1c-2.9-0.2-5.6-0.4-8.1-0.4c-0.5,0-0.7,1-0.7,2.9
		c0,2.5,0.2,4.8,0.7,7c0.5,2.2,1,4.5,1.5,7l30.2-5.2c3.9,3.4,5.9,7.5,5.9,12.1c0,4.7,1.2,9.2,3.7,13.6c4.4,0.5,9.4,3.1,15.1,7.7
		c5.6,4.7,10.9,9.9,15.8,15.8s9,12,12.1,18.4c3.2,6.4,4.5,11.3,4,14.7c5.4,3.4,10.9,6.9,16.6,10.3
		C979.7,575.9,985.7,578.4,992,579.8L992,579.8z M886.8,596.8l-10.3,0.7c-3.9-2.9-4.7-5.9-2.2-8.8v-5.9h-1.5
		c-3.9-7.9-8.6-15.2-14-22.1c-5.4-6.9-11-13.6-16.9-20.2c-5.9-6.6-11.7-13.2-17.3-19.9c-5.6-6.6-10.7-13.6-15.1-21
		c-2.5-3.9-4.7-8.6-6.6-14c-2-5.4-4.2-10.8-6.6-16.2c-2.5-5.4-5.3-10.3-8.5-14.7c-3.2-4.4-7.2-7.4-12.1-8.8
		c-4.4-5.4-8.6-10.9-12.5-16.6c-3.9-5.6-7.9-11.2-11.8-16.6c-7.9,11.3-14,22.3-18.4,33.1c-4.4,10.8-12,21.1-22.8,30.9h-11.8l4.4,7.4
		l-3.7,11.8l-2.2-3.7c-1,0-1.2,0.9-0.7,2.6c0.5,1.7,0.7,2.8,0.7,3.3c0,1-0.9,1.3-2.6,1.1s-3.1-0.4-4-0.4c-2.5,0-4.5-1-6.3-2.9
		s-3.3-3.4-4.8-4.4c1,3.4,2,6.9,2.9,10.3c1,3.4,1.5,7.1,1.5,11c0,4.9-1.7,8.8-5.2,11.8c-3.4,2.9-7.2,5.9-11.4,8.8
		c-4.2,2.9-8.1,6.4-11.8,10.3c-3.7,3.9-5.8,9.6-6.3,16.9l-22.8,19.9c2,1.5,5,3.9,9.2,7.4s8.3,7.2,12.5,11.4
		c4.2,4.2,7.7,8.2,10.7,12.1c2.9,3.9,4.4,7.1,4.4,9.6l-0.7,0.7l0.7-0.7c1,8.8,3.8,17.5,8.5,26.1c4.7,8.6,11.4,14.4,20.2,17.3
		c2.9,4.4,6.7,10.4,11.4,18c4.7,7.6,9.7,15.3,15.1,23.2s10.8,15,16.2,21.3s10.3,10.1,14.7,11l-0.7,6.6c0,3.9,1.3,6.1,4,6.6
		c2.7,0.5,5.5,1.2,8.5,2.2c9.3-14.2,19.1-27.6,29.4-40.1s19.9-26.1,28.7-40.9l47.8-15.5c-2.5-1.5-4.8-2.8-7-4
		c-2.2-1.2-4.5-2.3-7-3.3l0.7-2.2c0-1-0.5-1.2-1.5-0.7c-1,0.5-1.7,0.7-2.2,0.7l-2.9-1.5c0.5-4.4,2.2-9,5.2-13.6s6.5-9.2,10.7-13.6
		c4.2-4.4,8.5-8.6,12.9-12.5C880.2,602.4,883.8,599.2,886.8,596.8L886.8,596.8z M730,259.7c-3.9,0.5-6.9,0.9-8.8,1.1
		s-4.9,0.4-8.8,0.4l-13.2-13.2c-1,0-1.1,0.7-0.4,2.2c0.7,1.5,1.5,3.2,2.2,5.2c0.7,2,1.3,3.7,1.8,5.2c0.5,1.5,0.5,2.2,0,2.2
		c-2.5-2.5-6.1-4.2-11-5.2c-4.9-1-9.1-1-12.5,0c-4.4-3.4-8.6-5.2-12.5-5.2c-5.9,0-11.3,2.9-16.2,8.8h-14.7c0-11.3,0.2-20.2,0.7-26.9
		c0.5-6.6,1.5-15.3,2.9-26.1c1-3.9,2.2-7.2,3.7-9.9s2.2-6,2.2-9.9c0-2.5-0.9-5.2-2.6-8.1c-1.7-2.9-2.6-4.9-2.6-5.9
		c0-1.5,0.1-2.9,0.4-4.4c0.2-1.5,0.4-2.7,0.4-3.7h26.5l3.7,22.8l4.4-25l49.3,2.2c-0.5,2-0.5,4.3,0,7c0.5,2.7,0.7,5.3,0.7,7.7
		c0,1.5-0.7,2.9-2.2,4.4c-1.5,1.5-2.9,2.7-4.4,3.7c-1.5,1-2.7,2.1-3.7,3.3c-1,1.2-1,2.3,0,3.3l10.3,5.9c-1,1.5-1.3,3.3-1.1,5.5
		c0.2,2.2,0.6,4.5,1.1,7c0.5,2.5,0.7,4.9,0.7,7.4c0,2.5-0.5,4.4-1.5,5.9c-3.9,5.4-5,9.2-3.3,11.4c1.7,2.2,4.3,5.5,7.7,9.9L730,259.7
		L730,259.7z M877.2,164c0,11.3-0.2,20.4-0.7,27.2c-0.5,6.9-1.7,15.5-3.7,25.8c-0.5,3.9-1.5,7.2-2.9,9.9s-2.2,6.3-2.2,10.7
		c0,2.5,0.7,5,2.2,7.7c1.5,2.7,2.2,4.5,2.2,5.5v8.8h-26.5l-3.7-22.8l-4.4,24.3l-49.3-1.5c0.5-2,0.4-4.4-0.4-7.4s-1.1-5.4-1.1-7.4
		s0.7-3.6,2.2-4.8c1.5-1.2,3.1-2.5,4.8-3.7c1.7-1.2,3.1-2.3,4-3.3c1-1,1-2.2,0-3.7l-11-5.2c1-1.5,1.5-3.3,1.5-5.5
		c0-2.2-0.2-4.7-0.7-7.4c-0.5-2.7-0.7-5.2-0.7-7.4s0.5-4,1.5-5.5c3.9-5.4,5-9.2,3.3-11.4c-1.7-2.2-4.3-5.5-7.7-9.9l-0.7-11
		c3.9-0.5,6.9-1,8.8-1.5s4.9-0.7,8.8-0.7l13.2,14c0.5,0,0.5-0.7,0-2.2c-0.5-1.5-1.1-3.2-1.8-5.2s-1.5-3.7-2.2-5.2
		c-0.7-1.5-0.6-2.2,0.4-2.2c2.5,2.5,6.1,4,11,4.8c4.9,0.7,9.1,0.6,12.5-0.4c3.9,3.9,8.1,5.9,12.5,5.9c3.4,0,6.4-0.9,8.8-2.6
		c2.5-1.7,4.9-3.8,7.4-6.3c2.5-0.5,4.9-0.7,7.4-0.7L877.2,164L877.2,164z"/>
	<path class="st0" d="M1370.4,681.4c-4.4,2.5-10.9,6.5-19.5,12.1c-8.6,5.6-17.4,11.7-26.5,18c-9.1,6.4-17.4,12.1-25,17.3
		c-7.6,5.2-12.9,8.7-15.8,10.7c-2.9,2-5.9,3.6-8.8,4.8s-6.1,1.3-9.6,0.4c-0.5,0-0.9-0.1-1.1-0.4s-0.6-0.4-1.1-0.4
		c-1.5,0-2.6,1-3.3,2.9c-0.7,2-3.1,6.9-7,14.7l-84.6,53c-4.9,2.9-8.8,3.9-11.8,2.9s-5.4-2.2-7.4-3.7l-2.2-1.5v0.7v-0.7l-8.1,19.9
		c-3.4,0-9.1,1.6-16.9,4.8s-13.7,5.3-17.7,6.3c-6.9-0.5-12.1,0.2-15.8,2.2c-3.7,2-7.2,5.2-10.7,9.6c-2,1-3.8,2.1-5.5,3.3
		c-1.7,1.2-4.3,3.1-7.7,5.5l-8.1-16.2l-14.7,13.2l-1.5-64v-19.1c0-4.4,0.2-8.3,0.7-11.8c0-3.9,0.1-7.9,0.4-11.8s0.6-9.6,1.1-16.9
		c3.9-9.8,6.3-17.2,7-22.1c0.7-4.9,0.9-9.6,0.4-14c-1-4.9-2.1-10.6-3.3-16.9c-1.2-6.4-1.8-15.9-1.8-28.7c0-15.7,2.5-32.6,7.4-50.8
		c-1-3.4-1.3-8.1-1.1-14c0.2-5.9-0.6-9.3-2.6-10.3c0-0.5,0.5-3.2,1.5-8.1c1-4.9,1-8.1,0-9.6v-0.7l-0.7-0.7c-2-2-2.9-4.4-2.9-7.4
		s1.2-9.1,3.7-18.4c2,0.5,2.9,1,2.9,1.5c0-0.5,0.1-0.9,0.4-1.1c0.2-0.2,0.1-0.9-0.4-1.8v-3.7c0-3.9,0.5-7.2,1.5-9.9
		c1-2.7,3.4-3.8,7.4-3.3c0-2-0.7-3.7-2.2-5.2c-1.5-1.5-2.7-2.9-3.7-4.4c-1-1.5-1.6-3.4-1.8-5.9c-0.2-2.5,0.9-5.6,3.3-9.6l0.7-2.2
		l0.7-1.5c-1.5-2-2.9-3.9-4.4-5.9c-1.5-2-3.4-4.2-5.9-6.6c-0.5-15.7-1.1-31.3-1.8-46.7c-0.7-15.5-1.3-31.3-1.8-47.5v-11l6.6-8.1
		l-4.4-14.7c1-2.5,1.8-5.6,2.6-9.6c0.7-3.9,0.6-7.4-0.4-10.3c-1-2-1.2-4.3-0.7-7c0.5-2.7,2-9,4.4-18.8c5.4,2,10.2,3.7,14.4,5.2
		c4.2,1.5,8.7,2.9,13.6,4.4l2.2,10.3c0.5,0,1-0.2,1.5-0.7c0.5,0,0.9-0.1,1.1-0.4s0.9-0.4,1.8-0.4c1,0.5,2.6,0.9,4.8,1.1
		s3.8,0.9,4.8,1.8c0,0.5,1.3,1.5,4,2.9s5.8,3.4,9.2,5.9l9.6,6.6c1.5,1,2.7,1.7,3.7,2.2c1,0.5,2,1,2.9,1.5l69.9,25.8l8.1,12.5l11,2.2
		h-0.7c1,0,6.6,3.4,16.9,10.3c10.3,6.9,21.8,14.7,34.6,23.6c12.8,8.8,26,17.2,39.7,25c13.7,7.9,24,14,30.9,18.4
		c-10.8,6.4-20.9,14.7-30.2,25c-3.9,4.4-7.9,8.7-11.8,12.9c-3.9,4.2-7.6,7.2-11,9.2c-2.9,1.5-5.4,3.6-7.4,6.3
		c-2,2.7-4.2,5.3-6.6,7.7c-2.9,2.9-7,5.5-12.1,7.7c-5.2,2.2-12.6,3.8-22.4,4.8l4.4,9.6c-3.4,2-6.1,3.9-8.1,5.9s-4.2,4.2-6.6,6.6
		c-2.5,2-4.9,3.9-7.4,5.9c-2.5,2-5.4,3.9-8.8,5.9c12.3,5.4,22.7,11.3,31.3,17.7c8.6,6.4,16.6,12.8,23.9,19.1
		c7.9,6.9,15.5,13.4,22.8,19.5c7.4,6.1,16.2,10.4,26.5,12.9c9.8,7.9,18.6,15.9,26.5,24.3S1357.6,676.5,1370.4,681.4L1370.4,681.4z
		 M1239.4,675.5l-50.8-30.9c-2-1-2.9-2.5-2.9-4.4V638c-0.5-0.5-0.7-1.5-0.7-2.9c-3.9-5.9-7.4-8.8-10.3-8.8c-2,0-4.4-0.4-7.4-1.1
		c-2.9-0.7-5.6-1.3-8.1-1.8c-2-0.5-3.2-1.3-3.7-2.6c-0.5-1.2-1-2.5-1.5-3.7c-0.5-1.2-1-2.2-1.5-2.9c-0.5-0.7-1.5-0.6-2.9,0.4
		l-16.2-8.1c-1,4.4-1.5,9.4-1.5,15.1c0,5.6,0.1,11.4,0.4,17.3c0.2,5.9,0.6,11.3,1.1,16.2c0.5,4.9,1,8.6,1.5,11
		c-1,6.9-2,13.7-2.9,20.6c-1,6.9-1.5,13.5-1.5,19.9c0,3.4,0.7,6.7,2.2,9.9c1.5,3.2,3.4,6,5.9,8.5c0.5,2.5,0.6,4.3,0.4,5.5
		c-0.2,1.2-0.9,2.8-1.8,4.8c0,0.5-0.2,1.6-0.7,3.3c-0.5,1.7-1,3.8-1.5,6.3l80.2-49.3c0.5-1,1.8-2.3,4-4c2.2-1.7,4.7-3.7,7.4-5.9
		c2.7-2.2,5.3-4.2,7.7-5.9C1236.7,677.9,1238.4,676.5,1239.4,675.5L1239.4,675.5z M1221,479.7c-2.5-1-4.9-2.2-7.4-3.7
		c-3.4-2.5-7.1-4.8-11-7c-3.9-2.2-7.9-4.5-11.8-7c-7.4-4.9-14-9.3-19.9-13.2s-9.6-5.4-11-4.4c-2.5,0.5-4.2,0.2-5.2-0.7
		c-1-1-2-1.2-2.9-0.7c-2.9-1.5-4.2-3.7-3.7-6.6l0.7-0.7l5.2,0.7c0-0.5-1.6-2-4.8-4.4s-5.8-3.7-7.7-3.7l-8.1-3.7
		c-0.5,4.9,0.2,11.4,2.2,19.5c2,8.1,2.7,14.8,2.2,20.2c-0.5,1-0.7,1.7-0.7,2.2s-0.2,1.2-0.7,2.2l-0.7,0.7v3.7c0.5,0.5,0.7,1,0.7,1.5
		c0,0.5,0.2,1.2,0.7,2.2v2.2l-1.5,3.7c1,6.9,1.5,13.9,1.5,21v21c2.9,0,6.1-0.1,9.6-0.4c3.4-0.2,5.9-0.6,7.4-1.1
		c5.4-2,10.4-4.3,15.1-7c4.7-2.7,9.4-6,14.4-9.9l16.9-11.8c3.9-2.9,7.7-5.6,11.4-8.1C1215.4,483.9,1218.5,481.7,1221,479.7z"/>
	<path class="st0" d="M1716.3,796.3l-63.3,79.5c-8.8-9.8-14.4-16.4-16.6-19.9c-2.2-3.4-3.3-5.4-3.3-5.9c0-1,0.5-2,1.5-2.9
		c-2.5-3.4-5.4-6.4-8.8-8.8c-1-0.5-1.8-1.2-2.6-2.2c-0.7-1-2.8-3.7-6.3-8.1v2.2c-3.9-4.4-8.8-9.6-14.7-15.5
		c-5.9-5.9-11.9-12-18-18.4s-11.9-12.6-17.3-18.8c-5.4-6.1-9.8-11.2-13.2-15.1l-15.5-19.1c-2.9-3.9-6-7.6-9.2-11
		c-3.2-3.4-6.5-7.1-9.9-11l-9.6-19.9v2.9c-3.9-3.4-6.5-5.6-7.7-6.6s-2.6-2-4-2.9l-3.7-5.2c-2.5-1-4.5-2-6.3-2.9
		c-1.7-1-3.6-2.7-5.5-5.2c-2.9-3.4-6-7.9-9.2-13.2s-6.7-9.1-10.7-11c-1,0-2-0.1-2.9-0.4c-1-0.2-2.2-0.4-3.7-0.4
		c-6.4-6.9-13-13.5-19.9-19.9v-8.1l5.2-11.8h-11l0.7,2.9c1,1.5,1,2.3,0,2.6c-1,0.2-2-0.1-2.9-1.1c-2.9-1-7-3.2-12.1-6.6
		c-5.2-3.4-8-5.2-8.5-5.2c-4.4-2.9-6.6-6.6-6.6-11h-3.7l-4.4-5.2l-5.2,8.1l-2.2-28l5.9,6.6c8.3-10.3,16.8-20.6,25.4-30.9
		c8.6-10.3,17.5-20.9,26.9-31.7c4.4-0.5,8.2-2.7,11.4-6.6c3.2-3.9,5.8-7.9,7.7-11.8l0.7-0.7l0.7-2.2c0-0.5,0.1-1,0.4-1.5
		c0.2-0.5,0.4-1.2,0.4-2.2c9.3-10.3,18.3-20.5,26.9-30.5c8.6-10.1,17.1-20.2,25.4-30.5c2.9-1.5,6.6-4,11-7.7s8.8-8,13.2-12.9
		c4.4-4.9,8.7-9.9,12.9-15.1c4.2-5.2,7.5-10.2,9.9-15.1v0.7c1.5-2.5,2.5-4.5,2.9-6.3c0.5-1.7,1-3.6,1.5-5.5c1.5-2,2.9-3.8,4.4-5.5
		c1.5-1.7,3.2-3.8,5.2-6.3l2.9,0.7c1-1,2.2-1.5,3.7-1.5c1,0,3.1,0.1,6.3,0.4c3.2,0.2,6.3,0.4,9.2,0.4c0.5,0,1.2-0.5,2.2-1.5
		l-0.7-0.7c-1-2-2.1-3.8-3.3-5.5c-1.2-1.7-0.6-3.6,1.8-5.5c0.5-1.5,2-2.2,4.4-2.2l5.2-0.7c1.5,0,2.8,0.4,4,1.1
		c1.2,0.7,1.6,0.6,1.1-0.4v-9.6c0-0.5,1.1-2.3,3.3-5.5c2.2-3.2,4.8-6.9,7.7-11c2.9-4.2,5.9-8.1,8.8-11.8s5.2-6.5,6.6-8.5l43.4,48.6
		l8.8,5.9l-2.2,2.2l8.8,10.3c-2.9,2.9-6.1,5.9-9.6,8.8c-3.4,2.9-6.9,5.9-10.3,8.8c-7.4,3.4-11.4,7-12.1,10.7
		c-0.7,3.7-2.1,8.7-4,15.1c-14.2,16.7-29.3,32-45.3,46s-30.5,29.6-43.8,46.7c-1.5,1-3.2,2.1-5.2,3.3c-2,1.2-5.2,3.8-9.6,7.7
		l-2.2,0.7l-1.5,2.2c-1,1.5-2,3.2-2.9,5.2c0,2-0.2,3.7-0.7,5.2c-3.9,3.4-7.6,6.6-11,9.6c-3.4,2.9-6.9,6.1-10.3,9.6
		c9.8,0,18.4,0.6,25.8,1.8c7.4,1.2,16.4,0.6,27.2-1.8c0.5,0,2.2-0.1,5.2-0.4c2.9-0.2,6.1-0.5,9.6-0.7c3.4-0.2,6.7-0.6,9.9-1.1
		c3.2-0.5,5.3-1,6.3-1.5l4.4,0.7l0.7,1.5l6.6,0.7l5.9,2.9h10.3c2-0.5,3.8-0.7,5.5-0.7h4.8c2.9-0.5,4.7-2.5,5.2-5.9l28,5.2l0.7,81
		c-10.8,1.5-21.5,3.4-32,5.9s-21.5,3.2-32.8,2.2c-2-1-3.8-2-5.5-2.9c-1.7-1-3.8-1.5-6.3-1.5c-1.5,0-3.6-0.5-6.3-1.5
		c-2.7-1-5.4-1.8-8.1-2.6c-2.7-0.7-5.3-1.2-7.7-1.5c-2.5-0.2-4.2,0.4-5.2,1.8l-5.9,2.9h-22.8c4.9,5.4,9.6,11,14,16.9
		c4.4,5.9,9.1,11.8,14,17.7c1.5,2.5,2.7,3.9,3.7,4.4c1.5,3.4,4.9,8.3,10.3,14.7c5.4,6.4,11.4,12.9,18,19.5
		c6.6,6.6,13.2,12.5,19.9,17.7c6.6,5.2,11.9,8,15.8,8.5l-1.5,7.4c0.5,0,0.7,0.5,0.7,1.5c-1,3.4-0.5,7.1,1.5,11
		c2,4.4,6,9.2,12.1,14.4c6.1,5.2,16.3,9.4,30.5,12.9c3.4,3.9,6.9,7.6,10.3,11C1708,787.9,1711.9,791.8,1716.3,796.3L1716.3,796.3z"
		/>
	<path class="st0" d="M2121.9,775.6l-3.7,2.2c0,0.5-0.7,0.2-2.2-0.7c-1-0.5-2-0.7-2.9-0.7l5.2,5.9c-0.5,3.4-0.7,5.9-0.7,7.4
		s-1.5,3.7-4.4,6.6l-5.2,9.6c-3.4-0.5-5.4-0.9-5.9-1.1s-2-0.9-4.4-1.8c-0.5,0-0.5,0.1,0,0.4s0.5,0.6,0,1.1l-6.6-2.9
		c1-1,0.5-2-1.5-2.9c-2-1-3.9-2-5.9-2.9s-3.6-2.1-4.8-3.3c-1.2-1.2-2.3-1.6-3.3-1.1l2.2,14l13.2,5.9l-2.2,6.6c0.5-1,1-1.2,1.5-0.7
		c0.5,0.5,1,0.7,1.5,0.7c-1,2-1.5,3.4-1.5,4.4c-2.9,5.4-5.4,8.1-7.4,8.1h0.7h-5.9c-2.9,0-4.7,0.2-5.2,0.7c-0.5,0.5-0.7,3.2-0.7,8.1
		c-2.5,2.5-4.4,5.2-5.9,8.1s-2.9,5.6-4.4,8.1c-1,2-3.2,4.4-6.6,7.4c-4.9-6.4-10.3-12.1-16.2-17.3c-5.9-5.2-11.3-11.2-16.2-18
		c-2.5-3.9-4.5-6.9-6.3-8.8s-3.6-3.7-5.5-5.2c-1.5-2-3.1-3.6-4.8-4.8c-1.7-1.2-3.6-3.1-5.5-5.5c-1-3.9-3.1-7.5-6.3-10.7
		s-7.2-5.3-12.1-6.3c-5.9-7.9-10.9-13.2-15.1-16.2c-4.2-2.9-9.4-7.1-15.8-12.5c-2-2-3.8-3.9-5.5-5.9s-3.8-4.4-6.3-7.4
		c-1.5-3.9-2.5-6.9-2.9-8.8s-1.3-3.4-2.6-4.4c-1.2-1-2.8-1.8-4.8-2.6c-2-0.7-4.7-1.8-8.1-3.3c-3.9-5.4-8.1-10.2-12.5-14.4
		c-4.4-4.2-8.6-9-12.5-14.4c1-3.4,0.9-7.1-0.4-11c-1.2-3.9-2.1-7.6-2.6-11l-4.4,12.5l-8.8-15.5l-5.2-8.8c0,4.9-0.2,10.4-0.7,16.6
		s-0.9,12-1.1,17.7s-0.4,10.7-0.4,15.1v8.8c0,2,0.9,4.7,2.6,8.1s3.8,6.4,6.3,8.8l1.5,29.4c-2.5,4.9-4.5,9.2-6.3,12.9
		s-2.6,8.2-2.6,13.6c0,5.9,1.2,11.4,3.7,16.6c2.5,5.2,5.4,9.7,8.8,13.6c0,2.5-0.2,4.4-0.7,5.9v4.4c-0.5,2-0.7,5.9-0.7,11.8
		c-5.4,0-9.7-0.5-12.9-1.5s-7.5-2-12.9-2.9c-1,0-2.1-0.1-3.3-0.4c-1.2-0.2-2.8-0.4-4.8-0.4c-1-1-1.7-1.8-2.2-2.6
		c-0.5-0.7,0.5-1.3,2.9-1.8c0-0.5,0.2-1,0.7-1.5c1-1,1.7-1.2,2.2-0.7c1.5,2.5,1.5,4.7,0,6.6c-1.5,2-3.9,3.3-7.4,4
		c-3.4,0.7-6.4,1.1-8.8,1.1l-2.9-0.7c-1,0-2.1,0.1-3.3,0.4c-1.2,0.2-4.5,2.1-9.9,5.5l11-22.8c-3.9,1-6.4,1-7.4,0
		c-0.5-1-0.6-0.7-0.4,0.7c0.2,1.5-0.1,2.7-1.1,3.7c-1,1.5-2.3,3.4-4,5.9c-1.7,2.5-3.8,3.7-6.3,3.7c-1,0-1.7-0.1-2.2-0.4
		c-0.5-0.2-1.2-0.4-2.2-0.4H1798c-2.9,0-6.6,0.2-11,0.7c0-6.4,0.1-14.8,0.4-25.4c0.2-10.6,0.5-20.7,0.7-30.5
		c0.2-9.8,0.6-21.8,1.1-36.1c1-3.9,2-6.7,2.9-8.5c1-1.7,1.5-4.8,1.5-9.2c0-2.5-0.2-4.8-0.7-7c-0.5-2.2-1.2-4.5-2.2-7
		c0-1.5-0.2-2.5-0.7-2.9c0-14.2,0.2-28.1,0.7-41.6s1-27.1,1.5-40.9c2.5-5.4,2.8-11,1.1-16.9c-1.7-5.9-2.6-11.5-2.6-16.9
		c0-3.9,1.3-7,4-9.2c2.7-2.2,3.8-5.3,3.3-9.2c0-4.4-1.3-7.9-4-10.3c-2.7-2.5-5-5.4-7-8.8V532l14-5.2c-2.5-1.5-3.7-2.8-3.7-4
		s-0.2-3.6-0.7-7h-4.4c-2.5-2.5-4.8-3.7-7-3.7c-2.2,0-4.5,0.5-7,1.5l-2.9-5.9l8.8-5.9c0-1,0.1-1.7,0.4-2.2s0.4-1.2,0.4-2.2v-0.7
		l-2.2-2.9c2.5-2.5,3.9-4.2,4.4-5.2c0.5-1,0.5-2.9,0-5.9c-2-5.4-0.5-10.6,4.4-15.5c-1-13.7-1.8-26.9-2.6-39.4
		c-0.7-12.5-1.6-25.4-2.6-38.6l5.2-2.2l-1.5-5.2v-1.5l7.4,0.7l-0.7,2.2l-6.6-2.2c0.5-1,1-2,1.5-2.9c0.5-1,1-2,1.5-2.9l0.7-2.2
		c-0.5,0.5-1,0.5-1.5,0l-1.5-0.7l-0.7-1.5c-1.5-1.5-2-3.4-1.5-5.9l8.1-3.7l-2.2-2.2c-0.5-6.9-3.9-11-10.3-12.5c-1-1-1.5-1.7-1.5-2.2
		l5.9-2.9l0.7,2.2l-6.6,1.5c-0.5-3.4,0.2-6.9,2.2-10.3l1.5-1.5c0.5-1.5,0.5-3.7,0-6.6c5.4,0,10.3,0.1,14.7,0.4s9.1,1.3,14,3.3
		c2.5,1,4.9,1.8,7.4,2.6s7.1,0.9,14,0.4c6.4-3.9,13.5-6.4,21.3-7.4c7.9-1,16.7-1,26.5,0c-1,3.4-2,7.1-2.9,11c-1,3.4-1.7,7.1-2.2,11
		c-0.5,3.9-0.7,8.1-0.7,12.5c-1,1-1.2,3.6-0.7,7.7c0.5,4.2,1,6.7,1.5,7.7v0.7l0.7,0.7c-2.5,1.5-3.1,3.6-1.8,6.3c1.2,2.7,1.1,5-0.4,7
		v0.7h-0.7c-1,2-2.3,4.3-4,7c-1.7,2.7-2.6,5-2.6,7c0,5.4,2,10.6,5.9,15.5c1,3.9,0.5,8.3-1.5,13.2c-2,4.9-3.4,9.3-4.4,13.2
		c1,1.5,1.6,3.9,1.8,7.4c0.2,3.4,0.6,6.1,1.1,8.1l-0.7,0.7h-1.5l3.7,2.9c0,1-0.1,4-0.4,9.2s-0.6,10.2-1.1,15.1l35.3-37.5
		c2.9-2.9,6-4.9,9.2-5.9s6.7-2,10.7-2.9c1.5,0,2.5-0.5,2.9-1.5c0.5-1,0.2-3.4-0.7-7.4c5.4-2.9,10.7-7.6,15.8-14
		c5.2-6.4,9.7-12,13.6-16.9c5.9-6.9,12.5-13.6,19.9-20.2c7.4-6.6,15.2-12.1,23.6-16.6c2.9-3.9,5.4-5.5,7.4-4.8
		c2,0.7,4.4,1.8,7.4,3.3c1,0.5,1.6,0.5,1.8,0s0.9-1,1.8-1.5h-0.7c-1-2.5-2-5.5-2.9-9.2c-1-3.7-0.2-6.7,2.2-9.2l39.7-39.7l58.9,56.7
		c-3.4,2.9-8.2,7.4-14.4,13.2c-6.1,5.9-12.3,12-18.4,18.4c-6.1,6.4-11.7,12.6-16.6,18.8c-4.9,6.1-8.1,10.7-9.6,13.6
		c-1,1-2.8,2.7-5.5,5.2c-2.7,2.5-5.6,4.9-8.8,7.4c-3.2,2.5-6.3,4.9-9.2,7.4c-2.9,2.5-5.2,4.2-6.6,5.2c-4.9-1.5-6.4-5.4-4.4-11.8
		c-2.9,5.4-5.9,10.9-8.8,16.6s-6.1,11.2-9.6,16.6v0.7c0,1-0.7,2.5-2.2,4.4c-1.5,2-3.2,4-5.2,6.3c-2,2.2-3.8,4.2-5.5,5.9l-3.3,3.3
		c-3.9,3.9-8.1,7-12.5,9.2c-4.4,2.2-7.9,2.1-10.3-0.4l-2.2,6.6c-1,4.9-2.2,9.2-3.7,12.9s-2.5,5.8-2.9,6.3
		c-4.9,2.5-9.8,6.3-14.7,11.4s-9.3,9.7-13.2,13.6c-4.4,4.4-9.1,8.8-14,13.2c-4.9,4.4-10.3,7.9-16.2,10.3c2,2,4.8,4.4,8.5,7.4
		c3.7,2.9,7.4,5.9,11,8.8s6.9,5.5,9.6,7.7c2.7,2.2,4.5,3.6,5.5,4c8.8,11.8,14,19.4,15.5,22.8l3.7-2.9l11.8,8.1
		c0.5,2.5,2.2,5.8,5.2,9.9c2.9,4.2,5.2,7.5,6.6,9.9c2-0.5,3.2,0,3.7,1.5c0.5,1.5-0.2,2.9-2.2,4.4c-1,1-2.9,1.5-5.9,1.5
		s-4.9,0.2-5.9,0.7c-1.5,0.5-2.2,1.6-2.2,3.3s0.4,3.3,1.1,4.8c0.7,1.5,1.6,2.7,2.6,3.7c1,1,2,1,2.9,0c0.5-0.5,1.1-1.2,1.8-2.2
		c0.7-1,2.1-2.5,4-4.4c1-1,2-1.7,2.9-2.2c2-1,3.9-1.5,5.9-1.5c2.5,0.5,4.5,1.6,6.3,3.3s3.6,3.3,5.5,4.8c6.4,1,11,1.7,14,2.2
		c2.9,0.5,6.4,3.9,10.3,10.3c1.5,2.5,3.2,5.9,5.2,10.3c2,4.4,4.2,7.4,6.6,8.8c1,1.5,2.3,4,4,7.7c1.7,3.7,3.1,6.3,4,7.7
		c1,1,2.5,1.6,4.4,1.8c2,0.2,5.6,0.6,11,1.1c2,2.5,3.9,4.7,5.9,6.6c2,2,4.2,4.2,6.6,6.6c0,1,0.9,2,2.6,2.9s3.1,2,4,2.9
		s1.7,1.7,2.2,2.2c0.5,0.5,1,1.2,1.5,2.2c2.5,8.8,6.6,14.2,12.5,16.2c5.9,2,12.5,3.9,19.9,5.9c1.5,2,2.8,3.6,4,4.8
		C2119.1,772.8,2120.4,774.2,2121.9,775.6L2121.9,775.6z"/>
	<path class="st0" d="M2456.8,824.2c1,2.5,1.6,5.2,1.8,8.1s0.1,5.6-0.4,8.1c-0.5,2.9-1.5,5.6-2.9,8.1c-18.2-2-34.3-3.1-48.6-3.3
		c-14.2-0.2-24.8-0.4-31.7-0.4c-2.9,0-6.3,0.6-9.9,1.8c-3.7,1.2-6.7,3.3-9.2,6.3c-4.9,1-9.4,1.5-13.6,1.5h-12.1
		c-2.5-1.5-4.5-2.6-6.3-3.3s-3.6-2.3-5.5-4.8c-2-2-3.6-3.7-4.8-5.2s-2.8-2.2-4.8-2.2c-5.9,0-9.3,0.4-10.3,1.1c-1,0.7-3.4,3.1-7.4,7
		c-2.5,0.5-6,1-10.7,1.5c-4.7,0.5-8.2,1-10.7,1.5l-10.3-8.8l-20.6,5.9c-2-1.5-2.5-2.6-1.5-3.3c1-0.7,0.5-1.3-1.5-1.8
		c-1,0.5-1,0,0-1.5c1-1.5,1.5-2.7,1.5-3.7l-0.7-4.4h-3.7l-1.5-2.9l-1.5-4.4l-4.4-0.7l0.7,20.6l-6.6,1.5c-2-2-3.7-3.8-5.2-5.5
		c-1.5-1.7-3.2-2.6-5.2-2.6c-2.5,0-4.5,0.9-6.3,2.6c-1.7,1.7-3.6,3.8-5.5,6.3h-11l-8.8,0.7h-9.6l9.6-10.3l-2.9-2.2l1.5-0.7
		c-0.5,0-0.7-0.1-0.7-0.4c0-0.2-0.2-0.4-0.7-0.4s-0.7-0.2-0.7-0.7c1-2.9,1.8-6.1,2.6-9.6c0.7-3.4,2.3-6.4,4.8-8.8
		c-1-2-2.6-4-4.8-6.3c-2.2-2.2-3.1-4.8-2.6-7.7c1-7.9,1.7-13.2,2.2-16.2s1.2-5.4,2.2-7.4c0.5-1.5,0.7-3.4,0.7-5.9s0.2-7.4,0.7-14.7
		c1.5-2.5,2.7-5.8,3.7-9.9c1-4.2,1.5-7.5,1.5-9.9c0-3.4-0.7-5.9-2.2-7.4c-1-0.5-1.7-0.7-2.2-0.7h10.3c3.4,0,5.2-0.7,5.2-2.2
		l-11.8-4.4l1.5-2.9V716h-2.9c-1.5,0-2.5-1.2-2.9-3.7c0-10.3,0.1-17.9,0.4-22.8c0.2-4.9,0.5-8.8,0.7-11.8s0.5-5.9,0.7-8.8
		s0.4-7.9,0.4-14.7c2.5-6.4,2.7-14.2,0.7-23.6c-2-9.3-2.9-17.4-2.9-24.3c0-3.9,0.7-7.9,2.2-11.8c1.5-3.9,2.2-8.3,2.2-13.2
		c-1-10.8-2.7-18.4-5.2-22.8v-14.7c2.5-1.5,5.2-3.4,8.1-5.9c2.9-2.5,5.2-4.2,6.6-5.2c4.4-4.4,6.6-9.3,6.6-14.7
		c0-4.4-1.8-9.7-5.5-15.8c-3.7-6.1-7.5-11.2-11.4-15.1h-1.5c-0.5,0-1-0.2-1.5-0.7v-2.9c0-14.7-0.4-29.4-1.1-44.2s-1.6-29.4-2.6-44.2
		l4.4-2.9l-0.7-5.2c1-1.5,1.3-3.2,1.1-5.2s-0.6-4.2-1.1-6.6l-0.7-8.1v-4.4l-6.6-36.8l29.4-1.5c1-1,2.2-1.2,3.7-0.7
		c1.5,0.5,2.7,1.2,3.7,2.2c0.5,1,1.7,2.9,3.7,5.9l0.7,1.5h0.7l2.2-2.2c1-0.5,2-1.1,2.9-1.8c1-0.7,1.2-2.6,0.7-5.5l53,0.7
		c-1,12.8-1.5,24.9-1.5,36.4s-0.2,22.9-0.7,34.2l-0.7,2.2c-2,2.5-3.7,4.7-5.2,6.6c-1.5,2-2.2,4.9-2.2,8.8s2.2,8.6,6.6,14l-1.5,19.9
		l-2.9,2.2l1.5,3.7c0.5,2,0.6,5.2,0.4,9.6c-0.2,4.4-0.5,9-0.7,13.6s-0.5,9-0.7,12.9s-0.1,6.4,0.4,7.4c4.4,10.8,6.6,21.7,6.6,32.8
		s-0.5,22.4-1.5,34.2c0,1,0.6,2.1,1.8,3.3c1.2,1.2,1.8,2.1,1.8,2.6c-1,1-2,1.7-2.9,2.2l-2.9,1.5c-1,2-3.1,3.6-6.3,4.8
		s-5.3,1.3-6.3,0.4c0,0.5,0.7,1.5,2.2,2.9c1,1,2,1.7,2.9,2.2c1,1,2.5,0.9,4.4-0.4c2-1.2,3.4-1.6,4.4-1.1c-0.5,1-0.7,3.8-0.7,8.5
		v17.3c0,6.9,0.1,13.1,0.4,18.8c0.2,5.6,0.1,9.2-0.4,10.7l-3.7,17.7l-6.6,2.9l-4.4-0.7v1.5c0,0.5,1.5,1.7,4.4,3.7l2.2,2.2
		c3.9,2,5.9,4.4,5.9,7.4c0.5,2,0.9,3.8,1.1,5.5c0.2,1.7,0.4,3.8,0.4,6.3c0,3.4-0.1,8.3-0.4,14.7s-0.4,13-0.4,19.9
		s-0.1,13.4-0.4,19.5c-0.2,6.1-0.4,10.9-0.4,14.4c0,4.9-1.2,8.6-3.7,11c14.2-1.5,27.1-1.7,38.6-0.7c11.5,1,22.9,1,34.2,0
		c2.5,1.5,5,2.6,7.7,3.3c2.7,0.7,4.5,1.1,5.5,1.1c3.9,0,7.6-1,11-2.9c0.5,0,2.2-0.5,5.2-1.5c1,0,1.7-0.2,2.2-0.7h66.6
		c8.1,0,14.6-0.2,19.5-0.7c1,15.7,1,27.5,0,35.3s-3.9,14.5-8.8,19.9L2456.8,824.2L2456.8,824.2z"/>
	<path class="st0" d="M2624.6,846.3l-14.7,0.7h-21.3c-1,0-2.9-0.5-5.9-1.5v1.5l-11-0.7c-2.9,0.5-5,0.5-6.3,0c-1.2-0.5-3.1-2-5.5-4.4
		c-0.5-0.5-0.7-1-0.7-1.5c0-0.5-0.2-1-0.7-1.5c-3.9,0-8.3,2.9-13.2,8.8h-4.8c-1.7,0-3.1-0.5-4-1.5h-1.5c-0.5-0.5-2.2-0.7-5.2-0.7
		l2.9-3.7c-2,1-2.9,0-2.9-2.9c1-0.5,2.5-2,4.4-4.4c2-2.5,2.7-3.9,2.2-4.4l-9.6-14.7c1-8.8,1.6-15.2,1.8-19.1
		c0.2-3.9,0.1-7.1-0.4-9.6c-0.5-2.5-0.9-5.6-1.1-9.6c-0.2-3.9-0.4-10.6-0.4-19.9l8.1-9.6l7.4-22.8c-1.5,1.5-2.7,2.2-3.7,2.2h-4.4
		c-2-0.5-3.3-1.1-4-1.8s-1.3-1.3-1.8-1.8c-2-10.3-2.6-20.6-1.8-30.9c0.7-10.3,1.8-20.6,3.3-30.9c1.5-10.3,2.9-20.6,4.4-30.9
		c1.5-10.3,2.2-20.6,2.2-30.9s-0.9-20.5-2.6-30.5s-2.8-20.7-3.3-32c4.9-2.5,7.9-5.2,8.8-8.1c1-2.9,1.5-7.4,1.5-13.2
		c0-5.4-0.6-9.2-1.8-11.4c-1.2-2.2-4-5.3-8.5-9.2c0-7.9-0.1-15-0.4-21.3c-0.2-6.4-0.5-12.6-0.7-18.8c-0.2-6.1-0.5-12.4-0.7-18.8
		s-0.6-13.2-1.1-20.6c-1-1.5-0.5-3.7,1.5-6.6l1.5-1.5c1.5-1.5,2.9-3.9,4.4-7.4c-2-3.9-4.2-9.2-6.6-15.8c-2.5-6.6-2.9-12.1-1.5-16.6
		c-1.5-3.4-2.5-7.4-2.9-11.8s-1.2-8.3-2.2-11.8c0-2.5-1.2-5.2-3.7-8.1l11-11.8l88.3-0.7c-0.5,12.8-0.6,24.8-0.4,36.1
		c0.2,11.3-0.1,22.1-1.1,32.4c0,1.5-1.2,4.3-3.7,8.5c-2.5,4.2-3.9,7.5-4.4,9.9c1,2.5,2,4.7,2.9,6.6c1,2,2,4.2,2.9,6.6
		c1.5,2,1.7,4.9,0.7,8.8c-1,3.9-1.7,7.9-2.2,11.8s-1.2,7.9-2.2,11.8l5.2,3.7l-4.4,7.4c1.5,1,2.8,2.9,4,5.9c1.2,2.9,1.8,8.1,1.8,15.5
		c-2-0.5-3.7-1.2-5.2-2.2c-1.5-0.5-2.7-1-3.7-1.5c-1-0.5-2-0.7-2.9-0.7l12.5,19.9c-1,3.4-1.7,8.6-2.2,15.5
		c-0.5,6.9-0.7,11.8-0.7,14.7c0,9.3,0.2,19.9,0.7,31.7c0.5,11.8,0.7,23.3,0.7,34.6c0.5,11.8,0.5,23.1,0,33.9s-1.7,19.9-3.7,27.2
		l5.9,39.7l-14-14.7c-1.5,5.4-2.2,9-2.2,10.7s0.5,2.8,1.5,3.3c1,0.5,2.1,0.6,3.3,0.4c1.2-0.2,2.3,0.1,3.3,1.1
		c3.4,2.5,5.2,6.1,5.2,11c0.5,3.9,0.6,9.4,0.4,16.6s1.1,11.9,4,14.4l-4.4,25c-2.5,3.9-3.6,8.8-3.3,14.7c0.2,5.9,0.4,11,0.4,15.5
		c0,10.3,3.9,20.6,11.8,30.9L2624.6,846.3L2624.6,846.3z"/>
</g>
<g>
	<path class="st0" d="M3782.5,800.3l-63.3,79.5c-8.8-9.8-14.4-16.4-16.6-19.9c-2.2-3.4-3.3-5.4-3.3-5.9c0-1,0.5-2,1.5-2.9
		c-2.5-3.4-5.4-6.4-8.8-8.8c-1-0.5-1.8-1.2-2.6-2.2c-0.7-1-2.8-3.7-6.3-8.1v2.2c-3.9-4.4-8.8-9.6-14.7-15.5
		c-5.9-5.9-11.9-12-18-18.4c-6.1-6.4-11.9-12.6-17.3-18.8c-5.4-6.1-9.8-11.2-13.2-15.1l-15.5-19.1c-2.9-3.9-6-7.6-9.2-11
		s-6.5-7.1-9.9-11l-9.6-19.9v2.9c-3.9-3.4-6.5-5.6-7.7-6.6c-1.2-1-2.6-2-4-2.9l-3.7-5.2c-2.5-1-4.5-2-6.3-2.9s-3.6-2.7-5.5-5.2
		c-2.9-3.4-6-7.9-9.2-13.2c-3.2-5.4-6.7-9.1-10.7-11c-1,0-2-0.1-2.9-0.4c-1-0.2-2.2-0.4-3.7-0.4c-6.4-6.9-13-13.5-19.9-19.9v-8.1
		l5.2-11.8h-11l0.7,2.9c1,1.5,1,2.3,0,2.6s-2-0.1-2.9-1.1c-2.9-1-7-3.2-12.1-6.6c-5.2-3.4-8-5.2-8.5-5.2c-4.4-2.9-6.6-6.6-6.6-11
		h-3.7l-4.4-5.2l-5.2,8.1l-2.2-28l5.9,6.6c8.3-10.3,16.8-20.6,25.4-30.9c8.6-10.3,17.5-20.9,26.9-31.7c4.4-0.5,8.2-2.7,11.4-6.6
		c3.2-3.9,5.8-7.9,7.7-11.8l0.7-0.7l0.7-2.2c0-0.5,0.1-1,0.4-1.5s0.4-1.2,0.4-2.2c9.3-10.3,18.3-20.5,26.9-30.5
		c8.6-10.1,17.1-20.2,25.4-30.5c2.9-1.5,6.6-4,11-7.7s8.8-8,13.2-12.9c4.4-4.9,8.7-9.9,12.9-15.1c4.2-5.2,7.5-10.2,9.9-15.1v0.7
		c1.5-2.5,2.5-4.5,2.9-6.3c0.5-1.7,1-3.6,1.5-5.5c1.5-2,2.9-3.8,4.4-5.5c1.5-1.7,3.2-3.8,5.2-6.3l2.9,0.7c1-1,2.2-1.5,3.7-1.5
		c1,0,3.1,0.1,6.3,0.4c3.2,0.2,6.3,0.4,9.2,0.4c0.5,0,1.2-0.5,2.2-1.5l-0.7-0.7c-1-2-2.1-3.8-3.3-5.5c-1.2-1.7-0.6-3.6,1.8-5.5
		c0.5-1.5,2-2.2,4.4-2.2l5.2-0.7c1.5,0,2.8,0.4,4,1.1c1.2,0.7,1.6,0.6,1.1-0.4v-9.6c0-0.5,1.1-2.3,3.3-5.5c2.2-3.2,4.8-6.9,7.7-11
		c2.9-4.2,5.9-8.1,8.8-11.8c2.9-3.7,5.2-6.5,6.6-8.5l43.4,48.6l8.8,5.9l-2.2,2.2l8.8,10.3c-2.9,2.9-6.1,5.9-9.6,8.8
		c-3.4,2.9-6.9,5.9-10.3,8.8c-7.4,3.4-11.4,7-12.1,10.7c-0.7,3.7-2.1,8.7-4,15.1c-14.2,16.7-29.3,32-45.3,46
		c-15.9,14-30.5,29.6-43.8,46.7c-1.5,1-3.2,2.1-5.2,3.3c-2,1.2-5.2,3.8-9.6,7.7l-2.2,0.7l-1.5,2.2c-1,1.5-2,3.2-2.9,5.2
		c0,2-0.2,3.7-0.7,5.2c-3.9,3.4-7.6,6.6-11,9.6s-6.9,6.1-10.3,9.6c9.8,0,18.4,0.6,25.8,1.8c7.4,1.2,16.4,0.6,27.2-1.8
		c0.5,0,2.2-0.1,5.2-0.4c2.9-0.2,6.1-0.5,9.6-0.7c3.4-0.2,6.7-0.6,9.9-1.1c3.2-0.5,5.3-1,6.3-1.5l4.4,0.7l0.7,1.5l6.6,0.7l5.9,2.9
		h10.3c2-0.5,3.8-0.7,5.5-0.7h4.8c2.9-0.5,4.7-2.5,5.2-5.9l28,5.2l0.7,81c-10.8,1.5-21.5,3.4-32,5.9c-10.6,2.5-21.5,3.2-32.8,2.2
		c-2-1-3.8-2-5.5-2.9c-1.7-1-3.8-1.5-6.3-1.5c-1.5,0-3.6-0.5-6.3-1.5s-5.4-1.8-8.1-2.6c-2.7-0.7-5.3-1.2-7.7-1.5s-4.2,0.4-5.2,1.8
		l-5.9,2.9h-22.8c4.9,5.4,9.6,11,14,16.9c4.4,5.9,9.1,11.8,14,17.7c1.5,2.5,2.7,3.9,3.7,4.4c1.5,3.4,4.9,8.3,10.3,14.7
		c5.4,6.4,11.4,12.9,18,19.5c6.6,6.6,13.2,12.5,19.9,17.7s11.9,8,15.8,8.5l-1.5,7.4c0.5,0,0.7,0.5,0.7,1.5c-1,3.4-0.5,7.1,1.5,11
		c2,4.4,6,9.2,12.1,14.4c6.1,5.2,16.3,9.4,30.5,12.9c3.4,3.9,6.9,7.6,10.3,11C3774.2,792,3778.1,795.9,3782.5,800.3L3782.5,800.3z"
		/>
	<path class="st0" d="M4182.9,553.8l-9.6,16.2l-28,22.8l-33.9,28.7c-3.4,0.5-8.8,2.7-16.2,6.6c-7.4,3.9-15.8,9.1-25.4,15.5
		c-9.6,6.4-19.8,13.6-30.5,21.7c-10.8,8.1-21.2,16.2-31.3,24.3c-10.1,8.1-19.5,15.8-28.3,23.2c-8.8,7.4-15.9,13.7-21.3,19.1
		c-3.9-1-8.1-0.6-12.5,1.1s-8.6,3.1-12.5,4c0.5,11.3,1.1,19.5,1.8,24.7c0.7,5.2,1.2,9.2,1.5,12.1s0,5.8-0.7,8.5
		c-0.7,2.7-2.3,7-4.8,12.9c-2.5,4.9-3.7,9.6-3.7,14c0,3.9,0.7,6.7,2.2,8.5c1.5,1.7,3.4,3.8,5.9,6.3c2.5,1.5,4.7,3.9,6.6,7.4
		l-4.4,23.6c-8.8,0.5-15.2,0.9-19.1,1.1c-3.9,0.2-7.2,0.2-9.9,0c-2.7-0.2-5.5-1.1-8.5-2.6s-7.6-3.7-14-6.6l-9.6,7.4h-16.9
		c-3.9,3.9-6.9,5.6-8.8,5.2c-2-0.5-5.4-1.2-10.3-2.2c0-17.7,0.7-34.8,2.2-51.5c1.5-16.7,3.4-33.9,5.9-51.5c2.5-0.5,3.3-1.2,2.6-2.2
		c-0.7-1-1.1-2.5-1.1-4.4c-1-2.5-1.8-4.9-2.6-7.4s-1.1-4.9-1.1-7.4c0-30.9,0.5-61.1,1.5-90.5c1-29.4,1.2-59.9,0.7-91.3
		c5.4-2.5,8.3-5,8.8-7.7s0.7-6.5,0.7-11.4c0-3.4-1-8.8-2.9-16.2c-2-7.4-4.4-12.3-7.4-14.7l-2.9-72.1h2.9v-0.7
		c1.5-3.9,2.6-7.9,3.3-11.8s2.3-7.6,4.8-11l-13.2-7.4l13.2-28l-3.7-67l11.8,2.2c7.4,6.4,16.1,13.1,26.1,20.2
		c10.1,7.1,19,13.4,26.9,18.8c5.9,3.9,10.3,6.9,13.2,8.8l2.2-2.2l23.6,29.4l22.1,8.8l77.3,72.1c6.4,3.9,12.5,8.1,18.4,12.5
		s11.8,8.8,17.7,13.2c6.4,4.9,13.1,9.6,20.2,14c7.1,4.4,15.1,8.1,23.9,11l-11,20.6c2,0,4.5-0.6,7.7-1.8c3.2-1.2,6.5-2.2,9.9-2.9
		c3.4-0.7,6.5-0.9,9.2-0.4s4.3,2.2,4.8,5.2c3.9,2.5,6.3,4.2,7,5.2c0.7,1,3.6,2,8.5,2.9L4182.9,553.8L4182.9,553.8z M4050.4,560.4
		c-5.4-2.5-10.9-6.1-16.6-11c-5.6-4.9-9-10.6-9.9-16.9h-3.7c-5.4-4.9-11.3-9.6-17.7-14c-6.4-4.4-12.9-8.7-19.5-12.9
		c-6.6-4.2-13-8.6-19.1-13.2s-11.2-9.7-15.1-15.1c-3.9-5.4-8-10.8-12.1-16.2c-4.2-5.4-8.7-10.8-13.6-16.2c-1,1-1,2,0,2.9
		c2.5,2.9,4.7,6.3,6.6,9.9c2,3.7,2.9,7,2.9,9.9c0,1.5-0.4,3.8-1.1,7c-0.7,3.2-1.6,6-2.6,8.5c-1,2.5-2.5,4.4-4.4,5.9
		c-2,1.5-3.9,1.5-5.9,0c0,0.5,0.7,1.1,2.2,1.8c1.5,0.7,2.2,1.6,2.2,2.6c0,2.5,0.6,4.2,1.8,5.2c1.2,1,2.7,1.8,4.4,2.6
		s3.2,1.8,4.4,3.3c1.2,1.5,1.8,3.9,1.8,7.4c0,3.9-0.2,6.4-0.7,7.4l-3.7-1.5c0,0.5,0.2,1.1,0.7,1.8c0.5,0.7,0.7,1.3,0.7,1.8
		c-2,1.5-4.5,3.9-7.7,7.4s-5.3,6.6-6.3,9.6c-1.5,2-2.7,3.7-3.7,5.2l-2.9,4.4c-0.5,2.5-0.7,4.7-0.7,6.6v1.5c0-0.5,0.7-1.3,2.2-2.6
		c1.5-1.2,2.2-2.1,2.2-2.6c2.5-1.5,3.4-2.8,2.9-4c-0.5-1.2,0.5-2.6,2.9-4c2.5-2,4.4-2.6,5.9-1.8c1.5,0.7,2.2,2.3,2.2,4.8v114.1
		l4.4-7.4c2.5-3.9,4.7-7.5,6.6-10.7c2-3.2,3.4-5.3,4.4-6.3c4.9-2.9,12.5-7.2,22.8-12.9c10.3-5.6,20.6-11.8,30.9-18.4
		s19.4-13.5,27.2-20.6c7.9-7.1,11.8-13.6,11.8-19.5L4050.4,560.4L4050.4,560.4z"/>
	<path class="st0" d="M4531.8,800.3l-63.3,79.5c-8.8-9.8-14.4-16.4-16.6-19.9c-2.2-3.4-3.3-5.4-3.3-5.9c0-1,0.5-2,1.5-2.9
		c-2.5-3.4-5.4-6.4-8.8-8.8c-1-0.5-1.8-1.2-2.6-2.2c-0.7-1-2.8-3.7-6.3-8.1v2.2c-3.9-4.4-8.8-9.6-14.7-15.5
		c-5.9-5.9-11.9-12-18-18.4c-6.1-6.4-11.9-12.6-17.3-18.8s-9.8-11.2-13.2-15.1l-15.5-19.1c-2.9-3.9-6-7.6-9.2-11
		c-3.2-3.4-6.5-7.1-9.9-11l-9.6-19.9v2.9c-3.9-3.4-6.5-5.6-7.7-6.6c-1.2-1-2.6-2-4-2.9l-3.7-5.2c-2.5-1-4.5-2-6.3-2.9
		s-3.6-2.7-5.5-5.2c-2.9-3.4-6-7.9-9.2-13.2c-3.2-5.4-6.7-9.1-10.7-11c-1,0-2-0.1-2.9-0.4s-2.2-0.4-3.7-0.4
		c-6.4-6.9-13-13.5-19.9-19.9v-8.1l5.2-11.8h-11l0.7,2.9c1,1.5,1,2.3,0,2.6c-1,0.2-2-0.1-2.9-1.1c-2.9-1-7-3.2-12.1-6.6
		c-5.2-3.4-8-5.2-8.5-5.2c-4.4-2.9-6.6-6.6-6.6-11h-3.7l-4.4-5.2l-5.2,8.1l-2.2-28l5.9,6.6c8.3-10.3,16.8-20.6,25.4-30.9
		c8.6-10.3,17.5-20.9,26.9-31.7c4.4-0.5,8.2-2.7,11.4-6.6c3.2-3.9,5.8-7.9,7.7-11.8l0.7-0.7l0.7-2.2c0-0.5,0.1-1,0.4-1.5
		c0.2-0.5,0.4-1.2,0.4-2.2c9.3-10.3,18.3-20.5,26.9-30.5c8.6-10.1,17.1-20.2,25.4-30.5c2.9-1.5,6.6-4,11-7.7s8.8-8,13.2-12.9
		s8.7-9.9,12.9-15.1c4.2-5.2,7.5-10.2,9.9-15.1v0.7c1.5-2.5,2.5-4.5,2.9-6.3c0.5-1.7,1-3.6,1.5-5.5c1.5-2,2.9-3.8,4.4-5.5
		c1.5-1.7,3.2-3.8,5.2-6.3l2.9,0.7c1-1,2.2-1.5,3.7-1.5c1,0,3.1,0.1,6.3,0.4c3.2,0.2,6.3,0.4,9.2,0.4c0.5,0,1.2-0.5,2.2-1.5
		l-0.7-0.7c-1-2-2.1-3.8-3.3-5.5c-1.2-1.7-0.6-3.6,1.8-5.5c0.5-1.5,2-2.2,4.4-2.2l5.2-0.7c1.5,0,2.8,0.4,4,1.1s1.6,0.6,1.1-0.4v-9.6
		c0-0.5,1.1-2.3,3.3-5.5s4.8-6.9,7.7-11c2.9-4.2,5.9-8.1,8.8-11.8c2.9-3.7,5.2-6.5,6.6-8.5l43.4,48.6l8.8,5.9l-2.2,2.2l8.8,10.3
		c-2.9,2.9-6.1,5.9-9.6,8.8c-3.4,2.9-6.9,5.9-10.3,8.8c-7.4,3.4-11.4,7-12.1,10.7c-0.7,3.7-2.1,8.7-4,15.1
		c-14.2,16.7-29.3,32-45.3,46c-15.9,14-30.5,29.6-43.8,46.7c-1.5,1-3.2,2.1-5.2,3.3c-2,1.2-5.2,3.8-9.6,7.7l-2.2,0.7l-1.5,2.2
		c-1,1.5-2,3.2-2.9,5.2c0,2-0.2,3.7-0.7,5.2c-3.9,3.4-7.6,6.6-11,9.6c-3.4,2.9-6.9,6.1-10.3,9.6c9.8,0,18.4,0.6,25.8,1.8
		c7.4,1.2,16.4,0.6,27.2-1.8c0.5,0,2.2-0.1,5.2-0.4c2.9-0.2,6.1-0.5,9.6-0.7c3.4-0.2,6.7-0.6,9.9-1.1c3.2-0.5,5.3-1,6.3-1.5l4.4,0.7
		l0.7,1.5l6.6,0.7l5.9,2.9h10.3c2-0.5,3.8-0.7,5.5-0.7h4.8c2.9-0.5,4.7-2.5,5.2-5.9l28,5.2l0.7,81c-10.8,1.5-21.5,3.4-32,5.9
		s-21.5,3.2-32.8,2.2c-2-1-3.8-2-5.5-2.9s-3.8-1.5-6.3-1.5c-1.5,0-3.6-0.5-6.3-1.5c-2.7-1-5.4-1.8-8.1-2.6c-2.7-0.7-5.3-1.2-7.7-1.5
		c-2.5-0.2-4.2,0.4-5.2,1.8l-5.9,2.9h-22.8c4.9,5.4,9.6,11,14,16.9c4.4,5.9,9.1,11.8,14,17.7c1.5,2.5,2.7,3.9,3.7,4.4
		c1.5,3.4,4.9,8.3,10.3,14.7c5.4,6.4,11.4,12.9,18,19.5c6.6,6.6,13.2,12.5,19.9,17.7c6.6,5.2,11.9,8,15.8,8.5l-1.5,7.4
		c0.5,0,0.7,0.5,0.7,1.5c-1,3.4-0.5,7.1,1.5,11c2,4.4,6,9.2,12.1,14.4c6.1,5.2,16.3,9.4,30.5,12.9c3.4,3.9,6.9,7.6,10.3,11
		C4523.4,792,4527.4,795.9,4531.8,800.3L4531.8,800.3z"/>
</g>
<g>
	<g id="b">
		<path class="st0" d="M3405.6,301.4c-0.7-2.2-1.3-5.3-3.1-6.1c-15.1-7.6-12.6-30.2-32.5-34.4c0,0-10.3-3.1-10.6-2.9
			c-5.8,0-9.3-3.2-12.8-3.5c-1.8-0.2-7.7,0.2-9.7-1.1c-20.1-10.8-9.8-9.7-21.2-17.2c-1.6-1-13.7-10.8-17.2-14.1
			c-0.3-0.3-0.5-0.7-0.8-1c-14.6-5.3-4.7-0.5-29.6-8.8c-2.2-0.8-12.4-6.1-14.3-8.2c0.2-0.8-5-3.8-5-3.8c-2.1-1.4-4.7-2.7-6.3-4.3
			c-9-9-15.4-13.3-25.6-17.1c-17.8-6.6-35.2-14.8-53.9-23c-2.6-1.3-4-2.1-6.1-2.9c-2.6,0.3-10.3-8.8-10.3-8.8s-10.5-18.1-17.1-20.7
			c-13.8-5.6-72.9-30.9-86.9-36.2c-7.4-2.7-53.8-8.7-66.8-11.1c8.9,0.3-12.6-0.8-13.2,1.6c-2.2,10.5-4.9,21.1-5.7,21.7
			c-0.7,0.2-4.7,25.5-5.3,31.8c-0.2,1.3-4.3,40.1-5,43.5c-2.1,14.6-8.8,32.3-8.9,41.4c0,0.8-0.8,50.9-1.2,51.6
			c-14.6,24.9-10.6,38.3-7.3,54.7c-4.5-0.2,8.6,2.8,10.2,3.3c18.2,6.1,59,23.3,75.1,25.1c24.9,2.9,45.8,16.1,68.9,23
			c25.2,7.6,50.2,15.4,76.7,17.4c18.5,1.4,36.8,4.8,55.1,7.4c16.2,2.2,32.6,4.5,49.8,6.6c0.8,0.2,1.4,0.3,2.1,0.8l76.8,57.1
			c1.3,1-7.1-35.7-5.8-36.3c4.2-1.6,7.1,4.5,30.4,15.3c1.6,0.7,24,11.2,24.5,9.7c4.3-16.7,10.9-64.3,11.9-66.4
			C3409.1,376.7,3413.3,329.1,3405.6,301.4L3405.6,301.4z"/>
		<path class="st0" d="M3382.6,940.3c-20.1-1.6-65.8-2.7-85.8-3.8c-26.5-1.6-24.5-2.6-57.1,4c-11.6,2.2-27.5,4-34.1,5.9
			c-40.7,11.7-69.9,2.7-111.6,2.7c-10.9,0-24.6,1.4-36.2,2.1c-2.6,0.2-4.7-1.8-4.8-4.3c-0.2-3.1,0.5-6.7,0.3-8.1
			c-1.6-15.6-2.7-20.7-3.5-36.5c-0.7-13.2-2.2-31.7-1.7-45.3c-0.1,3.6-0.5-7.1-0.9-7.7c2.9-4.4-1.1-14.1,0.4-16.4
			c0,0-2.8-36.2-2.9-38.2c-2.1-33.3-24.4-386.1-26.7-436.2c-0.2-2.7,3.4-12,6.1-11.7c134.1,15.7,323,81.2,317.2,90.5
			c-0.2,4.5,0.5,74.3,2.4,77.2c4.8,7.6,2.6,24.5,3.5,39.5c0,0.7-2.4,10.6-1.9,11.7c1.3,2.9,3.2,3.7,3.1,6.6
			c-1,15.6-2.6-5.9,1.3,15.9c-1.1,1.6,1,8.3,1.1,11.2c2.9-2.2,3.5,18.2,4.2,17.7c2.2,7.7,2.4,20.7,3.8,27.6
			c1.6,8.2,10.9,42.6,8.1,49.2c-4,9.7-1.1-2.4-1.8,4.7c-5,12.2-0.2,10.1-3.2,22c-0.2,0.7-0.2,1.1-0.2,1.8c1,5.8,6.7,23,5.2,31
			c-1.4,7.1-0.3,14.8,0.3,22c1.4,16.7,4,33.3,4.8,49.8c1.1,22-0.7,44.2,5.6,65.9c4,13.8,5.9,28.3,9.3,42.4
			C3388.6,938.6,3388.3,941.1,3382.6,940.3"/>
	</g>
	<g id="c">
		<path class="st1" d="M2993.5,774.7c-0.3-1.3-0.7-2.4-1.1-5.2c0-1.4,0.2-2.2,0.8-2.2c9-3.7,0.5-7.6,0.3-11.2
			c-0.5-26-2.9-52.1-3.4-78.1c-0.7-33.1-0.5-66.1,0-99.2c0.2-8.5,3.5-16.9,4.7-25.4c0.7-5-0.7-10.1-1.1-15.7c-0.2-0.3-0.2-1.3,0-2.1
			c0-2.9,0.7-5.6-0.5-6.7c-10.9-10.5-7.1-23.6-7.2-36c-0.3-29.7-0.2-59.6-0.5-89.4c0-2.6-2.4-5.2-4-8.3c-0.2-1-0.3-1.3,0.5-1.8
			c8.7-8.2,16.4-16.2,24.5-24.3c2.2-2.2,4.7-4.3,7.1-6.1c2.9-2.2,7.2-0.2,7.4,3.5c0,1.9,0.2,3.8,0.2,5.9c1,13,1.9,25.2,2.9,38.3
			c0.3,2.9,0.7,5,0.8,7.7v14.3c0.2,4.3,0.3,7.9,0.5,12.1c0.3,5,0.8,9.3,1.1,14.5c2.9,58.4,5.8,115.7,9,173
			c2.4,44.2,5.3,88.4,7.9,133.4c0.8,13.3,1.8,25.9,2.4,39.1v1c-2.2,14.6,1.5,16.6,2.7,41.5c0.5,0.8,1,1.8,1,2.7
			c0,13-0.3,26,0.2,39.1c0.7,15.7,2.2,31.4,3.7,47.1c0.2,1.6,1,3.2,1.4,8.1c0.3,2.9-2.2,5.3-5.2,4.8c-13-1.9-28.3-3.5-41.5-5.8
			c-2.1-0.3-3.5-2.1-3.7-4.2c-1.3-17.4-1.8-34.2-2.9-51.1c-2.2-34.9-5-69.9-6.7-105.6c1.9-1.6,3.1-2.2,4.3-3.1
			c-1.8-0.3-3.4-0.8-5.2-1.1c0,0-0.3-0.3-0.2-0.8C2993.7,776,2993.7,775.4,2993.5,774.7L2993.5,774.7z"/>
		<path class="st2" d="M2907.7,233.6c5-23.3,9.8-46.8,15-71.7v-0.5c1-9,1.8-16.4,2.6-23.6c0,0-0.2,0,0.7-0.5
			c3.1-9.7,5.3-18.8,7.6-28.1l0,0c3.1-5.9,5.3-12.4,9-17.7c3.5-5.2,8.5-9.2,14.1-14c2.9-0.5,4.5-0.5,6.3,0.2
			c-1.6,6.9-4.3,13-5.3,19.3c-2.9,19.3-5.3,38.6-7.2,57.9c-0.2,2.1,3.4,4.7,5.3,7.1c0.5,1,1,1.9,1.1,3.7
			c-14.1,5.6-13.3,16.1-10.5,27.5l-4.5-0.3c-2.1-0.2,11.6,22.8,4.2,15.6c-2.2,5.9-5.4,7.4-3.6,10.5c10,16.9-15.1,28.1-2.7,44.2
			c0.5,0.5-0.2,1.9-0.5,2.9c-3.2,9.2-5.8,18.6-9.7,27.6c-4,9-2.2,22.3,3.1,29.2c-1.9,2.4,91,23.3,90.8,26.4
			c-0.7,14.3-38.3,40.7-41.3,44.2c-3.7,4.2-73.3-28-78.9-31c-2.4-1.3-2.1-2.7-3.7-3.1c-0.8-11.9-1-23.5-1.1-35.5
			c-0.3-1.1-0.8-1.4-1.4-2.1c0-0.5,0-1.3,0.5-1.9c1.3-9.7,1.9-18.8,3.1-27.8c2.1-17.7,4.3-35.4,6.7-53.7c0.3-1.9,0.5-3.4,0.7-4.7
			L2907.7,233.6z"/>
		<path class="st2" d="M3336.3,424.4c-1.9,2.4,57.7,25.7,55.1,27.3c-5.9,3.4-17.5,11.2-20.4,7.7c-5.2-6.1-27.2,2.6-28.6,3.7
			c-5,4.2-7.4-18.3-5.8-18.3C3335.6,433,3336.3,460.2,3336.3,424.4L3336.3,424.4z"/>
	</g>
	<g id="d">
		<path class="st3" d="M3100.8,819.4c-1.4,0.7-3.1,1.1-4.8,1.9c-0.3-19,0.7-20.6,17.7-27.3c0.2,0,0.3-0.2,0.5-0.2
			c22.2-11.6,43.6-23.5,65.8-33.6c11.1-5,23.8-8.1,36-9.2c14.5-1.1,29.2,0.8,43.9,1.3c5.8,0.2,11.9,2.2,14.5-6.6
			c0.8-2.6,7.6-4.7,11.7-4.8c2.7-0.2,6.6,3.1,8.1,5.8c4.2,7.9,7.2,16.2,10.9,24.5c2.7,6.1,8.8,11.2,4.3,19.3
			c-0.5,0.8,0.7,2.6,1.9,4.2c1.1,1.6,1.1,3.8-0.2,5.5c-7.2,9.3-8.5,8.8-18.2,1c-3.1-2.6-5.9-5.5-9.3-9.5c-8.2-7.7-17.1-7.7-17.1-1.4
			c0,7.2,1.9,14.3,3.4,21.6c0.2,1,0.7,1.9,1.4,2.7c4.7,4,9.7,7.9,13.8,12.2c1.1,1.3,1,5.5-0.2,6.7c-1.1,1.3-5.5,1.6-6.7,0.5
			c-4.7-4-8.7-8.8-15.4-12.7c1,2.4,1.3,5.6,3.1,7.4c4.8,4.8,11.9,8.5,7.2,17.8c-8.5-7.2-16.9-13.7-24.7-20.9
			c-10-9.3-2.7-21.1-3.5-33.1c-3.7-2.6-2.7-2.7-3.2-3.2c-19.6,2.2-39.5,4-59.2,6.7c-0.2,0-0.3,1.1-0.7,2.9c2.9,0,5.9-0.3,8.7-0.5
			c1.9-0.2,3.7,1,4.5,2.6c1.1,2.6,2.4,5.6,3.4,8.2c0,0.8-1.8-0.3-1.8-0.3c-4.2,1-9.8-4-11.1,4c-1,6.7,2.1,11.1,8.5,13.5
			c2.1,0.8,3.7,3.2,5.8,6.3c-0.8,8.8-4.8,5.8-7.4,3.2c-4.7,0.8-8.5-1.3-12.8-2.1c2.4,2.9,4.5,6.1,7.1,8.8c1.4,1.4,3.1,2.7,4.7,4.2
			c2.9,2.2,2.1,7.1-1.6,7.9c-5,1.3-8.8,0.2-12.4-5.3c-0.7-1-1.3-2.4-2.1-2.6c-13.8-2.1-14.5-13.3-16.2-23.6
			c-0.8-5-2.1-10.5-2.9-16.7c-0.3-1.9-1.6-3.4-3.4-3.8c-1-0.2-1.9-0.3-3.2-1c-15.3,4.2-30.7,8.2-45.8,13
			C3102.4,814.7,3101.8,817.6,3100.8,819.4L3100.8,819.4z"/>
	</g>
	<g id="e">
		<path class="st4" d="M3363,436.3c0.3,0.2,0.7,0.3,0.8,0.5c6.3,4.5,11.7,8.7,17.5,13.8c-1.4,1.1-3.2,1.4-5.5,1.3
			c-17.1-8.8-33.8-17.4-50.6-26.4c-4.2-2.1-7.9-3.5-12.4-5.3c-0.3-0.2-0.5-0.2-0.8-0.2c-4.3-1-8.1-1.6-11.7-2.4
			c-0.7-0.2-1.4-0.5-1.9-0.8c-1.6-1.3-3.2-2.6-4.3-4.3c2.9-0.8,5.3-1.3,7.7-1.6c0.8-0.2,1.6,0,2.4,0.3c7.1,2.9,14.1,5.9,21.2,9
			C3337.8,425.3,3350,430.6,3363,436.3L3363,436.3z"/>
		<path class="st4" d="M2932,324.1c0.3-1.9,1.3-3.5,2.9-5.3c17.4,4.2,33.8,10.6,50.6,12.6c24.9,2.9,45.8,16.1,68.9,23
			c24.6,7.4,48.7,15.1,74.4,17.2c4.5,0.3,9,0.8,13.5,1.4c33.1,4.7,61.6,8.3,95.5,13.2h0.3c4.7,1,8.1,1.6,11.4,2.7
			c0.7,0.2,1.1,0.7,1.6,1c1,1,2.1,1.6,3.1,2.6c0,0.5,0.2,1.3-0.7,1.3c-2.1,0-3.4,0.2-4.8,0.2h-1c-10.5-1.6-20.7-3.4-31.2-4.8
			c-3.2-0.5-6.6-0.3-11.4-0.2c-3.2,0.3-5.3,0.3-7.2,0.3c-0.3,0-0.5,0-0.8-0.2c-8.1-1.6-16.1-3.5-24.1-4.5
			c-21.7-2.6-42.3-10-64.6-10.1c-14.3,0-28.5-7.4-42.8-11.6c-15.7-4.7-31.5-9.3-48-14.1c-24.1-5.9-47.4-11.7-70.6-18
			c-5.2-1.1-9.8-4-15.1-6.6L2932,324.1z"/>
		<path class="st4" d="M2928.2,219.1c-0.8-2.1-1.7-3.8,0.4-4.2c2.9-0.8,3.8-3.8,7.1-4.2c-2.1-4.2-5.4-7.1-2.9-11.7
			c1.3-2.1,3.8-2.1,7.1,0.8c-2.9-5-7.5-7.9-5-13.8c1.3-2.5,2.9-2.1,5-3.4c-3.8-2.9-4.2-5.8-1.7-10c1.7-1.7,3.4-2.1,5-3.4
			c1.7-0.8,2.5-1.7,3.8-2.9c2.5-1.7,3.8-4.2,6.7-4.6c2.9-0.4,3.8,1.3,5,2.9c1.3-1.7,0.8-3.4,1.3-5.4c-0.4-4.2,0.8-7.5,1.3-11.7
			c2.1-5.8,2.5-11.7,4.2-17.5c0.8-3.4,2.9-6.3,2.5-10c0.4-2.1,1.3-3.4,1.3-5c0.4-2.1,0.8-3.4,2.9-4.6c1.3-0.4,2.1-0.4,3.4-0.4
			c0.8,0.4,1.3,0.4,1.7,1.3c1.3,2.1,1.3,4.2,2.1,6.7c0.4,1.3,0.8,2.1,1.7,3.4c0.8,0.8,1.7,0.8,2.9,1.7c0.4,0,0.8,0.8,1.3,0.8
			c0.4,0,0.8,0.4,0.8,0.4s0.4-0.4,0.4-0.8c2.9-2.5,6.3-3.4,10-2.1c1.7,1.3,2.1,2.5,2.5,4.6c0,1.3,0,1.7,0.4,2.5
			c0.4,0.8,0.8,1.3,1.7,1.7h2.5c3.4-0.8,6.3-2.5,8.3-5.4c1.7-0.8,2.5-0.8,4.2-0.8c1.3,0.4,2.1,0.8,2.9,1.7c0.4,0.8,0.4,1.3,0.8,2.1
			c0,1.3,0,2.1-0.8,3.4c-0.4,0.8-0.4,1.3-1.3,1.7c-1.3,1.3-2.1,1.7-3.4,2.5c-2.9,1.7-5.4,3.4-8.3,4.6c-1.3,0.4-1.7,0.8-2.9,0.8
			c-2.1,0.4-3.8-0.4-5.8,0.4c-1.3,1.3-2.1,2.5-3.4,3.8c-0.8,0.8-1.7,1.3-2.5,1.7c-2.1,0.8-3.8,1.3-5.8,1.7c-1.3,0.4-2.1,0.4-2.5,1.7
			c-0.4,1.3-0.4,2.1-1.3,3.4c-1.7,2.5-4.2,2.5-7.1,2.5c-3.8,2.9-4.6,7.1-5,11.3c0,2.9-1.7,5.4-3.4,7.9l-0.4,0.4
			c1.7-2.1,2.5-5,6.3-3.4c2.1,2.1,1.7,4.2,2.9,6.7c0.4,3.4,1.7,5.4,4.2,7.5c-0.8,7.1,1.7,13.4,2.9,20v3.4c0,1.7,0.4,2.5,0.8,3.8
			c0.4,1.3,0.4,1.7,0.8,2.9c0.4,1.7,1.3,2.9,1.7,4.6c0,8.3-1.3,15.5-1.7,23.8v3.4c0,1.7,0,2.5-0.4,4.2c-0.4,1.3-0.4,2.1-0.8,2.9
			c-0.4,1.3-0.4,1.7-1.3,2.9c-0.3,0.5-0.7,1.1-1.3,1.7c-0.8,1.3-1.3,2.1-2.1,3.4c-0.8,1.3-1.7,2.1-2.5,3.8c0,0.8-0.4,1.3-0.4,1.7
			l-1.3,2.5c-0.3,0.5-0.7,1.1-1.3,1.7c-0.8,0.8-1.3,1.3-2.5,1.7c-3.4,0.8-6.3,1.3-9.6,0.4c-3.8-2.1-6.3-5.8-10.9-7.5
			c-1.3,3.4-2.5,6.7-7.1,8.3c-2.9,1.3-4.6,3.4-4.6,6.7c0,1.3,0,2.1-0.4,2.9c-1.3,2.1-1.3,4.2,0,6.3c0.4,1.3,0.4,1.7,0.4,2.9
			c0,2.9-1.3,5-0.4,7.9c0.4,2.5,0,4.6-0.8,7.1c-0.4,1.7-0.8,2.9-0.8,5c0,1.3-0.4,2.1-0.8,3.4c-1.7,3.8-4.2,5.8-8.8,4.6
			c-0.8-0.4-1.3-0.8-1.7-1.7c-2.5-13.4,0.4-25.9,1.7-38c0.4-5,0-9.6-0.4-15c-1.7-7.5-1.7-14.6,1.7-22.1c0-3.4,0-6.3-1.3-9.2v-5
			c1.7-3.8-0.4-7.1,0.8-10.9C2928.6,220,2928.6,219.6,2928.2,219.1C2928.2,219.1,2928.2,219.1,2928.2,219.1z"/>
		<path class="st4" d="M3247,201.1c3.2,0,5.7,1.3,8.6,2.2c3.5,1.3,6.3,2.5,9.5,4.1c0.9,0.7,1.3,0.9,2.2,1.6c1.9,0.7,3.8,0.9,5.4,2.2
			c1.6,0.7,2.5,0.9,4.1,1.6c2.2,1.9,5.1,1.6,7,3.8c0.7,0.3,0.9,0.3,1.9,0.3c3.8,2.2,7.9,3.5,12.4,5.4c2.2,2.2,3.2,4.8,3.2,7.9
			c-0.7,1.6-1.6,2.2-3.5,2.2c-1.9-0.3-2.2-3.2-5.1-1.6c-1.9,0.7-3.2-0.7-5.1-0.9c-0.4,0-0.9,0.1-1.3,0.3c-0.9,0.3-1.6,0.7-2.2,1.3
			c-0.9,0.7-1.9,0.9-2.9,1.6c-0.9,0.3-1.6,0.9-2.2,1.6c-0.3,0.3-0.7,0.7-1.3,0.7c-4.1-0.7-4.1-3.8-5.7-6.7c-0.7-0.9-1.3-1.3-1.9-2.2
			c-0.9-0.9-1.3-1.9-2.5-2.5c-0.7-0.7-1.3-1.3-1.9-1.9c-2.9-1.3-5.4-2.5-7.3-5.1c-0.7-0.3-0.7-0.7-1.3-0.9c-1.3-0.9-2.5-1.6-3.5-2.9
			c-1.9-1.9-3.5-3.2-6.1-4.1l-1.9-0.9c-1.3-0.9-2.2-1.6-3.8-1.9c-1.9-0.3-3.5-0.9-5.4-1.6c-5.1-0.9-7.9-4.1-11.1-7.9
			c-0.3-0.9-0.7-1.6-0.7-2.5c0.3-0.9,0.7-1.6,1.3-2.2c0.9,0,1.6,0,2.2,0.3c2.2,2.2,4.8,3.2,7.9,4.1c3.8-0.7,5.7,1.6,8.6,3.5
			C3245.5,200.5,3246.1,201.1,3247,201.1L3247,201.1L3247,201.1z"/>
		<path class="st4" d="M3264.2,517.1c-2.9,2.6-6.5,4.5-6.5,9.1c-2.2,2.9-3.9,5.5-5.8,8.4c-1.3,0.7-2.9,0-3.9,1.3
			c-0.7,0.7-1.3,1.3-1.6,2.3l-0.7,1.3c-2,2.6-3.9,4.2-3.2,7.4c0.3,1.6-0.7,3.9-2,3.9c-6.8,0.3-5.5,5.8-7.4,10.1
			c-1,0.7-1.3,0.7-2.3,0.7c-2.9-2.2-4.5-0.3-5.8,1.3c-4.5,7.5-11.7,13.3-13.3,23c-2.2,1.6-5.8,0.7-5.8,5.2c-0.7,1.3-1.6,2.3-2.6,2.3
			c-7.4-0.7-7.8,5.5-10.4,10.4c-0.3,1.6-1.3,2.6-0.7,4.5c0.3,0.7,0.3,1,0.3,1.6c0,2-0.7,3.2-2.6,3.9c-0.7,0-1,0-1.6-0.3
			c-0.3-0.3-0.7-0.7-1-1c0-0.3-0.3-0.7-0.3-0.7l-0.3,0.3c0,0.7-0.3,1.3-0.3,2c-0.3,1-0.7,1.3-1.3,2c-4.2,1.6-4.2,5.5-5.5,9.1
			c-1.6,3.2-2.6,6.8-6.8,7.5c-0.7-0.3-1-0.7-1.6-0.7c-0.3,1.3-1,2.3-1.6,3.6c-3.6,6.5-7.8,12.3-12.6,18.2c-2.9,2.6-3.2,5.8-4.9,9.1
			c-2,2-3.6,3.9-5.5,5.2c-3.6,3.2-5.5,7.2-6.5,12c-3.2,6.8-9.4,11-11.7,18.2c-2.2,2-4.2,3.9-5.2,6.8c-1.3,2.6-2.9,4.5-5.2,6.5
			c-5.8,5.8-8.1,13.3-12.3,19.8c-0.7,1.3-1.3,2.6-2.2,3.9c-2,1.6-2.6,3.2-3.6,5.5c-1,2-2.9,2-4.5,3.6c-0.7,1-1.3,1.3-2,2.3
			c-0.3,0.3-0.7,0.7-1,1c-0.7,1-0.7,1.6-1.3,2.6c-0.7,1.3-2,2.3-2.9,3.6c-1.9,4.5-5.5,8.4-4.9,13.9c-2,2.9-3.2,5.8-3.6,9.4
			c-0.3,2.6-1.9,4.2-2.9,6.5c-0.3,1-0.3,1.3-0.7,2.3c-0.3,1.3-0.7,2-1.3,2.9c-2.2,6.8-4.9,13.3-5.5,20.4c-2.9,4.2-4.2,8.4-2.9,13.6
			c-0.3,0.7-0.3,1-0.7,1.3c-0.7,1-1.3,1.3-2,2.3c-0.3,0.7-0.3,1.3-0.3,2c0,2.6-1.3,4.2-1.3,6.8c0,3.6-1.6,5.8-2.9,8.8
			c-0.3,1-0.7,1.6-0.7,2.9c0,1,0.3,1.6,0.7,2.6c0.2,0.4,0.3,0.9,0.3,1.3c0.3,1.3,1,2,2,2.9c3.9,2.2,7.2,4.5,6.2,10.1
			c-2,3.2-1,5.5,1.6,7.8c2.3,2,4.2,4.5,7.8,5.5c1,0.3,1.3,0.7,2.3,1c0.7,0.3,0.7,0.7,1.6,1.3c1.3,1.3,2,1,2.9-0.3
			c0.3-0.7,0.7-0.7,1.3-1.3c5.2-2,8.4,1.3,12,4.5c0.7,0.7,1,1.3,1,2.2c0,2,0.7,3.2,0.3,5.2c-0.3,0.3-0.7,0.7-1.3,1
			c-2,0.3-3.2-1-4.9-1.6c2.9,3.2,4.2,6.2,1,9.7c-0.3,1-0.3,1.3-0.3,2.3v1.3c0.3,0.7,0.3,1.3,0.3,2v1.3c-0.3,1.3-1.3,2-1.9,2.9
			c-0.7,0.7-1,1.3-1.3,2.6c-0.3,1-0.7,1.3-1.3,2c-6.5,0-8.1-1.9-6.2-7.4c0.7-2,1-3.9,1.9-5.8c0.7-1.3,1.3-2.6-0.7-3.6
			c-1.6-1-2.9-1-4.2,1.3c-0.7,0.7-1.3,1-2.2,1.3c-1,0-1.6,0-2.6-0.3c-1.3-0.3-2-1-2.9-1.6c-0.7-0.7-1-1.3-1.3-2
			c-0.3-1-0.7-1.6-1-2.9c-0.3-0.7-0.7-1-1.3-1.6c-1-1-1.6-1.6-2.6-2.9c-0.2-0.4-0.4-0.9-0.7-1.3c-1.3-3.9-5.5-4.5-7.5-7.4
			c-0.7-0.7-1-1-1.6-1.6c-0.7-0.3-1.3-0.7-2-1.3c-0.4-0.2-0.9-0.4-1.3-0.7c-0.7-0.3-0.7-0.7-1.3-1c-2.6-1.6-6.2-1.3-7.2-5.2
			c-3.6-10.4-2.6-21.1-4.6-31.1c-0.7-3.9,1.6-7.2,1.3-11c0-0.7-0.3-1-0.7-1.3c-0.4-0.2-0.9-0.4-1.3-0.7c-0.3,0-0.7-0.3-1-0.3
			s0.3,0.3,0.7,0.3c1,0.3,1.3,0.3,2,1.3c0.3,1,0.3,1.3,0.3,2.6c-1.9,5.8-4.9,6.8-9.1,3.9c-1.3-1-2.3-2.6-4.5-3.6
			c-1.6-2-1.6-3.9-1.6-6.5c0-1,0.3-1.6,0.7-2.6c0.3-1,0.7-1.6,1-2.3c0.7-1.3,1.6-1.3,2.2-2.3c-0.3,0-0.7,0-1.3-0.3
			c-0.3-0.3-0.7-0.7-1-1.3c-0.3-1.3-0.3-2.6-0.3-3.9c-0.3-1.6-0.7-2.9-0.7-4.9c0-1.6,0-2.6,0.3-4.2c0.3-1,0.3-1.6,1-2.3
			c1.3-1,2.6-1,4.2-1c2.6,1,4.2,2.6,6.5,3.9c0.3,1,1.3,1.3,0.3,2c1.3-0.7,0-1.6,0.3-2.9c0-1,0.3-1.3,0.7-2.3
			c1.6-2.3,1.6-4.9,3.2-7.2c1-0.7,1.6-1,2.6-1.3c0.7-0.3,1.3-0.7,2-1c0.7-0.3,1.3-0.3,2-0.7h1c0.3,0,0.7-0.3,0.7-0.3
			c0-1.3,0.3-2.6,1.3-3.6c0.3-0.3,0.7-0.7,1.3-1c7.1-3.6,7.4-11,10.3-16.9c0.7-4.9,4.5-7.2,6.8-11c0.3-0.7,0.3-1,0.7-1.6
			c1.3-3.2,2.2-5.8,1.6-9.4v-1.6c0.3-1.3,0.7-2,1-3.2c0.7-1.6,1.6-2.6,2.6-3.9c0.2-0.4,0.5-0.9,1-1.3c1.3-1.3,2.2-2,3.6-2.9
			c1-1,2-1.3,2.9-2.3c0.7-0.3,1-0.7,1.3-1.3c0.3-0.7,0.3-1,0.3-2s0.3-1,0.3-1.6c0.3-1.3,1-2,1.6-3.2c1.6-3.2,2.9-6.2,5.2-8.8
			c0.7-0.7,1.3-1,2-1.3c2.6-2,5.2-2.6,6.8-5.2c5.2-2,5.8-7.5,9.4-10.7l1.6-1.6c2-2,2.9-3.9,5.5-5.2c2.6-1,3.9-3.6,3.6-6.8
			c0-1,0.3-1.6,0.7-2.3s0.7-0.7,1.3-1.3c4.2-2,5.8-5.5,7.4-8.8c1.3-3.2,2.9-6.2,5.2-9.1c6.8-8.4,13.3-16.6,18.5-26.3
			c1-1.6,2.2-2.3,3.6-3.6c2.2-2,1.9-4.5,3.2-7.2c0.3-0.7,0.3-1,0.3-1.6c0.3-1,0.7-1.3,1.3-2c0.7-1.3,1.6-2,2.6-2.9
			c2.6-2.6,4.9-5.2,6.1-9.1c2.9-3.6,0.7-8.4,3.2-12c1.3-2,2.9-3.2,3.6-5.5c0.7-1,1-2,2-2.6c0.7-1,1.6-1.3,2.2-2.3
			c0.7-1.3,1-2.3,1.6-3.2c0.7-0.7,1-1,1.6-1.3c0.3-0.7,0.7-1,1.3-1.6l1-2c0.7-1,1-1.6,1.6-2.6c0.3-0.3,0.7-0.7,1.3-1.3
			c2-1.6,3.9-2,5.2-3.6c0.3-0.3,0.7-0.7,1-1.3c2.2-2,3.6-3.9,6.2-4.9c2-0.7,3.6-0.3,5.2-1.3c9.7-9.1,13.9-22.1,23.3-31.5
			c0.7-0.3,0.7-0.7,1.3-1c1-0.3,2-0.7,2.6-1.3c2.9-7.8,9.4-12,15.9-16.6c1-0.7,1.3-1,2-1.3c5.5-4.9,11.7-8.8,17.2-12.7
			c4.9-3.6,11-6.2,12.3-13c0.3-1,1.3-1.6,2.6-2c8.1-3.6,14.6-9.1,23-10.7c1.3-0.3,2.6-1,3.2,0c1,1-0.7,1-1,2c-0.3,0.7-0.3,1-0.3,1.6
			c-1.3,0.7-2.9,0-3.9,2.3c-0.3,2.9-3.6,2.9-4.5,5.2c-2.6,4.9-5.2,8.8-10.1,12c-3.2,3.2-6.2,6.2-10.1,8.8c-1.3,0.3-2,0.3-3.2,0.7
			c-0.7,0.7-0.7,1.6-1,2c-4.9,0.7-7.8,4.5-11,7.8c1,2.2-1.3,2.3-3.2,2.9l0,0L3264.2,517.1z"/>
		<path class="st4" d="M3019.8,230.8c-1-2.9-1.6-5.8-3.5-8.3c-2.2-3.8-0.3-8.3-1.9-12.5c-1.6-3.8-3.5-7.4,0.3-11.2
			c0.3-0.7,0.7-1,1-1.6c5.8-1.9,6.7-1.3,9,5.2c-0.3,2.2-0.3,3.8-1,5.8c-1.9,1.6-1.3,3.5-1,5.2c2.2-0.3,4.5-0.7,6.4-2.9
			c0.2-0.4,0.4-0.8,0.7-1c1.9,1.6,2.6,3.2,0,4.5c-1.6,1-1.6,2.2-0.7,3.5c2.2,2.9,0,6.1,1.3,9c1.6,2.6,2.9,5.4,5.2,7.7
			c0.7,0.7-0.3,1.9-0.7,2.6c-1,4.5-2.2,9,0.7,13.5c-2.6,1-1.6,4.2-3.5,5.8c-3.5-1-1.9-4.5-3.2-7.1c-0.3-1.6-1-3.2-0.7-4.5
			c1.3-4.2-0.3-6.1-4.5-6.7c-1,0-1.3-1.3-1.6-2.6C3021.1,234,3020.5,232.7,3019.8,230.8L3019.8,230.8L3019.8,230.8z"/>
		<path class="st4" d="M3204.4,254.6c1.4-1.6,1.9-3.8,4.4-3.8c1.6,1.6,0.3,3.3,0.5,5.2c0.3,1.1,0.3,1.9,0.3,3
			c0.3,0.8,0.5,1.4,0.5,2.5c-0.3,1.4-0.5,1.9-1.4,3c-1.1,0.8-1.9,1.6-3,1.6c-0.3,0-0.5-0.3-0.5-0.3s-0.3,0.3,0,0.3
			c0.3,0,0.3,0.5,0.3,0.8c0,0.5-0.3,1.1-0.5,1.6c-2.2,0.8-4.1,1.4-6.6,1.1c-0.8-0.8-1.1-1.4-1.4-2.7c0-1.4-0.3-2.5,0.3-3.8
			c0.3-0.8,1.1-1.1,0.5-2.2c-0.3-1.9,0.3-3,1.6-4.4c1.1-1.1,2.5-1.1,4.1-1.4l0.3-0.3C3204.1,255.3,3204.4,255.1,3204.4,254.6
			L3204.4,254.6L3204.4,254.6z"/>
		<path class="st4" d="M3026,586.4c0-3.2-0.4-6.1-0.4-9.3c0-6.1-0.4-11.3-0.4-16.9c-0.4-4-1.2-7.3-1.6-11.3c2.8-1.2,3.2-4.5,1.6-8.5
			c-1.2-2.4,0.4-2.4-1.1-5.2c-0.8-2-1.2-3.6-1.6-6.1v-1.6c-0.4-1.6-0.4-2.4-0.4-4.5c0.8-1.6,1.2-2.8,1.6-4.5c0-1.2,0-2,0.4-3.2
			c0.4-2.8,0-5.2-1.2-7.6c-0.4-1.2-0.4-1.6-0.4-2.8c0.4-1.2,0.8-2,0.4-3.2c-0.4-0.8-0.8-1.6-0.8-2.8c-0.4-0.8-0.4-1.2-0.4-2
			c0.8-1.6,1.6-2,2.8-2.8c1.2-0.4,1.6-0.8,3.2-0.8c0.8,0,1.2,0.4,2,0.4c1.2,0.4,1.6,1.2,2.4,2c0.4,1.2,0.8,1.6,0.8,2.8
			c0,0.8-0.4,1.2-0.4,2c-0.4,0.8-0.8,1.6-1.6,2.4c-0.3,0.5-0.4,1.1-0.4,1.6c0.4,1.6,0.8,2,2.4,1.2c3.2-2.4,1.2-6.5,3.6-9.3
			c3.2-0.8,4,1.6,6.1,3.6c2,5.2,2.4,9.3-2,13.3c-3.2,2.8-1.2,6.5,0,10.1c0,5.6-4,10.5-2,16.2c0-3.6-1.6-7.6,2.4-10.9
			c2-1.2,3.6-1.6,6.1-1.2c4.5,7.6,2.8,12.9-4.5,18.6c2.8,1.2,6.1-1.2,9.3,1.2c0.8,0.8,0.8,1.6,0.8,2.8c-0.8,2-2,3.2-2.4,5.2
			c-0.8,1.2-2,1.6-3.2,1.6c-1.6,0.4-1.6,1.2-1.6,2.4c0,0.4,0.4,0,0.4-0.4c0.4-0.8,0.8-0.8,2-1.2c2.4,0.8,3.6,2.8,5.2,4.5
			c2,3.6,2,6.9,2.8,10.5c0,1.2,0,2-0.4,3.2c-1.2,1.2-2.4,1.2-3.6,1.2s-2,0.4-2.8,1.2c0.4-0.4,0.8-0.8,1.6-1.2c2.4,0,4.5-0.4,6.5,0
			c1.2,0.8,2.4,1.2,4,0.8c1.6-0.4,2.4,0,4,0.4c3.6,4,3.2,8.9,3.2,14.1c-1.6,3.6-1.6,8.9-8.1,6.5c-0.8-0.4-0.8-0.8-1.6-1.6
			c-0.8-0.8-1.6-1.6-2.4-1.6c0,0,0,0.4,0.4,0.4c0.8,0,1.2,0.4,1.6,0.8c0.4,0.4,0.8,0.8,1.2,1.2c0.4,0.8,0.8,1.6,0.8,2.8
			c-0.8,4-1.6,7.3-3.2,11.3c-1.6,2.4-4,3.6-3.6,6.9c-0.4,3.2,0.8,6.1,0.4,9.3c-0.4,1.2-0.4,2.4,0.4,3.2c0.8,0.8,1.2,1.2,2,1.6
			c0.4,1.2,0.4,2,0.4,2.8s-0.4,1.6,0,0.4c0,0,0.4,0,0.8-0.4c0.8-0.4,1.6-0.4,2.8,0c1.6,0.4,2.4,0.8,3.2,2.4c0.8,1.6,0.8,2.4,0,3.6
			c-0.8,0.4-1.6,0.8-2.4,0.8c-0.4,0.4-0.8,0.8-1.2,1.2c-1.6,1.6-2.8,2.8-2.8,5.2c5.6,3.6,4.8,8.5,3.6,13.7c0,1.6,0.4,2.4-0.4,4
			c-0.8,1.2-1.6,2-3.2,2.4h-0.4c0.8-0.4,1.2-0.4,2-1.2c0.4-0.4,0.8-0.8,1.6-1.2c0.8,0,1.2,0,2,0.4c0.8,0.8,1.2,1.2,2,2.4
			c0.8,4-0.4,6.5-2.8,9.3c-0.4,0.8-0.8,1.6-1.2,2.8c-1.2,4.8,0,9.7-1.6,14.5c-0.4,0.8-0.4-0.4,0,0.8c0.4,0.8,0.4-0.4,1.2-0.4
			c3.2-0.4,4.5,1.2,6.1,3.6c0.4,1.2,0.4,2,0,3.2c-2,4.5-5.2,6.9-9.3,8.9c-1.2,1.2-2,2-2.4,3.6c-0.4,1.6-0.8,2.8-0.8,4.5
			c-0.4,1.6-0.8,2.8-2,4c-0.4,0.8-0.8,1.2-1.2,2.4c0.8,1.2,2.4,1.2,3.6,2c2,2,2.4,4,2.8,6.9c0,1.6-0.4,2.8-1.6,4
			c-0.8,0.8-1.2,1.2-2.4,1.6h-1.6c-0.4,0-0.8-0.4-1.2-0.8c-0.4-0.4-0.8-0.4-0.4,0c0.4,0.4,0.4,1.2,0.4,1.6c-0.4,1.6-0.8,2.8,0.4,4
			c0.8,0.8,1.2,1.6,1.6,2.4c0.8,1.2,1.2,2.4,1.6,3.6c0.4,2.4-0.4,4-1.2,6.1c-1.2,2.4-3.2,3.6-4.8,5.2c-3.2,0.8-5.6,1.6-8.9,0.8
			c-0.8-0.4-1.2-0.4-1.6-1.2c-1.2-2.4-0.8-4.5-2.4-6.9c-4-14.9-6.9-29-6.5-44c0.4-4.8,0-10.1-1.2-14.9c-2.4-8.9-0.4-17.3,1.2-26.6
			c1.6-10.5,2-20.2,2.4-29.9c0-7.6-0.8-16.2-4.5-23.8c-0.4-6.9-0.8-12.9-0.4-19.8v-4C3026,590.9,3026.4,588.9,3026,586.4L3026,586.4
			L3026,586.4z"/>
		<path class="st4" d="M3020.8,436.8c-2.5-7.5-4.2-14.2-3.4-22.2c0.4-3.8,0.8-8.8-0.8-13c-1.7-3.4,0.8-6.7-0.8-10.1
			c-0.4-2.9,0-5.8-1.3-9.2c-0.4-2.9-0.4-5.4,1.3-8c0.8-0.8,1.7-1.3,3.4-1.3c1.3,0.4,2.1,0.8,2.5,2.1c0.8,2.5,1.3,4.6,2.9,6.7
			c0.8,0.8,0.8,1.7,1.7,2.5c0.4,1.3,0.4,2.5,0.4,3.8c0,0.8,0,1.7-0.4,2.5v1.3c0,0.4,0.4,0.8,0.8,0.8c0.4,0.4,0.8,0.4,1.3,1.3
			c0.4,1.7,0,2.9-0.8,4.6c-0.4,1.7-0.8,2.9-0.8,4.6c-0.4,1.7-0.4,2.9,0.4,4.2c1.3,2.1,2.1,3.8,1.7,6.3c-0.4,1.7-1.3,2.5-0.8,4.2v3.8
			c-0.4,1.7-0.8,2.9-0.8,4.6v2.1c0,3.4-0.8,5.4-2.9,8.4C3022.9,436.7,3022.1,437.1,3020.8,436.8L3020.8,436.8L3020.8,436.8z"/>
		<path class="st4" d="M3027,484.7c-2-2.9-2.9-0.9-3.5,0.3c-0.6,1.2,0.6,2.9-1.2,3.8c-3.5-3.5-2-7.9-1.8-11.8c0-1.8,0.3-2.9-0.3-4.7
			c-1.2-5-0.3-10-0.3-15.3c0-6.5-0.6-12.7,1.5-19.4c0.6-0.6,0.9-0.6,1.8-0.6c4.1,0.9,3.5,3.5,2.7,5.9c-0.9,3.2-1.8,6.2,0.6,9.7
			c1.8,2.4,2,5,1.2,7.4c-0.9,2.4-0.6,4.7-0.3,7.4c-0.3,1.5-0.3,2.7-0.3,4.1c0,0.9,0.3,0.6,1.2,0.6
			C3031.8,477.1,3031.5,480.9,3027,484.7L3027,484.7L3027,484.7z"/>
		<path class="st4" d="M2944.4,138c4.2-1.2,4.5-2.1,1.5-5.6c-0.3-0.3,0-0.9,0-0.9c0.9-1.2,1.8-2.4,3-3.3c0.6-5.9-0.9-11.9,1.2-17.5
			c1.5,0,2.4-0.6,3.6-0.6c4.2,0.3,4.7,2.1,3.6,5.4c-0.6,1.8-1.5,3.3-2.7,5.4c-0.9,1.5-0.6,2.7,0.3,3.8c-0.9,3.3,1.2,6.2,0.3,9.5
			c-0.6,1.8-0.6,3-0.6,4.7c0,1.2-0.3,2.1-0.3,3.3c0,0.6,0,1.2-0.3,1.8c-0.3,0.6-0.3,1.2-0.3,1.8s0,0.6-0.3,1.2
			c0,0.6-0.3,0.6-0.3,1.2c-0.2,0.4-0.4,0.8-0.6,1.2c-0.6,1.2-0.9,2.4-0.9,3.8v1.5c-0.6,1.8,0.3,3.3,0,5.4c-1.5,2.4-3.3,3.3-5.9,2.1
			c-0.6-0.6-0.9-0.6-1.2-1.5c0-2.4,0-4.2,1.2-5.9V152c0-1.5-0.6-2.4-1.2-3.8c-0.3-0.3-0.3-0.9-0.3-1.2c0.3-0.6,0.3-0.9,0.6-1.5
			C2945.9,142.8,2944.1,141,2944.4,138L2944.4,138L2944.4,138z"/>
		<path class="st4" d="M2953.1,78.8c-2.5-0.5-2.5-2.2-1.6-4.1c5.5-3.3,11-3.6,16.8,0.5c2.2,1.4,1.6,2.5,0,3.8
			c-0.8,0.3-1.1,0.5-1.9,0.5c-0.5,0.3-0.8,0.3-1.4,0.8v1.1c0,1.1,0.3,1.9,0.5,3c0.3,2.5,0.8,4.7-0.3,7.2c-1.9,1.9-3.8,3.6-5.5-0.3
			c-0.3-1.6,0.5-2.2,0.5-3.6c-0.3-0.3-0.3-0.5-0.5-1.1c0.3-0.5,0.3-0.8,0.5-0.8l0,0c0.3,0.5-0.8,0-0.3,0.3c-0.3,0.8,0.3,1.4,0.5,2.2
			c-0.3,0.8-0.5,1.4-1.4,2.2c-3,0.5-4.1-1.1-4.9-3.3C2953.6,84.2,2951.3,81.7,2953.1,78.8L2953.1,78.8L2953.1,78.8z"/>
		<path class="st4" d="M2950.9,94.6v-2.5c0-0.3,0.3-0.6,0.6-0.9c0.6-0.6,0.6-0.9,0.9-1.4c0.3-0.3,0.6-0.3,0.9-0.6
			c0.4,0,0.7,0.1,1.1,0.3c1.4,1.7,0.9,4.2,3.6,4.5c0.6,0,0.9,0,1.1,0.3c0.9,0.9-1.7,2.2,0.9,2.8c0.3,0.9,0.6,1.1,0.3,2
			c-2.8,1.4-6.2,2.2-4.2,6.7c0.3,0.6,0.3,0.9,0,1.4c-0.6,1.4-1.7,1.7-2.8,2.2c-0.6,0.6-0.9,0.6-1.4,0.6c-1.1-0.3-1.7-0.6-2.2-1.7
			c-0.6-3.9-1.1-7.6,0-11.5C2950.4,96.3,2951.2,96,2950.9,94.6L2950.9,94.6z"/>
		<path class="st4" d="M2991.4,81.3c4.4,0,8.1-0.3,11.9-1.6c4.4-1.3,8.8-0.9,13.5,0.9c0.3,0.6,0.6,0.6,0.6,1.3
			c-0.3,0.9-0.9,1.3-1.9,1.9c-0.6,0.3-0.9,0.6-1.6,0.9c-0.6,0.6-0.9,1.3-0.9,2.2c0,1.3-0.3,2.2-0.6,3.1c-0.3,0.6-0.3,1.3,0,1.9
			c1.3,3.1-0.3,4.1-3.1,4.4c-1.6,0-2.5,0-3.8-0.6c-0.6-0.3-0.9-0.6-1.3-0.9c-0.2-0.2-0.1-0.1,0.3,0.3c0.6,0.9,0.9,1.6,1.3,2.8
			c0,0.9-0.3,1.6-0.6,2.5c-0.4,0.4-0.8,0.7-1.3,0.9c-2.8,0-3.1-2.5-5-4.1c-1.6-1.6-2.8-2.8-2.8-4.7
			C2996,88.2,2993.5,84.8,2991.4,81.3L2991.4,81.3L2991.4,81.3z"/>
		<path class="st4" d="M3064.9,98c-0.9,6.8-1.5,13.2-1.8,20.4c-0.6,1-1.2,1.3-2.1,1.3c-1.5-0.3-2.5-0.7-3.7-1.9
			c-0.6-1.3-0.9-1.9-0.6-3.2c0.6-1.6,1.2-2.2,2.1-3.2c0.6-2.2,0-3.9-0.3-5.5c-0.9-4.8-3.1-7.1-7.9-4.8c-0.9,0.3-1.2,0.7-2.1,0.7
			h-1.2c-0.9-0.3-1.5-0.3-2.5,0.3c-0.3,0.3-0.6,0.7-1.2,0.7c-0.9,0-1.2,0-2.1-0.3c-0.6-0.3-0.6-0.7-0.9-1.3
			c-0.6-2.2-0.3-3.9,1.2-5.8c2.5-1.9,4.9-1,7.6-1.3C3054.9,94.2,3060.1,95.5,3064.9,98L3064.9,98L3064.9,98z"/>
	</g>
</g>
</svg>
