<svg xmlns="http://www.w3.org/2000/svg" width="516.653" height="102.918" viewBox="0 0 516.653 102.918">
  <g id="logo" transform="translate(-64.768 -71.417)">
    <g id="Group_167" data-name="Group 167" transform="translate(65.6 82.644)">
      <path id="Path_264" data-name="Path 264" d="M111.984,280.7c-.058.911-.081,1.833-.081,2.8s-.023,1.925-.081,2.882a18.621,18.621,0,0,1-.38,2.8,10.92,10.92,0,0,1-.888,2.547,14.2,14.2,0,0,0,.553,1.314,5.007,5.007,0,0,1,.461,1.314,43.029,43.029,0,0,1-.081,4.749c-.115,1.245-.254,2.328-.426,3.262s-.369,1.821-.6,2.674a18.668,18.668,0,0,0-.507,2.974l.934-2.04.507-.081-.173,6.7.173.173a13.055,13.055,0,0,0-.38,2.328q-.121,1.4-.207,2.974c-.058,1.049-.081,2.063-.081,3.055v2.5h-1.867l-4.5-3.654a.7.7,0,0,0-.3-.726c-.254-.2-.553-.415-.888-.634s-.669-.45-.98-.68a1.1,1.1,0,0,1-.461-.934q-1.193-1.02-2.455-2.248c-.853-.818-1.741-1.625-2.674-2.421s-1.867-1.51-2.8-2.167a11.831,11.831,0,0,0-2.847-1.487l1.36-.853a2.969,2.969,0,0,0-1.268-1.314,9.26,9.26,0,0,1-1.522-.888,45.483,45.483,0,0,1-5.129-3.689,53.084,53.084,0,0,1-4.715-4.288,11.786,11.786,0,0,1-1.487-2.167,2.685,2.685,0,0,0-2.075-1.487L74.6,292.466h-.334a5.691,5.691,0,0,1-1.06-1.741,4.939,4.939,0,0,0-1.06-1.66,1.174,1.174,0,0,0,0-.634q-.086-.381-.173-.208l-.68.334-.173.427-.761-.6A4.305,4.305,0,0,1,69,287.117c-.173-.334.081-.6.761-.761l-1.867-.254-.761.426c-.115,0-.15-.069-.127-.207a2.68,2.68,0,0,0,.046-.427.9.9,0,0,0-.046-.334c-.023-.081-.127-.046-.3.127l-.934-.853-.173-.6c1.245-1.475,2.5-2.939,3.781-4.415s2.559-2.939,3.862-4.415a6.582,6.582,0,0,1,1.694-.127,1.35,1.35,0,0,0,1.36-.888l-.334-1.614c.058-.115.138-.288.254-.507a.583.583,0,0,0,.081-.507c.173-.173.646-.576,1.441-1.233s1.729-1.441,2.8-2.375,2.2-1.948,3.389-3.055,2.305-2.19,3.354-3.262,1.937-2.063,2.674-2.974a5.6,5.6,0,0,0,1.268-2.2l3.389-2.455c.334.058.68.127,1.014.207a4.017,4.017,0,0,0,.934.127,1.141,1.141,0,0,0,1.141-.6,2.618,2.618,0,0,0,.254-1.36,5.968,5.968,0,0,0-.3-1.568,8.415,8.415,0,0,1-.334-1.314,7.311,7.311,0,0,0,1.741-1.141,5.891,5.891,0,0,0,1.314-1.66l8.311,7.216-.934,1.187a10.283,10.283,0,0,0-2.674,2.04q-1.573,1.522-3.354,3.516c-1.187,1.326-2.421,2.732-3.689,4.2s-2.513,2.824-3.735,4.069a32.926,32.926,0,0,1-3.435,3.1,5,5,0,0,1-2.882,1.233l.761,2.04a11.423,11.423,0,0,0-3.815,2.248,6.9,6.9,0,0,0-1.522,2.2,11.49,11.49,0,0,0-.6,1.948,2.76,2.76,0,0,1-.934,1.568v.426a2.025,2.025,0,0,0,.127.68c.081.231.15.427.208.6l1.614.254L83.4,288.65a9.156,9.156,0,0,0,1.395-.254,10.48,10.48,0,0,0,1.395-.507q3.821,3.3,7.343,6.663c2.351,2.236,4.818,4.369,7.423,6.409l-.6-11.538c.392,0,.611-.3.634-.888a2.754,2.754,0,0,1,.3-1.314l.334-.426a4.02,4.02,0,0,1-1.014-1.821,19.654,19.654,0,0,1-.934-4.2l5.349-.081Zm-35.8,12.726a.806.806,0,0,1,.853.173,3.38,3.38,0,0,0-.68-.807,2.284,2.284,0,0,0-1.36-.461l1.187,1.1Zm25.025-3.735a1.661,1.661,0,0,0,.6-.426,2.917,2.917,0,0,0,.553-.761,1.441,1.441,0,0,0,.173-.761.613.613,0,0,0-.38-.507.572.572,0,0,0-.254.38c-.058.2-.138.438-.254.726a2.191,2.191,0,0,1-.127.761A3.966,3.966,0,0,1,101.207,289.688Z" transform="translate(-65.6 -237.229)" fill="#fff" stroke="#161c21" stroke-width="1.5"/>
      <path id="Path_265" data-name="Path 265" d="M577.769,211.044l-2.974,5.51-.426-.6-.173.173-1.014-1.268a23.461,23.461,0,0,1-2.455,6.663,52.012,52.012,0,0,1-4.069,6.317q-2.282,3.06-4.8,5.982c-1.671,1.948-3.2,3.827-4.622,5.637l-.507-.173a15.886,15.886,0,0,1-3.481,5.51l-2.294-.081-.68-1.867-1.014,1.694q-3.3-4.668-6.49-9.245t-6.409-9.417l.68-.507,1.107.254.081-.334a2.412,2.412,0,0,0-.046-.553,2.649,2.649,0,0,0-.207-.553l-3.228-.507a8.143,8.143,0,0,1-1.014-1.441c-.288-.507-.565-1.014-.853-1.522a6.557,6.557,0,0,1-1.314-.68A12.455,12.455,0,0,1,530,218.848a15.882,15.882,0,0,1-1.395-1.395,12.13,12.13,0,0,1-.98-1.233l.081-1.441-.081-1.694a3.81,3.81,0,0,1-2.04,1.014l-1.787-2.294,1.441-1.614q.259,0,.173-.173a.541.541,0,0,0-.254-.254c1.418-1.81,2.893-3.677,4.449-5.6a12.742,12.742,0,0,1,5.475-4.069l-.334-.254-.6-1.268c1.418-1.81,2.766-3.666,4.069-5.556s2.57-3.827,3.815-5.81l1.787-.334.761-2.294a19.677,19.677,0,0,0,2.328-2.375c.7-.853,1.452-1.694,2.248-2.547h.334a1.357,1.357,0,0,1,1.187.6l.173-.6h1.867q1.781,1.954,3.562,4.2t3.481,4.622q1.694,2.369,3.181,4.841t2.582,4.749a2.563,2.563,0,0,1-1.014.127c-.334-.023-.646-.046-.934-.046-.058,0-.081.115-.081.334a3.616,3.616,0,0,0,.081.807c.058.254.115.519.173.807l3.481-.6a1.812,1.812,0,0,1,.68,1.395,3.117,3.117,0,0,0,.427,1.568,3.608,3.608,0,0,1,1.74.888,14.3,14.3,0,0,1,1.821,1.821,10.506,10.506,0,0,1,1.395,2.121,3.153,3.153,0,0,1,.461,1.694c.622.392,1.257.8,1.913,1.187a6.613,6.613,0,0,0,2.1.876ZM565.643,213l-1.187.081c-.45-.334-.542-.68-.254-1.014v-.68h-.173a14.63,14.63,0,0,0-1.614-2.547c-.622-.8-1.268-1.568-1.948-2.328s-1.349-1.522-1.994-2.294a17.872,17.872,0,0,1-1.741-2.421,7.8,7.8,0,0,1-.761-1.614q-.345-.934-.761-1.867a10.019,10.019,0,0,0-.98-1.694,2.583,2.583,0,0,0-1.395-1.014c-.507-.622-.991-1.256-1.441-1.913s-.911-1.291-1.36-1.913a19.578,19.578,0,0,0-2.121,3.815,9.956,9.956,0,0,1-2.628,3.562h-1.36l.507.853-.426,1.36-.254-.426c-.115,0-.138.1-.081.3a1.679,1.679,0,0,1,.081.38c0,.115-.1.15-.3.127s-.357-.046-.461-.046a.959.959,0,0,1-.726-.334,3.511,3.511,0,0,0-.553-.507c.115.392.23.8.334,1.187a4.5,4.5,0,0,1,.173,1.268,1.7,1.7,0,0,1-.6,1.36,16.27,16.27,0,0,1-1.314,1.014,8.728,8.728,0,0,0-1.36,1.187,3.056,3.056,0,0,0-.726,1.948l-2.628,2.294c.23.173.576.45,1.06.853s.957.83,1.441,1.314a14.343,14.343,0,0,1,1.233,1.395,2.069,2.069,0,0,1,.507,1.107l-.081.081.081-.081a8.16,8.16,0,0,0,.98,3.009,4.035,4.035,0,0,0,2.328,1.994q.5.761,1.314,2.075c.542.876,1.118,1.764,1.741,2.674A28.431,28.431,0,0,0,548.064,228a3.469,3.469,0,0,0,1.695,1.268l-.081.761c0,.45.15.7.461.761a7.232,7.232,0,0,1,.98.254,52.456,52.456,0,0,1,3.389-4.622,37.7,37.7,0,0,0,3.308-4.714l5.51-1.787c-.288-.173-.553-.323-.807-.461a7.469,7.469,0,0,0-.807-.38l.081-.254c0-.115-.057-.138-.173-.081a.612.612,0,0,1-.254.081l-.334-.173a3.64,3.64,0,0,1,.6-1.568,10.794,10.794,0,0,1,1.233-1.568c.484-.507.98-.991,1.487-1.441.53-.426.945-.8,1.291-1.072Zm-18.074-38.857c-.449.058-.8.1-1.014.127a9.97,9.97,0,0,1-1.015.046l-1.521-1.522c-.115,0-.127.081-.046.254a6.3,6.3,0,0,1,.254.6c.081.231.15.426.207.6s.058.254,0,.254a2.42,2.42,0,0,0-1.268-.6,3.022,3.022,0,0,0-1.441,0,2.142,2.142,0,0,0-3.308.415h-1.695c0-1.3.023-2.328.081-3.1s.173-1.764.334-3.009a4.821,4.821,0,0,1,.426-1.141,2.32,2.32,0,0,0,.254-1.141,1.881,1.881,0,0,0-.3-.934,1.879,1.879,0,0,1-.3-.68,2.506,2.506,0,0,1,.046-.507,3.615,3.615,0,0,0,.046-.426h3.055l.427,2.628.507-2.882,5.683.254a1.887,1.887,0,0,0,0,.807,4.891,4.891,0,0,1,.081.888.715.715,0,0,1-.254.507,3.323,3.323,0,0,1-.507.426,1.968,1.968,0,0,0-.426.38.252.252,0,0,0,0,.38l1.187.68a.946.946,0,0,0-.127.634,7.744,7.744,0,0,0,.127.807,4.273,4.273,0,0,1,.081.853,1.188,1.188,0,0,1-.173.68q-.674.934-.38,1.314c.2.254.5.634.888,1.141l.092,1.268Zm16.968-11.031c0,1.3-.023,2.351-.081,3.135a25.83,25.83,0,0,1-.427,2.974,3.416,3.416,0,0,1-.334,1.141,2.689,2.689,0,0,0-.254,1.233,1.8,1.8,0,0,0,.254.888,1.663,1.663,0,0,1,.254.634v1.014h-3.055l-.426-2.628-.507,2.8-5.683-.173a1.7,1.7,0,0,0-.046-.853,3.31,3.31,0,0,1-.127-.853.667.667,0,0,1,.254-.553c.173-.138.357-.288.553-.427a2.88,2.88,0,0,0,.461-.38c.115-.115.115-.254,0-.426l-1.268-.6a1.109,1.109,0,0,0,.173-.634,4.707,4.707,0,0,0-.081-.853,4.7,4.7,0,0,1-.081-.853,1.109,1.109,0,0,1,.173-.634q.674-.934.381-1.314c-.2-.254-.5-.634-.888-1.141l-.081-1.268a8.872,8.872,0,0,0,1.014-.173,4.449,4.449,0,0,1,1.014-.081l1.522,1.614c.058,0,.058-.081,0-.254s-.127-.369-.207-.6a6.331,6.331,0,0,0-.253-.6c-.081-.173-.069-.254.046-.254a2.233,2.233,0,0,0,1.268.553,3.453,3.453,0,0,0,1.441-.046,2.036,2.036,0,0,0,1.441.68,1.73,1.73,0,0,0,1.014-.3,5.956,5.956,0,0,0,.853-.726,4.277,4.277,0,0,1,.853-.081l.83.035Z" transform="translate(-470.984 -163)" fill="#fff" stroke="#161c21" stroke-width="1.5"/>
      <path id="Path_266" data-name="Path 266" d="M1078.085,345.91c-.507.288-1.256.749-2.248,1.395s-2.005,1.349-3.055,2.075-2.006,1.395-2.882,1.994-1.487,1-1.821,1.233a5.509,5.509,0,0,1-1.014.553,1.714,1.714,0,0,1-1.107.046.143.143,0,0,1-.127-.046.144.144,0,0,0-.127-.046c-.173,0-.3.115-.38.334s-.357.8-.807,1.694l-9.752,6.109a1.728,1.728,0,0,1-1.36.334,2.946,2.946,0,0,1-.853-.426l-.254-.173v0l-.933,2.294a6.067,6.067,0,0,0-1.948.553,16.5,16.5,0,0,1-2.04.726,3.36,3.36,0,0,0-1.821.254,4.154,4.154,0,0,0-1.233,1.107,4.883,4.883,0,0,0-.634.38c-.2.138-.5.357-.887.634l-.934-1.867-1.694,1.521-.173-7.377v-2.2a9.683,9.683,0,0,1,.081-1.36c0-.45.011-.911.046-1.36s.069-1.107.127-1.948a12.726,12.726,0,0,0,.807-2.547,6.364,6.364,0,0,0,.046-1.614c-.115-.565-.242-1.222-.38-1.948a19.349,19.349,0,0,1-.208-3.308,22.615,22.615,0,0,1,.853-5.856,5.372,5.372,0,0,1-.127-1.614c.023-.68-.069-1.072-.3-1.187q0-.087.173-.934a1.692,1.692,0,0,0,0-1.107v-.081l-.081-.081a1.139,1.139,0,0,1-.334-.853,10.424,10.424,0,0,1,.426-2.121c.23.058.334.115.334.173a.144.144,0,0,1,.046-.127c.023-.023.011-.1-.046-.207V328.5a3.307,3.307,0,0,1,.173-1.141c.116-.311.392-.438.853-.38a.812.812,0,0,0-.253-.6,3.3,3.3,0,0,1-.427-.507,1.4,1.4,0,0,1-.208-.68,2,2,0,0,1,.381-1.107l.081-.254.081-.173c-.173-.231-.334-.45-.507-.68a6.234,6.234,0,0,0-.68-.761c-.058-1.81-.127-3.608-.207-5.383s-.15-3.608-.208-5.475V310.1l.761-.934-.507-1.695a6.457,6.457,0,0,0,.3-1.107,2.374,2.374,0,0,0-.046-1.187,1.248,1.248,0,0,1-.08-.807c.058-.311.23-1.037.507-2.167.622.23,1.176.426,1.66.6s1,.334,1.568.507l.254,1.187a.239.239,0,0,0,.173-.081.145.145,0,0,0,.127-.046c.023-.035.1-.046.207-.046a1.628,1.628,0,0,0,.553.127.947.947,0,0,1,.553.207c0,.058.15.173.461.334a8.313,8.313,0,0,1,1.06.68l1.107.761a4.016,4.016,0,0,0,.427.254c.115.058.231.115.334.173l8.058,2.974.934,1.441,1.268.254h-.081a11.618,11.618,0,0,1,1.948,1.187c1.187.8,2.513,1.694,3.988,2.72s3,1.983,4.577,2.882,2.766,1.614,3.561,2.121a15,15,0,0,0-3.481,2.882c-.449.507-.911,1-1.36,1.487a5.76,5.76,0,0,1-1.268,1.06,2.457,2.457,0,0,0-.853.726,7.9,7.9,0,0,1-.761.888,4.471,4.471,0,0,1-1.395.888,9.3,9.3,0,0,1-2.582.553l.507,1.107a4.671,4.671,0,0,0-.934.68l-.761.761-.853.68a8.584,8.584,0,0,1-1.014.68,18.469,18.469,0,0,1,3.608,2.04c.991.738,1.913,1.476,2.755,2.2q1.366,1.193,2.628,2.248a7.5,7.5,0,0,0,3.055,1.487,30.114,30.114,0,0,1,3.055,2.8,9.255,9.255,0,0,0,3.527,2.305Zm-15.1-.68-5.855-3.562a.539.539,0,0,1-.335-.507v-.254a.49.49,0,0,1-.08-.334c-.45-.68-.853-1.014-1.187-1.014a3.913,3.913,0,0,1-.853-.127q-.5-.121-.934-.207a.543.543,0,0,1-.426-.3c-.058-.138-.116-.288-.173-.427a1.772,1.772,0,0,0-.173-.334c-.057-.081-.173-.069-.334.046l-1.868-.934a7.866,7.866,0,0,0-.173,1.741c0,.645.012,1.314.046,1.994s.069,1.3.127,1.867.115.991.173,1.268c-.115.8-.23,1.579-.334,2.375a15.911,15.911,0,0,0-.173,2.294,2.656,2.656,0,0,0,.254,1.141,3.4,3.4,0,0,0,.68.98,1.908,1.908,0,0,1,.046.634,2.642,2.642,0,0,1-.208.553,1.672,1.672,0,0,1-.081.38q-.087.294-.173.726l9.245-5.683a1.665,1.665,0,0,1,.461-.461c.254-.2.542-.427.853-.68s.611-.484.887-.68a7.681,7.681,0,0,0,.588-.5Zm-2.121-22.57a5.862,5.862,0,0,1-.853-.426,12.507,12.507,0,0,0-1.268-.807c-.45-.254-.911-.519-1.36-.807-.853-.565-1.613-1.072-2.294-1.522s-1.107-.622-1.268-.507a.68.68,0,0,1-.6-.081.267.267,0,0,0-.334-.081.68.68,0,0,1-.426-.761l.081-.081.6.081c0-.058-.184-.231-.553-.507a1.722,1.722,0,0,0-.887-.427l-.933-.426a6.876,6.876,0,0,0,.254,2.248,7.21,7.21,0,0,1,.254,2.328.612.612,0,0,0-.081.254.611.611,0,0,1-.081.253l-.081.081v.426a.239.239,0,0,1,.081.173.619.619,0,0,0,.081.254v.254l-.173.426a16.826,16.826,0,0,1,.173,2.421v2.421c.334,0,.7-.012,1.107-.046a3.616,3.616,0,0,0,.853-.127,11.462,11.462,0,0,0,1.74-.807,14.365,14.365,0,0,0,1.66-1.141l1.948-1.36q.674-.5,1.314-.934C1060.219,323.144,1060.576,322.891,1060.864,322.66Z" transform="translate(-927.682 -286.154)" fill="#fff" stroke="#161c21" stroke-width="1.5"/>
      <path id="Path_267" data-name="Path 267" d="M1423.366,353.4l-7.3,9.164a23.342,23.342,0,0,1-1.914-2.294,2.945,2.945,0,0,1-.38-.68.455.455,0,0,1,.173-.334,4.469,4.469,0,0,0-1.014-1.014.883.883,0,0,1-.3-.254q-.121-.173-.727-.934v.254c-.449-.507-1.014-1.107-1.694-1.787s-1.372-1.383-2.074-2.121-1.372-1.452-1.995-2.167-1.13-1.291-1.521-1.741l-1.787-2.2a14.424,14.424,0,0,0-1.06-1.268c-.369-.392-.749-.818-1.141-1.268l-1.107-2.294v.334c-.45-.392-.749-.646-.888-.761a4.7,4.7,0,0,0-.461-.334l-.426-.6c-.288-.115-.519-.231-.726-.334a2.3,2.3,0,0,1-.634-.6,11.775,11.775,0,0,1-1.06-1.522,3.113,3.113,0,0,0-1.234-1.268,1.068,1.068,0,0,1-.334-.046,2.088,2.088,0,0,0-.426-.046c-.738-.8-1.5-1.556-2.294-2.294v-.934l.6-1.36h-1.268l.081.334c.115.173.115.265,0,.3a.343.343,0,0,1-.334-.127,6.761,6.761,0,0,1-1.395-.761,6.924,6.924,0,0,0-.98-.6,1.486,1.486,0,0,1-.761-1.268h-.426l-.507-.6-.6.934-.253-3.227.68.761c.957-1.187,1.936-2.375,2.928-3.562s2.017-2.409,3.1-3.654a1.955,1.955,0,0,0,1.314-.761,7.025,7.025,0,0,0,.888-1.36l.08-.081.081-.254a.322.322,0,0,1,.046-.173.668.668,0,0,0,.046-.254c1.072-1.187,2.11-2.363,3.1-3.516s1.971-2.328,2.928-3.516a7.247,7.247,0,0,0,1.268-.888,15.205,15.205,0,0,0,1.522-1.487c.507-.565,1-1.141,1.487-1.741a9.341,9.341,0,0,0,1.141-1.741v.081a2.606,2.606,0,0,0,.334-.726c.057-.2.115-.415.173-.634.173-.231.334-.438.507-.634s.369-.438.6-.726l.334.081a.574.574,0,0,1,.427-.173c.115,0,.357.012.726.046s.727.046,1.061.046c.058,0,.138-.058.254-.173l-.081-.081a4.794,4.794,0,0,0-.38-.634c-.138-.2-.069-.415.207-.634.058-.173.231-.254.507-.254l.6-.081a.894.894,0,0,1,.461.127c.138.081.184.069.126-.046v-1.107a2.681,2.681,0,0,1,.38-.634c.254-.369.554-.8.888-1.268s.68-.934,1.014-1.36.6-.749.761-.98l5,5.6,1.014.68-.253.254,1.014,1.187c-.334.334-.7.68-1.106,1.014l-1.187,1.014c-.853.392-1.315.807-1.4,1.233s-.242,1-.461,1.741a50.524,50.524,0,0,1-5.222,5.3,38.6,38.6,0,0,0-5.049,5.383c-.173.115-.369.242-.6.38a9.216,9.216,0,0,0-1.106.888l-.254.081-.173.253a4.143,4.143,0,0,0-.334.6,1.884,1.884,0,0,1-.081.6c-.449.392-.876.761-1.268,1.107s-.8.7-1.187,1.107a18.784,18.784,0,0,1,2.974.207,8.466,8.466,0,0,0,3.135-.207c.057,0,.253-.012.6-.046s.7-.058,1.106-.081.773-.069,1.141-.127a2.977,2.977,0,0,0,.726-.173l.507.081.081.173.761.081.68.334h1.187a2.581,2.581,0,0,1,.634-.081h.553a.717.717,0,0,0,.6-.68l3.228.6.081,9.337c-1.245.173-2.479.392-3.689.68a11.794,11.794,0,0,1-3.781.254c-.23-.115-.438-.23-.634-.334a1.408,1.408,0,0,0-.726-.173,2.269,2.269,0,0,1-.726-.173c-.312-.115-.623-.207-.934-.3a7.036,7.036,0,0,0-.887-.173.617.617,0,0,0-.6.207l-.68.334h-2.628c.564.622,1.106,1.268,1.614,1.948s1.049,1.36,1.614,2.04a1.345,1.345,0,0,0,.426.507,8.129,8.129,0,0,0,1.187,1.695q.934,1.107,2.075,2.248a24.541,24.541,0,0,0,2.294,2.04,4.232,4.232,0,0,0,1.821.98l-.173.853c.058,0,.081.058.081.173a1.69,1.69,0,0,0,.173,1.268,5.153,5.153,0,0,0,1.4,1.66,8.82,8.82,0,0,0,3.515,1.487c.392.449.8.876,1.188,1.268.426.4.876.853,1.383,1.372Z" transform="translate(-1233.091 -280.404)" fill="#fff" stroke="#161c21" stroke-width="1.5"/>
      <path id="Path_268" data-name="Path 268" d="M1815.253,360.661l-.427.254c0,.058-.081.023-.253-.081a.748.748,0,0,0-.334-.081l.6.68a6.408,6.408,0,0,0-.081.853c0,.173-.173.426-.507.761l-.6,1.107a5.07,5.07,0,0,1-.68-.127c-.058-.023-.231-.1-.507-.207-.058,0-.058.011,0,.046s.057.069,0,.127l-.761-.334c.116-.115.058-.231-.173-.334s-.449-.23-.68-.334a1.867,1.867,0,0,1-.554-.38c-.138-.138-.265-.184-.38-.127l.254,1.614,1.521.68-.254.761c.057-.115.115-.138.173-.081a.24.24,0,0,0,.173.081,1.291,1.291,0,0,0-.173.507c-.334.622-.622.934-.853.934h-.6a1.176,1.176,0,0,0-.6.081,2.458,2.458,0,0,0-.081.934,3.711,3.711,0,0,0-.68.934c-.173.334-.334.645-.507.934a3.263,3.263,0,0,1-.76.853,13.933,13.933,0,0,0-1.867-1.994,12.473,12.473,0,0,1-1.868-2.075,7.435,7.435,0,0,0-.726-1.014,6.087,6.087,0,0,0-.634-.6,2.52,2.52,0,0,0-.553-.553,3.267,3.267,0,0,1-.634-.634,2.724,2.724,0,0,0-2.121-1.96,8.8,8.8,0,0,0-1.74-1.867c-.484-.334-1.083-.818-1.821-1.441-.23-.23-.438-.449-.634-.68s-.438-.507-.726-.853a7.642,7.642,0,0,1-.334-1.014.84.84,0,0,0-.3-.507,2.05,2.05,0,0,0-.554-.3q-.346-.121-.934-.38a12.016,12.016,0,0,0-1.441-1.66,12.008,12.008,0,0,1-1.441-1.66,2.09,2.09,0,0,0-.046-1.268,8.67,8.67,0,0,1-.3-1.268l-.507,1.441-1.015-1.787-.6-1.014c0,.565-.023,1.2-.081,1.913s-.1,1.383-.127,2.04-.046,1.233-.046,1.74v1.014a2.3,2.3,0,0,0,.3.934,3.675,3.675,0,0,0,.726,1.014l.173,3.389c-.288.565-.519,1.06-.726,1.487a3.553,3.553,0,0,0-.3,1.568,4.344,4.344,0,0,0,.427,1.913,6.929,6.929,0,0,0,1.014,1.568,2.191,2.191,0,0,1-.081.68v.507a6.934,6.934,0,0,0-.081,1.36,5.149,5.149,0,0,1-1.487-.173,11.418,11.418,0,0,0-1.487-.334,1.548,1.548,0,0,1-.38-.046,3.313,3.313,0,0,0-.553-.046,1.73,1.73,0,0,1-.254-.3c-.057-.081.057-.15.334-.207a.241.241,0,0,1,.08-.173c.115-.115.2-.138.254-.081a.62.62,0,0,1,0,.761,1.332,1.332,0,0,1-.853.461,5.264,5.264,0,0,1-1.015.127l-.334-.081a1.557,1.557,0,0,0-.38.046,5.759,5.759,0,0,0-1.141.634l1.268-2.628c-.45.115-.738.115-.853,0-.058-.115-.069-.081-.047.081a.471.471,0,0,1-.127.426c-.115.173-.265.392-.461.68a.853.853,0,0,1-.726.427.5.5,0,0,1-.253-.046.663.663,0,0,0-.254-.046h-1.349a11.447,11.447,0,0,0-1.268.081c0-.738.012-1.706.046-2.928s.058-2.386.081-3.516.069-2.513.127-4.161a5.187,5.187,0,0,1,.334-.98,2.286,2.286,0,0,0,.173-1.06,3.615,3.615,0,0,0-.081-.807,5.344,5.344,0,0,0-.254-.807c0-.173-.023-.288-.081-.334,0-1.637.023-3.239.081-4.8s.115-3.124.173-4.715a2.7,2.7,0,0,0,.127-1.948,7.023,7.023,0,0,1-.3-1.948,1.293,1.293,0,0,1,.461-1.06,1.1,1.1,0,0,0,.38-1.061,1.511,1.511,0,0,0-.461-1.187,4.426,4.426,0,0,1-.807-1.014v-3.412l1.614-.6c-.288-.173-.427-.323-.427-.461a6.43,6.43,0,0,0-.08-.807h-.507a1.189,1.189,0,0,0-.807-.427,2.166,2.166,0,0,0-.807.173l-.334-.68,1.014-.68a.5.5,0,0,1,.046-.254.5.5,0,0,0,.046-.254v-.081l-.253-.334a2.983,2.983,0,0,0,.507-.6,1.271,1.271,0,0,0,0-.68,1.614,1.614,0,0,1,.507-1.787c-.115-1.579-.207-3.1-.3-4.542s-.184-2.928-.3-4.449l.6-.254-.173-.6V315.1l.853.081-.081.254-.761-.254c.058-.115.115-.231.173-.334s.115-.231.173-.334l.081-.254a.108.108,0,0,1-.173,0l-.173-.081-.081-.173a.7.7,0,0,1-.173-.68l.934-.426-.254-.254a1.435,1.435,0,0,0-1.187-1.441c-.115-.115-.173-.2-.173-.254l.68-.334.08.254-.76.173a1.791,1.791,0,0,1,.253-1.187l.173-.173a1.654,1.654,0,0,0,0-.761c.622,0,1.187.012,1.694.046a5.189,5.189,0,0,1,1.614.38c.288.115.564.208.853.3a5.034,5.034,0,0,0,1.614.046,6.177,6.177,0,0,1,2.455-.853,13.5,13.5,0,0,1,3.055,0c-.115.392-.231.818-.334,1.268a8.211,8.211,0,0,0-.254,1.268,11.452,11.452,0,0,0-.081,1.441c-.115.115-.138.415-.081.888a3.549,3.549,0,0,0,.173.888v.081l.081.081a.5.5,0,0,0-.207.726.747.747,0,0,1-.047.807v.081h-.081c-.115.231-.265.5-.461.807a1.592,1.592,0,0,0-.3.807,2.841,2.841,0,0,0,.68,1.787,2.414,2.414,0,0,1-.173,1.522,11.651,11.651,0,0,0-.507,1.522,1.764,1.764,0,0,1,.207.853,5.194,5.194,0,0,0,.127.934l-.081.081h-.173l.427.334c0,.115-.012.461-.046,1.06s-.069,1.176-.127,1.741l4.069-4.323a2.634,2.634,0,0,1,1.06-.68c.369-.115.772-.231,1.233-.334a.321.321,0,0,0,.335-.173,1.747,1.747,0,0,0-.081-.853,6.11,6.11,0,0,0,1.821-1.614c.6-.738,1.118-1.383,1.567-1.948a24.2,24.2,0,0,1,2.294-2.328,14.007,14.007,0,0,1,2.72-1.913c.334-.45.622-.634.853-.553a7.725,7.725,0,0,1,.853.38c.115.058.184.058.207,0a.47.47,0,0,1,.207-.173h-.08a7.8,7.8,0,0,1-.334-1.06,1.036,1.036,0,0,1,.253-1.06l4.576-4.576,6.789,6.536c-.392.334-.945.853-1.66,1.522s-1.418,1.383-2.121,2.121-1.349,1.452-1.913,2.167a10.954,10.954,0,0,0-1.107,1.568c-.115.115-.323.311-.634.6s-.646.565-1.015.853-.726.565-1.06.853-.6.484-.76.6c-.565-.173-.738-.622-.508-1.36-.334.622-.68,1.256-1.014,1.913a21.046,21.046,0,0,1-1.107,1.913v.081a.962.962,0,0,1-.254.507c-.173.23-.368.461-.6.726s-.438.484-.634.68l-.38.38a5.586,5.586,0,0,1-1.441,1.06c-.507.254-.911.242-1.187-.046l-.254.761a8.514,8.514,0,0,1-.426,1.487,4.818,4.818,0,0,1-.334.726,6.481,6.481,0,0,0-1.695,1.314c-.565.588-1.072,1.118-1.521,1.568-.507.507-1.049,1.014-1.614,1.522a6.41,6.41,0,0,1-1.868,1.187c.231.231.553.507.98.853s.853.68,1.268,1.014.8.634,1.106.888a3.639,3.639,0,0,0,.634.461,20.285,20.285,0,0,1,1.786,2.628l.427-.334,1.36.934a3.209,3.209,0,0,0,.6,1.141c.334.484.6.865.761,1.141.23-.058.369,0,.427.173s-.023.334-.254.507a.965.965,0,0,1-.68.173,1.762,1.762,0,0,0-.68.081.357.357,0,0,0-.254.38,1.3,1.3,0,0,0,.127.553,1.486,1.486,0,0,0,.3.427.2.2,0,0,0,.334,0,1.837,1.837,0,0,0,.208-.254,4.68,4.68,0,0,1,.461-.507,1.411,1.411,0,0,1,1.014-.427,1.43,1.43,0,0,1,.727.38c.208.2.415.38.634.553.738.115,1.268.2,1.614.254s.737.45,1.187,1.187a12.254,12.254,0,0,1,.6,1.187,2.19,2.19,0,0,0,.76,1.014,7.106,7.106,0,0,1,.461.888,7.97,7.97,0,0,0,.461.888.821.821,0,0,0,.507.207c.23.023.646.069,1.268.127a7.492,7.492,0,0,0,.68.761l.761.761c0,.115.1.23.3.334a1.98,1.98,0,0,1,.461.334l.253.254a.949.949,0,0,1,.173.254,2.467,2.467,0,0,0,1.441,1.867c.68.231,1.441.449,2.294.68a5.236,5.236,0,0,0,.461.553,2.56,2.56,0,0,0,.438.507Z" transform="translate(-1578.225 -290.047)" fill="#fff" stroke="#161c21" stroke-width="1.5"/>
      <path id="Path_269" data-name="Path 269" d="M2201.29,381.159a3.057,3.057,0,0,1,.208.934,3.533,3.533,0,0,1-.046.934,2.928,2.928,0,0,1-.334.934c-2.1-.231-3.954-.357-5.6-.38s-2.859-.046-3.654-.046a3.7,3.7,0,0,0-1.141.207,2.255,2.255,0,0,0-1.06.726,7.857,7.857,0,0,1-1.568.173H2186.7a4.993,4.993,0,0,0-.727-.38,1.592,1.592,0,0,1-.633-.553,7.88,7.88,0,0,1-.554-.6.665.665,0,0,0-.553-.254,3.016,3.016,0,0,0-1.187.127c-.115.081-.392.357-.853.807-.288.058-.692.115-1.234.173s-.945.115-1.233.173l-1.187-1.014-2.375.68q-.345-.259-.173-.38t-.173-.208q-.173.086,0-.173a.822.822,0,0,0,.173-.427l-.081-.507h-.426l-.174-.334-.173-.507-.507-.081.081,2.374-.76.173c-.231-.231-.427-.438-.6-.634a.782.782,0,0,0-.6-.3,1.01,1.01,0,0,0-.726.3,7.117,7.117,0,0,0-.635.726h-1.268l-1.014.081H2168l1.107-1.187-.335-.254.173-.081c-.058,0-.082-.012-.082-.046s-.022-.046-.08-.046-.081-.023-.081-.081a10.816,10.816,0,0,0,.3-1.107,1.919,1.919,0,0,1,.553-1.014,3.12,3.12,0,0,0-.553-.726.974.974,0,0,1-.3-.888c.115-.911.2-1.521.254-1.867a3.01,3.01,0,0,1,.254-.853,2.2,2.2,0,0,0,.081-.68c0-.288.023-.853.081-1.694a4.169,4.169,0,0,0,.426-1.141,5.261,5.261,0,0,0,.173-1.141,1.182,1.182,0,0,0-.253-.853.616.616,0,0,0-.254-.081h1.188c.392,0,.6-.081.6-.254l-1.36-.507.173-.334v-.38h-.334c-.173,0-.288-.138-.334-.427,0-1.187.011-2.063.045-2.628s.057-1.014.081-1.36.058-.68.081-1.014.046-.911.046-1.695a4.737,4.737,0,0,0,.08-2.72,13.442,13.442,0,0,1-.334-2.8,3.786,3.786,0,0,1,.253-1.36,4.22,4.22,0,0,0,.253-1.522,7.111,7.111,0,0,0-.6-2.628v-1.695a6.749,6.749,0,0,0,.933-.68c.334-.288.6-.484.761-.6a2.348,2.348,0,0,0,.761-1.694,3.674,3.674,0,0,0-.634-1.821,9.326,9.326,0,0,0-1.314-1.741h-.173a.24.24,0,0,1-.173-.081v-.334c0-1.694-.046-3.389-.127-5.095s-.185-3.389-.3-5.095l.507-.334-.081-.6a.876.876,0,0,0,.126-.6,7.3,7.3,0,0,0-.126-.761l-.08-.934v-.507l-.761-4.242,3.389-.173a.381.381,0,0,1,.427-.081,1.054,1.054,0,0,1,.427.254c.058.115.2.334.427.68l.08.173h.081l.254-.254a2,2,0,0,0,.334-.208c.115-.081.138-.3.081-.634l6.109.081c-.115,1.475-.173,2.87-.173,4.2s-.023,2.64-.081,3.942l-.081.254c-.23.288-.426.542-.6.761a1.667,1.667,0,0,0-.254,1.014,2.767,2.767,0,0,0,.761,1.614l-.173,2.294-.334.254.173.426a4.319,4.319,0,0,1,.046,1.107c-.023.507-.058,1.037-.081,1.568s-.057,1.037-.081,1.487a2.279,2.279,0,0,0,.046.853,9.931,9.931,0,0,1,.76,3.781c0,1.28-.057,2.582-.173,3.942a.575.575,0,0,0,.208.38c.138.138.208.242.208.3a1.5,1.5,0,0,1-.335.254l-.334.173a1.249,1.249,0,0,1-.726.553c-.369.138-.611.15-.727.046,0,.058.081.173.254.334a1.516,1.516,0,0,0,.334.254c.115.115.288.1.507-.046s.392-.184.507-.127a3.143,3.143,0,0,0-.081.98v1.994c0,.8.012,1.51.047,2.167a4.76,4.76,0,0,1-.047,1.233l-.426,2.04-.761.334-.507-.081v.173c0,.058.173.2.507.426l.253.254c.45.231.681.507.681.853a5.105,5.105,0,0,1,.127.634,5.994,5.994,0,0,1,.046.726c0,.392-.011.957-.046,1.694s-.046,1.5-.046,2.294-.011,1.545-.046,2.248-.046,1.257-.046,1.66a1.688,1.688,0,0,1-.427,1.268,23.36,23.36,0,0,1,4.449-.081,22.507,22.507,0,0,0,3.943,0,3.313,3.313,0,0,0,.887.38,3.22,3.22,0,0,0,.634.127,2.574,2.574,0,0,0,1.268-.334,3.613,3.613,0,0,0,.6-.173.338.338,0,0,0,.254-.081h7.677c.934,0,1.683-.023,2.248-.081a23.368,23.368,0,0,1,0,4.069,4.1,4.1,0,0,1-1.015,2.294l1.234.968Z" transform="translate(-1925.657 -304.943)" fill="#fff" stroke="#161c21" stroke-width="1.5"/>
      <path id="Path_270" data-name="Path 270" d="M2530.376,384.028l-1.7.081h-2.455a2.777,2.777,0,0,1-.68-.173v.173l-1.268-.081a1.5,1.5,0,0,1-.727,0,2.481,2.481,0,0,1-.633-.507.239.239,0,0,1-.081-.173.239.239,0,0,0-.081-.173c-.45,0-.956.334-1.522,1.014h-.553a.6.6,0,0,1-.461-.173h-.173c-.058-.058-.254-.081-.6-.081l.334-.426c-.231.115-.334,0-.334-.334a2,2,0,0,0,.507-.507c.23-.288.312-.45.254-.507l-1.106-1.694c.115-1.014.184-1.752.207-2.2a4.655,4.655,0,0,0-.046-1.107,7.543,7.543,0,0,1-.127-1.107c-.023-.45-.046-1.222-.046-2.294l.933-1.107.853-2.628a.684.684,0,0,1-.427.253h-.506a1.011,1.011,0,0,1-.461-.207c-.082-.081-.15-.15-.207-.207a13.2,13.2,0,0,1-.208-3.562q.12-1.781.381-3.562c.173-1.187.334-2.374.507-3.562a24.649,24.649,0,0,0,.254-3.562,20.994,20.994,0,0,0-.3-3.516,29.9,29.9,0,0,1-.38-3.689,1.846,1.846,0,0,0,1.014-.934,5.02,5.02,0,0,0,.173-1.521,2.967,2.967,0,0,0-.207-1.314,4.576,4.576,0,0,0-.98-1.06c0-.911-.012-1.729-.046-2.455s-.058-1.453-.082-2.167-.057-1.429-.08-2.167-.07-1.522-.127-2.375q-.174-.26.173-.761l.173-.173a2.746,2.746,0,0,0,.507-.853,16.524,16.524,0,0,1-.761-1.821,2.935,2.935,0,0,1-.173-1.914,4.357,4.357,0,0,1-.334-1.36,7.3,7.3,0,0,0-.255-1.36,1.468,1.468,0,0,0-.426-.934l1.268-1.36,10.178-.081c-.058,1.475-.069,2.859-.046,4.161a32.847,32.847,0,0,1-.126,3.735,2.539,2.539,0,0,1-.427.98,4,4,0,0,0-.507,1.141c.115.288.231.542.333.761a7.9,7.9,0,0,1,.335.761,1.169,1.169,0,0,1,.08,1.014,11.133,11.133,0,0,0-.253,1.36,11.281,11.281,0,0,1-.255,1.36l.6.427-.508.853a1.415,1.415,0,0,1,.461.68,5.256,5.256,0,0,1,.208,1.787,1.877,1.877,0,0,1-.6-.254,3.285,3.285,0,0,1-.427-.173.742.742,0,0,0-.333-.081l1.44,2.294a9.375,9.375,0,0,0-.253,1.787c-.058.8-.081,1.36-.081,1.694,0,1.072.023,2.294.081,3.654s.081,2.686.081,3.988q.088,2.04,0,3.908a14.669,14.669,0,0,1-.426,3.135l.68,4.576-1.614-1.694a5.9,5.9,0,0,0-.254,1.233.383.383,0,0,0,.173.38.605.605,0,0,0,.38.046.413.413,0,0,1,.381.127,1.475,1.475,0,0,1,.6,1.268,13.336,13.336,0,0,1,.046,1.913,2.053,2.053,0,0,0,.461,1.66l-.507,2.882a2.808,2.808,0,0,0-.38,1.694c.023.68.047,1.268.047,1.787a5.836,5.836,0,0,0,1.36,3.562l.081,1.821Z" transform="translate(-2235.402 -305.265)" fill="#fff" stroke="#161c21" stroke-width="1.5"/>
    </g>
    <g id="Group_168" data-name="Group 168" transform="translate(455.879 98.401)">
      <path id="Path_271" data-name="Path 271" d="M3489.565,357.4l-7.3,9.164a23.263,23.263,0,0,1-1.914-2.294,2.935,2.935,0,0,1-.38-.68.455.455,0,0,1,.172-.334,4.443,4.443,0,0,0-1.014-1.014.883.883,0,0,1-.3-.253q-.121-.173-.726-.934v.254c-.45-.507-1.015-1.106-1.695-1.787s-1.371-1.383-2.074-2.121-1.372-1.452-1.995-2.167-1.13-1.291-1.522-1.741l-1.787-2.2a14.419,14.419,0,0,0-1.061-1.268c-.368-.392-.749-.818-1.141-1.268l-1.107-2.294v.334c-.449-.392-.749-.646-.887-.761a4.769,4.769,0,0,0-.461-.334l-.426-.6c-.288-.115-.518-.231-.727-.334a2.016,2.016,0,0,1-.633-.6,11.692,11.692,0,0,1-1.061-1.522,3.047,3.047,0,0,0-1.233-1.268,1.07,1.07,0,0,1-.334-.046,2.094,2.094,0,0,0-.426-.046c-.738-.8-1.5-1.556-2.295-2.294v-.934l.6-1.36h-1.268l.081.334c.115.173.115.265,0,.3a.321.321,0,0,1-.334-.127,6.809,6.809,0,0,1-1.4-.761,6.9,6.9,0,0,0-.979-.6,1.485,1.485,0,0,1-.761-1.268h-.427l-.507-.6-.6.934-.253-3.228.68.761c.957-1.187,1.937-2.375,2.927-3.562s2.019-2.409,3.1-3.654a1.955,1.955,0,0,0,1.314-.761,7.049,7.049,0,0,0,.889-1.36l.08-.081.081-.254a.329.329,0,0,1,.046-.173.5.5,0,0,0,.046-.254c1.072-1.187,2.109-2.363,3.1-3.516s1.97-2.328,2.927-3.516a7.253,7.253,0,0,0,1.268-.888,15.317,15.317,0,0,0,1.522-1.487c.507-.565,1-1.141,1.486-1.741a9.35,9.35,0,0,0,1.142-1.741v.081a2.616,2.616,0,0,0,.334-.726c.057-.2.115-.415.173-.634.173-.231.333-.438.506-.634s.369-.438.6-.726l.334.081a.571.571,0,0,1,.426-.173c.116,0,.358.012.727.046s.726.046,1.061.046c.058,0,.139-.058.254-.173l-.081-.081a4.871,4.871,0,0,0-.38-.634c-.139-.2-.069-.415.207-.634.058-.173.23-.254.507-.254l.6-.081a.894.894,0,0,1,.462.127c.139.081.185.069.127-.046v-1.107a2.652,2.652,0,0,1,.38-.634c.254-.369.554-.8.888-1.268s.679-.934,1.014-1.36.6-.749.761-.98l5,5.6,1.015.68-.254.254,1.015,1.187c-.334.334-.7.68-1.106,1.014l-1.187,1.014c-.853.392-1.314.807-1.4,1.233s-.241,1-.461,1.741a50.416,50.416,0,0,1-5.221,5.3,39.258,39.258,0,0,0-5.049,5.383c-.173.115-.369.242-.6.38a9.31,9.31,0,0,0-1.107.888l-.253.081-.173.254a4.147,4.147,0,0,0-.334.6,1.887,1.887,0,0,1-.081.6c-.449.392-.876.761-1.268,1.107s-.795.7-1.187,1.107a18.767,18.767,0,0,1,2.974.208,8.466,8.466,0,0,0,3.135-.208c.058,0,.253-.012.6-.046s.7-.058,1.107-.081.772-.069,1.14-.127a2.983,2.983,0,0,0,.727-.173l.508.081.08.173.761.081.681.334h1.187a2.583,2.583,0,0,1,.634-.081h.554a.717.717,0,0,0,.6-.68l3.228.6.081,9.337c-1.245.173-2.478.392-3.688.68a11.807,11.807,0,0,1-3.781.254c-.23-.115-.438-.231-.634-.334a1.413,1.413,0,0,0-.727-.173,2.276,2.276,0,0,1-.726-.173c-.311-.115-.622-.208-.934-.3a7.061,7.061,0,0,0-.888-.173.6.6,0,0,0-.6.207l-.68.334h-2.627c.564.622,1.106,1.268,1.613,1.948s1.049,1.36,1.614,2.04a1.344,1.344,0,0,0,.426.507,8.1,8.1,0,0,0,1.188,1.694q.933,1.107,2.074,2.248a24.543,24.543,0,0,0,2.294,2.04,4.294,4.294,0,0,0,1.821.98l-.173.853c.058,0,.081.058.081.173a1.688,1.688,0,0,0,.173,1.268,5.15,5.15,0,0,0,1.395,1.66,8.834,8.834,0,0,0,3.516,1.487c.392.45.8.876,1.188,1.268.427.415.876.865,1.383,1.372Z" transform="translate(-3451.399 -299.7)" fill="#fff" stroke="#161c21" stroke-width="1.5"/>
      <path id="Path_272" data-name="Path 272" d="M3880.146,332l-1.107,1.867-3.227,2.628L3871.9,339.8a6.889,6.889,0,0,0-1.867.761,34.275,34.275,0,0,0-2.928,1.787c-1.106.738-2.281,1.568-3.515,2.5s-2.444,1.867-3.607,2.8-2.248,1.821-3.262,2.674-1.833,1.579-2.455,2.2a2.34,2.34,0,0,0-1.441.127,10.871,10.871,0,0,1-1.441.461c.058,1.3.127,2.248.208,2.847s.138,1.06.173,1.395a2.781,2.781,0,0,1-.081.98,12.184,12.184,0,0,1-.553,1.487,3.547,3.547,0,0,0-.427,1.614,1.511,1.511,0,0,0,.253.98c.174.2.392.438.68.726a2.151,2.151,0,0,1,.761.853l-.508,2.72c-1.013.058-1.751.1-2.2.127a9.358,9.358,0,0,1-1.142,0,2.645,2.645,0,0,1-.979-.3c-.346-.173-.876-.427-1.614-.761l-1.106.853H3842.9c-.449.45-.8.646-1.014.6s-.623-.138-1.187-.254c0-2.04.081-4.011.254-5.936s.391-3.908.679-5.936c.289-.058.381-.138.3-.254a.892.892,0,0,1-.126-.507c-.116-.288-.208-.565-.3-.853a2.739,2.739,0,0,1-.127-.853q0-5.343.173-10.432c.115-3.389.138-6.9.08-10.524.623-.288.957-.576,1.014-.888a7.76,7.76,0,0,0,.081-1.314,8.6,8.6,0,0,0-.335-1.867,3.265,3.265,0,0,0-.853-1.694l-.334-8.311h.334v-.081a7.518,7.518,0,0,0,.381-1.36,3.027,3.027,0,0,1,.553-1.268l-1.521-.853,1.521-3.228-.427-7.723,1.36.254c.854.738,1.856,1.51,3.009,2.328s2.19,1.545,3.1,2.167c.68.45,1.187.8,1.521,1.014l.253-.254,2.721,3.389,2.546,1.014,8.91,8.311c.738.45,1.441.934,2.121,1.441l2.041,1.522c.737.565,1.51,1.107,2.328,1.614a12.878,12.878,0,0,0,2.755,1.268l-1.268,2.375a2.655,2.655,0,0,0,.887-.207,7.657,7.657,0,0,1,1.141-.334,2.8,2.8,0,0,1,1.06-.046.652.652,0,0,1,.553.6,3.8,3.8,0,0,1,.807.6,1.944,1.944,0,0,0,.98.334l1.268,1.51Zm-15.274.761a8.332,8.332,0,0,1-1.913-1.268,3.19,3.19,0,0,1-1.141-1.948h-.427a19.243,19.243,0,0,0-2.04-1.614q-1.106-.761-2.248-1.487c-.76-.484-1.5-.991-2.2-1.522a8.287,8.287,0,0,1-1.741-1.741c-.449-.622-.922-1.245-1.395-1.867s-1-1.245-1.568-1.867a.2.2,0,0,0,0,.334,6.151,6.151,0,0,1,.76,1.141,2.432,2.432,0,0,1,.334,1.141,4.361,4.361,0,0,1-.126.807,6.182,6.182,0,0,1-.3.98,1.6,1.6,0,0,1-.507.68.511.511,0,0,1-.68,0c0,.058.081.127.254.207s.253.184.253.3a.739.739,0,0,0,.208.6,2.365,2.365,0,0,0,.507.3,1.121,1.121,0,0,1,.715,1.233,2.551,2.551,0,0,1-.08.853l-.427-.173a.372.372,0,0,0,.08.208.362.362,0,0,1,.081.207,7.006,7.006,0,0,0-.888.853,3.236,3.236,0,0,0-.727,1.107c-.173.23-.311.426-.426.6l-.334.507a3.964,3.964,0,0,0-.08.761v.173c0-.058.08-.15.254-.3s.252-.242.252-.3c.289-.173.392-.323.334-.461s.058-.3.334-.461c.289-.231.507-.3.68-.208s.253.265.253.553V344.24l.508-.853c.287-.45.541-.865.76-1.233a4.862,4.862,0,0,1,.506-.726q.848-.5,2.629-1.487c1.187-.646,2.375-1.36,3.562-2.121a23.432,23.432,0,0,0,3.135-2.375,3.3,3.3,0,0,0,1.36-2.248l1.487-.438Z" transform="translate(-3795.825 -302.708)" fill="#fff" stroke="#161c21" stroke-width="1.5"/>
      <path id="Path_273" data-name="Path 273" d="M4238.864,357.4l-7.3,9.164a23.2,23.2,0,0,1-1.913-2.294,2.9,2.9,0,0,1-.381-.68.458.458,0,0,1,.173-.334,4.451,4.451,0,0,0-1.013-1.014.883.883,0,0,1-.3-.253q-.119-.173-.727-.934v.254c-.449-.507-1.013-1.106-1.694-1.787s-1.372-1.383-2.074-2.121-1.373-1.452-1.995-2.167-1.13-1.291-1.521-1.741l-1.788-2.2a14.159,14.159,0,0,0-1.06-1.268c-.368-.392-.75-.818-1.141-1.268l-1.107-2.294v.334c-.449-.392-.75-.646-.887-.761a4.54,4.54,0,0,0-.461-.334l-.425-.6c-.289-.115-.519-.231-.727-.334a2.013,2.013,0,0,1-.635-.6,11.887,11.887,0,0,1-1.06-1.522,3.047,3.047,0,0,0-1.233-1.268,1.066,1.066,0,0,1-.333-.046,1.463,1.463,0,0,0-.427-.046c-.737-.8-1.5-1.556-2.294-2.294v-.934l.6-1.36h-1.268l.081.334c.116.173.116.265,0,.3a.342.342,0,0,1-.334-.127,6.744,6.744,0,0,1-1.394-.761,6.856,6.856,0,0,0-.98-.6,1.486,1.486,0,0,1-.761-1.268h-.425l-.509-.6-.6.934-.253-3.228.68.761c.958-1.187,1.938-2.375,2.929-3.562s2.017-2.409,3.1-3.654a1.955,1.955,0,0,0,1.314-.761,7.065,7.065,0,0,0,.888-1.36l.08-.081.081-.254a.318.318,0,0,1,.047-.173.654.654,0,0,0,.046-.254c1.071-1.187,2.108-2.363,3.1-3.516s1.972-2.328,2.929-3.516a7.252,7.252,0,0,0,1.266-.888,15.106,15.106,0,0,0,1.521-1.487c.508-.565,1-1.141,1.488-1.741a9.391,9.391,0,0,0,1.141-1.741v.081a2.605,2.605,0,0,0,.334-.726c.057-.2.115-.415.173-.634.173-.231.334-.438.507-.634s.369-.438.6-.726l.334.081a.571.571,0,0,1,.426-.173c.116,0,.358.012.728.046s.726.046,1.06.046c.057,0,.138-.058.253-.173l-.081-.081a4.871,4.871,0,0,0-.38-.634c-.139-.2-.07-.415.208-.634.057-.173.23-.254.507-.254l.6-.081a.889.889,0,0,1,.46.127c.137.081.184.069.127-.046v-1.107a2.7,2.7,0,0,1,.379-.634c.254-.369.553-.8.89-1.268s.679-.934,1.013-1.36.6-.749.761-.98l5,5.6,1.015.68-.254.254,1.014,1.187c-.333.334-.7.68-1.107,1.014l-1.186,1.014c-.854.392-1.315.807-1.394,1.233s-.243,1-.462,1.741a50.416,50.416,0,0,1-5.221,5.3,39.225,39.225,0,0,0-5.048,5.383c-.175.115-.369.242-.6.38a9.081,9.081,0,0,0-1.106.888l-.253.081-.173.254a3.969,3.969,0,0,0-.333.6,1.872,1.872,0,0,1-.082.6c-.449.392-.876.761-1.268,1.107s-.795.7-1.188,1.107a18.793,18.793,0,0,1,2.975.208,8.461,8.461,0,0,0,3.134-.208c.058,0,.254-.012.6-.046s.7-.058,1.107-.081.773-.069,1.141-.127a2.97,2.97,0,0,0,.727-.173l.506.081.082.173.761.081.68.334h1.188a2.574,2.574,0,0,1,.633-.081h.552a.719.719,0,0,0,.6-.68l3.228.6.079,9.337c-1.245.173-2.477.392-3.687.68a11.785,11.785,0,0,1-3.781.254c-.229-.115-.437-.231-.633-.334a1.539,1.539,0,0,0-.726-.173,2.276,2.276,0,0,1-.727-.173c-.31-.115-.623-.208-.934-.3a7.027,7.027,0,0,0-.888-.173.616.616,0,0,0-.6.207l-.68.334h-2.627c.563.622,1.1,1.268,1.614,1.948s1.049,1.36,1.611,2.04a1.349,1.349,0,0,0,.427.507,8.093,8.093,0,0,0,1.188,1.694q.932,1.107,2.073,2.248a24.37,24.37,0,0,0,2.3,2.04,4.227,4.227,0,0,0,1.82.98l-.173.853c.058,0,.082.058.082.173a1.684,1.684,0,0,0,.173,1.268,5.154,5.154,0,0,0,1.394,1.66,8.821,8.821,0,0,0,3.516,1.487c.392.45.8.876,1.188,1.268.416.415.876.865,1.383,1.372Z" transform="translate(-4114.327 -299.7)" fill="#fff" stroke="#161c21" stroke-width="1.5"/>
    </g>
    <g id="Group_169" data-name="Group 169" transform="translate(391.985 72.174)">
      <g id="b" transform="translate(3.34 0.464)">
        <path id="Path_274" data-name="Path 274" d="M2981.352,102.159c-.081-.254-.15-.611-.357-.7-1.74-.876-1.452-3.481-3.746-3.965,0,0-1.187-.357-1.222-.334-.668,0-1.072-.369-1.476-.4a3.44,3.44,0,0,1-1.118-.127c-2.317-1.245-1.13-1.118-2.444-1.983-.185-.115-1.579-1.245-1.982-1.625-.035-.035-.058-.081-.092-.115-1.683-.611-.542-.058-3.412-1.014a8.2,8.2,0,0,1-1.648-.945c.023-.092-.576-.438-.576-.438a5.044,5.044,0,0,1-.727-.5,7.38,7.38,0,0,0-2.95-1.971c-2.052-.761-4.058-1.706-6.213-2.651a7.2,7.2,0,0,0-.7-.334c-.3.035-1.187-1.014-1.187-1.014s-1.211-2.086-1.971-2.386c-1.591-.646-8.4-3.562-10.017-4.173-.854-.311-6.2-1-7.7-1.279,1.026.035-1.452-.092-1.522.184a14.892,14.892,0,0,1-.657,2.5,35.314,35.314,0,0,0-.611,3.666c-.024.15-.5,4.622-.577,5.014-.241,1.683-1.014,3.723-1.026,4.772,0,.092-.092,5.867-.138,5.948-1.683,2.87-1.222,4.415-.841,6.305-.519-.023.991.323,1.175.38,2.1.7,6.8,2.686,8.657,2.893,2.87.334,5.28,1.856,7.942,2.651a41.47,41.47,0,0,0,8.841,2.006c2.133.161,4.242.553,6.352.853,1.867.254,3.757.519,5.74.761a.617.617,0,0,1,.242.092l8.854,6.582c.149.115-.819-4.115-.668-4.184.484-.184.817.519,3.5,1.764a16.243,16.243,0,0,0,2.824,1.118c.5-1.925,1.256-7.412,1.371-7.654.484-1.014.968-6.5.081-9.694Z" transform="translate(-2926.078 -76.2)" fill="#fff" stroke="#161c21" stroke-width="1.5"/>
        <path id="Path_275" data-name="Path 275" d="M3060.02,415.206c-2.317-.184-7.584-.311-9.89-.438a16.285,16.285,0,0,0-6.582.461c-1.338.254-3.171.461-3.931.68-4.692,1.349-8.058.311-12.864.311-1.256,0-2.836.161-4.173.242a.513.513,0,0,1-.552-.5c-.023-.357.057-.772.034-.934-.185-1.8-.311-2.386-.4-4.207-.08-1.522-.253-3.654-.2-5.222-.011.415-.057-.818-.1-.887.334-.507-.127-1.625.046-1.891,0,0-.323-4.173-.334-4.4-.242-3.838-2.813-44.506-3.078-50.281-.023-.311.392-1.383.7-1.349,15.458,1.81,37.232,9.36,36.563,10.432-.023.519.059,8.564.277,8.9.554.876.3,2.824.4,4.553a9.689,9.689,0,0,0-.219,1.349c.15.334.369.427.357.761-.116,1.8-.3-.68.15,1.833-.127.184.115.957.127,1.291.334-.254.4,2.1.484,2.04.254.888.277,2.386.438,3.182.185.945,1.257,4.91.933,5.671-.461,1.118-.126-.277-.208.542-.576,1.406-.022,1.164-.368,2.536a.622.622,0,0,0-.024.208c.115.668.771,2.651.6,3.573a9.364,9.364,0,0,0,.035,2.536c.161,1.925.461,3.839.553,5.74.127,2.536-.081,5.1.645,7.6.461,1.591.681,3.262,1.072,4.887.2.588.162.876-.5.784" transform="translate(-3007.397 -315.602)" fill="#fff" stroke="#161c21" stroke-width="1.5"/>
      </g>
      <g id="c" transform="translate(0 0.573)">
        <path id="Path_276" data-name="Path 276" d="M2982.758,409.646a5,5,0,0,1-.126-.6c0-.161.024-.254.092-.254,1.037-.426.058-.876.034-1.291-.057-3-.334-6.006-.391-9-.08-3.815-.057-7.619,0-11.435a26.106,26.106,0,0,1,.542-2.928,9.019,9.019,0,0,0-.127-1.81.4.4,0,0,1,0-.242c0-.334.08-.645-.058-.772-1.256-1.21-.818-2.72-.83-4.15-.034-3.423-.023-6.87-.058-10.305,0-.3-.276-.6-.461-.957-.024-.115-.035-.15.057-.208,1-.945,1.89-1.867,2.824-2.8a7.752,7.752,0,0,1,.818-.7.538.538,0,0,1,.854.4c0,.219.022.438.022.68.116,1.5.219,2.9.335,4.415.034.334.081.576.091.888v1.648c.023.5.036.911.059,1.395.035.576.092,1.072.127,1.671.334,6.732.668,13.337,1.037,19.942.277,5.095.612,10.19.91,15.377.092,1.533.208,2.986.277,4.507v.115c-.253,1.683.173,1.913.312,4.784a.642.642,0,0,1,.115.311c0,1.5-.034,3,.023,4.507.081,1.81.253,3.62.427,5.429a6.636,6.636,0,0,1,.161.934.509.509,0,0,1-.6.553c-1.5-.219-3.262-.4-4.783-.669a.516.516,0,0,1-.426-.484c-.15-2.006-.208-3.942-.335-5.89-.253-4.023-.575-8.057-.772-12.172.219-.185.357-.254.5-.357-.207-.035-.391-.092-.6-.127a.1.1,0,0,1-.022-.092,1.049,1.049,0,0,0-.024-.311Z" transform="translate(-2971.646 -329.24)" fill="#fff" stroke="#161c21" stroke-width="1.5"/>
        <path id="Path_277" data-name="Path 277" d="M2898.322,95.181c.576-2.686,1.13-5.395,1.73-8.265v-.058c.115-1.037.207-1.89.3-2.72,0,0-.023,0,.081-.058.357-1.118.61-2.167.875-3.239h0a18.806,18.806,0,0,1,1.038-2.04,8.66,8.66,0,0,1,1.625-1.614,1.245,1.245,0,0,1,.726.023c-.185.8-.5,1.5-.611,2.225q-.5,3.337-.829,6.674c-.023.242.392.542.611.818a.94.94,0,0,1,.127.426c-1.625.646-1.533,1.856-1.21,3.17l-.519-.035c-.243-.023,1.337,2.628.484,1.8-.254.68-.624.853-.416,1.21,1.153,1.948-1.74,3.239-.311,5.095.058.058-.023.219-.057.334-.369,1.06-.669,2.144-1.118,3.181a3.7,3.7,0,0,0,.357,3.366c-.219.277,10.49,2.686,10.466,3.043-.08,1.648-4.415,4.691-4.76,5.095-.427.484-8.45-3.228-9.095-3.573-.276-.15-.242-.311-.426-.357-.092-1.372-.115-2.709-.127-4.092a.529.529,0,0,0-.161-.242.334.334,0,0,1,.057-.219c.15-1.118.219-2.167.357-3.2.242-2.04.5-4.081.772-6.19.035-.219.058-.392.081-.542Z" transform="translate(-2897.101 -77.147)" fill="#fff" stroke="#161c21" stroke-width="1.5"/>
        <path id="Path_278" data-name="Path 278" d="M3336.09,424.4c-.219.276,6.652,2.962,6.351,3.147-.679.392-2.017,1.291-2.351.888-.6-.7-3.135.3-3.3.427-.577.484-.854-2.109-.669-2.109-.115-1.36-.034,1.775-.034-2.352Z" transform="translate(-3285.463 -384.372)" fill="#fff" stroke="#161c21" stroke-width="1.5"/>
      </g>
      <g id="d" transform="translate(22.922 77.083)">
        <path id="Path_279" data-name="Path 279" d="M3096.518,749.941c-.161.081-.357.127-.553.219-.035-2.19.081-2.375,2.041-3.147.023,0,.034-.023.058-.023,2.559-1.337,5.026-2.709,7.584-3.873a13.184,13.184,0,0,1,4.149-1.06,46.525,46.525,0,0,1,5.061.15c.669.023,1.372.254,1.672-.761.092-.3.876-.542,1.348-.553a1.311,1.311,0,0,1,.934.669c.484.911.83,1.867,1.256,2.824.312.7,1.014,1.291.5,2.225-.058.092.081.3.219.484a.537.537,0,0,1-.023.634c-.831,1.072-.979,1.014-2.1.115a8.845,8.845,0,0,1-1.071-1.1c-.946-.888-1.972-.888-1.972-.161a12.548,12.548,0,0,0,.392,2.49.682.682,0,0,0,.161.311,20.924,20.924,0,0,1,1.591,1.406.8.8,0,0,1-.023.772.774.774,0,0,1-.772.057,11.373,11.373,0,0,0-1.775-1.464c.115.277.15.646.357.853.553.553,1.372.98.83,2.052-.979-.83-1.948-1.579-2.847-2.409-1.153-1.072-.311-2.432-.4-3.816-.426-.3-.311-.311-.369-.369-2.258.254-4.552.461-6.824.772-.023,0-.034.127-.081.334.334,0,.681-.034,1-.057a.539.539,0,0,1,.52.3c.126.3.277.645.391.945,0,.092-.207-.035-.207-.035-.484.115-1.13-.461-1.281.461a1.329,1.329,0,0,0,.981,1.556c.241.092.426.369.668.726-.092,1.014-.553.668-.853.369a3.969,3.969,0,0,1-1.476-.242c.277.334.519.7.818,1.014.161.161.357.311.542.484a.515.515,0,0,1-.185.91,1.169,1.169,0,0,1-1.429-.611c-.08-.115-.15-.277-.242-.3-1.591-.242-1.672-1.533-1.868-2.72-.092-.576-.242-1.21-.334-1.925a.517.517,0,0,0-.392-.438,1.115,1.115,0,0,1-.369-.115c-1.764.484-3.539.945-5.279,1.5-.162,0-.23.334-.346.542Z" transform="translate(-3095.96 -740.892)" fill="#fff" stroke="#161c21" stroke-width="1.5"/>
      </g>
      <g id="e" transform="translate(3.033 0)">
        <path id="Path_280" data-name="Path 280" d="M3302.043,413.757c.034.023.081.035.092.058a24.376,24.376,0,0,1,2.018,1.591.92.92,0,0,1-.635.15c-1.971-1.014-3.9-2.006-5.833-3.043-.483-.242-.91-.4-1.428-.611a.14.14,0,0,0-.093-.023c-.5-.115-.934-.184-1.349-.277a.976.976,0,0,1-.219-.092,2.237,2.237,0,0,1-.5-.5,6.11,6.11,0,0,1,.888-.185.462.462,0,0,1,.276.035c.819.334,1.625.68,2.444,1.037,1.43.588,2.836,1.2,4.335,1.856Z" transform="translate(-3251.372 -371.784)" fill="#fff" stroke="#161c21" stroke-width="1.5"/>
        <path id="Path_281" data-name="Path 281" d="M2931.911,319.411a1.2,1.2,0,0,1,.334-.611,52.528,52.528,0,0,0,5.833,1.452c2.871.334,5.28,1.856,7.942,2.651a41.525,41.525,0,0,0,8.577,1.983c.518.035,1.037.092,1.556.161,3.815.542,7.1.957,11.007,1.522h.035a12.509,12.509,0,0,1,1.315.311.731.731,0,0,1,.185.115c.115.115.242.185.357.3,0,.058.022.15-.081.15-.242,0-.392.023-.553.023h-.115c-1.211-.184-2.386-.392-3.6-.553a7.884,7.884,0,0,0-1.314-.023,7.992,7.992,0,0,1-.829.035.137.137,0,0,1-.092-.023c-.935-.184-1.857-.4-2.779-.519-2.5-.3-4.875-1.153-7.446-1.164-1.648,0-3.284-.853-4.933-1.337-1.81-.542-3.631-1.072-5.534-1.625-2.777-.68-5.463-1.349-8.137-2.075a7.843,7.843,0,0,1-1.741-.761Z" transform="translate(-2930.922 -290.372)" fill="#fff" stroke="#161c21" stroke-width="1.5"/>
        <path id="Path_282" data-name="Path 282" d="M2923.967,122.576c-.092-.242-.2-.438.047-.484.333-.092.438-.438.818-.484-.243-.484-.623-.818-.335-1.349.151-.242.438-.242.819.092-.335-.576-.865-.911-.576-1.591.149-.288.334-.242.576-.392a.754.754,0,0,1-.2-1.153,5.187,5.187,0,0,1,.577-.392,1.586,1.586,0,0,0,.438-.334c.289-.2.438-.484.772-.53s.438.15.577.334c.149-.2.092-.392.149-.622a5.889,5.889,0,0,1,.15-1.349c.242-.669.287-1.349.484-2.017a3.32,3.32,0,0,0,.289-1.153,3.882,3.882,0,0,0,.151-.576.629.629,0,0,1,.333-.53,1.14,1.14,0,0,1,.392-.046c.092.046.15.046.195.15a3.145,3.145,0,0,1,.243.772,1.245,1.245,0,0,0,.195.392c.092.092.2.092.334.2.046,0,.093.092.151.092a.162.162,0,0,1,.091.046.161.161,0,0,0,.046-.092,1.119,1.119,0,0,1,1.154-.242.727.727,0,0,1,.288.53.526.526,0,0,0,.046.288.365.365,0,0,0,.2.2h.289a1.544,1.544,0,0,0,.956-.622.912.912,0,0,1,.484-.092.649.649,0,0,1,.335.2c.046.092.046.15.092.242a.618.618,0,0,1-.092.392c-.047.092-.047.15-.15.2a1.689,1.689,0,0,1-.392.288,7.914,7.914,0,0,1-.956.53.976.976,0,0,1-.334.092c-.243.046-.439-.046-.669.046-.149.15-.241.288-.392.438a1.073,1.073,0,0,1-.288.2,3.924,3.924,0,0,1-.669.2c-.149.046-.241.046-.287.2a1.106,1.106,0,0,1-.151.392c-.195.288-.483.288-.817.288a1.69,1.69,0,0,0-.577,1.3,1.686,1.686,0,0,1-.392.911l-.046.046c.2-.242.289-.576.727-.392.241.242.2.484.334.772a1.206,1.206,0,0,0,.484.865,7.658,7.658,0,0,0,.335,2.305v.392a1.2,1.2,0,0,0,.092.438c.045.15.045.2.092.334.045.2.149.334.2.53,0,.957-.151,1.787-.2,2.743v.392a1.7,1.7,0,0,1-.047.484,2.237,2.237,0,0,1-.092.334.769.769,0,0,1-.149.334,1.01,1.01,0,0,1-.15.2c-.092.15-.15.242-.242.392a3.528,3.528,0,0,0-.288.438c0,.092-.047.15-.047.2l-.149.288a1,1,0,0,1-.15.2.642.642,0,0,1-.288.2,2.131,2.131,0,0,1-1.107.046c-.439-.242-.727-.669-1.257-.865a1.323,1.323,0,0,1-.819.957.8.8,0,0,0-.53.772.713.713,0,0,1-.046.334.64.64,0,0,0,0,.726.871.871,0,0,1,.046.334c0,.334-.149.576-.046.911a1.677,1.677,0,0,1-.092.818,2.125,2.125,0,0,0-.092.576,1.237,1.237,0,0,1-.092.392.782.782,0,0,1-1.015.53.365.365,0,0,1-.2-.2,14.549,14.549,0,0,1,.2-4.38,11.112,11.112,0,0,0-.045-1.729,3.821,3.821,0,0,1,.195-2.547,2.471,2.471,0,0,0-.15-1.06v-.576c.2-.438-.045-.818.092-1.256.2-.1.2-.15.15-.207Z" transform="translate(-2923.416 -105.64)" fill="#fff" stroke="#161c21" stroke-width="1.5"/>
        <path id="Path_283" data-name="Path 283" d="M3227.183,193.137a3.22,3.22,0,0,1,.991.254,10.471,10.471,0,0,1,1.095.473c.1.081.15.1.254.184a1.977,1.977,0,0,1,.623.254c.184.081.288.1.472.184.254.219.588.184.807.438a.417.417,0,0,0,.219.035,12.68,12.68,0,0,0,1.43.622,1.226,1.226,0,0,1,.369.911.373.373,0,0,1-.4.254c-.219-.035-.255-.369-.588-.184-.219.081-.369-.081-.588-.1a.354.354,0,0,0-.15.035.617.617,0,0,0-.253.15c-.1.081-.219.1-.334.184a.585.585,0,0,0-.253.184.213.213,0,0,1-.15.081c-.473-.081-.473-.438-.657-.772-.081-.1-.15-.15-.219-.254-.1-.1-.15-.219-.288-.288l-.219-.219a1.893,1.893,0,0,1-.842-.588c-.08-.035-.08-.081-.15-.1a1.6,1.6,0,0,1-.4-.334,1.724,1.724,0,0,0-.7-.473l-.219-.1a1.051,1.051,0,0,0-.438-.219,3.194,3.194,0,0,1-.623-.184,2.133,2.133,0,0,1-1.279-.911.9.9,0,0,1-.081-.288.615.615,0,0,1,.15-.254.56.56,0,0,1,.253.035,1.973,1.973,0,0,0,.911.473c.438-.081.656.184.991.4.1.058.173.127.278.127Z" transform="translate(-3189.883 -178.276)" fill="#fff" stroke="#161c21" stroke-width="1.5"/>
        <path id="Path_284" data-name="Path 284" d="M3053.1,476.563c-.335.3-.75.519-.75,1.049-.253.334-.449.634-.668.968-.15.081-.334,0-.45.15a.622.622,0,0,0-.185.265l-.08.15c-.231.3-.45.484-.369.853.036.184-.081.45-.231.45-.783.035-.633.669-.852,1.164a.345.345,0,0,1-.265.081c-.334-.254-.518-.035-.669.15-.518.865-1.349,1.533-1.533,2.651-.253.184-.667.081-.667.6-.082.15-.185.265-.3.265-.853-.081-.9.634-1.2,1.2-.035.184-.149.3-.08.519a.365.365,0,0,1,.035.184.418.418,0,0,1-.3.45.329.329,0,0,1-.184-.035l-.116-.115a.177.177,0,0,0-.035-.081l-.034.034c0,.081-.035.15-.035.231a.538.538,0,0,1-.149.23c-.484.185-.484.634-.634,1.049-.184.369-.3.784-.785.864-.081-.034-.115-.081-.184-.081a2.162,2.162,0,0,1-.184.415,14.253,14.253,0,0,1-1.452,2.1c-.334.3-.369.669-.564,1.049a5.049,5.049,0,0,1-.634.6,2.407,2.407,0,0,0-.75,1.383c-.369.784-1.083,1.268-1.349,2.1a1.912,1.912,0,0,0-.6.784,2.33,2.33,0,0,1-.6.749,12.115,12.115,0,0,0-1.418,2.282,4.357,4.357,0,0,1-.253.45,1.393,1.393,0,0,0-.415.634c-.115.231-.334.231-.519.415-.08.115-.15.15-.23.265l-.115.115c-.081.115-.081.184-.15.3-.081.15-.231.265-.334.415-.219.519-.635.968-.565,1.6a2.256,2.256,0,0,0-.415,1.084,2.552,2.552,0,0,1-.335.749,2.435,2.435,0,0,1-.08.265.9.9,0,0,1-.15.334,10.569,10.569,0,0,0-.635,2.352,1.816,1.816,0,0,0-.334,1.568c-.035.081-.035.115-.081.15-.081.115-.15.15-.231.265a.545.545,0,0,0-.034.23c0,.3-.151.484-.151.784a2.359,2.359,0,0,1-.333,1.014.926.926,0,0,0-.081.334.732.732,0,0,0,.081.3.353.353,0,0,1,.035.15.606.606,0,0,0,.23.334c.45.254.83.519.715,1.164a.621.621,0,0,0,.185.9,2.26,2.26,0,0,0,.9.634c.115.035.149.081.265.115.08.035.08.081.184.15.15.15.23.115.334-.035.035-.081.081-.081.15-.15.6-.231.968.15,1.383.519a.324.324,0,0,1,.116.254,2.645,2.645,0,0,1,.035.6.557.557,0,0,1-.15.115c-.23.034-.369-.115-.565-.184.335.369.484.715.115,1.118a.714.714,0,0,0-.034.265v.15a.545.545,0,0,1,.034.231v.15c-.034.15-.149.231-.218.334a.524.524,0,0,0-.15.3.53.53,0,0,1-.15.231c-.749,0-.933-.219-.714-.853a6.809,6.809,0,0,1,.219-.669c.082-.15.15-.3-.081-.415-.185-.115-.334-.115-.484.15a.573.573,0,0,1-.253.15.885.885,0,0,1-.3-.035.931.931,0,0,1-.335-.184.658.658,0,0,1-.149-.231,3.532,3.532,0,0,1-.116-.334.557.557,0,0,0-.149-.185,2.93,2.93,0,0,1-.3-.334.932.932,0,0,0-.081-.15c-.149-.45-.634-.519-.865-.853l-.185-.184a.879.879,0,0,1-.23-.15.979.979,0,0,1-.151-.081c-.08-.035-.08-.081-.15-.115-.3-.184-.714-.15-.828-.6a24.893,24.893,0,0,1-.531-3.585c-.081-.45.185-.83.15-1.268a.166.166,0,0,0-.081-.15.951.951,0,0,1-.15-.081c-.034,0-.081-.035-.115-.035s.034.035.081.035a.308.308,0,0,1,.23.15.793.793,0,0,1,.035.3c-.219.668-.565.784-1.049.449a2.261,2.261,0,0,0-.519-.415,1.052,1.052,0,0,1-.184-.749.713.713,0,0,1,.081-.3,1.942,1.942,0,0,1,.115-.265c.08-.15.185-.15.253-.265a.3.3,0,0,1-.15-.035.557.557,0,0,1-.114-.15,1.966,1.966,0,0,1-.035-.45,2.657,2.657,0,0,1-.081-.565,2.278,2.278,0,0,1,.035-.484c.034-.115.034-.184.115-.265a.714.714,0,0,1,.485-.115,5.366,5.366,0,0,1,.749.449c.034.115.149.15.034.231.15-.081,0-.185.035-.334a.587.587,0,0,1,.081-.265c.185-.265.185-.565.369-.83a.915.915,0,0,1,.3-.15c.081-.035.15-.081.231-.115a1.782,1.782,0,0,0,.231-.081h.115a.182.182,0,0,0,.082-.035.56.56,0,0,1,.15-.415.554.554,0,0,1,.149-.115c.819-.415.854-1.268,1.188-1.948.081-.565.519-.83.784-1.268a.858.858,0,0,1,.081-.184,1.841,1.841,0,0,0,.184-1.084v-.184c.034-.15.081-.23.116-.369a2.044,2.044,0,0,1,.3-.449.439.439,0,0,1,.115-.15,2.179,2.179,0,0,1,.415-.334c.115-.115.231-.15.334-.265a.276.276,0,0,0,.15-.15.466.466,0,0,0,.034-.231c0-.115.034-.115.034-.184a1.617,1.617,0,0,1,.185-.369,4.463,4.463,0,0,1,.6-1.014.652.652,0,0,1,.229-.15c.3-.231.6-.3.785-.6.6-.231.668-.865,1.083-1.233l.184-.184c.231-.231.335-.45.635-.6a.708.708,0,0,0,.414-.784.487.487,0,0,1,.081-.265c.047-.081.081-.081.151-.15a1.86,1.86,0,0,0,.852-1.014,4.188,4.188,0,0,1,.6-1.049,19.367,19.367,0,0,0,2.132-3.032,2.038,2.038,0,0,1,.415-.415c.253-.231.219-.519.368-.83a.365.365,0,0,0,.035-.184.537.537,0,0,1,.149-.231,1.21,1.21,0,0,1,.3-.334,2.479,2.479,0,0,0,.7-1.049c.335-.415.081-.968.369-1.383a2.492,2.492,0,0,0,.416-.634c.08-.115.115-.231.23-.3.082-.115.184-.15.254-.265.08-.15.115-.265.184-.369a.646.646,0,0,1,.185-.15.546.546,0,0,1,.15-.185l.115-.231c.081-.115.115-.184.185-.3l.15-.15c.229-.184.449-.23.6-.415a.533.533,0,0,0,.115-.15,2.346,2.346,0,0,1,.716-.565c.23-.081.414-.035.6-.15,1.117-1.049,1.6-2.547,2.685-3.631.081-.035.081-.081.15-.115a.729.729,0,0,0,.3-.15,4.325,4.325,0,0,1,1.833-1.913,1.246,1.246,0,0,1,.231-.15,21.757,21.757,0,0,1,1.982-1.464c.565-.415,1.268-.715,1.417-1.5a.4.4,0,0,1,.3-.231,12.809,12.809,0,0,1,2.651-1.233c.15-.035.3-.115.369,0,.116.115-.08.115-.115.23a.379.379,0,0,0-.034.184c-.151.081-.335,0-.451.265-.035.334-.415.334-.519.6a3.374,3.374,0,0,1-1.164,1.383,7.587,7.587,0,0,1-1.165,1.014,3.416,3.416,0,0,0-.369.081c-.081.081-.081.185-.115.231a2.315,2.315,0,0,0-1.268.9c.115.254-.15.265-.368.334h.022Z" transform="translate(-3013.822 -425.277)" fill="#fff" stroke="#161c21" stroke-width="1.5"/>
        <path id="Path_285" data-name="Path 285" d="M3013.327,200.237a3.193,3.193,0,0,0-.4-.957c-.254-.438-.035-.957-.22-1.441-.184-.438-.4-.853.035-1.291.035-.081.081-.115.115-.184.669-.219.772-.15,1.037.6a3.086,3.086,0,0,1-.115.669c-.219.184-.15.4-.115.6a1.063,1.063,0,0,0,.738-.334.287.287,0,0,1,.08-.115c.219.184.3.369,0,.519a.249.249,0,0,0-.08.4c.253.334,0,.7.149,1.037a4.456,4.456,0,0,0,.6.888c.08.081-.035.219-.081.3a1.886,1.886,0,0,0,.081,1.556c-.3.115-.185.484-.4.669-.4-.115-.219-.519-.369-.818a1.459,1.459,0,0,1-.081-.519c.149-.484-.035-.7-.519-.772-.115,0-.15-.15-.185-.3a1.6,1.6,0,0,1-.265-.507Z" transform="translate(-3002.217 -181.952)" fill="#fff" stroke="#161c21" stroke-width="1.5"/>
        <path id="Path_286" data-name="Path 286" d="M3197.787,251.238c.161-.184.219-.438.507-.438.184.184.035.38.058.6a1.173,1.173,0,0,1,.035.346.711.711,0,0,1,.057.288.646.646,0,0,1-.161.346c-.127.092-.219.184-.347.184a.08.08,0,0,1-.057-.035s-.034.035,0,.035.035.058.035.092a.572.572,0,0,1-.058.184,1.539,1.539,0,0,1-.76.127.538.538,0,0,1-.161-.311.945.945,0,0,1,.034-.438c.036-.092.127-.127.058-.254a.541.541,0,0,1,.184-.507.8.8,0,0,1,.472-.161l.035-.035c.035.058.069.035.069-.023Z" transform="translate(-3165.398 -230.21)" fill="#fff" stroke="#161c21" stroke-width="1.5"/>
        <path id="Path_287" data-name="Path 287" d="M3022.2,504.032c0-.369-.046-.7-.046-1.072,0-.7-.046-1.3-.046-1.948-.046-.461-.139-.841-.185-1.3.322-.138.369-.519.185-.98-.139-.277.046-.277-.127-.6a3,3,0,0,1-.185-.7v-.184a1.761,1.761,0,0,1-.046-.519,2.1,2.1,0,0,0,.185-.519,1.009,1.009,0,0,1,.046-.369,1.424,1.424,0,0,0-.138-.876.777.777,0,0,1-.047-.323.52.52,0,0,0,.047-.369.661.661,0,0,1-.093-.323.417.417,0,0,1-.046-.231.728.728,0,0,1,.323-.323.869.869,0,0,1,.368-.092c.092,0,.139.046.231.046.138.046.185.138.276.231a.839.839,0,0,1,.092.323c0,.092-.045.138-.045.231a.978.978,0,0,1-.185.277.364.364,0,0,0-.046.185c.046.184.092.231.276.138.369-.277.139-.749.416-1.072.369-.092.46.184.7.415a1.208,1.208,0,0,1-.23,1.533c-.369.323-.138.749,0,1.164,0,.646-.462,1.21-.231,1.867,0-.415-.184-.876.277-1.256a.926.926,0,0,1,.7-.138c.519.876.323,1.487-.518,2.144.323.138.7-.138,1.072.138a.389.389,0,0,1,.092.323,3.511,3.511,0,0,0-.277.6.418.418,0,0,1-.368.184c-.185.046-.185.138-.185.277,0,.046.046,0,.046-.046.046-.092.092-.092.23-.138.276.092.415.323.6.519a3.935,3.935,0,0,1,.323,1.21,1,1,0,0,1-.047.369.508.508,0,0,1-.415.138.419.419,0,0,0-.323.138.629.629,0,0,1,.185-.138,4.067,4.067,0,0,1,.749,0,.537.537,0,0,0,.462.092.8.8,0,0,1,.461.046,2.209,2.209,0,0,1,.369,1.625c-.185.415-.185,1.026-.934.749-.092-.046-.092-.092-.185-.184s-.185-.184-.277-.184a.045.045,0,0,0,.047.046.238.238,0,0,1,.184.092l.139.138a.669.669,0,0,1,.092.323,6.9,6.9,0,0,1-.369,1.3c-.185.277-.461.415-.415.8-.047.369.092.7.046,1.072a.349.349,0,0,0,.047.369.8.8,0,0,0,.23.185.891.891,0,0,1,.047.323c0,.092-.047.184,0,.046a.143.143,0,0,0,.092-.046.389.389,0,0,1,.323,0,.457.457,0,0,1,.369.277.344.344,0,0,1,0,.415.652.652,0,0,1-.276.092c-.047.046-.093.092-.139.138a.788.788,0,0,0-.323.6c.646.415.554.98.414,1.579,0,.184.047.277-.045.461a.574.574,0,0,1-.369.277h-.046a.618.618,0,0,0,.23-.138.631.631,0,0,1,.185-.138.413.413,0,0,1,.23.046,1.464,1.464,0,0,1,.231.277,1.135,1.135,0,0,1-.323,1.072,2.283,2.283,0,0,0-.137.323c-.139.553,0,1.118-.185,1.671-.046.092-.046-.046,0,.092.046.092.046-.046.138-.046.368-.046.519.138.7.415a.512.512,0,0,1,0,.369,2.027,2.027,0,0,1-1.072,1.026.824.824,0,0,0-.277.415,1.937,1.937,0,0,0-.092.519.886.886,0,0,1-.23.461,1.535,1.535,0,0,0-.139.276c.093.138.277.138.415.231a1.208,1.208,0,0,1,.323.8.592.592,0,0,1-.185.461.586.586,0,0,1-.277.185h-.184c-.046,0-.093-.046-.138-.092s-.092-.046-.047,0a.274.274,0,0,1,.047.184c-.047.185-.092.323.046.461a.95.95,0,0,1,.185.277,1.657,1.657,0,0,1,.185.415,1.238,1.238,0,0,1-.138.7,2.331,2.331,0,0,1-.553.6,1.953,1.953,0,0,1-1.026.092c-.092-.046-.139-.046-.184-.138-.139-.277-.093-.519-.277-.8a17.461,17.461,0,0,1-.75-5.072,5.419,5.419,0,0,0-.139-1.717,6.932,6.932,0,0,1,.139-3.066,30.578,30.578,0,0,0,.277-3.447,6.279,6.279,0,0,0-.519-2.743,18.845,18.845,0,0,1-.046-2.282v-.461a2.227,2.227,0,0,0,.046-.784Z" transform="translate(-3010.371 -444.757)" fill="#fff" stroke="#161c21" stroke-width="1.5"/>
        <path id="Path_288" data-name="Path 288" d="M3015.033,380.354a5.872,5.872,0,0,1-.392-2.559,3.336,3.336,0,0,0-.092-1.5c-.2-.392.092-.772-.092-1.164a4.047,4.047,0,0,0-.15-1.061,1.236,1.236,0,0,1,.15-.922.493.493,0,0,1,.392-.15c.15.046.242.092.288.242a2.317,2.317,0,0,0,.334.772c.093.092.093.2.2.288a1.419,1.419,0,0,1,.046.438.632.632,0,0,1-.046.288v.15a.1.1,0,0,0,.092.092c.047.046.093.046.15.15a.729.729,0,0,1-.092.53,2.153,2.153,0,0,0-.091.53.58.58,0,0,0,.046.484.976.976,0,0,1,.2.726c-.046.2-.151.288-.092.484v.438a2.11,2.11,0,0,0-.092.53v.242a1.481,1.481,0,0,1-.334.968,2.488,2.488,0,0,1-.416,0Z" transform="translate(-3003.808 -338.324)" fill="#fff" stroke="#161c21" stroke-width="1.5"/>
        <path id="Path_289" data-name="Path 289" d="M3020.432,442.5c-.23-.334-.334-.1-.4.035s.069.334-.139.438c-.4-.4-.231-.911-.208-1.36a1.428,1.428,0,0,0-.035-.542,7.507,7.507,0,0,1-.035-1.764,7.04,7.04,0,0,1,.174-2.236c.069-.069.1-.069.208-.069.472.1.4.4.311.68a1.177,1.177,0,0,0,.07,1.118.9.9,0,0,1,.138.853,1.77,1.77,0,0,0-.035.853,2.271,2.271,0,0,0-.034.473c0,.1.034.069.138.069a.937.937,0,0,1-.15,1.452Z" transform="translate(-3008.491 -394.947)" fill="#fff" stroke="#161c21" stroke-width="1.5"/>
        <path id="Path_290" data-name="Path 290" d="M2944.223,113.316c.484-.138.519-.242.173-.646-.035-.035,0-.1,0-.1a1.811,1.811,0,0,1,.346-.38,7.839,7.839,0,0,1,.138-2.017c.173,0,.276-.069.415-.069.484.035.542.242.415.622a3.5,3.5,0,0,1-.312.622.345.345,0,0,0,.035.438c-.1.38.138.715.034,1.1a1.489,1.489,0,0,0-.069.542c0,.138-.034.242-.034.38a.438.438,0,0,1-.035.207.443.443,0,0,0-.034.208.209.209,0,0,1-.034.138c0,.069-.035.069-.035.138-.022.046-.045.092-.069.138a.947.947,0,0,0-.1.438v.173c-.069.207.035.38,0,.622a.483.483,0,0,1-.681.242c-.068-.069-.1-.069-.137-.173a1.091,1.091,0,0,1,.137-.68v-.323a1.028,1.028,0,0,0-.137-.438.207.207,0,0,1-.035-.138c.035-.069.035-.1.069-.173.126-.311-.082-.519-.046-.865Z" transform="translate(-2941.804 -105.728)" fill="#fff" stroke="#161c21" stroke-width="1.5"/>
        <path id="Path_291" data-name="Path 291" d="M2951.2,72.938c-.288-.058-.288-.254-.185-.473a1.627,1.627,0,0,1,1.936.058c.254.161.185.288,0,.438a.516.516,0,0,1-.219.058.784.784,0,0,0-.161.092v.127a1.794,1.794,0,0,0,.057.346,1.457,1.457,0,0,1-.034.83c-.219.219-.438.415-.634-.035-.035-.184.058-.254.058-.415-.035-.035-.035-.058-.058-.127.034-.058.034-.092.058-.092h0c.034.058-.092,0-.035.035-.035.092.035.161.058.254a.525.525,0,0,1-.161.254c-.346.058-.473-.127-.565-.38-.057-.346-.322-.634-.115-.968Z" transform="translate(-2947.778 -72.174)" fill="#fff" stroke="#161c21" stroke-width="1.5"/>
        <path id="Path_292" data-name="Path 292" d="M2949.262,89.822v-.288c0-.035.035-.069.069-.1a.522.522,0,0,0,.1-.161c.035-.035.069-.035.1-.069a.263.263,0,0,1,.127.035c.162.2.1.484.415.519.069,0,.1,0,.126.035.1.1-.2.254.1.323.035.1.068.127.035.231-.323.161-.715.254-.484.772a.136.136,0,0,1,0,.161c-.069.161-.2.2-.323.254a.181.181,0,0,1-.161.069.319.319,0,0,1-.254-.2,3.032,3.032,0,0,1,0-1.326c.081-.058.174-.092.138-.254Z" transform="translate(-2946.094 -87.237)" fill="#fff" stroke="#161c21" stroke-width="1.5"/>
        <path id="Path_293" data-name="Path 293" d="M2991.4,79.209a4.077,4.077,0,0,0,1.372-.184,2.353,2.353,0,0,1,1.556.1c.035.069.069.069.069.15-.035.1-.1.15-.219.219-.069.035-.1.069-.185.1a.338.338,0,0,0-.1.254,1.033,1.033,0,0,1-.069.357.244.244,0,0,0,0,.219c.15.357-.035.473-.357.507a.9.9,0,0,1-.438-.069.846.846,0,0,1-.15-.1l.035.035a1.169,1.169,0,0,1,.15.323.892.892,0,0,1-.069.288.437.437,0,0,1-.151.1c-.323,0-.357-.288-.576-.473-.185-.184-.323-.323-.323-.542a2.674,2.674,0,0,0-.542-1.291Z" transform="translate(-2983.563 -78.157)" fill="#fff" stroke="#161c21" stroke-width="1.5"/>
        <path id="Path_294" data-name="Path 294" d="M3043.145,94.55c-.1.784-.173,1.522-.207,2.351a.254.254,0,0,1-.243.15.73.73,0,0,1-.427-.219.483.483,0,0,1-.069-.369.987.987,0,0,1,.243-.369,1.262,1.262,0,0,0-.035-.634c-.1-.553-.357-.818-.911-.553-.1.035-.138.081-.242.081h-.138a.3.3,0,0,0-.289.035.188.188,0,0,1-.138.081.589.589,0,0,1-.242-.035c-.07-.035-.07-.081-.1-.15a.684.684,0,0,1,.138-.669c.289-.219.565-.115.876-.15a3.983,3.983,0,0,1,1.787.45Z" transform="translate(-3026.836 -91.573)" fill="#fff" stroke="#161c21" stroke-width="1.5"/>
      </g>
    </g>
  </g>
</svg>
