<svg xmlns="http://www.w3.org/2000/svg" width="499.609" height="99.419" viewBox="0 0 499.609 99.419">
  <g id="logo" transform="translate(-65.6 -71.671)">
    <g id="Group_167" data-name="Group 167" transform="translate(65.6 82.335)">
      <path id="Path_264" data-name="Path 264" d="M110.614,279.7c-.056.884-.078,1.779-.078,2.718s-.022,1.868-.078,2.8a18.071,18.071,0,0,1-.369,2.718,10.6,10.6,0,0,1-.861,2.472,13.786,13.786,0,0,0,.537,1.275,4.859,4.859,0,0,1,.447,1.275,41.757,41.757,0,0,1-.078,4.609c-.112,1.208-.246,2.26-.414,3.166s-.358,1.767-.582,2.6a18.119,18.119,0,0,0-.492,2.886l.906-1.98.492-.078-.168,6.5.168.168a12.668,12.668,0,0,0-.369,2.26q-.117,1.359-.2,2.886c-.056,1.018-.078,2-.078,2.964v2.428h-1.812l-4.363-3.546a.684.684,0,0,0-.291-.7c-.246-.19-.537-.4-.861-.615s-.649-.436-.951-.66a1.065,1.065,0,0,1-.447-.906q-1.158-.99-2.383-2.181c-.828-.794-1.689-1.577-2.6-2.349s-1.812-1.465-2.718-2.1a11.483,11.483,0,0,0-2.763-1.443l1.32-.828a2.882,2.882,0,0,0-1.231-1.275,8.983,8.983,0,0,1-1.477-.861,44.143,44.143,0,0,1-4.978-3.58,51.521,51.521,0,0,1-4.575-4.161,11.438,11.438,0,0,1-1.443-2.1,2.605,2.605,0,0,0-2.014-1.443l-1.477-1.477h-.324a5.523,5.523,0,0,1-1.029-1.689,4.793,4.793,0,0,0-1.029-1.611,1.139,1.139,0,0,0,0-.615q-.084-.369-.168-.2l-.66.324-.168.414-.738-.582a4.178,4.178,0,0,1-1.32-1.231c-.168-.324.078-.582.738-.738l-1.812-.246-.738.414c-.112,0-.145-.067-.123-.2a2.6,2.6,0,0,0,.045-.414.87.87,0,0,0-.045-.324c-.022-.078-.123-.045-.291.123l-.906-.828-.168-.582c1.208-1.432,2.427-2.853,3.669-4.284s2.483-2.853,3.747-4.284a6.387,6.387,0,0,1,1.644-.123,1.31,1.31,0,0,0,1.32-.861l-.324-1.566c.056-.112.134-.28.246-.492a.565.565,0,0,0,.078-.492c.168-.168.626-.559,1.4-1.2s1.678-1.4,2.718-2.3,2.137-1.891,3.289-2.964,2.237-2.125,3.255-3.166,1.879-2,2.6-2.886a5.433,5.433,0,0,0,1.23-2.137l3.289-2.383c.324.056.66.123.984.2a3.9,3.9,0,0,0,.906.123,1.107,1.107,0,0,0,1.107-.582,2.541,2.541,0,0,0,.246-1.32,5.792,5.792,0,0,0-.291-1.521,8.167,8.167,0,0,1-.324-1.275,7.1,7.1,0,0,0,1.689-1.107A5.717,5.717,0,0,0,99.35,246.9l8.065,7-.906,1.152a9.98,9.98,0,0,0-2.6,1.98c-1.018.984-2.1,2.125-3.255,3.412s-2.349,2.651-3.58,4.072-2.439,2.741-3.624,3.949a31.947,31.947,0,0,1-3.334,3.009,4.85,4.85,0,0,1-2.8,1.2l.738,1.98a11.086,11.086,0,0,0-3.7,2.181,6.7,6.7,0,0,0-1.477,2.137,11.15,11.15,0,0,0-.582,1.89,2.678,2.678,0,0,1-.906,1.521v.414a1.965,1.965,0,0,0,.123.66c.078.224.145.414.2.582l1.566.246-.414,3.132a8.879,8.879,0,0,0,1.354-.246,10.173,10.173,0,0,0,1.354-.492q3.708,3.2,7.126,6.466c2.282,2.17,4.676,4.24,7.2,6.22l-.582-11.2c.38,0,.593-.291.615-.861a2.673,2.673,0,0,1,.291-1.275l.324-.414a3.9,3.9,0,0,1-.984-1.768,19.075,19.075,0,0,1-.906-4.072l5.191-.078Zm-34.745,12.35a.783.783,0,0,1,.828.168,3.279,3.279,0,0,0-.66-.783,2.216,2.216,0,0,0-1.32-.448l1.152,1.063Zm24.286-3.624a1.611,1.611,0,0,0,.582-.414,2.831,2.831,0,0,0,.537-.738,1.4,1.4,0,0,0,.168-.738.6.6,0,0,0-.369-.492.556.556,0,0,0-.246.369c-.056.19-.134.425-.246.7a2.126,2.126,0,0,1-.123.738A3.849,3.849,0,0,1,100.155,288.424Z" transform="translate(-65.6 -237.514)" fill="#fff"/>
      <path id="Path_265" data-name="Path 265" d="M576.175,209.625l-2.886,5.347-.414-.582-.168.168-.984-1.23a22.768,22.768,0,0,1-2.383,6.466,50.491,50.491,0,0,1-3.949,6.13q-2.215,2.97-4.654,5.806c-1.622,1.891-3.11,3.714-4.486,5.47l-.492-.168a15.417,15.417,0,0,1-3.378,5.347l-2.226-.078-.66-1.812-.984,1.644q-3.2-4.531-6.3-8.972t-6.22-9.139l.66-.492,1.074.246.078-.324a2.341,2.341,0,0,0-.045-.537,2.57,2.57,0,0,0-.2-.537l-3.132-.492a7.906,7.906,0,0,1-.984-1.4c-.28-.492-.548-.984-.828-1.477a6.365,6.365,0,0,1-1.275-.66,12.091,12.091,0,0,1-1.521-1.152,15.426,15.426,0,0,1-1.354-1.354,11.764,11.764,0,0,1-.951-1.2l.078-1.4-.078-1.644a3.7,3.7,0,0,1-1.98.984l-1.734-2.226,1.4-1.566q.252,0,.168-.168a.525.525,0,0,0-.246-.246c1.376-1.756,2.808-3.568,4.318-5.437A12.365,12.365,0,0,1,534.752,199l-.324-.246-.582-1.231c1.376-1.756,2.685-3.557,3.949-5.392s2.495-3.714,3.7-5.638l1.734-.324.738-2.226a19.088,19.088,0,0,0,2.26-2.3c.682-.828,1.409-1.644,2.181-2.472h.324a1.317,1.317,0,0,1,1.152.582l.168-.582h1.812q1.728,1.9,3.457,4.072t3.378,4.486q1.644,2.3,3.087,4.7t2.506,4.609a2.487,2.487,0,0,1-.984.123c-.324-.022-.627-.045-.906-.045-.056,0-.078.112-.078.324a3.509,3.509,0,0,0,.078.783c.056.246.112.5.168.783l3.378-.582a1.758,1.758,0,0,1,.66,1.354,3.025,3.025,0,0,0,.414,1.521,3.5,3.5,0,0,1,1.689.861,13.875,13.875,0,0,1,1.768,1.767,10.2,10.2,0,0,1,1.353,2.058,3.059,3.059,0,0,1,.448,1.644c.6.38,1.219.772,1.857,1.152a6.418,6.418,0,0,0,2.036.85Zm-11.768,1.9-1.152.078c-.437-.324-.526-.66-.246-.984v-.66h-.168a14.2,14.2,0,0,0-1.566-2.472c-.6-.772-1.23-1.521-1.89-2.26s-1.309-1.477-1.935-2.226a17.34,17.34,0,0,1-1.689-2.349,7.569,7.569,0,0,1-.738-1.566q-.335-.906-.738-1.812a9.717,9.717,0,0,0-.951-1.644,2.507,2.507,0,0,0-1.354-.984c-.492-.6-.962-1.219-1.4-1.857s-.884-1.253-1.32-1.857a19,19,0,0,0-2.058,3.7,9.662,9.662,0,0,1-2.551,3.457h-1.32l.492.828-.414,1.32-.246-.414c-.112,0-.134.1-.078.291a1.628,1.628,0,0,1,.078.369c0,.112-.1.145-.291.123s-.347-.045-.448-.045a.931.931,0,0,1-.7-.324,3.412,3.412,0,0,0-.537-.492c.112.38.224.772.324,1.152a4.366,4.366,0,0,1,.168,1.23,1.645,1.645,0,0,1-.582,1.32,15.789,15.789,0,0,1-1.275.984,8.469,8.469,0,0,0-1.32,1.152,2.966,2.966,0,0,0-.7,1.891l-2.55,2.226c.224.168.559.436,1.029.828s.928.805,1.4,1.275a13.9,13.9,0,0,1,1.2,1.354,2.007,2.007,0,0,1,.492,1.074l-.078.078.078-.078a7.92,7.92,0,0,0,.951,2.92,3.916,3.916,0,0,0,2.26,1.935q.487.738,1.275,2.014c.526.85,1.085,1.712,1.689,2.6a27.592,27.592,0,0,0,1.812,2.383,3.366,3.366,0,0,0,1.644,1.23l-.078.738c0,.436.146.682.447.738a7.022,7.022,0,0,1,.951.246,50.922,50.922,0,0,1,3.289-4.486,36.578,36.578,0,0,0,3.211-4.575l5.347-1.734c-.28-.168-.537-.313-.783-.447a7.247,7.247,0,0,0-.783-.369l.078-.246c0-.112-.056-.134-.168-.078a.594.594,0,0,1-.246.078l-.325-.168a3.531,3.531,0,0,1,.582-1.521,10.475,10.475,0,0,1,1.2-1.521c.47-.492.951-.962,1.443-1.4.515-.414.917-.772,1.253-1.04Zm-17.54-37.71c-.436.056-.772.1-.984.123a9.673,9.673,0,0,1-.985.045l-1.477-1.477c-.112,0-.123.078-.045.246a6.083,6.083,0,0,1,.246.582c.078.224.145.414.2.582s.056.246,0,.246a2.348,2.348,0,0,0-1.231-.582,2.933,2.933,0,0,0-1.4,0,2.079,2.079,0,0,0-3.211.4H536.34c0-1.264.022-2.26.078-3.009s.168-1.712.324-2.92a4.679,4.679,0,0,1,.414-1.107,2.252,2.252,0,0,0,.246-1.107,1.825,1.825,0,0,0-.291-.906,1.823,1.823,0,0,1-.291-.66,2.433,2.433,0,0,1,.045-.492,3.517,3.517,0,0,0,.045-.414h2.964l.414,2.551.492-2.8,5.515.246a1.831,1.831,0,0,0,0,.783,4.747,4.747,0,0,1,.078.861.694.694,0,0,1-.246.492,3.218,3.218,0,0,1-.492.414,1.91,1.91,0,0,0-.414.369.245.245,0,0,0,0,.369l1.152.66a.917.917,0,0,0-.123.615,7.488,7.488,0,0,0,.123.783,4.151,4.151,0,0,1,.078.828,1.152,1.152,0,0,1-.168.66q-.654.906-.369,1.275c.19.246.481.615.861,1.107l.089,1.23Zm16.466-10.705c0,1.264-.022,2.282-.078,3.043a25.074,25.074,0,0,1-.414,2.886,3.318,3.318,0,0,1-.324,1.107,2.61,2.61,0,0,0-.246,1.2,1.747,1.747,0,0,0,.246.861,1.613,1.613,0,0,1,.246.615v.984H559.8l-.414-2.551-.492,2.718-5.515-.168a1.655,1.655,0,0,0-.045-.828,3.211,3.211,0,0,1-.123-.828.648.648,0,0,1,.246-.537c.168-.134.347-.28.537-.414a2.8,2.8,0,0,0,.448-.369c.112-.112.112-.246,0-.414l-1.231-.582a1.076,1.076,0,0,0,.168-.615,4.569,4.569,0,0,0-.078-.828,4.558,4.558,0,0,1-.078-.828,1.077,1.077,0,0,1,.168-.615q.655-.906.369-1.275c-.19-.246-.481-.615-.861-1.107l-.078-1.231a8.605,8.605,0,0,0,.984-.168,4.317,4.317,0,0,1,.984-.078l1.477,1.566c.056,0,.056-.078,0-.246s-.123-.358-.2-.582a6.146,6.146,0,0,0-.246-.582c-.078-.168-.067-.246.045-.246a2.167,2.167,0,0,0,1.23.537,3.351,3.351,0,0,0,1.4-.045,1.976,1.976,0,0,0,1.4.66,1.678,1.678,0,0,0,.984-.291,5.778,5.778,0,0,0,.828-.7,4.151,4.151,0,0,1,.828-.078l.805.034Z" transform="translate(-472.544 -163)" fill="#fff"/>
      <path id="Path_266" data-name="Path 266" d="M1076.96,344.619c-.493.28-1.219.727-2.182,1.354s-1.946,1.309-2.964,2.014-1.946,1.354-2.8,1.935-1.443.973-1.767,1.2a5.338,5.338,0,0,1-.985.537,1.662,1.662,0,0,1-1.074.045.139.139,0,0,1-.123-.045.14.14,0,0,0-.123-.045c-.168,0-.291.112-.369.324s-.347.772-.783,1.644l-9.464,5.929a1.678,1.678,0,0,1-1.32.324,2.858,2.858,0,0,1-.828-.414l-.246-.168v0l-.906,2.226a5.887,5.887,0,0,0-1.891.537,16.013,16.013,0,0,1-1.98.7,3.261,3.261,0,0,0-1.768.246,4.031,4.031,0,0,0-1.2,1.074,4.745,4.745,0,0,0-.615.369c-.19.134-.481.347-.861.615l-.907-1.812-1.644,1.477-.168-7.159v-2.137a9.382,9.382,0,0,1,.078-1.32c0-.436.011-.884.045-1.32s.067-1.074.123-1.891a12.348,12.348,0,0,0,.783-2.472,6.184,6.184,0,0,0,.045-1.566c-.112-.548-.235-1.186-.369-1.891a18.771,18.771,0,0,1-.2-3.211,21.943,21.943,0,0,1,.828-5.683,5.215,5.215,0,0,1-.123-1.566c.022-.66-.067-1.04-.291-1.152q0-.084.167-.906a1.639,1.639,0,0,0,0-1.074v-.078l-.078-.078a1.1,1.1,0,0,1-.324-.828,10.116,10.116,0,0,1,.414-2.058c.224.056.324.112.324.168a.14.14,0,0,1,.045-.123c.023-.022.011-.1-.045-.2v-.414a3.209,3.209,0,0,1,.168-1.107c.112-.3.38-.425.828-.369a.788.788,0,0,0-.246-.582,3.194,3.194,0,0,1-.414-.492,1.356,1.356,0,0,1-.2-.66,1.939,1.939,0,0,1,.37-1.074l.078-.246.078-.168c-.168-.224-.324-.436-.492-.66a6.053,6.053,0,0,0-.66-.738c-.056-1.756-.123-3.5-.2-5.224s-.146-3.5-.2-5.314v-1.231l.738-.906-.492-1.644a6.261,6.261,0,0,0,.291-1.074,2.305,2.305,0,0,0-.045-1.152,1.211,1.211,0,0,1-.078-.783c.056-.3.224-1.007.492-2.1.6.224,1.141.414,1.611.582s.973.324,1.521.492l.246,1.152a.232.232,0,0,0,.168-.078.141.141,0,0,0,.124-.045c.022-.034.1-.045.2-.045a1.58,1.58,0,0,0,.537.123.919.919,0,0,1,.537.2c0,.056.146.168.448.324a8.078,8.078,0,0,1,1.029.66l1.074.738a3.866,3.866,0,0,0,.414.246c.112.056.224.112.324.168l7.82,2.886.906,1.4,1.231.246h-.078a11.268,11.268,0,0,1,1.89,1.152c1.152.772,2.439,1.644,3.871,2.64s2.908,1.924,4.441,2.8,2.685,1.566,3.456,2.058a14.552,14.552,0,0,0-3.378,2.8c-.436.492-.884.973-1.32,1.443a5.592,5.592,0,0,1-1.231,1.029,2.384,2.384,0,0,0-.828.7,7.684,7.684,0,0,1-.738.861,4.343,4.343,0,0,1-1.354.861,9.029,9.029,0,0,1-2.506.537l.492,1.074a4.536,4.536,0,0,0-.906.66l-.738.738-.828.66a8.34,8.34,0,0,1-.984.66,17.921,17.921,0,0,1,3.5,1.98c.962.716,1.857,1.432,2.674,2.137q1.326,1.158,2.551,2.181a7.28,7.28,0,0,0,2.964,1.443,29.212,29.212,0,0,1,2.965,2.718,8.981,8.981,0,0,0,3.423,2.237Zm-14.655-.66-5.683-3.457a.523.523,0,0,1-.325-.492v-.246a.475.475,0,0,1-.078-.324c-.436-.66-.828-.984-1.152-.984a3.8,3.8,0,0,1-.828-.123q-.487-.118-.906-.2a.527.527,0,0,1-.414-.291c-.056-.134-.112-.28-.168-.414a1.712,1.712,0,0,0-.168-.324c-.056-.078-.168-.067-.324.045l-1.812-.906a7.634,7.634,0,0,0-.168,1.689c0,.626.011,1.275.045,1.935s.067,1.264.123,1.812.112.962.168,1.231c-.112.772-.224,1.533-.324,2.3a15.46,15.46,0,0,0-.168,2.226,2.578,2.578,0,0,0,.246,1.108,3.3,3.3,0,0,0,.66.951,1.846,1.846,0,0,1,.045.615,2.561,2.561,0,0,1-.2.537,1.615,1.615,0,0,1-.078.369q-.084.285-.168.7l8.971-5.515a1.62,1.62,0,0,1,.447-.447c.246-.19.526-.414.828-.66s.593-.47.861-.66a7.416,7.416,0,0,0,.571-.481Zm-2.058-21.9a5.7,5.7,0,0,1-.828-.414,12.152,12.152,0,0,0-1.23-.783c-.437-.246-.884-.5-1.32-.783-.828-.548-1.566-1.04-2.226-1.477s-1.074-.6-1.23-.492a.66.66,0,0,1-.582-.078.259.259,0,0,0-.324-.078.66.66,0,0,1-.414-.738l.078-.078.582.078c0-.056-.179-.224-.537-.492a1.671,1.671,0,0,0-.861-.414l-.906-.414a6.67,6.67,0,0,0,.246,2.181,7,7,0,0,1,.246,2.26.594.594,0,0,0-.079.246.591.591,0,0,1-.078.246l-.078.078v.414a.232.232,0,0,1,.078.168.6.6,0,0,0,.078.246v.246l-.167.414a16.33,16.33,0,0,1,.167,2.349v2.349c.324,0,.683-.011,1.074-.045a3.51,3.51,0,0,0,.828-.123,11.118,11.118,0,0,0,1.689-.783,13.93,13.93,0,0,0,1.611-1.108l1.891-1.32q.654-.487,1.275-.906C1059.621,322.526,1059.968,322.28,1060.248,322.056Z" transform="translate(-930.999 -286.628)" fill="#fff"/>
      <path id="Path_267" data-name="Path 267" d="M1422.239,351.7l-7.081,8.893a22.645,22.645,0,0,1-1.857-2.226,2.856,2.856,0,0,1-.369-.66.441.441,0,0,1,.168-.324,4.334,4.334,0,0,0-.985-.984.858.858,0,0,1-.291-.246q-.117-.168-.705-.906v.246c-.436-.492-.984-1.074-1.644-1.734s-1.331-1.342-2.013-2.058-1.331-1.409-1.936-2.1-1.1-1.253-1.476-1.689l-1.734-2.137a14,14,0,0,0-1.029-1.231c-.358-.38-.727-.794-1.107-1.23l-1.074-2.226v.324c-.436-.38-.727-.627-.862-.738a4.525,4.525,0,0,0-.447-.324l-.413-.582c-.28-.112-.5-.224-.7-.324a2.227,2.227,0,0,1-.615-.582,11.417,11.417,0,0,1-1.029-1.477,3.02,3.02,0,0,0-1.2-1.23,1.039,1.039,0,0,1-.325-.045,2.027,2.027,0,0,0-.413-.045c-.716-.772-1.454-1.51-2.226-2.226v-.906l.582-1.32h-1.23l.078.324c.112.168.112.257,0,.291a.333.333,0,0,1-.325-.123,6.565,6.565,0,0,1-1.353-.738,6.719,6.719,0,0,0-.951-.582,1.442,1.442,0,0,1-.739-1.23h-.414l-.492-.582-.582.906-.246-3.132.66.738c.928-1.152,1.879-2.3,2.841-3.457s1.958-2.338,3.009-3.546a1.9,1.9,0,0,0,1.275-.738,6.805,6.805,0,0,0,.861-1.32l.078-.078.079-.246a.313.313,0,0,1,.045-.168.644.644,0,0,0,.044-.246c1.041-1.152,2.047-2.293,3.01-3.412s1.913-2.26,2.841-3.412a7.037,7.037,0,0,0,1.23-.861,14.784,14.784,0,0,0,1.477-1.443c.492-.548.973-1.108,1.443-1.689a9.064,9.064,0,0,0,1.107-1.689v.078a2.522,2.522,0,0,0,.324-.7c.056-.19.112-.4.168-.615.168-.224.324-.425.492-.615s.358-.425.581-.7l.324.078a.557.557,0,0,1,.414-.168c.112,0,.347.011.7.045s.705.045,1.029.045c.056,0,.134-.056.246-.168l-.079-.078a4.657,4.657,0,0,0-.369-.615c-.134-.19-.067-.4.2-.615.056-.168.224-.246.492-.246l.582-.078a.867.867,0,0,1,.448.123c.134.078.179.067.123-.045v-1.074a2.6,2.6,0,0,1,.369-.615c.246-.358.538-.772.862-1.23s.66-.906.985-1.32.582-.727.738-.951l4.855,5.437.984.66-.246.246.984,1.152c-.325.324-.682.66-1.074.984l-1.152.984c-.828.38-1.276.783-1.354,1.2s-.235.973-.447,1.689a49.027,49.027,0,0,1-5.068,5.146,37.455,37.455,0,0,0-4.9,5.224c-.168.112-.358.235-.582.369a8.934,8.934,0,0,0-1.073.861l-.246.078-.168.246a4.013,4.013,0,0,0-.325.582,1.828,1.828,0,0,1-.078.582c-.436.38-.85.738-1.23,1.074s-.772.682-1.152,1.074a18.225,18.225,0,0,1,2.886.2,8.218,8.218,0,0,0,3.043-.2c.056,0,.246-.011.582-.045s.682-.056,1.073-.078.75-.067,1.108-.123a2.885,2.885,0,0,0,.7-.168l.492.078.079.168.739.078.66.324h1.152a2.506,2.506,0,0,1,.615-.078h.537a.7.7,0,0,0,.581-.66l3.133.582.079,9.061c-1.208.168-2.406.38-3.58.66a11.448,11.448,0,0,1-3.669.246c-.224-.112-.425-.224-.616-.324a1.368,1.368,0,0,0-.7-.168,2.2,2.2,0,0,1-.7-.168c-.3-.112-.6-.2-.906-.291a6.826,6.826,0,0,0-.861-.168.6.6,0,0,0-.582.2l-.66.324h-2.55c.548.6,1.074,1.23,1.566,1.89s1.018,1.32,1.567,1.98a1.306,1.306,0,0,0,.413.492,7.892,7.892,0,0,0,1.152,1.644q.906,1.074,2.014,2.181a23.823,23.823,0,0,0,2.226,1.98,4.107,4.107,0,0,0,1.767.951l-.168.828c.056,0,.078.056.078.168a1.64,1.64,0,0,0,.168,1.231,5,5,0,0,0,1.354,1.611,8.559,8.559,0,0,0,3.411,1.443c.38.436.772.85,1.153,1.23.414.392.85.828,1.342,1.331Z" transform="translate(-1237.583 -280.855)" fill="#fff"/>
      <path id="Path_268" data-name="Path 268" d="M1814.073,359.065l-.414.246c0,.056-.078.022-.246-.078a.725.725,0,0,0-.324-.078l.581.66a6.26,6.26,0,0,0-.078.828c0,.168-.168.414-.492.738l-.582,1.074a4.921,4.921,0,0,1-.66-.123c-.056-.022-.224-.1-.492-.2-.056,0-.056.011,0,.045s.056.067,0,.123l-.739-.324c.112-.112.056-.224-.168-.324s-.436-.224-.66-.324a1.808,1.808,0,0,1-.537-.369c-.134-.134-.257-.179-.369-.123l.246,1.566,1.476.66-.246.738c.056-.112.112-.134.168-.078a.233.233,0,0,0,.168.078,1.251,1.251,0,0,0-.168.492c-.324.6-.6.906-.828.906h-.582a1.14,1.14,0,0,0-.581.078,2.385,2.385,0,0,0-.078.906,3.6,3.6,0,0,0-.66.906c-.168.324-.324.626-.492.906a3.167,3.167,0,0,1-.738.828,13.535,13.535,0,0,0-1.812-1.935,12.1,12.1,0,0,1-1.812-2.014,7.218,7.218,0,0,0-.7-.984,5.873,5.873,0,0,0-.615-.582,2.444,2.444,0,0,0-.537-.537,3.178,3.178,0,0,1-.615-.615,2.644,2.644,0,0,0-2.058-1.9,8.533,8.533,0,0,0-1.689-1.812c-.469-.324-1.051-.794-1.767-1.4-.224-.224-.425-.436-.615-.66s-.425-.492-.7-.828a7.389,7.389,0,0,1-.324-.984.815.815,0,0,0-.291-.492,1.991,1.991,0,0,0-.537-.291q-.335-.118-.906-.369a11.676,11.676,0,0,0-1.4-1.611,11.639,11.639,0,0,1-1.4-1.611,2.028,2.028,0,0,0-.045-1.231,8.4,8.4,0,0,1-.291-1.23l-.492,1.4-.985-1.734-.582-.984c0,.548-.022,1.163-.078,1.857s-.1,1.342-.123,1.98-.045,1.2-.045,1.689v.984a2.231,2.231,0,0,0,.291.906,3.571,3.571,0,0,0,.7.984l.168,3.289c-.28.548-.5,1.029-.7,1.443a3.448,3.448,0,0,0-.291,1.521,4.216,4.216,0,0,0,.414,1.857,6.725,6.725,0,0,0,.984,1.521,2.118,2.118,0,0,1-.079.66v.492a6.738,6.738,0,0,0-.078,1.32,5,5,0,0,1-1.443-.168,11.092,11.092,0,0,0-1.443-.324,1.5,1.5,0,0,1-.369-.045,3.218,3.218,0,0,0-.537-.045,1.681,1.681,0,0,1-.246-.291c-.056-.078.056-.145.325-.2a.233.233,0,0,1,.078-.168c.112-.112.19-.134.246-.078a.6.6,0,0,1,0,.738,1.293,1.293,0,0,1-.828.447,5.1,5.1,0,0,1-.984.123l-.324-.078a1.512,1.512,0,0,0-.369.045,5.585,5.585,0,0,0-1.108.615l1.231-2.551c-.437.112-.716.112-.828,0-.056-.112-.067-.078-.045.078a.457.457,0,0,1-.123.414c-.112.168-.257.38-.448.66a.828.828,0,0,1-.7.414.482.482,0,0,1-.246-.045.643.643,0,0,0-.246-.045h-1.309a11.11,11.11,0,0,0-1.23.078c0-.716.011-1.656.045-2.841s.056-2.316.078-3.412.067-2.439.123-4.038a5.034,5.034,0,0,1,.324-.951,2.218,2.218,0,0,0,.168-1.029,3.509,3.509,0,0,0-.079-.783,5.186,5.186,0,0,0-.246-.783c0-.168-.022-.28-.078-.324,0-1.588.022-3.143.078-4.654s.112-3.031.168-4.575a2.622,2.622,0,0,0,.123-1.89,6.813,6.813,0,0,1-.291-1.891,1.254,1.254,0,0,1,.447-1.029,1.066,1.066,0,0,0,.369-1.029,1.467,1.467,0,0,0-.448-1.152,4.3,4.3,0,0,1-.783-.984v-3.311l1.566-.582c-.28-.168-.414-.313-.414-.447a6.229,6.229,0,0,0-.078-.783h-.492a1.154,1.154,0,0,0-.783-.414,2.1,2.1,0,0,0-.783.168l-.324-.66.984-.66a.484.484,0,0,1,.045-.246.481.481,0,0,0,.045-.246v-.078l-.246-.324a2.892,2.892,0,0,0,.492-.582,1.233,1.233,0,0,0,0-.66,1.567,1.567,0,0,1,.492-1.734c-.112-1.533-.2-3.009-.291-4.407s-.179-2.841-.291-4.318l.582-.246-.168-.582v-.168l.828.078-.078.246-.739-.246c.056-.112.112-.224.167-.324s.112-.224.168-.324l.079-.246a.105.105,0,0,1-.168,0l-.168-.078-.078-.168a.676.676,0,0,1-.168-.66l.906-.414-.246-.246a1.392,1.392,0,0,0-1.152-1.4c-.112-.112-.168-.19-.168-.246l.66-.324.078.246-.738.168a1.738,1.738,0,0,1,.246-1.152l.168-.168a1.606,1.606,0,0,0,0-.738c.6,0,1.152.011,1.644.045a5.036,5.036,0,0,1,1.566.369c.28.112.548.2.828.291a4.886,4.886,0,0,0,1.566.045,6,6,0,0,1,2.383-.828,13.091,13.091,0,0,1,2.964,0c-.112.38-.224.794-.324,1.231a7.956,7.956,0,0,0-.246,1.23,11.14,11.14,0,0,0-.078,1.4c-.112.112-.134.4-.079.861a3.443,3.443,0,0,0,.168.861v.078l.078.078a.485.485,0,0,0-.2.7.726.726,0,0,1-.045.783v.078h-.078c-.112.224-.257.481-.447.783a1.546,1.546,0,0,0-.291.783,2.757,2.757,0,0,0,.66,1.734,2.342,2.342,0,0,1-.168,1.477,11.309,11.309,0,0,0-.492,1.477,1.711,1.711,0,0,1,.2.828,5,5,0,0,0,.123.906l-.079.078h-.168l.414.324c0,.112-.011.448-.045,1.029s-.067,1.141-.123,1.689l3.949-4.195a2.556,2.556,0,0,1,1.029-.66c.359-.112.749-.224,1.2-.324a.311.311,0,0,0,.324-.168,1.694,1.694,0,0,0-.078-.828,5.929,5.929,0,0,0,1.768-1.566c.581-.716,1.085-1.342,1.521-1.891a23.465,23.465,0,0,1,2.226-2.26,13.588,13.588,0,0,1,2.64-1.857c.325-.436.6-.615.828-.537a7.506,7.506,0,0,1,.828.369c.111.056.179.056.2,0a.457.457,0,0,1,.2-.168h-.078a7.553,7.553,0,0,1-.324-1.029,1,1,0,0,1,.246-1.029l4.441-4.441,6.589,6.343c-.38.324-.917.828-1.611,1.477s-1.376,1.342-2.058,2.058-1.309,1.41-1.857,2.1a10.621,10.621,0,0,0-1.074,1.521c-.112.112-.313.3-.615.582s-.626.548-.984.828-.7.548-1.029.828-.582.47-.738.582c-.548-.168-.716-.6-.492-1.32-.325.6-.66,1.219-.984,1.857a20.429,20.429,0,0,1-1.074,1.857v.078a.935.935,0,0,1-.246.492c-.168.224-.358.447-.582.7s-.425.47-.615.66l-.369.369a5.423,5.423,0,0,1-1.4,1.029c-.492.246-.884.235-1.152-.045l-.246.738a8.273,8.273,0,0,1-.414,1.443,4.692,4.692,0,0,1-.324.7,6.288,6.288,0,0,0-1.645,1.275c-.548.57-1.04,1.085-1.477,1.521-.492.492-1.018.984-1.566,1.477a6.221,6.221,0,0,1-1.812,1.152c.224.224.537.492.951.828s.828.66,1.23.984.772.615,1.073.861a3.544,3.544,0,0,0,.615.447,19.674,19.674,0,0,1,1.734,2.55l.414-.324,1.32.906a3.109,3.109,0,0,0,.582,1.107c.324.47.582.839.738,1.107.224-.056.358,0,.414.168s-.022.324-.246.492a.936.936,0,0,1-.66.168,1.711,1.711,0,0,0-.66.078.347.347,0,0,0-.246.369,1.258,1.258,0,0,0,.123.537,1.447,1.447,0,0,0,.291.414.2.2,0,0,0,.324,0,1.762,1.762,0,0,0,.2-.246,4.551,4.551,0,0,1,.448-.492,1.368,1.368,0,0,1,.984-.414,1.387,1.387,0,0,1,.705.369c.2.19.4.369.615.537.716.112,1.23.19,1.566.246s.716.436,1.152,1.152a11.869,11.869,0,0,1,.582,1.152,2.126,2.126,0,0,0,.738.984,6.958,6.958,0,0,1,.448.861,7.752,7.752,0,0,0,.447.861.8.8,0,0,0,.492.2c.224.023.627.067,1.231.123a7.266,7.266,0,0,0,.66.738l.739.738c0,.112.1.224.291.324a1.924,1.924,0,0,1,.447.324l.246.246a.92.92,0,0,1,.168.246,2.4,2.4,0,0,0,1.4,1.812c.66.224,1.4.436,2.226.66a5.076,5.076,0,0,0,.448.537,2.477,2.477,0,0,0,.425.492Z" transform="translate(-1584.046 -290.536)" fill="#fff"/>
      <path id="Path_269" data-name="Path 269" d="M2200.306,379.454a2.972,2.972,0,0,1,.2.906,3.431,3.431,0,0,1-.045.906,2.845,2.845,0,0,1-.324.906c-2.036-.224-3.837-.347-5.437-.369s-2.774-.045-3.546-.045a3.589,3.589,0,0,0-1.107.2,2.19,2.19,0,0,0-1.029.7,7.623,7.623,0,0,1-1.521.168h-1.354a4.838,4.838,0,0,0-.705-.369,1.544,1.544,0,0,1-.615-.537,7.584,7.584,0,0,1-.538-.582.646.646,0,0,0-.537-.246,2.927,2.927,0,0,0-1.152.123c-.112.078-.38.347-.827.783-.28.056-.672.112-1.2.168s-.917.112-1.2.168l-1.152-.984-2.3.66q-.335-.252-.168-.369t-.168-.2q-.168.084,0-.168a.8.8,0,0,0,.168-.414l-.078-.492h-.414l-.168-.324-.167-.492-.492-.078.078,2.3-.738.168c-.224-.224-.414-.425-.582-.615a.759.759,0,0,0-.582-.291.979.979,0,0,0-.7.291,6.9,6.9,0,0,0-.616.7h-1.23l-.984.078H2168l1.074-1.152-.325-.246.168-.078c-.056,0-.079-.011-.079-.045s-.022-.045-.078-.045-.078-.022-.078-.078a10.508,10.508,0,0,0,.291-1.074,1.859,1.859,0,0,1,.537-.984,3.037,3.037,0,0,0-.537-.7.945.945,0,0,1-.291-.861c.112-.884.191-1.477.246-1.812a2.922,2.922,0,0,1,.247-.828,2.143,2.143,0,0,0,.078-.66c0-.28.023-.828.079-1.644a4.046,4.046,0,0,0,.414-1.107,5.109,5.109,0,0,0,.168-1.108,1.147,1.147,0,0,0-.246-.828.6.6,0,0,0-.246-.078h1.153c.38,0,.581-.078.581-.246l-1.32-.492.168-.324v-.369h-.324c-.168,0-.28-.134-.324-.414,0-1.152.01-2,.044-2.551s.056-.984.078-1.32.056-.66.079-.984.045-.884.045-1.644a4.6,4.6,0,0,0,.078-2.64,13.047,13.047,0,0,1-.324-2.718,3.669,3.669,0,0,1,.246-1.32,4.091,4.091,0,0,0,.246-1.477,6.892,6.892,0,0,0-.581-2.551v-1.645a6.538,6.538,0,0,0,.906-.66c.325-.28.582-.47.739-.582a2.278,2.278,0,0,0,.739-1.644,3.567,3.567,0,0,0-.615-1.767,9.032,9.032,0,0,0-1.276-1.689h-.168a.232.232,0,0,1-.168-.078v-.324c0-1.644-.045-3.289-.123-4.944s-.179-3.289-.291-4.944l.492-.324-.079-.582a.851.851,0,0,0,.123-.582,7.132,7.132,0,0,0-.123-.738l-.078-.906v-.492l-.739-4.117,3.289-.168a.37.37,0,0,1,.414-.078,1.026,1.026,0,0,1,.414.246c.056.112.19.324.414.66l.078.168h.079l.246-.246a1.937,1.937,0,0,0,.324-.2c.112-.078.134-.291.078-.615l5.929.078c-.112,1.432-.168,2.785-.168,4.072s-.022,2.562-.078,3.826l-.079.246c-.223.28-.413.526-.581.738a1.618,1.618,0,0,0-.247.984,2.685,2.685,0,0,0,.739,1.566l-.168,2.226-.324.246.168.414a4.218,4.218,0,0,1,.045,1.074c-.023.492-.057,1.007-.079,1.521s-.056,1.007-.078,1.443a2.219,2.219,0,0,0,.045.828,9.631,9.631,0,0,1,.738,3.669c0,1.242-.055,2.506-.168,3.826a.559.559,0,0,0,.2.369c.134.134.2.235.2.291a1.455,1.455,0,0,1-.325.246l-.324.168a1.212,1.212,0,0,1-.7.537c-.358.134-.593.145-.705.045,0,.056.079.168.246.324a1.469,1.469,0,0,0,.325.246c.111.112.279.1.492-.045s.38-.179.492-.123a3.062,3.062,0,0,0-.078.951v1.935c0,.772.012,1.465.045,2.1a4.623,4.623,0,0,1-.045,1.2l-.414,1.98-.739.324-.492-.078v.168c0,.056.168.19.492.414l.246.246c.437.224.66.492.66.828a4.9,4.9,0,0,1,.123.615,5.773,5.773,0,0,1,.045.7c0,.38-.011.928-.045,1.644s-.045,1.454-.045,2.226-.011,1.5-.045,2.181-.044,1.219-.044,1.611a1.639,1.639,0,0,1-.414,1.23,22.669,22.669,0,0,1,4.318-.078,21.851,21.851,0,0,0,3.826,0,3.218,3.218,0,0,0,.861.369,3.123,3.123,0,0,0,.615.123,2.5,2.5,0,0,0,1.23-.324,3.505,3.505,0,0,0,.581-.168.328.328,0,0,0,.247-.078h7.45c.906,0,1.634-.022,2.182-.078a22.633,22.633,0,0,1,0,3.949,3.977,3.977,0,0,1-.985,2.226l1.2.94Z" transform="translate(-1932.815 -305.489)" fill="#fff"/>
      <path id="Path_270" data-name="Path 270" d="M2530.014,382.249l-1.645.078h-2.382a2.7,2.7,0,0,1-.66-.168v.168l-1.23-.078a1.452,1.452,0,0,1-.705,0,2.412,2.412,0,0,1-.615-.492.233.233,0,0,1-.079-.168.232.232,0,0,0-.078-.168c-.437,0-.928.324-1.477.984h-.536a.583.583,0,0,1-.447-.168h-.168c-.056-.056-.246-.078-.581-.078l.324-.414c-.224.112-.324,0-.324-.324a1.943,1.943,0,0,0,.491-.492c.224-.28.3-.436.247-.492l-1.074-1.644c.111-.984.179-1.7.2-2.137a4.518,4.518,0,0,0-.045-1.074,7.322,7.322,0,0,1-.123-1.074c-.022-.436-.045-1.186-.045-2.226l.906-1.074.828-2.55a.663.663,0,0,1-.415.246h-.491a.981.981,0,0,1-.448-.2c-.079-.078-.146-.145-.2-.2a12.809,12.809,0,0,1-.2-3.457q.117-1.728.37-3.457c.168-1.152.324-2.3.491-3.457a23.889,23.889,0,0,0,.247-3.457,20.407,20.407,0,0,0-.291-3.412,28.937,28.937,0,0,1-.369-3.58,1.793,1.793,0,0,0,.984-.906,4.872,4.872,0,0,0,.168-1.477,2.881,2.881,0,0,0-.2-1.275,4.445,4.445,0,0,0-.951-1.029c0-.884-.011-1.678-.045-2.383s-.056-1.41-.079-2.1-.055-1.387-.077-2.1-.067-1.477-.123-2.3q-.168-.252.168-.738l.168-.168a2.66,2.66,0,0,0,.492-.828,16.013,16.013,0,0,1-.738-1.767,2.849,2.849,0,0,1-.168-1.857,4.233,4.233,0,0,1-.324-1.32,7.072,7.072,0,0,0-.247-1.32,1.425,1.425,0,0,0-.413-.906l1.231-1.32,9.877-.078c-.056,1.432-.067,2.774-.045,4.038a31.836,31.836,0,0,1-.123,3.624,2.463,2.463,0,0,1-.414.951,3.9,3.9,0,0,0-.492,1.107c.112.28.224.526.324.738a7.647,7.647,0,0,1,.325.738,1.134,1.134,0,0,1,.078.984,10.846,10.846,0,0,0-.246,1.32,10.949,10.949,0,0,1-.247,1.32l.583.414-.493.828a1.373,1.373,0,0,1,.448.66,5.109,5.109,0,0,1,.2,1.734,1.824,1.824,0,0,1-.581-.246,3.177,3.177,0,0,1-.415-.168.721.721,0,0,0-.324-.078l1.4,2.226a9.078,9.078,0,0,0-.246,1.734c-.056.772-.078,1.32-.078,1.644,0,1.04.022,2.226.078,3.546s.078,2.606.078,3.87q.085,1.98,0,3.792a14.252,14.252,0,0,1-.414,3.043l.66,4.441-1.566-1.644a5.733,5.733,0,0,0-.247,1.2.372.372,0,0,0,.168.369.587.587,0,0,0,.369.045.4.4,0,0,1,.369.123,1.431,1.431,0,0,1,.581,1.231,12.948,12.948,0,0,1,.045,1.857,1.993,1.993,0,0,0,.448,1.611l-.492,2.8a2.725,2.725,0,0,0-.369,1.644c.022.66.045,1.23.045,1.734a5.664,5.664,0,0,0,1.32,3.457l.078,1.768Z" transform="translate(-2243.751 -305.812)" fill="#fff"/>
    </g>
    <g id="Group_168" data-name="Group 168" transform="translate(444.351 97.627)">
      <path id="Path_271" data-name="Path 271" d="M3488.438,355.7l-7.081,8.893a22.633,22.633,0,0,1-1.858-2.226,2.862,2.862,0,0,1-.369-.66.443.443,0,0,1,.168-.324,4.31,4.31,0,0,0-.984-.984.862.862,0,0,1-.291-.246q-.117-.168-.7-.906v.246c-.437-.492-.985-1.074-1.645-1.734s-1.331-1.342-2.013-2.058-1.331-1.409-1.936-2.1-1.1-1.253-1.477-1.689l-1.734-2.137a13.811,13.811,0,0,0-1.029-1.231c-.357-.38-.727-.794-1.107-1.231l-1.074-2.226v.324c-.436-.38-.727-.626-.861-.738a4.671,4.671,0,0,0-.448-.324l-.414-.582c-.279-.112-.5-.224-.705-.324a1.95,1.95,0,0,1-.615-.582,11.3,11.3,0,0,1-1.03-1.477,2.955,2.955,0,0,0-1.2-1.231,1.035,1.035,0,0,1-.324-.045,2.04,2.04,0,0,0-.414-.045c-.716-.772-1.455-1.51-2.227-2.226v-.906l.582-1.32h-1.23l.078.324c.112.168.112.257,0,.291a.311.311,0,0,1-.324-.123,6.591,6.591,0,0,1-1.354-.738,6.668,6.668,0,0,0-.95-.582,1.441,1.441,0,0,1-.738-1.23h-.414l-.492-.582-.582.906-.246-3.132.66.738c.929-1.152,1.879-2.3,2.841-3.457s1.959-2.338,3.01-3.546a1.9,1.9,0,0,0,1.275-.738,6.828,6.828,0,0,0,.863-1.32l.077-.078.079-.246a.323.323,0,0,1,.044-.168.481.481,0,0,0,.045-.246c1.041-1.152,2.048-2.293,3.01-3.412s1.912-2.26,2.841-3.412a7.013,7.013,0,0,0,1.231-.861,14.81,14.81,0,0,0,1.477-1.443c.492-.548.973-1.107,1.442-1.689a9.076,9.076,0,0,0,1.109-1.689v.078a2.552,2.552,0,0,0,.324-.7c.055-.19.111-.4.168-.615.168-.224.324-.425.491-.615s.358-.425.582-.7l.324.078a.556.556,0,0,1,.413-.168c.113,0,.348.011.705.045s.705.045,1.029.045c.056,0,.135-.056.247-.168l-.079-.078a4.762,4.762,0,0,0-.369-.615c-.135-.19-.067-.4.2-.615.056-.168.224-.246.492-.246l.581-.078a.866.866,0,0,1,.448.123c.135.078.179.067.123-.045v-1.074a2.573,2.573,0,0,1,.369-.615c.246-.358.537-.772.862-1.23s.659-.906.984-1.32.582-.727.738-.951l4.855,5.437.984.66-.246.246.984,1.152c-.324.324-.682.66-1.074.984l-1.152.984c-.828.38-1.275.783-1.354,1.2s-.234.973-.448,1.689a48.969,48.969,0,0,1-5.067,5.146,38.065,38.065,0,0,0-4.9,5.224c-.168.112-.358.235-.582.369a9.009,9.009,0,0,0-1.074.861l-.245.078-.168.246a3.992,3.992,0,0,0-.324.582,1.84,1.84,0,0,1-.078.582c-.436.38-.851.738-1.231,1.074s-.771.682-1.152,1.074a18.21,18.21,0,0,1,2.886.2,8.218,8.218,0,0,0,3.043-.2c.056,0,.246-.011.582-.045s.682-.056,1.073-.078.75-.067,1.107-.123a2.9,2.9,0,0,0,.705-.168l.492.078.078.168.738.078.66.324h1.152a2.509,2.509,0,0,1,.615-.078h.537a.7.7,0,0,0,.581-.66l3.132.582.078,9.061c-1.208.168-2.4.38-3.579.66a11.459,11.459,0,0,1-3.669.246c-.224-.112-.425-.224-.615-.324a1.369,1.369,0,0,0-.705-.168,2.21,2.21,0,0,1-.7-.168c-.3-.112-.6-.2-.906-.291a6.861,6.861,0,0,0-.862-.168.585.585,0,0,0-.582.2l-.66.324h-2.55c.547.6,1.073,1.23,1.565,1.891s1.018,1.32,1.566,1.98a1.307,1.307,0,0,0,.414.492,7.854,7.854,0,0,0,1.153,1.644q.905,1.074,2.013,2.181a23.83,23.83,0,0,0,2.226,1.98,4.17,4.17,0,0,0,1.768.951l-.167.828c.056,0,.078.056.078.168a1.637,1.637,0,0,0,.168,1.231,4.994,4.994,0,0,0,1.353,1.611,8.569,8.569,0,0,0,3.412,1.443c.38.436.772.85,1.153,1.23.414.4.85.839,1.342,1.331Z" transform="translate(-3451.4 -299.7)" fill="#fff"/>
      <path id="Path_272" data-name="Path 272" d="M3878.98,331.144l-1.074,1.812-3.132,2.551-3.792,3.21a6.688,6.688,0,0,0-1.812.738c-.828.436-1.767,1.018-2.842,1.734s-2.214,1.521-3.411,2.427-2.372,1.812-3.5,2.718-2.181,1.767-3.166,2.6-1.779,1.533-2.383,2.137a2.271,2.271,0,0,0-1.4.123,10.547,10.547,0,0,1-1.4.448c.056,1.264.123,2.181.2,2.763s.134,1.029.168,1.354a2.7,2.7,0,0,1-.079.951,11.861,11.861,0,0,1-.536,1.443,3.442,3.442,0,0,0-.414,1.566,1.468,1.468,0,0,0,.246.951c.168.19.38.425.66.7a2.088,2.088,0,0,1,.739.828l-.493,2.64c-.984.056-1.7.1-2.135.123a9.066,9.066,0,0,1-1.108,0,2.569,2.569,0,0,1-.951-.291c-.336-.168-.85-.414-1.566-.738l-1.073.828h-1.891c-.435.436-.772.626-.984.582s-.6-.134-1.152-.246c0-1.98.078-3.893.246-5.761s.38-3.792.659-5.761c.281-.056.37-.134.291-.246a.866.866,0,0,1-.122-.492c-.113-.28-.2-.548-.291-.828a2.65,2.65,0,0,1-.123-.828q0-5.185.168-10.124c.112-3.289.134-6.7.078-10.213.6-.28.929-.559.984-.861a7.5,7.5,0,0,0,.079-1.275,8.336,8.336,0,0,0-.325-1.812,3.167,3.167,0,0,0-.827-1.644l-.324-8.065h.324v-.078a7.3,7.3,0,0,0,.37-1.32,2.937,2.937,0,0,1,.536-1.23l-1.476-.828,1.476-3.132-.414-7.495,1.32.246c.828.716,1.8,1.465,2.92,2.26s2.125,1.5,3.009,2.1c.66.436,1.152.772,1.477.984l.246-.246,2.641,3.289,2.471.984,8.647,8.065c.717.436,1.4.906,2.058,1.4l1.981,1.477c.716.548,1.465,1.074,2.26,1.566a12.488,12.488,0,0,0,2.674,1.23l-1.231,2.3a2.58,2.58,0,0,0,.862-.2,7.418,7.418,0,0,1,1.108-.324,2.718,2.718,0,0,1,1.029-.045.633.633,0,0,1,.537.582,3.675,3.675,0,0,1,.783.582,1.887,1.887,0,0,0,.951.324l1.23,1.465Zm-14.823.738a8.087,8.087,0,0,1-1.857-1.23,3.1,3.1,0,0,1-1.107-1.891h-.414a18.7,18.7,0,0,0-1.979-1.566q-1.073-.738-2.182-1.443c-.738-.47-1.454-.962-2.136-1.477a8.044,8.044,0,0,1-1.689-1.689c-.436-.6-.9-1.208-1.354-1.812s-.973-1.208-1.521-1.812a.2.2,0,0,0,0,.324,5.976,5.976,0,0,1,.738,1.107,2.358,2.358,0,0,1,.325,1.108,4.239,4.239,0,0,1-.123.783,5.944,5.944,0,0,1-.292.951,1.551,1.551,0,0,1-.492.66.5.5,0,0,1-.66,0c0,.056.079.123.246.2s.246.179.246.291a.717.717,0,0,0,.2.582,2.289,2.289,0,0,0,.492.291,1.088,1.088,0,0,1,.694,1.2,2.467,2.467,0,0,1-.078.828l-.414-.168a.359.359,0,0,0,.078.2.352.352,0,0,1,.079.2,6.813,6.813,0,0,0-.861.828,3.146,3.146,0,0,0-.706,1.074c-.168.224-.3.414-.413.582l-.325.492a3.869,3.869,0,0,0-.078.738v.168c0-.056.078-.145.247-.291s.245-.235.245-.291c.28-.168.381-.313.324-.447s.056-.291.325-.447c.28-.224.492-.291.66-.2s.246.257.246.537v12.764l.493-.828c.279-.436.525-.839.738-1.2a4.731,4.731,0,0,1,.492-.7q.823-.487,2.551-1.443c1.152-.626,2.3-1.32,3.457-2.058a22.743,22.743,0,0,0,3.043-2.3,3.2,3.2,0,0,0,1.32-2.181l1.443-.425Z" transform="translate(-3797.151 -302.72)" fill="#fff"/>
      <path id="Path_273" data-name="Path 273" d="M4237.737,355.7l-7.081,8.893a22.43,22.43,0,0,1-1.856-2.226,2.836,2.836,0,0,1-.37-.66.447.447,0,0,1,.168-.324,4.319,4.319,0,0,0-.984-.984.863.863,0,0,1-.292-.246q-.116-.168-.705-.906v.246c-.435-.492-.983-1.074-1.644-1.734s-1.331-1.342-2.014-2.058-1.332-1.409-1.936-2.1-1.1-1.253-1.477-1.689l-1.734-2.137a13.72,13.72,0,0,0-1.028-1.231c-.357-.38-.728-.794-1.107-1.231l-1.074-2.226v.324c-.436-.38-.728-.626-.861-.738a4.49,4.49,0,0,0-.447-.324l-.414-.582c-.281-.112-.5-.224-.706-.324a1.967,1.967,0,0,1-.616-.582,11.544,11.544,0,0,1-1.029-1.477,2.96,2.96,0,0,0-1.2-1.231,1.033,1.033,0,0,1-.324-.045,1.421,1.421,0,0,0-.415-.045c-.716-.772-1.454-1.51-2.227-2.226v-.906l.583-1.32h-1.23l.078.324c.112.168.112.257,0,.291a.331.331,0,0,1-.324-.123,6.531,6.531,0,0,1-1.353-.738,6.594,6.594,0,0,0-.952-.582,1.441,1.441,0,0,1-.738-1.23h-.413l-.493-.582-.582.906-.246-3.132.659.738c.929-1.152,1.881-2.3,2.842-3.457s1.958-2.338,3.01-3.546a1.9,1.9,0,0,0,1.274-.738,6.831,6.831,0,0,0,.861-1.32l.079-.078.078-.246a.312.312,0,0,1,.046-.168.631.631,0,0,0,.045-.246c1.04-1.152,2.046-2.293,3.008-3.412s1.914-2.26,2.843-3.412a7.011,7.011,0,0,0,1.228-.861,14.709,14.709,0,0,0,1.478-1.443c.493-.548.974-1.107,1.443-1.689a9.1,9.1,0,0,0,1.107-1.689v.078a2.517,2.517,0,0,0,.324-.7c.056-.19.112-.4.168-.615.168-.224.324-.425.492-.615s.358-.425.582-.7l.324.078a.554.554,0,0,1,.413-.168c.113,0,.348.011.707.045s.7.045,1.028.045c.057,0,.134-.056.247-.168l-.079-.078a4.654,4.654,0,0,0-.369-.615c-.134-.19-.068-.4.2-.615.057-.168.224-.246.493-.246l.583-.078a.86.86,0,0,1,.446.123c.134.078.179.067.124-.045v-1.074a2.622,2.622,0,0,1,.368-.615c.248-.358.537-.772.863-1.23s.66-.906.984-1.32.582-.727.739-.951l4.854,5.437.985.66-.247.246.984,1.152c-.324.324-.682.66-1.074.984l-1.151.984c-.828.38-1.276.783-1.353,1.2s-.235.973-.449,1.689a48.848,48.848,0,0,1-5.066,5.146,38.062,38.062,0,0,0-4.9,5.224c-.169.112-.358.235-.582.369a8.832,8.832,0,0,0-1.074.861l-.246.078-.167.246a3.86,3.86,0,0,0-.324.582,1.81,1.81,0,0,1-.079.582c-.436.38-.85.738-1.23,1.074s-.771.682-1.153,1.074a18.232,18.232,0,0,1,2.887.2,8.21,8.21,0,0,0,3.041-.2c.057,0,.247-.011.582-.045s.683-.056,1.074-.078.75-.067,1.107-.123a2.89,2.89,0,0,0,.705-.168l.492.078.079.168.739.078.659.324h1.153a2.5,2.5,0,0,1,.614-.078h.536a.7.7,0,0,0,.583-.66l3.133.582.077,9.061c-1.208.168-2.4.38-3.579.66a11.44,11.44,0,0,1-3.67.246c-.223-.112-.424-.224-.614-.324a1.494,1.494,0,0,0-.705-.168,2.21,2.21,0,0,1-.705-.168c-.3-.112-.6-.2-.906-.291a6.8,6.8,0,0,0-.861-.168.6.6,0,0,0-.582.2l-.66.324h-2.55c.547.6,1.072,1.23,1.566,1.891s1.018,1.32,1.563,1.98a1.311,1.311,0,0,0,.415.492,7.848,7.848,0,0,0,1.153,1.644q.9,1.074,2.012,2.181a23.724,23.724,0,0,0,2.228,1.98,4.1,4.1,0,0,0,1.766.951l-.168.828c.057,0,.079.056.079.168a1.636,1.636,0,0,0,.168,1.231,5,5,0,0,0,1.353,1.611,8.56,8.56,0,0,0,3.413,1.443c.38.436.772.85,1.153,1.23.4.4.85.839,1.341,1.331Z" transform="translate(-4116.879 -299.7)" fill="#fff"/>
    </g>
    <g id="Group_169" data-name="Group 169" transform="translate(382.345 72.174)">
      <g id="b" transform="translate(3.242 0.45)">
        <path id="Path_274" data-name="Path 274" d="M2979.719,101.392c-.078-.246-.146-.593-.347-.682-1.689-.85-1.409-3.378-3.635-3.848,0,0-1.152-.347-1.186-.324-.648,0-1.041-.358-1.432-.392a3.339,3.339,0,0,1-1.085-.123c-2.249-1.208-1.1-1.085-2.372-1.924-.179-.112-1.533-1.208-1.924-1.577-.034-.034-.056-.078-.09-.112-1.634-.593-.526-.056-3.311-.984a7.943,7.943,0,0,1-1.6-.917c.023-.089-.559-.425-.559-.425a4.893,4.893,0,0,1-.705-.481,7.164,7.164,0,0,0-2.863-1.913c-1.991-.738-3.938-1.656-6.03-2.573a6.987,6.987,0,0,0-.683-.324c-.29.034-1.151-.984-1.151-.984s-1.175-2.025-1.913-2.316c-1.543-.626-8.155-3.457-9.72-4.049-.828-.3-6.019-.973-7.473-1.242,1,.034-1.409-.089-1.477.179a14.447,14.447,0,0,1-.637,2.427,34.3,34.3,0,0,0-.593,3.557c-.023.145-.481,4.486-.56,4.866-.234,1.633-.984,3.613-1,4.631,0,.09-.09,5.694-.134,5.772-1.633,2.785-1.186,4.284-.816,6.119-.5-.022.962.313,1.141.369,2.036.682,6.6,2.606,8.4,2.808,2.785.324,5.124,1.8,7.707,2.573a40.243,40.243,0,0,0,8.58,1.946c2.07.157,4.117.537,6.165.828,1.812.246,3.646.5,5.57.738a.6.6,0,0,1,.234.089l8.592,6.387c.145.112-.795-3.994-.648-4.061.469-.179.793.5,3.4,1.712a15.748,15.748,0,0,0,2.74,1.085c.481-1.868,1.219-7.193,1.331-7.428.47-.984.94-6.309.078-9.408Z" transform="translate(-2926.078 -76.2)" fill="#fff" stroke="#161c21" stroke-width="1"/>
        <path id="Path_275" data-name="Path 275" d="M3058.778,413.185c-2.248-.179-7.359-.3-9.6-.425a15.8,15.8,0,0,0-6.387.448c-1.3.246-3.077.448-3.815.66-4.553,1.309-7.82.3-12.484.3-1.219,0-2.752.157-4.05.235a.5.5,0,0,1-.536-.481c-.023-.347.055-.75.033-.906-.179-1.745-.3-2.316-.391-4.083-.078-1.477-.246-3.546-.191-5.068-.011.4-.055-.794-.1-.861.324-.492-.123-1.577.045-1.835,0,0-.314-4.049-.325-4.273-.235-3.725-2.73-43.191-2.987-48.8-.022-.3.381-1.342.682-1.309,15,1.756,36.132,9.083,35.483,10.124-.022.5.057,8.312.269,8.636.537.85.291,2.741.392,4.419a9.442,9.442,0,0,0-.213,1.309c.146.324.358.414.347.738-.113,1.745-.291-.66.146,1.779-.123.179.112.928.123,1.253.324-.246.391,2.036.469,1.98.247.861.269,2.316.426,3.088.179.917,1.219,4.765.906,5.5-.447,1.085-.122-.268-.2.526-.559,1.365-.021,1.13-.357,2.461a.611.611,0,0,0-.023.2c.112.649.749,2.573.581,3.468a9.088,9.088,0,0,0,.034,2.461c.156,1.868.447,3.725.537,5.571.123,2.461-.078,4.945.626,7.372.448,1.544.66,3.166,1.04,4.743.19.571.157.85-.481.761" transform="translate(-3007.709 -316.523)" fill="#fff" stroke="#161c21" stroke-width="1"/>
      </g>
      <g id="c" transform="translate(0 0.556)">
        <path id="Path_276" data-name="Path 276" d="M2982.717,408.242a4.822,4.822,0,0,1-.123-.582c0-.157.023-.246.09-.246,1.006-.414.056-.85.033-1.253-.055-2.909-.324-5.828-.38-8.737-.078-3.7-.055-7.394,0-11.1a25.447,25.447,0,0,1,.526-2.841,8.746,8.746,0,0,0-.123-1.756.393.393,0,0,1,0-.235c0-.324.078-.626-.056-.749-1.219-1.175-.794-2.64-.805-4.027-.033-3.322-.023-6.667-.056-10,0-.291-.268-.582-.447-.928-.023-.112-.034-.145.055-.2.973-.917,1.834-1.812,2.74-2.718a7.559,7.559,0,0,1,.794-.682.522.522,0,0,1,.828.391c0,.213.021.425.021.66.112,1.454.213,2.819.325,4.284.033.324.078.559.088.861v1.6c.023.481.035.884.057,1.354.034.559.09,1.04.124,1.622.324,6.533.648,12.943,1.006,19.353.269,4.944.594,9.889.884,14.923.09,1.488.2,2.9.269,4.374v.112c-.246,1.633.167,1.857.3,4.642a.623.623,0,0,1,.111.3c0,1.454-.032,2.909.023,4.374.078,1.756.246,3.513.415,5.269a6.5,6.5,0,0,1,.156.906.494.494,0,0,1-.582.537c-1.454-.213-3.166-.392-4.642-.649a.5.5,0,0,1-.414-.47c-.146-1.946-.2-3.826-.325-5.716-.246-3.9-.558-7.819-.749-11.813.212-.179.347-.246.481-.347-.2-.034-.38-.089-.582-.123a.1.1,0,0,1-.022-.09,1.019,1.019,0,0,0-.023-.3Z" transform="translate(-2971.934 -330.21)" fill="#fff" stroke="#161c21" stroke-width="1"/>
        <path id="Path_277" data-name="Path 277" d="M2898.286,94.648c.56-2.606,1.1-5.235,1.679-8.021v-.056c.111-1.007.2-1.835.291-2.64,0,0-.022,0,.078-.056.347-1.085.592-2.1.85-3.143h0a18.278,18.278,0,0,1,1.007-1.98,8.4,8.4,0,0,1,1.577-1.566,1.208,1.208,0,0,1,.7.022c-.179.772-.481,1.454-.593,2.159q-.486,3.239-.8,6.477c-.022.235.38.526.593.794a.914.914,0,0,1,.123.414c-1.577.626-1.488,1.8-1.174,3.076l-.5-.034c-.235-.022,1.3,2.551.47,1.745-.247.66-.6.828-.4,1.175,1.119,1.891-1.689,3.143-.3,4.944.056.056-.023.213-.056.324-.358,1.029-.648,2.081-1.084,3.087a3.59,3.59,0,0,0,.346,3.266c-.213.268,10.18,2.606,10.157,2.953-.078,1.6-4.285,4.553-4.62,4.944-.414.47-8.2-3.132-8.826-3.468-.268-.145-.235-.3-.413-.347-.09-1.331-.112-2.629-.123-3.971a.513.513,0,0,0-.156-.235.324.324,0,0,1,.055-.213c.146-1.085.213-2.1.347-3.11.235-1.98.481-3.96.75-6.007.034-.213.056-.38.078-.526Z" transform="translate(-2897.101 -77.147)" fill="#fff" stroke="#161c21" stroke-width="1"/>
        <path id="Path_278" data-name="Path 278" d="M3336.088,424.4c-.212.268,6.456,2.875,6.164,3.054-.659.38-1.957,1.253-2.282.861-.582-.682-3.042.291-3.2.414-.56.47-.828-2.047-.649-2.047-.111-1.32-.034,1.723-.034-2.282Z" transform="translate(-3286.958 -385.555)" fill="#fff" stroke="#161c21" stroke-width="1"/>
      </g>
      <g id="d" transform="translate(22.245 74.806)">
        <path id="Path_279" data-name="Path 279" d="M3096.5,749.674c-.156.078-.347.123-.537.213-.034-2.125.078-2.3,1.98-3.054.022,0,.033-.022.056-.022,2.483-1.3,4.877-2.629,7.36-3.759a12.8,12.8,0,0,1,4.027-1.029,45.168,45.168,0,0,1,4.912.146c.649.022,1.331.246,1.622-.738.09-.291.85-.526,1.308-.537a1.273,1.273,0,0,1,.906.649c.47.884.8,1.812,1.219,2.741.3.682.984,1.253.481,2.159-.056.09.078.291.212.47a.521.521,0,0,1-.022.615c-.806,1.041-.951.984-2.036.112a8.564,8.564,0,0,1-1.039-1.063c-.918-.861-1.914-.861-1.914-.156a12.177,12.177,0,0,0,.381,2.416.66.66,0,0,0,.157.3,20.384,20.384,0,0,1,1.544,1.365.775.775,0,0,1-.023.75.751.751,0,0,1-.749.056,11.044,11.044,0,0,0-1.723-1.421c.112.269.146.627.347.828.537.537,1.331.951.805,1.991-.951-.805-1.89-1.532-2.763-2.338-1.119-1.04-.3-2.36-.392-3.7-.414-.291-.3-.3-.358-.358-2.192.246-4.418.447-6.622.75-.022,0-.033.123-.078.324.324,0,.66-.033.973-.056a.523.523,0,0,1,.5.291c.123.291.269.626.38.917,0,.089-.2-.034-.2-.034-.47.112-1.1-.448-1.243.448a1.289,1.289,0,0,0,.952,1.51c.234.089.414.358.649.7-.09.984-.537.649-.828.358a3.849,3.849,0,0,1-1.432-.235c.269.324.5.682.794.984.157.157.347.3.526.47a.5.5,0,0,1-.179.884,1.135,1.135,0,0,1-1.387-.593c-.078-.112-.145-.269-.235-.291-1.544-.235-1.622-1.488-1.812-2.64-.09-.559-.235-1.175-.325-1.868a.5.5,0,0,0-.38-.425,1.083,1.083,0,0,1-.358-.112c-1.712.47-3.434.917-5.123,1.454-.157,0-.224.324-.336.526Z" transform="translate(-3095.96 -740.891)" fill="#fff" stroke="#161c21" stroke-width="1"/>
      </g>
      <g id="e" transform="translate(2.944 0)">
        <path id="Path_280" data-name="Path 280" d="M3301.808,413.67c.033.022.078.034.09.056a23.74,23.74,0,0,1,1.958,1.544.893.893,0,0,1-.616.146c-1.913-.984-3.781-1.946-5.66-2.953-.47-.235-.884-.391-1.387-.593a.134.134,0,0,0-.09-.022c-.481-.112-.906-.179-1.309-.269a.937.937,0,0,1-.212-.089,2.165,2.165,0,0,1-.481-.481,5.925,5.925,0,0,1,.861-.179.45.45,0,0,1,.269.034c.795.324,1.577.66,2.372,1.007,1.388.571,2.752,1.163,4.207,1.8Z" transform="translate(-3252.634 -372.937)" fill="#fff" stroke="#161c21" stroke-width="1"/>
        <path id="Path_281" data-name="Path 281" d="M2931.911,319.393a1.165,1.165,0,0,1,.324-.593,50.976,50.976,0,0,0,5.66,1.409c2.786.324,5.124,1.8,7.708,2.573a40.3,40.3,0,0,0,8.323,1.924c.5.034,1.006.089,1.51.157,3.7.526,6.891.928,10.682,1.477h.034a12.146,12.146,0,0,1,1.276.3.715.715,0,0,1,.179.112c.111.112.234.179.346.291,0,.056.022.145-.079.145-.235,0-.38.022-.537.022h-.112c-1.175-.179-2.316-.38-3.491-.537a7.649,7.649,0,0,0-1.275-.022,7.747,7.747,0,0,1-.8.034.133.133,0,0,1-.09-.022c-.907-.179-1.8-.392-2.7-.5-2.427-.291-4.732-1.119-7.227-1.13-1.6,0-3.187-.828-4.788-1.3-1.757-.526-3.523-1.04-5.37-1.577-2.7-.66-5.3-1.309-7.9-2.014a7.614,7.614,0,0,1-1.69-.738Z" transform="translate(-2930.951 -291.211)" fill="#fff" stroke="#161c21" stroke-width="1"/>
        <path id="Path_282" data-name="Path 282" d="M2923.951,122.2c-.089-.235-.19-.425.045-.47.324-.089.425-.425.794-.47-.236-.47-.6-.794-.325-1.309.146-.235.425-.235.8.09-.325-.559-.84-.884-.559-1.544.145-.28.324-.235.559-.38a.731.731,0,0,1-.191-1.119,5.018,5.018,0,0,1,.559-.38,1.542,1.542,0,0,0,.426-.324c.28-.19.425-.47.75-.515s.425.145.56.324c.145-.19.089-.38.145-.6a5.746,5.746,0,0,1,.146-1.309c.235-.649.279-1.309.469-1.958a3.218,3.218,0,0,0,.28-1.119,3.75,3.75,0,0,0,.146-.559.611.611,0,0,1,.324-.515,1.106,1.106,0,0,1,.381-.045c.089.045.146.045.189.145a3.061,3.061,0,0,1,.236.749,1.214,1.214,0,0,0,.189.38c.09.089.191.089.324.19.045,0,.091.09.146.09a.157.157,0,0,1,.089.045.157.157,0,0,0,.044-.089,1.086,1.086,0,0,1,1.12-.235.7.7,0,0,1,.28.515.509.509,0,0,0,.044.28.354.354,0,0,0,.19.19h.28a1.5,1.5,0,0,0,.928-.6.886.886,0,0,1,.47-.089.63.63,0,0,1,.325.19c.044.09.044.145.089.235a.6.6,0,0,1-.089.38c-.045.089-.045.145-.146.19a1.627,1.627,0,0,1-.38.28,7.678,7.678,0,0,1-.928.515.946.946,0,0,1-.324.09c-.235.045-.426-.045-.649.045-.145.145-.234.28-.38.425a1.042,1.042,0,0,1-.28.19,3.8,3.8,0,0,1-.65.19c-.145.045-.234.045-.279.19a1.069,1.069,0,0,1-.146.38c-.189.28-.469.28-.793.28a1.64,1.64,0,0,0-.56,1.264,1.637,1.637,0,0,1-.38.884l-.045.045c.191-.235.28-.559.705-.38.234.235.191.47.324.749a1.17,1.17,0,0,0,.47.839,7.432,7.432,0,0,0,.325,2.237v.38a1.168,1.168,0,0,0,.09.425c.044.145.044.19.089.324.044.19.145.324.19.515,0,.928-.146,1.734-.19,2.662v.38a1.652,1.652,0,0,1-.045.47,2.192,2.192,0,0,1-.09.324.749.749,0,0,1-.145.324.989.989,0,0,1-.145.19c-.089.145-.146.235-.235.38a3.422,3.422,0,0,0-.279.425c0,.09-.046.145-.046.19l-.145.28a.972.972,0,0,1-.146.19.622.622,0,0,1-.279.19,2.069,2.069,0,0,1-1.074.045c-.426-.235-.7-.649-1.219-.839a1.284,1.284,0,0,1-.795.928.774.774,0,0,0-.515.749.7.7,0,0,1-.044.324.62.62,0,0,0,0,.7.852.852,0,0,1,.044.324c0,.324-.145.559-.044.884a1.632,1.632,0,0,1-.089.794,2.046,2.046,0,0,0-.09.559,1.21,1.21,0,0,1-.089.38.759.759,0,0,1-.985.515.355.355,0,0,1-.19-.19,14.121,14.121,0,0,1,.19-4.251,10.813,10.813,0,0,0-.043-1.678,3.71,3.71,0,0,1,.189-2.472,2.4,2.4,0,0,0-.146-1.029v-.559c.191-.425-.043-.794.089-1.219.191-.1.191-.145.146-.2Z" transform="translate(-2923.416 -105.769)" fill="#fff" stroke="#161c21" stroke-width="1"/>
        <path id="Path_283" data-name="Path 283" d="M3227.106,193.107a3.122,3.122,0,0,1,.961.246,10.158,10.158,0,0,1,1.063.459c.1.078.146.1.247.179a1.918,1.918,0,0,1,.6.246c.179.078.279.1.458.179.246.213.57.179.783.425a.4.4,0,0,0,.212.034,12.291,12.291,0,0,0,1.388.6,1.189,1.189,0,0,1,.358.884.362.362,0,0,1-.392.246c-.213-.034-.247-.358-.571-.179-.212.078-.358-.078-.57-.1a.345.345,0,0,0-.146.034.6.6,0,0,0-.246.145c-.1.078-.213.1-.325.179a.566.566,0,0,0-.246.179.207.207,0,0,1-.145.078c-.459-.078-.459-.425-.638-.749-.078-.1-.146-.145-.213-.246-.1-.1-.146-.213-.279-.28l-.213-.213a1.838,1.838,0,0,1-.817-.57c-.078-.034-.078-.078-.145-.1a1.548,1.548,0,0,1-.391-.324,1.672,1.672,0,0,0-.683-.459l-.212-.1a1.018,1.018,0,0,0-.426-.213,3.109,3.109,0,0,1-.6-.179,2.07,2.07,0,0,1-1.241-.884.872.872,0,0,1-.078-.28.6.6,0,0,1,.145-.246.545.545,0,0,1,.246.034,1.915,1.915,0,0,0,.884.459c.425-.078.637.179.962.392.1.056.168.123.269.123Z" transform="translate(-3190.908 -178.685)" fill="#fff" stroke="#161c21" stroke-width="1"/>
        <path id="Path_284" data-name="Path 284" d="M3052.291,476.407c-.325.291-.727.5-.727,1.018-.246.324-.436.615-.649.94-.146.078-.324,0-.437.145a.6.6,0,0,0-.179.257l-.078.145c-.224.291-.436.47-.358.828.035.179-.078.436-.224.436-.76.034-.614.649-.827,1.13a.335.335,0,0,1-.257.078c-.324-.246-.5-.034-.649.145-.5.839-1.309,1.488-1.488,2.573-.246.179-.648.078-.648.582-.079.145-.179.257-.292.257-.827-.078-.873.615-1.164,1.163-.034.179-.145.291-.078.5a.351.351,0,0,1,.035.179.406.406,0,0,1-.292.436.318.318,0,0,1-.178-.034l-.113-.112a.172.172,0,0,0-.033-.078l-.033.034c0,.078-.034.145-.034.224a.524.524,0,0,1-.145.224c-.47.179-.47.615-.615,1.018-.179.358-.291.761-.761.839-.078-.033-.111-.078-.178-.078a2.094,2.094,0,0,1-.179.4,13.832,13.832,0,0,1-1.409,2.036c-.325.291-.358.649-.548,1.018a4.893,4.893,0,0,1-.615.582,2.338,2.338,0,0,0-.727,1.342c-.358.761-1.052,1.23-1.309,2.036a1.854,1.854,0,0,0-.582.761,2.268,2.268,0,0,1-.582.727,11.744,11.744,0,0,0-1.376,2.215,4.228,4.228,0,0,1-.246.436,1.351,1.351,0,0,0-.4.615c-.112.224-.324.224-.5.4-.077.112-.146.146-.223.257l-.112.112c-.079.112-.079.179-.145.291-.078.145-.224.257-.324.4-.213.5-.616.94-.548,1.555a2.193,2.193,0,0,0-.4,1.052,2.47,2.47,0,0,1-.325.727,2.4,2.4,0,0,1-.078.257.869.869,0,0,1-.145.324,10.264,10.264,0,0,0-.616,2.282,1.762,1.762,0,0,0-.324,1.521c-.034.078-.034.112-.079.145-.078.112-.146.145-.224.257a.528.528,0,0,0-.033.224c0,.291-.146.47-.146.761a2.289,2.289,0,0,1-.324.984.9.9,0,0,0-.078.324.713.713,0,0,0,.078.291.343.343,0,0,1,.034.145.587.587,0,0,0,.223.324c.437.246.8.5.693,1.13a.6.6,0,0,0,.18.873,2.194,2.194,0,0,0,.873.615c.111.034.145.078.257.112.078.033.078.078.179.145.145.146.223.112.324-.033.034-.078.078-.078.146-.145.581-.224.939.145,1.341.5a.314.314,0,0,1,.113.246,2.573,2.573,0,0,1,.034.582.541.541,0,0,1-.146.112c-.223.033-.358-.112-.548-.179.325.358.47.694.112,1.085a.692.692,0,0,0-.033.257v.145a.529.529,0,0,1,.033.224v.145c-.033.146-.145.224-.212.324a.508.508,0,0,0-.146.291.514.514,0,0,1-.146.224c-.727,0-.906-.213-.693-.828a6.7,6.7,0,0,1,.212-.649c.079-.146.146-.291-.078-.4-.179-.112-.324-.112-.47.146a.555.555,0,0,1-.246.145.859.859,0,0,1-.291-.034.9.9,0,0,1-.325-.179.639.639,0,0,1-.145-.224,3.419,3.419,0,0,1-.112-.324.54.54,0,0,0-.145-.179,2.815,2.815,0,0,1-.292-.324.918.918,0,0,0-.078-.146c-.145-.436-.615-.5-.84-.828l-.179-.179a.848.848,0,0,1-.223-.146.953.953,0,0,1-.146-.078c-.078-.034-.078-.078-.146-.112-.29-.179-.693-.145-.8-.582a24.184,24.184,0,0,1-.516-3.479c-.078-.436.179-.805.146-1.231a.161.161,0,0,0-.078-.145.917.917,0,0,1-.146-.078c-.033,0-.079-.034-.112-.034s.033.034.078.034a.3.3,0,0,1,.224.145.768.768,0,0,1,.034.291c-.213.649-.548.761-1.018.436a2.193,2.193,0,0,0-.5-.4,1.022,1.022,0,0,1-.178-.727.7.7,0,0,1,.078-.291,1.887,1.887,0,0,1,.112-.257c.078-.145.179-.145.246-.257a.289.289,0,0,1-.146-.034.542.542,0,0,1-.111-.145,1.919,1.919,0,0,1-.033-.436,2.575,2.575,0,0,1-.078-.548,2.208,2.208,0,0,1,.034-.47c.033-.112.033-.179.111-.257a.692.692,0,0,1,.471-.112,5.189,5.189,0,0,1,.727.436c.033.112.145.146.033.224.146-.078,0-.179.034-.324a.571.571,0,0,1,.078-.257c.179-.257.179-.548.358-.806a.886.886,0,0,1,.291-.145c.078-.034.146-.078.224-.112a1.751,1.751,0,0,0,.224-.078h.111a.178.178,0,0,0,.08-.034.55.55,0,0,1,.29-.515c.795-.4.828-1.231,1.153-1.891.078-.548.5-.805.761-1.23a.8.8,0,0,1,.078-.179,1.785,1.785,0,0,0,.179-1.052v-.179c.033-.145.078-.224.113-.358a1.99,1.99,0,0,1,.29-.436.431.431,0,0,1,.112-.145,2.127,2.127,0,0,1,.4-.325c.112-.112.224-.145.324-.257a.268.268,0,0,0,.146-.146.452.452,0,0,0,.033-.224c0-.112.033-.112.033-.179a1.58,1.58,0,0,1,.179-.358,4.334,4.334,0,0,1,.582-.984.631.631,0,0,1,.223-.145c.292-.224.582-.291.762-.582.581-.224.648-.839,1.051-1.2l.179-.179c.224-.224.325-.436.616-.582a.687.687,0,0,0,.4-.761.472.472,0,0,1,.079-.257c.045-.078.078-.078.146-.145a1.806,1.806,0,0,0,.827-.984,4.072,4.072,0,0,1,.582-1.018,18.776,18.776,0,0,0,2.069-2.942,1.985,1.985,0,0,1,.4-.4c.246-.224.212-.5.357-.805a.356.356,0,0,0,.034-.179.524.524,0,0,1,.145-.224,1.179,1.179,0,0,1,.292-.324,2.407,2.407,0,0,0,.682-1.018c.325-.4.079-.94.358-1.342a2.416,2.416,0,0,0,.4-.615c.078-.112.112-.224.224-.291.079-.112.178-.145.246-.257.078-.145.111-.257.179-.358a.628.628,0,0,1,.179-.145.531.531,0,0,1,.146-.179l.112-.224c.078-.112.111-.179.179-.291l.145-.145c.223-.179.436-.224.581-.4a.525.525,0,0,0,.112-.145,2.273,2.273,0,0,1,.695-.548c.223-.078.4-.034.581-.145,1.084-1.018,1.555-2.472,2.606-3.524.078-.034.078-.078.145-.112a.707.707,0,0,0,.291-.145,4.2,4.2,0,0,1,1.779-1.857,1.215,1.215,0,0,1,.224-.145,21.11,21.11,0,0,1,1.924-1.421c.548-.4,1.23-.694,1.375-1.454a.391.391,0,0,1,.291-.224,12.417,12.417,0,0,1,2.573-1.2c.146-.034.291-.112.358,0,.112.112-.078.112-.112.224a.365.365,0,0,0-.033.179c-.146.078-.325,0-.437.257-.033.324-.4.324-.5.582a3.271,3.271,0,0,1-1.129,1.342,7.367,7.367,0,0,1-1.13.984,3.284,3.284,0,0,0-.358.078c-.079.078-.079.179-.112.224a2.246,2.246,0,0,0-1.231.873c.111.246-.146.257-.357.324h.022Z" transform="translate(-3014.169 -426.635)" fill="#fff" stroke="#161c21" stroke-width="1"/>
        <path id="Path_285" data-name="Path 285" d="M3013.3,200.119a3.107,3.107,0,0,0-.391-.928c-.247-.425-.035-.929-.213-1.4-.179-.425-.391-.828.034-1.253.033-.078.078-.112.112-.179.649-.213.749-.145,1.006.582a2.927,2.927,0,0,1-.112.649c-.212.179-.146.391-.111.582a1.03,1.03,0,0,0,.716-.324.281.281,0,0,1,.079-.112c.212.179.291.358,0,.5a.241.241,0,0,0-.079.392c.246.324,0,.682.145,1.007a4.328,4.328,0,0,0,.582.861c.078.078-.034.213-.079.291a1.83,1.83,0,0,0,.079,1.51c-.291.112-.18.47-.392.649-.392-.112-.212-.5-.358-.794a1.425,1.425,0,0,1-.078-.5c.146-.47-.034-.682-.5-.75-.111,0-.146-.145-.179-.291a1.549,1.549,0,0,1-.257-.492Z" transform="translate(-3002.52 -182.375)" fill="#fff" stroke="#161c21" stroke-width="1"/>
        <path id="Path_286" data-name="Path 286" d="M3197.761,251.225c.156-.179.212-.425.492-.425.179.179.034.369.056.582a1.145,1.145,0,0,1,.033.336.684.684,0,0,1,.056.28.627.627,0,0,1-.156.336c-.123.09-.212.179-.336.179a.077.077,0,0,1-.056-.034s-.033.034,0,.034.034.056.034.089a.556.556,0,0,1-.056.179,1.493,1.493,0,0,1-.738.123.522.522,0,0,1-.156-.3.919.919,0,0,1,.033-.425c.035-.089.124-.123.057-.246a.526.526,0,0,1,.179-.492.778.778,0,0,1,.458-.157l.034-.034c.033.056.067.034.067-.022Z" transform="translate(-3166.329 -230.818)" fill="#fff" stroke="#161c21" stroke-width="1"/>
        <path id="Path_287" data-name="Path 287" d="M3022.182,503.715c0-.358-.045-.682-.045-1.04,0-.682-.044-1.264-.044-1.89-.045-.448-.135-.817-.179-1.264.313-.134.358-.5.179-.951-.135-.269.044-.269-.123-.582a2.908,2.908,0,0,1-.179-.682v-.179a1.712,1.712,0,0,1-.045-.5,2.044,2.044,0,0,0,.179-.5.976.976,0,0,1,.045-.358,1.381,1.381,0,0,0-.134-.85.756.756,0,0,1-.045-.313.5.5,0,0,0,.045-.358.643.643,0,0,1-.09-.313.4.4,0,0,1-.045-.224.707.707,0,0,1,.313-.313.842.842,0,0,1,.358-.089c.089,0,.135.045.224.045.134.045.179.134.268.224a.817.817,0,0,1,.09.313c0,.09-.044.134-.044.224a.951.951,0,0,1-.179.268.353.353,0,0,0-.045.179c.045.179.09.224.268.134.358-.268.135-.727.4-1.04.358-.089.446.179.682.4a1.172,1.172,0,0,1-.223,1.488c-.358.313-.134.727,0,1.13,0,.627-.448,1.175-.224,1.812,0-.4-.179-.85.269-1.219a.9.9,0,0,1,.681-.134c.5.85.314,1.443-.5,2.081.314.134.682-.134,1.04.134a.377.377,0,0,1,.09.313,3.414,3.414,0,0,0-.269.582.406.406,0,0,1-.357.179c-.179.045-.179.134-.179.269,0,.045.045,0,.045-.045.044-.09.089-.09.223-.134.268.089.4.313.582.5a3.821,3.821,0,0,1,.314,1.175.976.976,0,0,1-.045.358.494.494,0,0,1-.4.134.406.406,0,0,0-.313.134.613.613,0,0,1,.179-.134,3.944,3.944,0,0,1,.726,0,.522.522,0,0,0,.448.09.773.773,0,0,1,.447.045,2.144,2.144,0,0,1,.358,1.577c-.179.4-.179,1-.906.727-.09-.045-.09-.089-.179-.179s-.179-.179-.269-.179a.044.044,0,0,0,.045.045.232.232,0,0,1,.179.089l.135.134a.651.651,0,0,1,.09.313,6.708,6.708,0,0,1-.358,1.264c-.179.268-.448.4-.4.772-.045.358.09.682.044,1.04a.338.338,0,0,0,.045.358.783.783,0,0,0,.223.179.866.866,0,0,1,.045.313c0,.089-.045.179,0,.045a.139.139,0,0,0,.09-.045.377.377,0,0,1,.313,0,.444.444,0,0,1,.358.268.334.334,0,0,1,0,.4.634.634,0,0,1-.268.09c-.046.045-.09.089-.135.134a.765.765,0,0,0-.313.582c.627.4.537.951.4,1.533,0,.179.046.268-.044.447a.557.557,0,0,1-.358.269h-.045a.6.6,0,0,0,.224-.134.611.611,0,0,1,.179-.134.4.4,0,0,1,.223.045,1.414,1.414,0,0,1,.224.269,1.1,1.1,0,0,1-.314,1.04,2.189,2.189,0,0,0-.133.313c-.135.537,0,1.085-.179,1.622-.045.089-.045-.045,0,.089.044.089.044-.045.134-.045.358-.045.5.134.683.4a.5.5,0,0,1,0,.358,1.966,1.966,0,0,1-1.04,1,.8.8,0,0,0-.269.4,1.884,1.884,0,0,0-.09.5.859.859,0,0,1-.223.448,1.492,1.492,0,0,0-.135.268c.09.134.269.134.4.224a1.172,1.172,0,0,1,.314.772.575.575,0,0,1-.179.447.569.569,0,0,1-.269.179h-.179c-.044,0-.09-.045-.134-.089s-.09-.045-.045,0a.267.267,0,0,1,.045.179c-.045.179-.09.313.044.447a.92.92,0,0,1,.179.269,1.6,1.6,0,0,1,.179.4,1.2,1.2,0,0,1-.134.682,2.261,2.261,0,0,1-.537.582,1.894,1.894,0,0,1-1,.089c-.09-.045-.135-.045-.179-.134-.135-.268-.09-.5-.269-.772a16.966,16.966,0,0,1-.727-4.922,5.258,5.258,0,0,0-.135-1.667,6.731,6.731,0,0,1,.135-2.976,29.632,29.632,0,0,0,.269-3.345,6.1,6.1,0,0,0-.5-2.662,18.28,18.28,0,0,1-.045-2.215v-.447a2.16,2.16,0,0,0,.045-.761Z" transform="translate(-3010.705 -446.191)" fill="#fff" stroke="#161c21" stroke-width="1"/>
        <path id="Path_288" data-name="Path 288" d="M3015.011,380.137a5.7,5.7,0,0,1-.38-2.483,3.245,3.245,0,0,0-.09-1.454c-.19-.38.09-.75-.089-1.13a3.912,3.912,0,0,0-.146-1.029,1.2,1.2,0,0,1,.146-.895.479.479,0,0,1,.38-.145c.145.045.235.089.279.235a2.248,2.248,0,0,0,.324.75c.09.09.09.19.191.28a1.372,1.372,0,0,1,.045.425.611.611,0,0,1-.045.28v.145a.1.1,0,0,0,.089.09c.045.045.09.045.146.145a.709.709,0,0,1-.09.515,2.084,2.084,0,0,0-.089.515.561.561,0,0,0,.044.47.949.949,0,0,1,.191.7c-.045.19-.146.28-.09.47v.425a2.052,2.052,0,0,0-.09.515v.235a1.438,1.438,0,0,1-.324.94,2.417,2.417,0,0,1-.4,0Z" transform="translate(-3004.117 -339.348)" fill="#fff" stroke="#161c21" stroke-width="1"/>
        <path id="Path_289" data-name="Path 289" d="M3020.406,442.336c-.224-.324-.324-.1-.391.034s.067.324-.135.425c-.391-.392-.224-.884-.2-1.32a1.389,1.389,0,0,0-.034-.526,7.29,7.29,0,0,1-.033-1.711,6.83,6.83,0,0,1,.168-2.17c.067-.067.1-.067.2-.067.458.1.391.392.3.66a1.143,1.143,0,0,0,.067,1.085.869.869,0,0,1,.134.828,1.715,1.715,0,0,0-.034.828,2.2,2.2,0,0,0-.033.459c0,.1.033.067.134.067a.909.909,0,0,1-.145,1.409Z" transform="translate(-3008.819 -396.189)" fill="#fff" stroke="#161c21" stroke-width="1"/>
        <path id="Path_290" data-name="Path 290" d="M2944.222,113.221c.47-.134.5-.235.168-.626-.034-.034,0-.1,0-.1a1.757,1.757,0,0,1,.336-.369,7.619,7.619,0,0,1,.134-1.958c.168,0,.269-.067.4-.067.47.034.526.235.4.6a3.41,3.41,0,0,1-.3.6.334.334,0,0,0,.034.425c-.1.369.134.694.033,1.063a1.448,1.448,0,0,0-.067.526c0,.134-.033.235-.033.369a.424.424,0,0,1-.034.2.427.427,0,0,0-.033.2.2.2,0,0,1-.033.134c0,.067-.034.067-.034.134-.022.045-.044.09-.067.134a.915.915,0,0,0-.1.425v.168c-.067.2.033.369,0,.6a.468.468,0,0,1-.661.235c-.066-.067-.1-.067-.133-.168a1.058,1.058,0,0,1,.133-.66v-.313a1,1,0,0,0-.133-.425.2.2,0,0,1-.033-.134c.033-.067.033-.1.067-.168.123-.3-.079-.5-.045-.839Z" transform="translate(-2941.875 -105.857)" fill="#fff" stroke="#161c21" stroke-width="1"/>
        <path id="Path_291" data-name="Path 291" d="M2951.192,72.916c-.279-.056-.279-.246-.179-.459a1.58,1.58,0,0,1,1.879.056c.246.157.179.28,0,.425a.5.5,0,0,1-.213.056.77.77,0,0,0-.156.09v.123a1.744,1.744,0,0,0,.055.336,1.412,1.412,0,0,1-.033.805c-.213.213-.426.4-.615-.034-.033-.179.056-.246.056-.4-.034-.034-.034-.056-.056-.123.033-.056.033-.089.056-.089h0c.033.056-.09,0-.034.034-.034.09.034.157.056.246a.506.506,0,0,1-.156.246c-.335.056-.459-.123-.549-.369-.055-.336-.312-.615-.111-.94Z" transform="translate(-2947.872 -72.174)" fill="#fff" stroke="#161c21" stroke-width="1"/>
        <path id="Path_292" data-name="Path 292" d="M2949.256,89.8v-.28c0-.034.034-.067.067-.1a.51.51,0,0,0,.1-.157c.034-.034.067-.034.1-.067a.256.256,0,0,1,.123.034c.157.19.1.47.4.5.067,0,.1,0,.123.034.1.1-.189.246.1.313.034.1.067.123.034.224-.313.157-.693.246-.47.749a.132.132,0,0,1,0,.157c-.067.157-.19.19-.313.246a.175.175,0,0,1-.156.067.31.31,0,0,1-.246-.19,2.94,2.94,0,0,1,0-1.286c.079-.056.168-.089.134-.246Z" transform="translate(-2946.182 -87.295)" fill="#fff" stroke="#161c21" stroke-width="1"/>
        <path id="Path_293" data-name="Path 293" d="M2991.4,79.2a3.953,3.953,0,0,0,1.331-.179,2.284,2.284,0,0,1,1.51.1c.034.067.067.067.067.145-.034.1-.1.145-.212.213-.067.034-.1.067-.179.1a.328.328,0,0,0-.1.246,1,1,0,0,1-.067.347.239.239,0,0,0,0,.213c.146.347-.033.459-.347.492a.878.878,0,0,1-.425-.067.814.814,0,0,1-.146-.1l.034.034a1.142,1.142,0,0,1,.146.313.871.871,0,0,1-.066.28.429.429,0,0,1-.146.1c-.313,0-.347-.28-.559-.459-.179-.179-.313-.313-.313-.526a2.6,2.6,0,0,0-.525-1.253Z" transform="translate(-2983.795 -78.18)" fill="#fff" stroke="#161c21" stroke-width="1"/>
        <path id="Path_294" data-name="Path 294" d="M3043.061,94.536c-.1.761-.168,1.477-.2,2.282a.246.246,0,0,1-.236.145.708.708,0,0,1-.414-.213.468.468,0,0,1-.067-.358.955.955,0,0,1,.236-.358,1.223,1.223,0,0,0-.034-.615c-.1-.537-.347-.794-.884-.537-.1.034-.134.078-.235.078h-.134a.287.287,0,0,0-.28.034.182.182,0,0,1-.134.078.57.57,0,0,1-.235-.034c-.068-.034-.068-.078-.1-.145a.663.663,0,0,1,.134-.649c.28-.213.549-.112.85-.145a3.863,3.863,0,0,1,1.734.436Z" transform="translate(-3027.234 -91.647)" fill="#fff" stroke="#161c21" stroke-width="1"/>
      </g>
    </g>
  </g>
</svg>
