<?xml version="1.0" encoding="UTF-8"?><svg id="b" xmlns="http://www.w3.org/2000/svg" viewBox="0 0 2370.71 2499.21"><defs><style>.d{font-size:70.93px;}.d,.e,.f,.g,.h{fill:#c69408;}.d,.e,.g,.h{font-family:ArialMT, Arial;}.i{stroke-width:3px;}.i,.j{fill:none;stroke:#c69408;stroke-miterlimit:10;}.e{font-size:52.24px;}.g{font-size:92.71px;}.j{stroke-width:5px;}.h{font-size:44.66px;letter-spacing:-.06em;}</style></defs><g id="c"><path class="j" d="m2329.17,1165.33c6.78,20.43,14.78,40.55,20.14,61.35,22.48,87.14,22.45,174.67,12.62,264.18-5.95,54.17-29.74,96.08-55.98,140.29-22.74,38.31-38.18,80.87-58.55,120.69-19.49,38.1-41.17,75.07-61.89,112.54-2.18-1.12-4.37-2.25-6.55-3.37,13.25-25.87,26.5-51.74,34.52-67.39,16.27-28.48,27.26-47.71,41.28-72.26-9.13,3.6-12.58,4.96-16.03,6.33-1.63-1.3-3.26-2.6-4.89-3.91,4.67-4.58,9.15-9.36,14.05-13.68,4.3-3.79,13.1-7.19,12.98-10.51-.95-25.51,21.49-38.25,30.6-58.21,10.4-22.8,25.93-43.22,37.97-65.35,6.92-12.72,24.03-22.37,10.93-42.67-3.41-5.28,8.24-20.28,11.6-27.77-13.17-10.88-22.52-18.6-31.86-26.32,1.4-2.4,2.8-4.8,4.21-7.19,8.81,4.88,17.61,9.75,30.73,17.02,2.44-40.59,5.8-81.26,6.21-121.95.06-5.43-14.84-11.02-22.81-16.53,0,0,.91.96.91.96,7.25-1.57,14.5-3.14,26.21-5.68-11.65-55.17-23.3-110.31-35.21-166.71-9.21,6.24-15.69,10.63-22.17,15.01-1.33-1.66-2.67-3.31-4-4.97,8.53-8.08,17.06-16.15,25.58-24.23,0,0-.58.36-.58.36Z"/><path class="j" d="m1174.46,788c-40.17,63.14-98.53,102.2-167.72,127.07-31.58,11.36-63.07,13.48-95.88,4.21-38.22-10.8-71.79,9.76-106.06,20.57-75.17,23.7-148.69,52.84-224.32,74.83-46.55,13.54-95.64,18.62-143.79,26.25-20.5,3.25-38.36-2.04-56.11-16.24-37.41-29.92-78.41-55.29-116.59-84.3-82.11-62.39-126.85-148.39-142.03-247.85-18.08-118.45-30.46-237.82-43.32-357.01-5.7-52.84.03-104.41,37.58-147.19,6.82-7.77,11.82-17.12,18.18-26.52-11.36-6.73-27.86-16.51-46.74-27.7,6.47-9.13,12.27-17.32,19.25-27.16,18.82,12.07,36.02,24.21,54.36,34.28,6.71,3.69,17.13,5.39,24.12,2.98,33.02-11.37,64.94-26.09,98.24-36.41,22.31-6.92,27.78-18.76,21.72-39.39-2.25-7.66-3.59-15.58-6.1-26.71,13.71-1.28,26.12-2.43,41.22-3.84,2.92,16.64,5.65,32.12,8.49,48.31,38.98-4.67,76.99-8.22,114.67-13.93,82.86-12.55,165.38-27.43,248.36-39.03,93.54-13.08,187.41-23.28,282.27-15.52,8.78.72,18.33-7.98,27.1-7.26,13.43,1.11,26.65,6.14,39.6,10.56,3.57,1.22,5.42,8.36,8.83,9.08,64.71,13.54,97.41,64.58,131.35,113.21,13.89,19.9,23.86,41.16,53.91,17.99,5.02,13.68,8.81,24.03,13.17,35.92-9.66,4.72-18.12,8.85-28.22,13.78,1.83,6.04,2.24,12.93,5.63,17.72,33.06,46.83,28.87,101.81,36.4,154.73,12.16,85.37-24.5,151.76-74.63,214.44-6.1,7.62-10.93,16.32-17.39,23.58-27.67,31.07-12.28,52.15,13.3,70.93,29.4,21.59,30.94,23.91,8.6,53.23-11.64,15.27-25.46,28.88-38.3,43.23,12.3-17.86,25.23-35.32,36.55-53.77,3.77-6.14,6.84-16.8,3.97-21.76-2.78-4.79-13.63-4.91-19.38-6.62-2.88-5.83-4.67-12.57-8.79-17.27-25.69-29.3-24.75-46.58-2.2-76.8,26.68-35.76,51.93-72.86,74.39-111.37,9.33-15.99.99-40.24,4.74-59.18.48-2.42-61.97,8.42-64.24,8.4-.5,9.7-2.74,25.85-3.3,36.86-43.77-4.82-.23,34.07-19.11,44.64-2.37-5.56-4.35-10.19-6.32-14.82-1.99.37-3.98.74-5.98,1.1.55,7.12,1.1,14.23,1.63,21-13.22-.21-33.45,25.77-32.61,45.91-4.49-.45-9.17-.91-8.82-.87-3.14,9.75-5.73,21.62-7.09,21.48-25.67-2.63-33.36,11.28-33.81,33.6-.02.8-7.32,1.45-14.24,2.72,13.21,13.62,25.14,25.91,36.81,37.95-8.76,5.66-19.05,12.31-29.33,18.95.59,2.39,1.18,4.78,1.77,7.17,39.97-33.9,73.87-20.95,103.49,11.87-.63,9.82-1.4,21.76-2.02,31.46-19.54,14.55-40.21,29.08-59.44,45.32-2.45,2.07,2.91,13,3.97,19.93.25,1.65-2.26,3.72-4.62,7.28-4.19-5.49-7.63-10-11.59-15.2-12.14,11.43-23.63,21.23-8.37,36.81-21.3-10.63-33.8,12.83-55.03,10.44,4.57,7.6,7.04,11.69,13.17,21.9-13.61-6.93-20.91-10.64-26.11-13.29-6.68,3.77-11.48,7.26-16.83,9.32-10.55,4.06-21.26,9.52-32.18,10.25-9.43.63-23.02-1.42-28.13-7.69-11.84-14.52-39.15-18.8-53.83-7.48-9.71,7.49-23.02,10.32-34.72,15.23-3.29-2.1-6.58-4.2-9.87-6.3-12.76,7.16-25.52,14.32-36.99,20.76.03-.34.4-4.59.77-8.85-1.57-.87-3.14-1.75-4.71-2.62-4.2,6.19-8.41,12.37-13,19.13-2.84-2.49-6.27-5.48-10.59-9.26-1.18,6.34-1.96,10.59-1.92,10.37-14.57,1.04-26.76,1.9-36.74,2.61v36.28c2.4,1.1,4.81,2.19,7.21,3.29,4.83-7.8,9.66-15.6,14.78-23.87,12.34,18.8,29.16,9.13,46.07,3.03,13.74-4.96,27.91-8.72,41.71-13.52,11.05-3.84,21.82-8.46,36.15-14.08.07-.77.62-7.16,1.17-13.56,1.35-.16,2.69-.32,4.04-.48,2.44,7.89,4.88,15.77,6.97,22.52,39.07,14.45,75.95,5.66,111.94-8.77,8.27-3.31,14.51-15.27,22.2-15.8,26.24-1.81,43.69-15.73,58.63-35.08,12.24-9.24,24.92-17.96,36.58-27.88,11.89-10.12,22.76-21.43,34.08-32.22Zm-191.53-63.45c-7.84,2.74-15.68,5.49-21.26,7.44,1.31,8.57,2.08,13.61,2.84,18.65-7.15-.74-14.31-1.49-26.9-2.79,4.72,7.96,9.58,21.63,13.29,21.32,8.9-.74,17.26-8.04,25.84-12.69.3.59.6,1.19.9,1.78,10.18-4.21,20.36-8.42,30.54-12.63,0,0-.04-38.13,2.09-38.49,3.31-.55-27.34,17.42-27.34,17.42ZM484.93,79.49c5.99,1.12,11.99,2.25,17.98,3.37l-.97,3.68-14.85,3.01c.2,1.1.41,2.2.61,3.29,38.44-7.29,76.89-14.58,121.13-22.98-7.01,6.65-9.45,8.97-14.42,13.69,13.31-.96,22.82-1.65,38.26-2.77-8.86-4.78-12.53-6.77-16.21-8.76,17.15-1.58,34.14,3.75,48.95.14,12.73-3.1,22.97-16.41,34.31-25.2-12.75-3.03-22.32-1.48-31.89.02-56.13,8.79-112.28,17.47-168.36,26.55-4.89.79-9.36,4.24-14.14,6.33-40.7-2.64-80-.45-115.01,33.41,16.48-2.62,28.48-4.52,40.73-6.47-1.38-3.6-3.06-7.99-5.58-14.57,20.72,11.55,20.66,11.45,42.9-2.65,2.44-1.55,7.17-2.72,9.02-1.44,13.28,9.19,19.26-3.16,27.55-8.67ZM87.46,279.48c3.6,22.46-12.3,47.37,8.47,67.65-17.63,17.82.19,27.05,8.55,40.49-4.54-1.5-9.08-3-15.09-4.98,1.28,10.6,2.42,20.09,3.73,31.01,8.61-2.84,15.8-5.2,24.17-7.96,2.86,6.81,5.41,12.87,7.44,17.71-10.29-.78-19.49-1.47-30.29-2.29,4.96,41.94,9.66,79.75,13.84,117.62,3.02,27.32,4.87,54.77,8.32,82.03.79,6.27,6.03,11.98,9.48,18.44-5.43,21.44-13.23,44.75,23.4,55.51-7.44,3.8-13.38,6.84-20.36,10.41,4.14,11.65,7.89,22.2,11.04,31.06,21.7-3.22,40.63-20.74,62.28-2.01,1.28-1.67,2.56-3.35,3.84-5.02-6.81-7.08-13.61-14.17-23.17-24.12,1.42-2.77,7.26-11.13,9.95-20.4,2.18-7.51,4.05-19.75.03-23.6-16.54-15.82-12.41-37.76-19.91-55.95l.26.45c-1.79-18.63-8.4-28.91-30.52-12.27-1.85-3.94-3.7-7.88-5.55-11.83,6.78-6.37,13.57-12.74,22.51-21.14-4.73-20.06-11.53-48.89-18.15-76.94-9.56,1.36-20.76,2.96-32.07,4.57-1.86-17.13-3.79-34.89-4.95-45.58,12.6-11.64,28.06-19.15,30.64-29.79,4.56-18.78,1.28-39.46,1.28-60.98-9.63,1.98-15.83,3.25-26.13,5.37,12.43-11.26,22.01-19.93,35.59-32.22-16,2.12-23.97,3.18-27.05,3.58,9.14-15.85,23-31.9,27.74-50.29l-59.32,1.46Zm803.82,492.94c43.98-33.1,83.09-61.99,121.24-92.08,3.9-3.08,27.19-24.14,50.9-47.52,51.72-52.69,98.54-106.5,123.31-177.24,14.82-29.47,14.82-37.45,14.24-49.09,3.15-53.18-6.75-102.23-24.32-149.74-3.33-9-13.83-15.34-21.02-22.9-2.12,1.38-4.24,2.76-6.37,4.15-1.91-15.19-26.92-26.52-2.46-46.47-25.91-24.85-47.89-51.84-75.36-70.92-43.77-30.41-96.08-32.17-147.72-31.45-43.76.61-87.51,1.71-131.26,2.6-85.39,1.75-171.16-.86-256.06,6.58-73.53,6.44-145.8,26.2-219.12,36.54-78.08,11.02-121.56,61.8-150.94,127.21-21.29,47.4-23.14,99.34-20.8,151.19.74,16.39,3.94,30.35,8.58,66.34,12.55,69.49,25.95,135.05,57.88,198.05,24.05-11.5,46.43-22.21,71.3-34.1,8.43,19.3,15.96,36.54,23.07,52.82-25.01,10.62-46.95,19.94-69.89,29.69,23.51,40.19,43.78,78.35,67.79,114,8.68,12.88,25.26,25.43,40.07,28.17,33.24,6.15,67.7,8.65,101.55,7.89,51.9-1.16,103.69-6.56,155.55-9.63,17.15-1.02,186.53-39.93,232.33-69.41,5.65-3.63,11.17-14.3,10.03-20.47-4.97-26.89-12.43-53.32-19.47-81.88,13.12-3.14,29.17-6.97,47.28-11.3,6.12,27.68,12,54.32,19.65,88.96Zm-685.59-7.85c-1.4,2.55-2.8,5.09-4.2,7.64,12.64,49.87,47.54,82.5,87.49,110.23,49.31,34.21,99.33,67.45,150.09,99.46,8.99,5.67,24.1,6.94,34.65,4,79.09-22.06,157.98-44.9,236.46-69.05,64.5-19.85,128.18-42.33,192.54-62.63,20.69-6.52,42.48-13.52,61.2,7.15,3.51,3.88,13.17,5.99,18.17,4.1,33.19-12.56,68.62-22.19,97.97-41.09,28.82-18.56,52-46.29,75.99-71.58,5.45-5.74,7.94-19.47,5.09-26.99-12.27-32.41-27.15-39.68-58.41-23.7-67.08,34.3-116.27,64.48-183.93,101.22-25.74,13.44-52.82,23.55-52.82,23.55-46.69,17.63-59.5,17.91-98.28,31.52-58.19,20.42-116.12,43.84-178.88,44.63-65.85.83-131.87.72-197.58-3.06-52.9-3.04-99.25-24.73-132.08-68.39-13.12-17.45-22.58-37.61-35.07-55.59-3.78-5.44-12.14-7.69-18.4-11.41Zm.83,109.44c57.4,64.83,126.84,105.55,192.66,150.76,8.86,6.08,21.53,14.74,31.18-1.68.48-.83,5.29,1.16,8.12,1.4,13.45,1.13,27.18,4.24,40.32,2.63,17.42-2.13,34.24-10.57,51.58-11.51,17.33-.94,28.19-1.92,16.81-24.83l6.93-1.14c4.44,6.21,8.88,12.42,16.44,22.99,32.59-12.21,68.6-25.7,110.02-41.23-23.37-17.98-38.35-29.7-60.89-17.34-12.14,6.66-26.59,9.13-40.21,13.57.75,2.85,2.06,7.82,3.62,13.72-11.11.76-20.13-20.57-27.51.71-15.1-12.02-21.7,7.31-32.85,8.8-16.35,2.18-32.95,2.49-52.56,3.8,4.52,8.07,6.79,12.14,7.73,13.82-15.19-3.34-30.89-6.62-46.47-10.41-2.06-.5-4.52-3.32-5.07-5.5-4.76-19.12-17.93-19.79-28.84-20.93-10.17-9.06-20.34-18.13-31.12-27.73-4.08,6.88-6.6,11.15-8.93,15.08-11.8-26.96-25.39-46.96-60.3-34.98,2.62-6.69,4.74-12.14,7.17-18.33-18.97-15.31-38.13-30.77-59.09-47.69-1.07,7.31-1.71,11.72-2.1,14.41-11.19.5-21.56.96-36.63,1.62ZM688.97,71.93c1.15,2.66,2.3,5.32,3.45,7.98,11.25-2.98,22.5-5.96,35.8-9.48,17.55,16.5,27.81,16.58,54.75-4.06-4.02,22.63,7.43,17.38,18.65,12.17,3.11-1.45,6.02-5.24,8.85-5.08,34.33,1.94,68.63,4.43,108.32,7.14-6.09-9.86-9.68-15.67-13.27-21.47.95-1.13,1.9-2.26,2.86-3.38,7.9,8.1-19.06-30.95-33.91-33.76-3.23,11.33-5.36,18.82-7.5,26.31-4.21-21.04-8.18-23.65-27.51-21.29-28.31,3.46-56.76,5.65-85.15,8.51-14.25,1.44-28.47,3.17-44.01,4.91,1.02,6.06,2.03,12.07,2.51,14.94-9.05,6.28-16.45,11.42-23.85,16.55Zm509.02,216.74c7.59,31.07,15.48,64.83,24.46,98.29,1.05,3.92,36.69,41.78,42.11,44.22-2.07-26.08,4.76-49.44,2.84-73.61-5.04,3.27-8.79,5.7-15.89,10.31,26.45-49.06,6.85-116.33-35.24-163.83-3.35,2.32.41,4.34-2.94,6.67,5.1,9.4,16.29,27,24.23,41.63-15.83,10.01-15.68,12.23-31.48,17.85-6.83,4.06,2.47,12.18-8.09,18.47Zm10.15-115.86c-23.1-53.09-63.38-88.5-104.52-123.52-18.23-15.51-29.86,5.22-44.99,6.22-3.59.24-6.43,11.89-10.1,19.25,9.57,2.68,15.5,4.34,27.35,7.66-14.08,3.77-21.83,5.85-29.59,7.94.5,3.08,1.01,6.16,1.51,9.24,15.55-1.93,31.09-3.85,46.73-5.79-3.11-13.38-5.56-23.9-8.01-34.41,2.59-.75,5.19-1.49,7.78-2.24,3.21,10.85,10.98,23.02,8.34,32.19-2.66,9.23-15.68,15.47-20.36,19.63,16.84,19.28,34.62,39.63,52.25,59.82,21.71-10.41,65.92,2.98,73.61,4.02ZM185.87,737.16c-3.88.32-7.77.64-11.65.96,5.48,14.48-3.99,11.16-11.51,9.43-16.09-3.72-19.18,3.72-14.4,17.01,4.13,11.47,8.96,22.71,13.94,33.84,6.56,14.65,10.69,33.44,35.6,23.96-4.74,5.59-9.49,11.17-13.99,16.49,20.13,34.15,29.44,36.13,51.62,14.09-13.06-19.88-20.75-31.59-35.4-53.9q-11.59-7.05-28-9.51c5.97-8.42,14.16-47.05,13.8-52.36Zm490.84,220.75c24.32,12.17,64.84-5.5,64.63-24.71-5.74,2.65-11.18,5.17-22.88,10.59,8.22-11.9,12.26-17.74,17.89-25.88-27.84,9.2-51.91,17.15-75.98,25.1.31,2.88.63,5.76.94,8.65,15.26-2.47,30.53-4.94,45.79-7.41.4,1.84.79,3.68,1.19,5.53-8.99,2.32-17.98,4.64-31.57,8.15Z"/><path class="j" d="m653.68,1472.18c16.12,17.09,35.81,32.23,46.75,52.17,4.85,8.84-7.98,27.38-14.57,46.79,12.03-3.73,16.73-5.19,21.43-6.65,1.14,2.28.85,1.69,1.99,3.97-6.64,4.66-16.04,8.09-18.85,14.44-2.65,5.99,1.88,15.16,2.89,20.86-14.97,50.95-30.88,107.92-46.38,160.67,16.35,3.7,19.51,7.14,42.2,12.28-6.27,21.3,3.5-3.31-2.52,17.11-14.6-4.13,11.47-30.15-19.31-4.2-6.22-8.02-16.05-33.41-27.71-8.19-3.42-6.77-8.74,5.36-11.13.63-5.02,1.83,21.39,46.24,16.37,48.07,0,0-6.89,12.9-17.21,23.93-5.98,3.65-14.66,10.97-23.51,16.37-10.08,5.88-11.99,6.15-36.61,22.74l16.04,28.49c20.91-31.03,39.89-39.9,56.05-45.27,2.74-.91,5.71-5.27,9.03-7.44,16.77-10.99,33.52-22.01,50.5-32.66,10.91-6.85,4.35-24.55,19.63-30.37,2.47-.94-2.75-22.1-4.56-34.93,4.72,2.44,10.67,5.52,18.86,9.76,4.21-11.17,9.38-22.3,12.47-33.99,2.13-8.05,1.39-16.85,2.29-30.92-.52-.22-7.84-3.35-14.8-6.33.3-1.84.26-1.58.56-3.41,6.89-.53,13.79-1.06,21.79-1.68,10.76-83.94-29.89-146.38-78.7-252.81,2.07-.89,27.63,19.25,29.7,18.37,10.23,20.6,22.42,40.48,30.34,61.94,25.37,68.71,44.11,139.08,20.47,212-9.1,28.07-21.45,57.35-40.03,79.66-50.81,61.04-109.86,114.73-186.78,139.99-49.09,16.12-101.42,22.36-152.3,33.04-3.14.66-6.26,1.43-10.57,2.42,2.39,10.64,4.66,20.69,7.13,31.67-17.01,5.59-30.36,8.05-34.33-15.55-.87-5.18-11.3-12.04-17.7-12.46-32.19-2.14-64.51-3.44-96.76-3.05-37.95.47-65.18-22.78-95.13-40.13-11.03-6.39-30.03-23.62-40.55-30.9,17.63,5.69,44.17,20.57,62.93,26.62,2.45,3.44,5.56,12.22,11.68,15.65,37.74,21.19,79,28.27,121.74,25.1,15.4-1.14,30.49-6.51,46.93-10.22-3.54-10.87-6.59-20.23-9.64-29.59l-15.24,7.14c-10.43,1.4-16.68,1.53-24.56,1.26-12.64-1.01-9.66,2.06-39.99-5.35-6.02-2.28-11.59-5.22-20.78-8.82-13.26-7.03-23.73-17.26-36.84-26.45-29.38,14-22.38,2.27-29.38,14-57.91-.15-71.21-10.28-83.12-19.65-15.97-18.91-29.46-29.57-26.51-51.8h-26.76c-.26-2.06-.18-1.42-.45-3.48,9.94-2.59,19.88-5.19,29.31-7.64-1.21-14.71-2.26-27.55-3.4-41.49-17.98,6.86-39.52-1.77-42.97,28.8-2.96-3.91,6.31-31.1,16.67-44.31-15.01-70.89,3.85-156.52,15.47-233.08,1.11-7.34,6.89-47.03,9.86-52.07,59.51-100.94,153.2-148.66,263.48-171.07,3.16-.64,15.34-3.89,18.47-4.54-4.34,3.71-130.95,49.19-184.32,89.22-32.52,24.39-51.64,40.1-81.65,82.71,13.21,1.26,7.54-.35,30.62-6.32,24.9-31.88,134.35-95.17,158.73-92.05,7.26-8.82,12.6-15.42,18.19-21.8.41-.47,2.65.68,5.68,1.54-2.97,5.37-5.74,10.4-8.52,15.43,1.62,1.84,3.25,3.69,4.87,5.53,14.15-10.74,60.84-59.89,52.62-76.57-1.39-6.16,14.05-19.14,24.35-23.09,4.59,39.85,31.59,26.35,59.87,29.02,13.18,6.25,80.57,27.03,100.93,33.96,102.69,40.23,90.07,61.79,146.14,97.85-30.79-10.61-61.61-21.24-94.02-32.42-20.84-7.91-14.84-6.15-49.02-13.57-38.91-7.47-78.44-17.82-118.61-22.25-109.12-12.04-199.41,35.3-284.65,95.73-7.77,5.51-13.47,14.15-19.47,21.85-1.83,2.36-7.02,37.92-13.68,36.51-12.17,31.13-6.72,39.47-4.2,65.92,1.18,11.83,3.25,19.84,3.78,23.51,2.79,19.34,11.92,24.68,13.69,44.14.44,4.82-1.78,13.68-4.43,14.37-19.29,5.04-13.78,19.68-9.29,29.07,17.47,36.56,36.19,72.6,56.45,107.68,3.99,6.91,17.65,7.59,25.52,13.06,14.55,10.13,29.09,20.68,41.7,33.03,7.04,6.9,7.98,20.88,15.53,26.22,17.08,12.09,35.61,23.64,55.3,30.11,20.11,6.61,45.22,16.87,54.74-17.63,0,0,7.29,10.44,15.11,1.68,6.25,3.89,95.85.05,134.04-33.06-2.39-8-4.88-16.31-8-26.72,16.52-4.95,31.63-9.48,46.91-14.06,4.47,9.84,7.97,17.54,12.06,26.52,23.77-11.7,45.63-22.43,67.45-33.22,11.23-5.56,25.58-7.52,22.99-26.31-2.29-16.61-.08-40.64-24.56-43.21,2.12-14.65,5.81-10.17,7.74-23.54,23.21,2.98,21.45,3.52,24.56,5.04,6.09.21,18.64-12.5,23.87-33.33,11.65-46.44,23.95-92.76,34.25-139.5,9.37-42.5,10.22-84.05-26.6-116.47Zm-190.23,463.13c-1.19-1.7-1.96-11.93-3.15-13.64-34.81,25.92-70.04,20.43-112.73,27.47,2.57,11.71.15,15.12,9.45,29.62,8.38-1.65,18.07-4.4,29.41-6.64,4.6-1.23,69.96-28.36,77.03-36.82Z"/><path class="j" d="m1156.35,1860.22c21.36,11.07,42.02,23.9,64.22,32.88,63.88,25.83,128.25,50.5,192.77,74.69,13.98,5.24,112.17,36.21,146.59,41.84,9.61,1.57,29.39,2.95,43.02,6.64,12.71,3.44,22.5,10.46,27.34,17.4,11.76,16.87,9.04,16.53,17.21,35.29q4.19,9.62,12.25,41.12c3.23,12.61,5.05,29.98,9.67,56.08,2.88,16.26,6.11,40.78,6.47,57.52.08,3.8,2.69,30.59,4.88,34.23,7.33-22.49-3.33-182.44-3.48-183.75-3.13-27.03-8.11-67.65-21.63-91.02-9.61-16.61-31.14-29.27-43.46-32.39-7.77-1.97-27.27-1.56-42.51-.94,0,12.29,7.56,5.79,7.56,18.26-13.92-4.15-13.17-8.51-30.54,2.49-5.14-10.93-23.75-27.35-39.31-39.09-45.33-25.93-33.54-19.92-72.56-42.08-53.53-25.63-16.83-11.5-86.2-32.16,0,24.33,1.15,18.33,1.15,42.2-17.15,0-13.31-1.26-32.33-1.26,0-20.27,2.93-6.09.84-23.51-1.19-9.94-1.26-14.07-21.72-30.48-47.55-26.62-66.76-56.38-102.71-80.91-5.59-3.81-16.17-8.23-19.81-5.7-24.61,17.08-37.89-6.6-55.17-14.54-.81-.37,1.79-16.03,6.05-18.2,20.06-10.21,21.67-18.35,5.56-32.15-3.7-3.17-1.71-16.1-4.42-16.83-22.67-6.14-13.98-29.22-23.93-41.45-7.53-9.25-11.44-26.07-31.67-14.56-9.03,5.13-40.75-27.05-44.28-40.32-3.3-12.43-7.39-24.76-12.63-36.47-1.08-2.41-8.78-2.29-30.43-2.2,11.87-4.98,14.24-8.49,25.74-13.32-9.8-5.3-14.56.81-23.62-4.09,7.38-26.43,2.73-34.22,8.19-64.24-9.94-10.39-19.91-78.4-18.58-112.58-2.6-23.76-2.36-33.87-3.31-52.75-.16-2.8,1.81-15.64,2.06-23.51-1.67-24.88,5.34-62.16,7.26-74.89.19-1.23.85-3.3,1.45-4.21,22.34-33.32,50.02-62.05,64.82-82.2,14.63-18.29,17.32-17.54,26.28-27.74,15-8.48,32.21-22.79,44.61-29.81-8.72,9.04-25.96,22.73-33.43,32.69-29.2,38.96-58.49,77.91-85.83,118.16-6.8,10.01-9.58,25.06-8.85,37.47,3.99,67.31,10.39,142.73,15.59,211.38,2.52,15.33,4.41,20.57,5.25,41.36,11.32,29.45,21.05,69.97,32.76,97.07,2.23,5.17,10.93,10.04,17.05,10.6,26.7,2.46,42.16,18.12,54.03,40.34,10.54,19.72,22.74,38.54,35.92,60.64,14.49-17.9,26.02-32.14,38.75-47.87,11.23,10.48,21.65,20.19,33.42,31.17-15.25,16.3-29.46,31.49-46.44,49.63,39.1,40.05,86.99,84.54,142.07,109.84.68-12.15.25-17.27.84-27.71,15.43,0,15.38-1.68,30.65-1.68,5.38-1.63,6.8,2.02,6.8,3.33-.14,40.17,2.7,28.25,42.83,41.77,42.68,19.48,33.93,15.78,80.33,45.91,18.94,13.2,40.34,22.13,63.81,33.49,1.65-24.31,1.91-41.6,3.15-59.83,12.27-1.32,16.56,1.53,30.86,0,.72,14.83-1.54,24.18-.63,39.36.76,12.63,10.58,20.4,26.38,19.86,48.78-1.67,69.17,35.48,76.01,73.85,21.19,118.74,20.16,238.38,14.11,358.25-1.31,25.88-.19,51.88-.19,79.41h-65.64v-29.4h28.2c4.06-56.66,11.75-112.43,11.15-168.11-.81-74.57-19.81-166.65-49.37-214.96-6.15-7.05-21.26-9.5-30.88-13.1-46.13-8.2-137.05-33.51-172.2-46.05-59.77-23.32-120.43-44.53-179.27-69.96-28.01-12.11-52.7-31.89-78.89-48.2Zm524.65,485.56c-22.41,23.38-7.13,43.77-1.18,65.94-7.62-3.82-11.01-5.51-14.39-7.21-1.26,1.51-2.51,3.01-3.77,4.52,5.06,4.34,10.12,8.67,19.33,16.56v-79.81Z"/><path class="j" d="m1135.24,1035.96c36.29-23.56,91.13-59.64,128.16-83.68,1.31-13.21,9-16.62,10.61-32.84-2.32-1.52-1.67-2.26-3.99-3.78-8.31,8.19-21.52,8.84-32.33,13.23-9.61,3.9-28.88,9.74-31.78,11.12-30.39,14.4-30.98,14.06-45.47,21.63-18.75,9.79-45.47,23.27-62.35,36.11-29.95,22.79-57.77,45.03-86.21,69.8,10.19-30.37,34.16-49.14,59.23-65.13,71.39-45.51,143.46-90.08,223.7-119.1,114.31-41.34,231.67-64.31,353.82-62.14,52.83.94,105.75-2.38,158.6-4.4,4.36-.17,77.97,2.14,99.88,2.97,84.22,3.19,165.86,20.42,247.25,39.86,36.23,8.65,64.65,29.1,85.72,60.11,31.01,45.63,52.41,95.23,64.79,148.98,7.45,32.36,16.17,64.43,24.31,96.63,0,0,.58-.36.58-.36-5.29-9.52-10.59-19.04-15.86-28.52-21.96,6.8-23.08,21.17-18.3,40.64,6.54,26.66,10.7,53.95,14.97,81.12,2.48,15.78-.88,33.97,6,47.07,5.29,10.07,22.49,13.89,34.39,20.48-.11,1.79-.22,3.59-.32,5.38-9.99-2.24-19.99-4.47-29.44-6.59v34.88c6.83-2.97,12.49-5.44,18.15-7.9,0,0-.91-.96-.91-.96-6.73,18-22.45,33-17.89,54.77,2.33,11.09,4.13,22.29,5.4,29.28-3.94,10.39-7.91,18.59-10.17,27.23-6.77,25.85-10.53,52.77-20.04,77.52-6.44,16.75-20.53,30.58-31.31,45.63-15.83,22.12-34.34,42.79-47.06,66.57-20.17,37.68-41.07,79.32-79.91,93.92-33.68,12.66-51,39.67-78.12,56.55-36.63,22.79-74.78,41.03-120.95,36.02.77,4.27,1.52,8.38,2.27,12.49-3.29,3.14-6.58,6.27-9.87,9.41-8.73-3.65-17.47-7.3-26.2-10.95,4.1-6.4,8.21-12.8,12.31-19.21,5.98,45.39-35.65,42.72-52.17,65.38-2.49-2.49-4.98-4.98-7.48-7.46,5.9-2.11,11.79-4.23,17.69-6.34-.83-1.85-1.66-3.7-2.49-5.55-24.17-7.08-48.35-14.16-74.32-21.76,6.21-7.46,10.78-12.96,16.57-19.91-25.55,1.4-27.1,4.88-21.95,45.58,7.82.38,15.95.77,30.64,1.47-10.33,4.96-15.06,7-19.55,9.47-4.5,2.47-8.75,5.38-18.42,11.41-1.7-20.9-5.13-38.26-3.57-55.16.71-7.67,10.22-16.28,17.88-20.91,4.98-3.01,16.36-2.17,20.28,1.65,4.12,4.02,2.77,13.65,4.53,25.78,16.18,3.41,35.62,9.68,55.37,10.9,13.02.81,31.61.61,25.83-24.16-.82-3.49,12.86-15.45,18.46-14.59,70.49,10.81,124.96-16.99,171.74-66.79,9.3-9.9,21.02-20.22,33.52-23.94,39.76-11.83,56.92-44.22,74.04-76.48,17.61-33.18,36.76-63.87,64.93-90.31,16.47-15.46,26.5-41.28,32.05-64.22,16.03-66.23,17.31-133.42,6.45-201.16-10.16-63.4-16.59-127.39-25.72-190.97-8.18-56.91-37.74-105.09-65.51-153.86-5.15-9.04-10.31-18.07-15.47-27.11,5.7,4.19,11.39,8.39,17.09,12.58,6.29,8.59,12.59,17.18,18.88,25.77,16.16,31.92,20.56,71.29,56.89,90.91-5.8-27.26-14.28-53.12-27.17-76.56-4.31-7.84-19.88-9.5-30.29-13.98,5.46-3.82,10.91-7.63,18.26-12.77-5.9-8.7-11.86-17.49-17.82-26.28-11.08-31.64-40.35-43.12-65.96-58.02-6.1-3.55-16.02-.53-26.37-.53-6.61-11.85-21.23-17.18-49.14-10.93-5.58,3.27-11.17,6.54-16.75,9.81-.69-1.16-1.37-2.33-2.06-3.49,2.72-4.41,5.43-8.83,6.61-10.74-10.99-20.07-29.53,1.38-44.94-13.38-9.29-8.9-32.23-3.55-52.74-4.84-8.01-15.12-105.85-17.39-134.55,8.21,19.99-4.65,39.98-9.31,62.96-14.65-8.67,9.43-14.76,16.04-21.49,23.35-4-1.82-9.85-4.48-15.7-7.14-1.07,2.51-2.13,5.02-3.2,7.53,12.16,4.7,24.33,9.41,36.49,14.11-.54-5.84-1.08-11.68-1.65-17.87,3.7-.72,8.32-1.63,14.19-2.77v36.64c4.39,3.75,12.99,9.14,19,16.62,11.09,13.81,37.49,13.13,36.24,38.35-32.87-24.67-65.63-49.48-98.67-73.93-14.02-10.38-59.9-11.88-75.37-13.32-113.71-20.34-429.99,41.05-512.61,99.06-6.01,13.7,20.6,40.6,8.97,48.34-6.84-18.07-20.21-20.44-28.25-41.68-27.31,15.37-53.01,30.02-78.91,44.34-12.62,6.97-44.14,25.83-56.95,32.46Zm149.13-96.36c123.01-42.72,248.87-79.43,373.36-99.93-31.7,3.41-66.66-27.18-95.96,14.97.67-10.5,1-15.7,1.37-21.57-12.04,2.48-21.98,4.53-31.26,6.45.39,5.26.75,10.22,1.12,15.18-3.83-2.51-9.8-4.23-11.08-7.68-4.23-11.4-9.22-13.44-19.72-6.47-4.47,2.97-11.71,1.77-17.05,2.39,2.65,7.22,5.35,14.58,7.78,21.19-11.08-4.97-19.76-8.86-28.88-12.96.54-.67,3.14-3.88,10.6-13.09-53.11,15.58-99.12,28.83-144.87,42.94-3.82,1.18-5.84,8.16-4.8,6.59-18.86,3.27-30.71,24.65-50.34,28.05,8.02,17.34,5.8,15.42,9.73,23.93Zm486.9-101.51c1.13-.92,2.26-1.84,3.4-2.76-11.75-3.23-23.56-9.25-35.22-8.96-13.37.32-26.61,6.23-47.6,11.72h79.42Z"/><path class="j" d="m1991.32,1715.6c1.43.79,2.97,1.41,4.27,2.38,39.18,29.34,38.76,28.8,80.52-3.12,12.23-9.34,28.49-13.27,41.28-22.05,19.78-13.57,38.98-28.27,56.87-44.24,12.12-10.82,18.99-24.78,1.2-39.73-9.04.13-7.04,1.7-14.88.02-35.02-15.27-37.35-13.73-58.1,16.56-14.55,21.23-31.94,40.52-47.98,60.58-15.14-18.6-31.66-33.56-40.97-52.13-6.83-13.61-8.88-33.27-4.78-47.92,8.04-28.76,24.24-55.21,32.7-83.9,12.08-40.95,20.58-82.98,29.59-124.77.97-4.48-4.88-10.43-7.5-15.57,2.69-3.88,9.44-9.14,9.79-14.79,4.12-66.05,2.12-131.62-14.05-196.45-9.09-36.44-33.81-62.67-53.94-92.06-5.01-7.32-11.04-13.93-16.6-20.87,34.09,23.97,58.18,56.03,71.99,94.89,28.52,80.24,24.77,163.23,20.28,246.55-3.51,65.09-25.31,123.88-53.06,181.44-5.29,10.97-11.86,22.54-12.58,34.16-.78,12.58,1.78,27.17,7.99,37.94,7.77,13.49,20.73,23.98,33.9,38.45,17.93-23.72,36.16-47.83,57.07-75.49-19.34-4.06-33.83-7.11-50.27-10.56,4.41-13.42,8.11-24.65,12.4-37.71,22.17,4.58,43.47,8.98,64.47,13.31,55.81-84.4,62.7-169.07,27.39-332.78-16.04,5.65,1.33-2.6-17,3.86-3.5-10.41-22.53-.1-27.08-13.63,19.33-7.56,20.77-7.47,40.31-15.12-18.05-47.81-45.04-97.27-76.24-136.28-10.91-13.64-19.26-29.32-28.78-44.07,5.36,5.6,11.37,10.71,15.96,16.87,26.3,35.32,77.56,105.53,77.56,105.53,6.39,15.91,17.26,42.16,22.21,54.48,16.3-4.31,25.04-10.14,38.1-13.6-3.57-12.73-6.15-35.74-12-49.35-5.62-13.07-14.59-24.69-24.25-40.49,3.4-36.57-31.31-61.48-53.19-87.88-40.14-48.44-86.95-92.64-143.01-112.4-17.83-15.81-32.13-28.49-49-43.45.12-.89,1.08-7.93,2.07-15.18h14.46c1.12,1.31,2.23,2.61,3.34,3.92-4.55,1.05-9.1,2.11-13.65,3.16,10,7.11,17.12,11.7,23.46,10.8,17.9-2.54,32.45,6.53,47.94,11.67,18.57,6.15,36.79,18.96,54.26-4.31-2.04,4.98-4.08,9.95-6.01,14.66,22.94,5.02,44.8,9.64,66.59,14.62,24.07,5.5,50.7,6,64.75,31.92-35.53-10.88-70.77-22.81-106.65-32.34-37.47-9.95-75.56-17.59-115.84-21.5,6.82,4.92,13.42,10.19,20.49,14.7,69.23,44.12,133.62,94.11,177.85,164.51,48.41,77.04,80.15,160.23,75.84,253.32-3.58,77.18-8.06,154.34-13.29,231.42-1.55,22.81-27.18,38.55-31.88,61-1.15,5.48-1.63,3.52-5.89,8.19-2.52,2.76,3.75,23.5,2.2,26.61-33.33,67.1-95.52,86.57-155,120.51-3.94,2.25-12.54,2.14-15.4-.59-10.87-10.41-20.27-22.35-30.22-33.71Zm218.8-311.8c.55,4.21,2.86,9.33,4.94,17.01-6.49-4.08-9.88-6.21-15.05-9.46-1.29,12.09-13.39,109.43-14.38,119.01-1.81,17.56,38.39-38.55,39.16-41.21,3.19-10.98,4.71-22.82,4.51-34.31-.24-13.78-9.18-32.3-3.15-40.28,13.13-17.34-.86-24.62-6-35.66,3.43-.36,6.87-.73,10.3-1.09-2.09-12.25-4.24-24.49-6.25-36.75-.81-4.98-3.66-11.66-1.52-14.73,6.94-9.94,7.4-9.32,4.81-15.45-.97-2.3-.53-5.24-.56-7.89-.06-6.84-.02-13.69-.02-24.42-1.31,1.05-4.79-59.6-6.66-68.79-15.37,4.74-34.64,12.12-34.64,12.12,9.72,28.17,9.72,50.86,19.53,118.05,9.44,19.49,3.47,52.47,4.96,63.84Z"/><path class="j" d="m1793.06,1911.55c-33.32,15.4-46.82,43.02-44.08,92.17,4.98-1.72,9.48-3.28,16.78-5.81-30.05,32.14-10.34,67.9-13.33,100.95-2.23,24.69.61,49.84,1.11,74.79.16,7.87.02,15.74,5.18,24.46,2.2-12.88,4.4-25.76,6.59-38.64,2.1.17,4.21.34,6.31.52-.67,9.05-1.34,18.09-1.95,26.3,11.75-3.8,19.45-49.19,15.25-94.88-7.59,5.12-14.56,9.83-25.64,17.31,2.18-12.87,3.35-19.75,4.64-27.31,3.19,1.23,6.09,2.35,9.15,3.53,1.73-10.28,3.48-20.69,5.22-31.1,1.7-.04,3.4-.09,5.1-.13.65,8.28,1.3,16.56,1.96,24.85.94-.02,1.88-.03,2.81-.05v-67.02c-6.76,4.12-13.35,8.13-25.72,15.66,15.53-19.73,26.95-34.22,40.16-50.99-10.98,147.27-22.15,300.21-33.27,449.44,10.83,1.83,12.99-2.31,22.2-.76,5.06,19.59-7.84,20.99-12.92,20.77-1.62-.15-3.91-7.21-5.54-7.25-21.98-.47-37.87,6.31-37.61-16.59,5.58-90.06,7.43-193.37,8.95-283.63.89-52.82-2.32-105.7-2.42-158.55-.05-26.35,10.89-49.23,30.49-66.99,4.59-4.16,12.35-4.8,18.65-7.06.64,2.01,1.29,4.02,1.93,6.02Zm-37.67,458.95c-12.5,12.08-11.71,32.35,3.86,40.48,1.77-14.05,4.95-28.42,5.02-42.81.07-14.62-8.81-28.72,3.06-43.96,2.94-3.77-7.41-17.88-11.65-27.24,1.48-.93,2.95-1.86,4.43-2.8,3,1.99,6.01,3.98,14.84,9.83-11.18-25.88-7.63-46.76.42-67.67,1.3-3.39-5.62-9.94-8.7-14.96,3.19-5.11,7.57-12.12,11.95-19.13-2.14-1.63-4.27-3.26-6.41-4.89-5.67,6.68-15.67,12.97-16.3,20.09-3.75,42.68-5.7,85.53-7.3,128.36-.28,7.46,4.01,15.09,6.79,24.69Z"/><path class="j" d="m1012.65,1066.64c-10.56,17.27-21.71,34.22-31.58,51.87-45.41,81.18-54.72,168.73-43.79,259.36,3.41,28.3,11.01,56.12,14.05,84.45,2.52,23.48-2.2,48.04,2.36,70.91,5.98,29.93,16.9,59.07,28.02,87.64,3.01,7.73,6.45,25.91,14.01,37.48,24.33,37.24,49.43,73.98,73.96,111.1,7.5,11.34,14.11,23.27,21.13,34.93-46.57-50.12-85.87-103.88-113.71-168-35.44-81.62-35-167.91-49.07-252.55-11.87-71.36,1.3-138.97,17.53-206.63,10.34-43.1,33.58-80.47,67.08-110.57Z"/><path class="j" d="m1418.05,1762.15c26.64,3.95,53.47,6.97,79.87,12.14,21.9,4.29,21.68,5.42,29.12-3.63,8.04,5.55,14.71,13.9,22.17,14.69,47.57,4.98,95.59,13.34,142.91,10.72,45.36-2.51,90.34-15.91,134.74-27.38,6.65-1.72,9.26-19.11,16.31-35.08,1.05,11.54,1.69,18.59,2.61,28.71,50.72-10.05,88.25-37.05,112.65-85.09,10.78,13.05,18.43,22.3,26.07,31.55-7.54-4.26-15.08-8.52-23.88-13.48-59.84,83.71-155.4,94.53-245.24,108.58-54.72,8.55-113-5.23-169.63-9.54-15.37-1.17-30.97-2.93-45.79-6.92-27.57-7.44-54.64-16.73-81.92-25.24Z"/><path class="j" d="m1233.11,1125.57c-8.41,10.71-17.94,20.77-24.75,32.42-3.28,5.62-1.45,14.23-1.82,19.76-30.04,17.07-34.73,49.42-47.07,78.64-12.94,39.52-19.93,61.04-20.03,106.9,8.71,10.64,15.33,18.74,21.94,26.83-2.24,1.69-4.48,3.38-6.72,5.07-3.22-4.76-6.44-9.52-12.56-18.59-6.95,51.81,2.4,95.38,25.73,135.19,20.87,35.62,44.9,69.38,67.54,103.97-2.98-.98-7.03-1.04-8.79-3.08-48.11-55.65-90.26-116.98-96.09-191.02-5.85-74.23,3.58-149.19,41.82-216.63,13.23-23.33,26.48-46.71,41.18-69.1,3.55-5.41,12.93-7,19.63-10.35Z"/><path class="j" d="m1903.9,959.68c-17.38-6.39-34.41-14.02-52.21-18.86-25.68-6.98-51.72-13.58-78.04-16.83-8.71-1.07-18.77,8.74-31.68,15.35,3.82-6.79,6.06-10.78,11.02-19.59-48.67-.99-94.64-12-142.1,7.1-8.1-17.98-25.31-13.09-40.65-5.99-7.47,3.46-11.94,13.4-14.83,22.56-9.83,3.83-19.66,7.66-29.49,11.48,21.07-30.03,43.41-51.52,86.8-45.65,51.09,6.92,103.48,3.78,155.25,6.21,49.14,2.31,94.89,16.34,135.93,44.21Z"/><path class="j" d="m1526.83,954.08c-7.49,13.5-11.74,31.4-23.05,39.71-38.55,28.32-79.08,54.08-124.16,71.59-29.33,11.39-58.36,23.58-87.52,35.41,0,0,.54-.4.54-.4-20.16,8.63-40.33,17.26-60.49,25.88,28.31-15.94,55.13-35.95,85.24-47,72.89-26.76,144.74-53.56,194.97-117.49,3.09-3.93,9.57-5.2,14.47-7.7Z"/><path class="j" d="m1098.08,1025.68c3.15-.63,5.46-8.82,8.82-11.13,2.87-5.84,33.72,26.02,50.8,45.56-4.88,3.9-12.59,7.3-16.58,10.5-16.65-17.19-27.14-17.7-43.04-44.93Z"/><path class="j" d="m1235.37,1615.75c24.49,29.38,36.59,52.16,54.92,67.11,27.94,27.76,39.02,37.05,128.92,79.88-42.82-4.95-99.57-37.48-131.04-66.55-32.99-30.48-35.46-61.05-52.79-80.44Z"/><path class="j" d="m1976.47,939.72c8.47-6.86,16.94-13.73,29.98-24.3-8.16,11.4-13.27,18.54-18.53,25.88,25.64,30.72,31.07,34.47,79.72,54.39-6.71,1.46-11.18,2.43-17.85,3.88,3.96,8.85,7.32,16.36,10.68,23.88-28-27.91-56-55.82-83.99-83.73Z"/><path class="j" d="m1988.74,1037.53c-3.77-.96-28.13-24.78-29.97-27.21-15.56-20.55-44.46-26.52-55.87-51.41,22.31,18.17,63.53,60.45,85.84,78.62Z"/><path class="j" d="m1873.63,1611.01c11.22-16.63,23.29-32.76,33.45-50.01,12.44-21.12,24.33-34.88,36.05-56.89,40.34-20.56,26.08-73.66,40.89-109.29,4.37-36.99.96-11.81,4.37-36.99l-2.41-126.24c-3.05-17.79,27.12,4.19-25.08,13.52-1.3-12.18-3.44-6.38-4.97-20.73,33.09-6.47,26.84-19.95,24.24-41.82-3.76-31.66-40.4-60.41-58.22-78.18-11.52-8.76,52.08,31.53,60.73,42.64,3.98,24.47,8.01,48.31,11,66.71,3.03-.49,9.63.99,12.67.5,36.41-6.99,5.45-2.73,26.08-8.2,1.41,6.63-.54,5.27,2.24,18.35-16.84,4.41-23.22,10.03-40.98,14.68,4.69,18.07-7.02,42.26,12.96,57.57,3.78,2.9,2.11,57.38,3.28,66.19-19.55,24.76-12.31,128.81-11.14,146.89-11.84,1.55-2.73,6.5-19.48,8.39-30.76,3.48-44.15,22.79-59.42,38.53-16.53,17.04-30.92,36.16-46.25,54.37Z"/><path class="j" d="m1854.91,1043.05c-15.04-1.39-143.43-2.51-170.17-3.97-33.22.82-13.95.34-47.17.37-33.85-3.95-59.31,16.19-85.94,32.26-20.84,12.58-41.41,25.76-61.12,40.01-8.56,6.19-18.35,12.11-22,16.16-51.3,20.69-96.16,43-143.76,63.8-11.07,4.84-18.54,17.49-28.43,25.6-5.93,4.86-13.35,7.91-20.1,11.77,6.56-9.96,13.12-19.91,19.12-29.02,29.23-16.83,58.93-34.94,89.67-51.06,10.28-5.39,22.75-10.17,34.33-13.35,16.87-4.63,70.38-37.14,77.73-41.66,6.86-4.22,37.93-27.21,45.83-32.73,15.59-10.9,20.82-10.86,37.54-19.01,13.95-6.8,37-11.86,55.56-14.71,36.99.61,12.97-.81,44.32.99,51.56-3.01,61.66-2.01,102.12,1.27-6.03-.38,60.56,3.04,72.47,13.26Z"/><path class="j" d="m1300.96,1578.48c9.57,9.88,18.32,20.89,28.35,29.87,51.92,46.5,89.88,68.12,145.55,83.35,54.34,14.87,106.92,3.65,162.74-11.58-6.66-22.89-13.31-45.78-20.03-68.86,27.44-17.3,33.13-15.27,42.39,15.96,7.76,26.14,10.61,54.8,36.61,71.53,5.06,3.25,11.38,9.05,15.81,8.03,26.65-6.14,52.92-13.93,79.39-21.19,5.32-15.07-27.19-40.67,17.13-44.11-10-23.53-18.98-44.67-29.14-68.58,8.93-5.31,19.57-11.63,32.96-19.59,10.56,26.28,20.09,50.01,30.46,75.85,11.31-6.86,21.25-12.89,31.19-18.91,1.39,10.02,2.78,20.04,4.51,32.45-22.26,9.45-45.84,19.46-69.43,29.48-1.14-1.86-2.29-3.72-3.43-5.58,1.83-3.44,3.67-6.88,7.69-14.42-7.65,3.85-11.92,6-16.2,8.15,4.77,6.25,9.54,12.5,15.08,19.76-23.8,16.15-48.88,33.16-74.11,50.29.65-5.71-69.67,7.11-72.79,26.01-30.13-22.35-94.61-50.89-110.92-48.91-8.99,1.09-18.1,2.84-27.04,2.31-31.18-1.87-62.54-5.71-90.72-19.44-56.92-18.3-109.48-64.78-129.99-98.01-2.53-5.04-3.23-6.93-6.08-13.85Z"/><path class="j" d="m1277.07,1228.3c-47.11,62.2-74.64,135.79-73.19,210.27.64,33.08,3.03,37.3,36.65,72.16,12.13,17.54,57.41,62.56,88.78,97.61-15.4-5.59-143.66-116.67-138.76-183.59,1.22-16.63,2.69-25.92,10.08-42.45,1.03-2.3,2.95-4.67,3.95-7.22,4.16-10.64,8.1-21.36,6.38-33.4,5.29-7.21,51.93-98.8,66.11-113.4Z"/><path class="j" d="m1917.49,1098.5c-10.12-8.44-53.39-47.84-63.51-56.28,19.65,17.3,40.13,35.64,63.51,56.28Z"/><path class="j" d="m1585.22,1780.33c-12.56-4.31-21.97-7.54-31.39-10.77-2.12-1.77-4.23-3.54-6.35-5.3,4.35-1.37,8.68-3.75,13.06-3.83,5.07-.1,10.46,3.32,15.17,2.4,4-.78,7.22-5.55,16.95-6.44-2.69,8.67-5.39,17.34-7.44,23.95Z"/><path class="j" d="m865.98,882.28c-3.29-2.1-6.58-4.2-9.87-6.3,3.29,2.1,6.58,4.2,9.87,6.3Z"/><path class="j" d="m2139.88,1082.87c-.92.66-5.29,3.81-9.34,6.73-10.64-13.87-20.85-27.18-32.53-42.41,14.04,4.81,25.61,8.77,34.24,11.72,2.55,8,4.73,14.85,7.63,23.96Z"/><path class="f" d="m830.48,192.54h52.04c7.76,45.52,15.98,90.13,22.22,135.03.76,5.5-7.93,15.49-14.38,18.08-10.12,4.05-22.06,3.57-34.9,5.22-8.24-52.21-16.38-103.82-24.98-158.32Z"/><path class="f" d="m444.66,294.72h47.97c5.63,52.24,11.26,104.46,17.06,158.32-15.13,2.03-29.2,3.91-46.76,6.26-6.03-54.29-11.97-107.81-18.28-164.59Z"/><path class="f" d="m425.21,729.75c18.66,4.16,42.21,2.78,50.96,13.49,6.89,8.42-4.37,31.79-7.78,48.48-1.95,9.56-3.92,19.17-6.32,28.56-7.43,29.02-2.4,37.71-37.85,27.74-23.79-6.69-27.94-12.16-21.74-33,8.11-27.26,14.73-54.97,22.73-85.26Z"/><path class="j" d="m173.19,605.08c-7.26,16.03-14.52,32.06-22.44,49.56-4.77-.72-11.89-1.8-12.66-1.92,5.42-12.36,10.82-23.7,15.37-35.36,3.68-9.42,3.82-23.34,19.89-11.94.1.11-.17-.34-.17-.34Z"/><path class="j" d="m815.14,51.94c24.94,4.23,47.09,7.99,70.31,11.92-2.62,1.51-10.17,8.12-12.28,6.69-16.84-11.41-44.12,9.47-58.03-18.62Z"/><path class="j" d="m989.1,61.35c-24.94-4.23-47.09-7.99-70.31-11.92,2.62-1.51,10.17-8.12,12.28-6.69,16.84,11.41,44.12-9.47,58.03,18.62Z"/><path class="f" d="m189.81,1635.71c16.66,32.79,31.81,63.09,50.59,99.17,0,0-35.27,14.12-46.19,18.97-16.3-33.34-32.15-65.76-48.72-99.65,15.11-5.94,27.14-11.75,44.32-18.5Z"/><path class="f" d="m440.75,1538.18c17.62,42.88,23.09,52.27,47.34,105.66,0,0-29.44,14.35-40.19,19.59-30.83-62.4-28.05-55.23-49.55-104.69,14.89-6.46,25.48-13.21,42.41-20.56Z"/><path class="f" d="m349.79,1304.96l27.06,82.74s-26.21,4.64-37.58,8.34l-30.29-79.53c15.64-4.35,23.02-6.62,40.8-11.56Z"/><path class="f" d="m576.62,1377.6c-10.8,45.08-8.37,49.18-19.95,106.66,0,0-32.35-9.19-44.13-11.23,11.52-68.64,6.16-50.88,17.66-103.58,15.85,3.47,28.4,4.2,46.42,8.14Z"/><polygon class="f" points="299.25 41.71 340.48 37.87 356.01 128.66 317.3 134.89 299.25 41.71"/><polygon class="f" points="87.66 134.12 188.86 194.76 206.29 164.44 106.91 106.96 87.66 134.12"/><path class="f" d="m104.72,442.35c4.41-1.23,110.28-4.69,110.28-4.69v46.92l-105.03,3.35-5.25-45.58Z"/><polygon class="f" points="283.31 643.57 176.9 696.5 201.49 741.85 306.39 696.39 283.31 643.57"/><polygon class="f" points="612.41 738.75 610.49 865.78 658.28 864.38 658.64 735.98 612.41 738.75"/><path class="j" d="m249.64,775.23c4.42,16.15,14.19,42.03,36.84,65.18,41.85,42.78,96.98,44.9,108.64,45.35,10.59.41,17.92-.36,24.56-.94,68.65-6.07,108.21,2.94,155.87,2.83,65.18-.15,113.94-17.27,180.44-40.62,48.73-17.11,88.24-36.27,117.14-51.96"/><polygon class="f" points="824.35 694.76 871.63 683.46 906.2 820.57 858.72 831.44 824.35 694.76"/><polygon class="f" points="984.93 621.24 1022.71 585.97 1105.79 680.03 1062.39 709.73 984.93 621.24"/><polygon class="f" points="1167.02 451.47 1267.74 467.9 1272.99 421.29 1173.76 403.54 1167.02 451.47"/><polygon class="f" points="1127.21 209.04 1255.74 159.5 1272.53 197.7 1144.27 246.83 1127.21 209.04"/><path class="f" d="m995.91,93.66c1.26-2.94,30.58-93.66,30.58-93.66l48.14,8.08-30.34,100.1-48.38-14.52Z"/><path class="j" d="m706.35,1470s-29.7-18.37-69.38-42.34c-30.23-18.27-106.12-37.43-106.12-37.43"/><path class="f" d="m9.58,1519.12c8.24,0,104.94,11.23,104.94,11.23,0,0-3.76,35.8-5.02,34.96s-102.34-9.03-101.97-11.97c.36-2.94,2.04-34.22,2.04-34.22Z"/><path class="f" d="m56.58,1637.53l33.21-3.22,9,92.77s-32.44,4.41-33.21,3.22-9-92.77-9-92.77Z"/><polygon class="f" points="165.35 1841.47 123.42 1892.27 154.44 1917.47 200.62 1874.64 165.35 1841.47"/><path class="f" d="m312.62,1925.55c17.81,65.32,33.69,117.46,33.69,117.46l33-10.35c-37.36-121.05-36.46-118.13-36.46-118.13l-30.23,11.02Z"/><path class="f" d="m465.01,1870.28l22.37,84.55,57.73-12.92c-.63-2.52-30.65-87.85-30.65-87.85l-49.46,16.21Z"/><polygon class="f" points="594.34 1749.06 704.99 1771.13 695.2 1804.35 584.38 1780.17 594.34 1749.06"/><polygon class="f" points="1543.5 1876.35 1537.78 1974.57 1586.71 1983.13 1580.91 1872.24 1543.5 1876.35"/><polygon class="f" points="1310.92 1807.52 1310.24 1914.95 1361.29 1912.01 1360.18 1806.2 1310.92 1807.52"/><path class="f" d="m1189.26,1653.35l-85.93,95.71s41.84,42.02,42.96,36.99c1.12-5.04,76.38-101.53,76.38-101.53"/><path class="j" d="m1156.35,1860.22s-14.82-8.98-32.77-23.15c-17.95-14.17-32.77-32.68-32.77-32.68"/><path class="f" d="m1044.22,1442.99l-76.08-.24s-.09,55.85-.21,61.55l76.29-3.2v-58.11Z"/><path class="f" d="m1090.82,1029.45s49.46,53.95,49.67,53.11,21.41-22.22,21.2-22.88-52.06-52.06-52.06-52.06l-18.81,21.83Z"/><path class="f" d="m1292.85,1015.11c-8.48-14.58-47.4-91.88-47.4-91.88l32.37-17.14,41.57,91.32-26.54,17.7Z"/><path class="f" d="m1805.13,882.51c.94-12.28,10.1-82.62,10.1-82.62l33.51.62-11.28,85.35-32.33-3.35Z"/><polygon class="f" points="2114.25 1214.68 2213.38 1177.78 2221.69 1210.49 2125.38 1245.12 2114.25 1214.68"/><path class="f" d="m2076.46,1547.2c9.61,1.98,133.89,28.65,133.89,28.65l-7.24,38.26-139.05-29.2,12.4-37.71Z"/><polygon class="f" points="1607.4 1581.86 1638.33 1682.86 1674.28 1673.74 1645.71 1566.06 1607.4 1581.86"/><polygon class="f" points="1776.08 1568.37 1818.37 1665.17 1853.04 1651.99 1812.33 1548.29 1776.08 1568.37"/><polygon class="f" points="1928.2 1495.81 2007.65 1488.14 2009.91 1523.2 1931.89 1531.3 1928.2 1495.81"/><polygon class="f" points="1959.11 1346.46 2032.28 1346.46 2031.46 1381.7 1959.11 1384.04 1959.11 1346.46"/><polygon class="f" points="1438.66 1141.69 1419.35 1058.24 1456.09 1045.64 1475.62 1134.85 1438.66 1141.69"/><polygon class="f" points="1950.21 1217.95 2038.14 1199.82 2044.58 1230.13 1956.16 1248.95 1950.21 1217.95"/><polygon class="f" points="1738.51 1187.11 1787.21 1315.9 1826.14 1299.96 1777.05 1170.14 1738.51 1187.11"/><polygon class="f" points="1438.3 1287.86 1468.69 1409.59 1509.22 1398.3 1478.51 1275.33 1438.3 1287.86"/><polygon class="f" points="1882.66 1110.29 1948.05 1049 1970.27 1067.98 1906.36 1128.96 1882.66 1110.29"/><polygon class="f" points="1762.15 1070.45 1769.6 977.46 1800.19 981.09 1791.97 1074.03 1762.15 1070.45"/><polygon class="f" points="1653.24 1066.28 1630.41 975.83 1660.54 969.43 1682.62 1060.09 1653.24 1066.28"/><polygon class="f" points="1188.91 1266.76 1246.28 1285.37 1240.07 1322.29 1179.76 1301.82 1188.91 1266.76"/><polygon class="f" points="1184.71 1522.73 1248.67 1471.65 1275.37 1499.58 1210.77 1554.43 1184.71 1522.73"/><polygon class="f" points="1626.72 2419.32 1694.34 2418.81 1694.62 2450.98 1626.72 2450.98 1626.72 2419.32"/><polygon class="f" points="1734.32 2419.66 1800.42 2418.81 1800.42 2450.59 1734.32 2450.59 1734.32 2419.66"/><text class="g" transform="translate(1607.4 1377.22)"><tspan x="0" y="0">C</tspan></text><text class="d" transform="translate(658.64 373.26)"><tspan x="0" y="0">D</tspan></text><text class="e" transform="translate(306.39 1677.82)"><tspan x="0" y="0">B</tspan></text><text class="h" transform="translate(820.69 2284.89)"><tspan x="0" y="0">A</tspan></text><g><path class="i" d="m2072.98,2388.45c0,20.24,0,39.6,0,60.9-18.2.85-37,2.38-55.8,2.35-10.25-.01-7.62-9.82-7.95-15.7-1.43-25.33-1.99-50.71-3.02-76.06-.93-22.79-2.07-45.57-3.21-70.15,20.76-.76,40.08-1.67,59.42-1.88,1.97-.02,5.69,4.07,5.72,6.3.39,28.25.26,56.51.26,83.73-4.85-.28-12.43-1.3-19.91-.82-2.39.15-4.52,4.28-6.77,6.58,2.33,2.26,4.58,6.34,6.99,6.44,7.41.31,14.89-.9,24.27-1.69Zm-51.71-30.12c6.98-5.94,13.8-8.9,14.93-13.31,2.17-8.5-4.11-11.59-12.18-10.44-6.51.93-16.31-1.57-14.53,9.83.66,4.23,6.29,7.69,11.78,13.92Zm30.02-6.2c6.23-1,15.37,3.23,15.44-8.99.05-9.42-5.88-10.36-12.71-9.21-5.69.96-14.6-3.33-14.76,8.4-.12,8.9,4.19,11.16,12.03,9.8Zm-.99-23.29c7.19-.3,15.82,2.39,15.06-9.49-.74-11.68-9.64-6.3-15.22-6.94-6.18-.71-11.69.41-11.43,9.12.28,9.32,5.84,8.49,11.58,7.31Zm-28.32-20.51c-6.32,6.52-12.06,9.75-13.13,14.13-2.01,8.2,4.9,9.95,11.25,8.97,5.99-.92,15.77,1.31,14.58-9.12-.47-4.15-6.68-7.64-12.7-13.98Zm28.75,3.16c5.82-4.7,12.2-7.27,12.97-11.01,1.72-8.26-5.35-9.43-11.58-8.43-5.73.92-15.76-2.87-14.17,8.43.51,3.59,7.08,6.32,12.78,11Zm-27.58,64.45c5.54-4.37,12.43-7.06,13.29-11.05,1.83-8.42-6.14-7.34-11.29-7.01-6.14.39-15.47-2.3-14.67,8.39.22,3.01,6.99,5.53,12.67,9.67Zm2.56,16.43c-5.97,4.64-13.19,7.43-13.8,11.29-1.48,9.24,6.97,7.31,12.33,6.85,5.97-.51,15.41,2.42,14.74-8.06-.2-3.14-7.41-5.84-13.26-10.08Zm7.41-97.28c-1.14-1.14-2.28-2.27-3.42-3.41-7.09,1.83-14.26,3.41-21.1,5.92-.57.21.6,9.43,1.87,9.67,6.37,1.21,13.3,1.87,19.46.38,1.96-.47,2.18-8.17,3.19-12.56Zm18.53,116.49c.69-.75,1.37-1.49,2.06-2.24,1.26,0,2.54.11,3.78-.02,5.8-.59,13.49-.23,11.69-8.78-.55-2.62-8.17-3.85-12.63-5.51-1.1-.41-2.76-.45-3.72.11-3.71,2.17-7.23,4.65-10.83,7.01l9.65,9.42Zm5.26-.35c-5.27,3.66-9.39,6.51-13.5,9.36,5.14,2.49,10.2,6.63,15.46,6.91,3.69.19,7.66-4.88,11.5-7.6-3.95-2.54-7.89-5.09-13.45-8.67Zm-2.91-57.47c-5.62,4.25-9.84,7.45-14.07,10.65,3.57,2.36,7.14,6.67,10.7,6.66,6.03-.03,16.14,3.9,15.87-7.69-.07-2.86-6.98-5.55-12.49-9.61Zm-8.51,95.11c9.21-2.61,16.97-4.8,24.73-7-1.67-3.24-3.1-9.07-5.07-9.26-8.69-.83-18.48-1.56-19.67,16.26Zm-22.15-54.7c5.62-3.74,9.78-6.5,13.94-9.27-3.49-2.36-7.12-6.81-10.45-6.6-5.57.35-15.26-4.11-15.41,6.77-.04,2.64,6.83,5.38,11.92,9.1Zm2.76,18.62c-5.41,3.53-9.67,6.32-13.93,9.11,3.54,2.54,7.44,7.54,10.52,7.08,5.85-.89,11.22-4.91,16.79-7.62-3.95-2.53-7.91-5.06-13.38-8.56Zm13.45,34.67c-4.09-12.02-15.78-17.42-22.81-12.5-1.87,1.31-3.25,5.14-2.79,7.39.41,2.01,3.54,4.64,5.71,4.88,6.08.66,12.27.23,19.9.23Z"/><path class="i" d="m2104.79,2426.58c-5.31-.55-9.46-.98-14.68-1.52,2.46,10.44,23.18,6.48,13.51,20.56-4.04,5.88-12.65,4.63-18.91-2.63,6.07.57,11.22,1.04,16.84,1.57-.99-11.76-22.45-5.89-13.77-20.41,3.23-5.4,11.35-5.11,17.01,2.44Z"/></g><g><path class="j" d="m755.35,2480.33l24.27,10.17,62.42,6.02s1.16-4.62,0-21.96c-1.16-17.34-5.78-24.27-27.74-34.68-21.96-10.4-70.51-33.52-70.51-33.52,0,0-26.59-41.61-54.33-63.57-27.74-21.96-35.83-17.34-39.3-82.07-3.47-64.73-5.78-127.15,0-137.55,5.78-10.4,42.26-47.39,72.57-45.08,30.31,2.31,37.24-10.4,93.88,10.4,56.64,20.81,106.34,82.07,130.61,99.41,24.27,17.34,69.35,153.73,69.35,153.73l28.9,114.43h33.52s-6.94-94.78-6.94-131.77,16.18-76.29-20.81-124.84c-36.99-48.55-57.79-79.76-92.47-89s-30.05-2.31-58.95-23.12c-28.9-20.81-17.34-50.86-70.51-52.01-53.17-1.16-34.68-13.17-86.69-12.94-52.01.23-75.13,1.39-89,18.72-13.87,17.34-12.32,26.59-31.01,35.83-18.69,9.25-23.31,0-26.78,21.96-3.47,21.96-6.94,52.27-6.94,77.57v93.5s9.25,56.64,15.03,65.89c5.78,9.25,60.53,74.79,60.53,74.79l58.27,53.51,32.62,16.18Z"/><polygon class="f" points="546.83 2265.34 564.08 2249.16 618.99 2322.16 597.25 2339.93 546.83 2265.34"/><polygon class="f" points="748.4 2433.19 790.25 2383.24 803.75 2394.71 759.87 2446.01 748.4 2433.19"/><polygon class="f" points="669.42 2242.16 685.62 2224.61 736.25 2270.51 717.35 2288.06 669.42 2242.16"/><polygon class="f" points="776.08 2113.9 792.28 2096.35 833.95 2142.25 816.79 2152.89 776.08 2113.9"/><polygon class="f" points="503.1 2138.02 531.6 2162.79 539.47 2150.16 512.67 2128.45 503.1 2138.02"/></g><polygon class="f" points="891.63 2011.65 907.83 1994.1 949.51 2040 932.34 2050.64 891.63 2011.65"/><path class="j" d="m1046.28,2415.63l10.47,30.38,11.14-9.57s-9.04-29.66-8.48-64.88c.55-35.22,10.03-69.66-6.49-108.01-16.52-38.34-21.22-87.78-56.96-106.11-35.74-18.32-78.74-33.09-78.74-33.09l9.27,22.44s47.06,5.58,54.63,37.93c7.56,32.35,19.66,77.67,34.17,111.21s31,119.69,31,119.69Z"/><path class="j" d="m820.68,2062.04s-15.08-22.63-72.28-18.63c-57.2,4.01-78.98,35.25-78.98,35.25l75.63-19.54,31.02,8.8,44.6-5.88Z"/><path class="j" d="m610.02,2278.95s-18.57-71.8-7.43-99.73c11.14-27.93,33.43-72.8,33.43-72.8,0,0-8.67,38.82-4.95,72.8,3.71,33.98-13.54,57.72-13.54,57.72l33.35,100.15-19.81,2.84-21.05-60.98Z"/><path class="j" d="m694.2,2395.73s36.02,3.12,50.85,26.7c14.82,23.58,59.96,37.57,59.96,37.57,0,0,19.19,3.71,21.66,15.26,2.48,11.55,9.87,21.28-22.92,8.99-32.79-12.3-50.12-4.23-74.88-34.26-24.76-30.03-34.67-54.26-34.67-54.26Z"/></g></svg>