<svg xmlns="http://www.w3.org/2000/svg" width="56.287" height="95.825" viewBox="0 0 56.287 95.825">
  <g id="Pillar-simple" transform="translate(-2.6 0.55)">
    <g id="obelisk" transform="translate(6.289 0.388)">
      <path id="Path_295" data-name="Path 295" d="M154.494,37.684c-.07-.243-.137-.572-.329-.658-1.627-.815-1.352-3.257-3.5-3.708,0,0-1.109-.329-1.144-.313-.623,0-1-.345-1.387-.38a3.091,3.091,0,0,1-1.039-.121c-2.164-1.16-1.058-1.039-2.285-1.854-.173-.105-1.473-1.16-1.854-1.525-.035-.035-.051-.07-.086-.105-1.576-.572-.5-.051-3.187-.952a7.706,7.706,0,0,1-1.541-.882c.016-.086-.537-.416-.537-.416a5.311,5.311,0,0,1-.674-.467,6.785,6.785,0,0,0-2.755-1.835c-1.924-.71-3.794-1.595-5.8-2.477-.278-.137-.431-.224-.658-.313-.278.035-1.109-.952-1.109-.952s-1.125-1.956-1.835-2.234c-1.489-.607-7.847-3.324-9.352-3.9-.8-.294-5.8-.936-7.2-1.2.952.035-1.352-.086-1.419.173a15.342,15.342,0,0,1-.607,2.34c-.07.016-.5,2.755-.572,3.429-.016.137-.467,4.312-.537,4.676-.224,1.576-.936,3.481-.952,4.468,0,.086-.086,5.491-.137,5.558a6.8,6.8,0,0,0-.8,5.887c-.486-.016.936.294,1.109.345,1.956.662,6.354,2.515,8.086,2.707,2.685.313,4.935,1.732,7.431,2.477a38.533,38.533,0,0,0,8.262,1.87c1.991.157,3.966.521,5.942.8,1.748.243,3.516.486,5.37.71a.49.49,0,0,1,.224.086l8.278,6.149c.137.105-.761-3.845-.623-3.915.451-.173.761.486,3.273,1.646a14.627,14.627,0,0,0,2.634,1.039c.467-1.8,1.176-6.929,1.282-7.153A21.156,21.156,0,0,0,154.494,37.684Z" transform="translate(-102.865 -13.4)" fill="#fff" stroke="#707070" stroke-width="1"/>
      <path id="Path_296" data-name="Path 296" d="M450.869,990.423c-2.164-.173-7.083-.294-9.25-.415a15.232,15.232,0,0,0-6.149.432c-1.247.243-2.963.431-3.672.642-4.379,1.262-7.53.294-12.018.294-1.176,0-2.65.157-3.9.224a.492.492,0,0,1-.521-.467c-.016-.329.051-.729.035-.866-.173-1.681-.294-2.234-.38-3.931-.07-1.419-.243-3.414-.192-4.884,0,.38-.051-.761-.086-.831.313-.486-.121-1.525.035-1.767,0,0-.294-3.9-.313-4.1-.224-3.586-2.634-41.62-2.877-47.006-.016-.294.364-1.3.658-1.266,14.443,1.7,34.8,8.748,34.173,9.751-.016.486.051,8,.259,8.313.521.815.278,2.634.38,4.261a9.334,9.334,0,0,0-.208,1.266c.137.313.345.4.329.709-.105,1.681-.278-.642.137,1.713-.121.173.105.9.121,1.211.313-.243.38,1.956.451,1.9.243.831.259,2.234.415,2.979.173.882,1.176,4.59.866,5.3-.431,1.039-.121-.259-.192.5-.537,1.317-.016,1.09-.345,2.372a.779.779,0,0,0-.016.192c.105.623.729,2.477.553,3.343a8.315,8.315,0,0,0,.035,2.372c.157,1.8.431,3.586.521,5.37.121,2.372-.07,4.762.607,7.1.431,1.489.642,3.049,1,4.574.176.521.141.8-.467.713" transform="translate(-401.718 -897.293)" fill="#fff" stroke="#707070" stroke-width="1"/>
    </g>
    <g id="shadow" transform="translate(3.1 0.508)">
      <path id="Path_297" data-name="Path 297" d="M289.68,1021.539c-.035-.138-.07-.259-.121-.553,0-.157.016-.243.086-.243.968-.4.051-.815.035-1.211-.051-2.806-.313-5.612-.364-8.419-.07-3.567-.051-7.118,0-10.685a24.883,24.883,0,0,1,.5-2.736,8.322,8.322,0,0,0-.121-1.7.513.513,0,0,1,0-.224c0-.313.07-.607-.051-.729-1.176-1.125-.761-2.547-.78-3.88-.035-3.206-.016-6.424-.051-9.63,0-.278-.259-.553-.431-.9-.016-.105-.035-.137.051-.192.936-.882,1.767-1.748,2.634-2.614a6.869,6.869,0,0,1,.761-.658.5.5,0,0,1,.8.38c0,.208.016.415.016.642.105,1.4.208,2.72.313,4.123.035.313.07.537.086.831v1.541c.016.467.035.85.051,1.3.035.537.086,1,.121,1.56.313,6.287.623,12.471.968,18.637.259,4.762.572,9.524.85,14.376.086,1.438.192,2.787.259,4.209v.105c-.243,1.576.157,1.783.294,4.468a.618.618,0,0,1,.105.294c0,1.4-.035,2.806.016,4.209.07,1.7.243,3.378.4,5.075a8.609,8.609,0,0,1,.157.866.477.477,0,0,1-.553.521c-1.4-.208-3.049-.38-4.468-.623a.484.484,0,0,1-.4-.451c-.137-1.87-.192-3.688-.313-5.507-.243-3.759-.537-7.533-.729-11.378a3.567,3.567,0,0,1,.467-.329c-.192-.035-.364-.086-.553-.121a.084.084,0,0,1-.016-.086A1.375,1.375,0,0,0,289.68,1021.539Z" transform="translate(-279.251 -946.386)" fill="#fff" stroke="#707070" stroke-width="1"/>
      <path id="Path_298" data-name="Path 298" d="M4.279,34.011c.537-2.512,1.055-5.04,1.611-7.725v-.051c.105-.968.192-1.767.278-2.547,0,0-.016,0,.07-.051.329-1.039.572-2.026.815-3.03h0A16.147,16.147,0,0,1,8.019,18.7a8.311,8.311,0,0,1,1.525-1.505,1.252,1.252,0,0,1,.674.016c-.173.745-.467,1.4-.572,2.078q-.47,3.116-.78,6.236c-.016.224.364.5.572.761a.984.984,0,0,1,.121.4c-1.525.607-1.438,1.732-1.125,2.963l-.486-.035c-.224-.016,1.247,2.458.451,1.681-.243.642-.588.8-.4,1.125,1.074,1.819-1.627,3.03-.294,4.762.051.051-.016.208-.051.313-.345.988-.623,2.01-1.039,2.979a3.466,3.466,0,0,0,.329,3.151c-.208.259,9.8,2.512,9.787,2.841-.07,1.541-4.123,4.382-4.452,4.762-.4.451-7.9-3.014-8.5-3.343-.259-.137-.224-.294-.4-.329-.083-1.282-.1-2.528-.118-3.826A.424.424,0,0,0,3.1,43.5a.343.343,0,0,1,.051-.208c.137-1.039.208-2.026.329-2.995.224-1.9.467-3.81.729-5.785C4.244,34.3,4.26,34.148,4.279,34.011Z" transform="translate(-3.1 -17.156)" fill="#fff" stroke="#707070" stroke-width="1"/>
      <path id="Path_299" data-name="Path 299" d="M1484,1187.7c-.208.259,6.217,2.771,5.942,2.944-.642.365-1.889,1.211-2.2.831-.553-.658-2.928.278-3.084.4-.537.451-.8-1.975-.623-1.975C1483.934,1188.636,1484,1191.561,1484,1187.7Z" transform="translate(-1436.65 -1150.287)" fill="#fff" stroke="#707070" stroke-width="1"/>
    </g>
    <g id="dog" transform="translate(24.554 72.019)">
      <path id="Path_300" data-name="Path 300" d="M674.871,2263.038c-.157.07-.329.121-.521.208-.035-2.042.07-2.218,1.9-2.944.016,0,.035-.016.051-.016,2.391-1.247,4.7-2.528,7.083-3.621a12.426,12.426,0,0,1,3.88-.988,43.356,43.356,0,0,1,4.727.137c.623.016,1.282.243,1.56-.709.086-.278.815-.5,1.266-.521a1.2,1.2,0,0,1,.866.623c.451.85.78,1.748,1.176,2.634.294.658.952,1.211.467,2.078-.051.086.07.278.208.45a.494.494,0,0,1-.016.588c-.78,1-.917.952-1.956.105a7.86,7.86,0,0,1-1-1.023c-.882-.831-1.835-.831-1.835-.157a11.908,11.908,0,0,0,.364,2.321.532.532,0,0,0,.157.294c.5.431,1.039.85,1.489,1.317a.775.775,0,0,1-.016.729.734.734,0,0,1-.729.051,10,10,0,0,0-1.662-1.368c.106.259.137.607.329.8.521.521,1.282.917.78,1.924-.917-.78-1.819-1.473-2.669-2.25-1.074-1-.294-2.269-.38-3.567-.4-.278-.294-.294-.345-.345-2.113.243-4.26.431-6.373.729a1.186,1.186,0,0,0-.07.313c.313,0,.642-.035.937-.051a.508.508,0,0,1,.486.278c.121.278.259.607.364.882,0,.086-.192-.035-.192-.035-.451.105-1.058-.431-1.2.432a1.237,1.237,0,0,0,.917,1.454c.224.086.4.345.623.674-.086.953-.521.623-.8.345a3.788,3.788,0,0,1-1.387-.224c.259.313.486.658.761.952.157.156.329.294.5.451a.482.482,0,0,1-.173.85,1.1,1.1,0,0,1-1.333-.572c-.07-.105-.137-.259-.224-.278-1.489-.224-1.56-1.439-1.748-2.548-.086-.537-.224-1.125-.313-1.8a.5.5,0,0,0-.364-.415,1.021,1.021,0,0,1-.345-.105c-1.646.451-3.308.882-4.935,1.4C675.044,2262.536,674.977,2262.849,674.871,2263.038Z" transform="translate(-674.345 -2254.583)" fill="#fff" stroke="#707070" stroke-width="1"/>
    </g>
    <g id="dark_shadows" transform="translate(5.913 -0.042)">
      <path id="Path_301" data-name="Path 301" d="M1349.628,1144.748a.351.351,0,0,1,.086.051,22.893,22.893,0,0,1,1.889,1.49.8.8,0,0,1-.588.137c-1.835-.952-3.637-1.87-5.456-2.841-.451-.224-.85-.38-1.333-.572a.165.165,0,0,0-.086-.016c-.467-.105-.866-.173-1.266-.259a.679.679,0,0,1-.208-.086,2.018,2.018,0,0,1-.467-.467,6.137,6.137,0,0,1,.831-.173.458.458,0,0,1,.259.035c.76.313,1.525.642,2.285.968C1346.911,1143.572,1348.225,1144.141,1349.628,1144.748Z" transform="translate(-1302.213 -1105.504)" fill="#fff" stroke="#707070" stroke-width="1"/>
      <path id="Path_302" data-name="Path 302" d="M121.8,832.272a1.1,1.1,0,0,1,.313-.572,47.154,47.154,0,0,0,5.456,1.352c2.685.313,4.935,1.732,7.431,2.477a38.935,38.935,0,0,0,8.019,1.854c.486.035.968.086,1.454.157,3.567.5,6.632.9,10.288,1.419h.035a11.176,11.176,0,0,1,1.231.294.522.522,0,0,1,.173.105c.105.105.224.173.329.278,0,.051.016.137-.07.137-.224,0-.364.016-.521.016h-.105c-1.125-.173-2.234-.364-3.359-.521a6.889,6.889,0,0,0-1.231-.016,6.9,6.9,0,0,1-.78.035.166.166,0,0,1-.086-.016c-.866-.173-1.732-.38-2.6-.486-2.34-.278-4.555-1.074-6.961-1.09-1.541,0-3.065-.8-4.606-1.247-1.7-.5-3.394-1-5.178-1.525-2.6-.642-5.111-1.266-7.6-1.94A8.06,8.06,0,0,1,121.8,832.272Z" transform="translate(-120.819 -805.116)" fill="#fff" stroke="#707070" stroke-width="1"/>
      <path id="Path_303" data-name="Path 303" d="M91.667,138.881c-.086-.224-.173-.4.051-.451.313-.086.4-.4.761-.451-.224-.451-.588-.761-.313-1.266.137-.224.4-.224.761.086-.313-.537-.815-.85-.537-1.489.137-.278.313-.224.537-.364a.7.7,0,0,1-.173-1.074,5.311,5.311,0,0,1,.537-.364,1.17,1.17,0,0,0,.4-.313c.278-.173.4-.451.729-.5.313-.051.4.137.537.313.137-.173.086-.364.137-.588a5.333,5.333,0,0,1,.137-1.266c.224-.623.278-1.266.451-1.889a3.269,3.269,0,0,0,.278-1.074,2.766,2.766,0,0,0,.137-.537.635.635,0,0,1,.313-.5.893.893,0,0,1,.364-.051c.086.051.137.051.173.137a3,3,0,0,1,.224.729,1.786,1.786,0,0,0,.173.364c.086.086.173.086.313.173.051,0,.086.086.137.086a.121.121,0,0,1,.086.051s.051-.051.051-.086A1.018,1.018,0,0,1,99,128.331a.782.782,0,0,1,.278.5.484.484,0,0,0,.051.278.337.337,0,0,0,.173.173h.278a1.52,1.52,0,0,0,.9-.588.843.843,0,0,1,.451-.086.8.8,0,0,1,.313.173,1.289,1.289,0,0,1,.086.224.576.576,0,0,1-.086.364c-.051.086-.051.137-.137.173a2.564,2.564,0,0,1-.364.278c-.313.173-.588.364-.9.5a.711.711,0,0,1-.313.086c-.224.051-.4-.051-.623.051-.137.137-.224.278-.364.4a.676.676,0,0,1-.278.173,2.838,2.838,0,0,1-.623.173c-.137.051-.224.051-.278.173a1.6,1.6,0,0,1-.137.364c-.173.278-.451.278-.761.278a1.578,1.578,0,0,0-.537,1.211,1.488,1.488,0,0,1-.364.85l-.051.051c.173-.224.278-.537.674-.364.224.224.173.451.313.729a1.14,1.14,0,0,0,.451.815,6.982,6.982,0,0,0,.313,2.164v.364a1.234,1.234,0,0,0,.086.4,2.168,2.168,0,0,1,.086.313,4.623,4.623,0,0,1,.173.5c0,.9-.137,1.662-.173,2.563v.364a1.359,1.359,0,0,1-.051.451c-.051.137-.051.224-.086.313a1.266,1.266,0,0,1-.137.313.592.592,0,0,1-.137.173c-.086.137-.137.224-.224.364s-.173.224-.278.4c0,.086-.051.137-.051.173-.051.086-.086.173-.137.278a.592.592,0,0,1-.137.173.508.508,0,0,1-.278.173,2.124,2.124,0,0,1-1.039.051c-.4-.224-.674-.623-1.176-.815a1.267,1.267,0,0,1-.761.9.747.747,0,0,0-.5.729.583.583,0,0,1-.051.313.6.6,0,0,0,0,.674.668.668,0,0,1,.051.313c0,.313-.137.537-.051.85a1.434,1.434,0,0,1-.086.761,1.688,1.688,0,0,0-.086.537,1.4,1.4,0,0,1-.086.364.744.744,0,0,1-.952.5.336.336,0,0,1-.173-.173,13.849,13.849,0,0,1,.173-4.088,8.79,8.79,0,0,0-.051-1.627,3.8,3.8,0,0,1,.173-2.391,2.34,2.34,0,0,0-.137-.988v-.537c.173-.4-.051-.761.086-1.176.265-.026.265-.061.214-.112Z" transform="translate(-91.101 -123.036)" fill="#fff" stroke="#707070" stroke-width="1"/>
      <path id="Path_304" data-name="Path 304" d="M1109.458,404.894a2.629,2.629,0,0,1,.917.243,7.893,7.893,0,0,1,1.023.451c.105.07.137.105.243.173a1.8,1.8,0,0,1,.588.243c.173.07.278.105.451.173.243.208.553.173.745.416a.375.375,0,0,0,.208.035,11.924,11.924,0,0,0,1.333.588,1.138,1.138,0,0,1,.345.85.35.35,0,0,1-.38.243c-.208-.035-.243-.345-.553-.173-.208.07-.345-.07-.553-.105a.2.2,0,0,0-.137.035.583.583,0,0,0-.243.137c-.105.07-.208.105-.313.173a.645.645,0,0,0-.243.173.181.181,0,0,1-.137.07c-.451-.07-.451-.415-.623-.71-.07-.105-.137-.137-.208-.243-.105-.105-.137-.208-.278-.278l-.208-.208a1.7,1.7,0,0,1-.78-.553c-.07-.035-.07-.07-.137-.105a1.642,1.642,0,0,1-.38-.313,1.734,1.734,0,0,0-.658-.451l-.208-.105a.93.93,0,0,0-.416-.208,4.09,4.09,0,0,1-.588-.173,2.06,2.06,0,0,1-1.2-.85.811.811,0,0,1-.07-.278.584.584,0,0,1,.137-.243.507.507,0,0,1,.243.035,1.937,1.937,0,0,0,.85.451c.415-.07.623.173.917.38.137.058.208.128.31.128Z" transform="translate(-1074.53 -390.989)" fill="#fff" stroke="#707070" stroke-width="1"/>
      <path id="Path_305" data-name="Path 305" d="M468.534,1351.474c-.313.278-.694.486-.694.988-.243.313-.415.588-.623.9-.137.07-.313,0-.416.137a.614.614,0,0,0-.173.243c-.035.07-.035.07-.07.137-.208.278-.416.451-.345.8.035.172-.07.415-.208.415-.729.035-.588.623-.8,1.09a.327.327,0,0,1-.243.07c-.313-.243-.486-.035-.623.137a7.034,7.034,0,0,0-1.438,2.477c-.243.173-.623.07-.623.553-.07.137-.173.243-.278.243-.8-.07-.831.588-1.125,1.125-.035.173-.137.278-.07.486a.311.311,0,0,1,.035.172.381.381,0,0,1-.278.416.3.3,0,0,1-.173-.035l-.105-.105a.123.123,0,0,0-.035-.07l-.035.035c0,.07-.035.137-.035.208a.457.457,0,0,1-.137.208c-.451.173-.451.588-.588.988-.173.345-.278.729-.729.8-.07-.035-.105-.07-.173-.07a2,2,0,0,1-.173.38,11.3,11.3,0,0,1-1.368,1.956c-.313.278-.345.623-.521.988a4.257,4.257,0,0,1-.588.553,2.229,2.229,0,0,0-.694,1.3c-.345.729-1,1.2-1.266,1.956a1.617,1.617,0,0,0-.553.729,2.144,2.144,0,0,1-.553.693,12.42,12.42,0,0,0-1.333,2.132,2.547,2.547,0,0,1-.243.415,1.314,1.314,0,0,0-.38.588c-.105.208-.313.208-.486.38-.07.105-.137.137-.208.243l-.105.105c-.07.106-.07.173-.137.278a2.962,2.962,0,0,1-.313.38c-.208.486-.588.9-.521,1.505a2.105,2.105,0,0,0-.38,1.023,2.47,2.47,0,0,1-.313.693c-.035.106-.035.137-.07.243a.932.932,0,0,1-.137.313,9.729,9.729,0,0,0-.588,2.2,1.71,1.71,0,0,0-.313,1.474c-.035.07-.035.105-.07.137-.07.106-.137.138-.208.243a.434.434,0,0,0-.035.208c0,.278-.137.451-.137.729a2.13,2.13,0,0,1-.313.937.822.822,0,0,0-.07.313.809.809,0,0,0,.07.278.208.208,0,0,1,.035.138.654.654,0,0,0,.208.313c.415.243.761.486.658,1.09a.577.577,0,0,0,.173.831,2.116,2.116,0,0,0,.831.588c.106.035.137.07.243.105.07.035.07.07.173.137.137.138.208.106.313-.035.035-.07.07-.07.137-.137.553-.208.9.137,1.3.486a.312.312,0,0,1,.105.243,2.923,2.923,0,0,1,.035.553.511.511,0,0,1-.137.105c-.208.035-.345-.105-.521-.172.313.345.451.658.106,1.058a.583.583,0,0,0-.035.243v.137a.433.433,0,0,1,.035.208v.137c-.035.137-.137.208-.208.313a.5.5,0,0,0-.137.278.458.458,0,0,1-.137.208c-.694,0-.866-.208-.658-.8a4.74,4.74,0,0,1,.208-.623c.07-.138.137-.278-.07-.38-.173-.105-.313-.105-.451.137a.522.522,0,0,1-.243.137.757.757,0,0,1-.278-.035.991.991,0,0,1-.313-.172.651.651,0,0,1-.137-.208,3.207,3.207,0,0,1-.105-.313.6.6,0,0,0-.137-.172,2.5,2.5,0,0,1-.278-.313c-.035-.07-.035-.07-.07-.137-.137-.416-.588-.486-.8-.8l-.173-.172a.781.781,0,0,1-.208-.137l-.137-.07c-.07-.035-.07-.07-.137-.105-.278-.173-.658-.137-.761-.553a23.207,23.207,0,0,1-.486-3.359c-.07-.416.173-.761.137-1.2a.171.171,0,0,0-.07-.138l-.137-.07c-.035,0-.07-.035-.106-.035s.035.035.07.035c.105.035.137.035.208.137a.67.67,0,0,1,.035.278c-.208.623-.521.729-.968.415a1.874,1.874,0,0,0-.486-.38.957.957,0,0,1-.173-.694.811.811,0,0,1,.07-.278,1.647,1.647,0,0,1,.105-.243c.07-.137.173-.137.243-.243a.251.251,0,0,1-.137-.035.512.512,0,0,1-.105-.138,1.659,1.659,0,0,1-.035-.415,2.335,2.335,0,0,1-.07-.521,1.95,1.95,0,0,1,.035-.451c.035-.105.035-.173.105-.243a.665.665,0,0,1,.451-.106,4.807,4.807,0,0,1,.694.416c.035.105.137.137.035.208.137-.07,0-.172.035-.313a.636.636,0,0,1,.07-.243c.173-.243.173-.521.345-.761a.941.941,0,0,1,.278-.137l.208-.106c.07-.035.137-.035.208-.07h.105a.123.123,0,0,0,.07-.035.524.524,0,0,1,.137-.38.511.511,0,0,1,.137-.105c.761-.38.8-1.2,1.109-1.819.07-.521.486-.761.729-1.2.035-.07.035-.106.07-.173a1.717,1.717,0,0,0,.173-1.023v-.172c.035-.137.07-.208.105-.345a1.718,1.718,0,0,1,.278-.416.339.339,0,0,1,.105-.137,3.28,3.28,0,0,1,.38-.313c.105-.105.208-.137.313-.243a.262.262,0,0,0,.137-.137.374.374,0,0,0,.035-.208c0-.105.035-.105.035-.172a1.733,1.733,0,0,1,.173-.345,4.306,4.306,0,0,1,.553-.937.651.651,0,0,1,.208-.137c.278-.208.553-.278.729-.553.553-.208.623-.8,1-1.16l.173-.172c.208-.208.313-.416.588-.553a.649.649,0,0,0,.38-.729.5.5,0,0,1,.07-.243c.035-.07.07-.07.137-.137a1.693,1.693,0,0,0,.8-.952,4.413,4.413,0,0,1,.553-.988,17.2,17.2,0,0,0,1.991-2.841,2.038,2.038,0,0,1,.38-.38c.243-.208.208-.486.345-.761a.312.312,0,0,0,.035-.173.456.456,0,0,1,.137-.208,1.239,1.239,0,0,1,.278-.313,2.339,2.339,0,0,0,.658-.988c.313-.38.07-.9.345-1.3a2.107,2.107,0,0,0,.38-.588.871.871,0,0,1,.208-.278c.07-.105.173-.137.243-.243a3.858,3.858,0,0,1,.173-.345.583.583,0,0,1,.173-.137.6.6,0,0,1,.137-.173l.105-.208c.07-.105.105-.173.173-.278l.137-.137c.208-.173.416-.208.553-.38a.513.513,0,0,0,.105-.137,2.321,2.321,0,0,1,.658-.521c.208-.07.38-.035.553-.137,1.039-.988,1.505-2.372,2.512-3.394.07-.035.07-.07.137-.105a.734.734,0,0,0,.278-.138,3.982,3.982,0,0,1,1.713-1.783,1.624,1.624,0,0,1,.208-.137,20.855,20.855,0,0,1,1.854-1.368c.521-.38,1.2-.658,1.333-1.4a.356.356,0,0,1,.278-.208,12.318,12.318,0,0,1,2.477-1.16c.137-.035.278-.105.345,0,.105.106-.07.106-.105.208a.312.312,0,0,0-.035.173c-.137.07-.313,0-.416.243-.035.313-.38.313-.486.553a3.326,3.326,0,0,1-1.074,1.3,8.116,8.116,0,0,1-1.074.953c-.137.035-.208.035-.345.07-.07.07-.07.173-.105.208-.521.07-.831.486-1.2.831.1.256-.147.256-.355.326Z" transform="translate(-431.753 -1303.517)" fill="#fff" stroke="#707070" stroke-width="1"/>
      <path id="Path_306" data-name="Path 306" d="M393.6,422.022a2.977,2.977,0,0,0-.38-.9c-.243-.415-.035-.9-.208-1.352-.173-.416-.38-.8.035-1.211.035-.07.07-.105.105-.173.623-.208.729-.137.968.553a3.293,3.293,0,0,1-.105.623c-.208.173-.137.38-.105.553a.983.983,0,0,0,.694-.313.27.27,0,0,1,.07-.105c.208.173.278.345,0,.486a.232.232,0,0,0-.07.38c.243.313,0,.658.137.969a4.42,4.42,0,0,0,.553.831c.07.07-.035.208-.07.278a1.768,1.768,0,0,0,.07,1.454c-.278.105-.173.451-.38.623-.38-.105-.208-.486-.345-.761a1.243,1.243,0,0,1-.07-.486c.137-.451-.035-.658-.486-.729-.105,0-.137-.137-.173-.278a1.031,1.031,0,0,1-.24-.441Z" transform="translate(-383.166 -404.911)" fill="#fff" stroke="#707070" stroke-width="1"/>
      <path id="Path_307" data-name="Path 307" d="M1015.349,602.916c.157-.173.208-.416.467-.416.173.173.035.364.051.572a1.051,1.051,0,0,1,.035.329.624.624,0,0,1,.051.259.578.578,0,0,1-.157.329c-.121.086-.208.173-.329.173a.061.061,0,0,1-.051-.035s-.035.035,0,.035.035.051.035.086a.707.707,0,0,1-.051.173,1.434,1.434,0,0,1-.71.121.547.547,0,0,1-.157-.294.84.84,0,0,1,.035-.415c.035-.086.121-.121.051-.243a.478.478,0,0,1,.173-.467c.121-.121.259-.121.451-.157l.035-.035c.035.07.07.035.07-.016Z" transform="translate(-985.011 -583.242)" fill="#fff" stroke="#707070" stroke-width="1"/>
      <path id="Path_308" data-name="Path 308" d="M423.7,1428.1c0-.345-.051-.658-.051-1,0-.659-.051-1.212-.051-1.819-.051-.432-.137-.78-.173-1.211.313-.137.345-.486.173-.917-.137-.259.051-.259-.121-.572a2.652,2.652,0,0,1-.173-.658v-.172a1.41,1.41,0,0,1-.051-.486,1.846,1.846,0,0,0,.173-.486.776.776,0,0,1,.051-.345,1.25,1.25,0,0,0-.137-.831.667.667,0,0,1-.051-.313.5.5,0,0,0,.051-.345.56.56,0,0,1-.086-.313.361.361,0,0,1-.051-.224.69.69,0,0,1,.313-.313.735.735,0,0,1,.345-.086c.086,0,.137.051.224.051.137.051.173.138.259.224a.71.71,0,0,1,.086.313c0,.086-.051.137-.051.224a1.11,1.11,0,0,1-.173.259.229.229,0,0,0-.051.173c.051.172.086.224.259.137.345-.259.137-.693.4-1,.345-.086.431.172.658.4a1.117,1.117,0,0,1-.224,1.438c-.345.313-.137.694,0,1.09,0,.607-.431,1.125-.224,1.732,0-.4-.173-.831.259-1.176a.889.889,0,0,1,.658-.138c.486.831.313,1.387-.486,1.991.313.138.658-.137,1,.138.086.086.086.172.086.313-.086.224-.224.345-.259.572a.383.383,0,0,1-.345.173c-.173.051-.173.137-.173.259,0,.051.051,0,.051-.051.051-.086.086-.086.224-.137a1.565,1.565,0,0,1,.572.486,3.68,3.68,0,0,1,.313,1.125.777.777,0,0,1-.051.345.477.477,0,0,1-.4.137.415.415,0,0,0-.313.138.739.739,0,0,1,.173-.138,3.143,3.143,0,0,1,.694,0,.482.482,0,0,0,.431.086.638.638,0,0,1,.431.051,2.014,2.014,0,0,1,.345,1.525c-.173.4-.173.952-.866.693-.086-.051-.086-.086-.173-.173s-.173-.172-.259-.172a.05.05,0,0,0,.051.051.236.236,0,0,1,.173.086l.137.137a.56.56,0,0,1,.086.313,6.389,6.389,0,0,1-.345,1.211c-.173.259-.431.4-.4.745-.051.345.086.658.051,1a.284.284,0,0,0,.051.345.661.661,0,0,0,.224.173.78.78,0,0,1,.051.313c0,.089-.051.173,0,.051a.113.113,0,0,0,.086-.051.334.334,0,0,1,.313,0,.445.445,0,0,1,.345.259.34.34,0,0,1,0,.4.52.52,0,0,1-.259.086l-.137.137a.772.772,0,0,0-.313.572c.607.4.521.917.4,1.473,0,.173.051.259-.051.432a.49.49,0,0,1-.345.259h-.051a.766.766,0,0,0,.224-.137.738.738,0,0,1,.173-.137.361.361,0,0,1,.224.051,1.692,1.692,0,0,1,.224.259,1.068,1.068,0,0,1-.313,1,1.77,1.77,0,0,0-.137.313c-.137.521,0,1.039-.173,1.56-.051.086-.051-.051,0,.086.051.086.051-.051.137-.051.345-.051.486.137.658.4a.407.407,0,0,1,0,.345,1.916,1.916,0,0,1-1,.953.726.726,0,0,0-.259.4,1.621,1.621,0,0,0-.086.486.794.794,0,0,1-.224.432,1.722,1.722,0,0,0-.137.259c.086.137.259.137.4.224a1.176,1.176,0,0,1,.313.745.566.566,0,0,1-.173.432.531.531,0,0,1-.259.172h-.173c-.051,0-.086-.051-.137-.086-.051-.051-.086-.051-.051,0a.247.247,0,0,1,.051.172c-.051.173-.086.313.051.432a.762.762,0,0,1,.173.259,1.318,1.318,0,0,1,.173.4,1.1,1.1,0,0,1-.137.659,2.32,2.32,0,0,1-.521.572,1.805,1.805,0,0,1-.952.086c-.086-.051-.137-.051-.173-.137-.137-.259-.086-.486-.259-.745a16.149,16.149,0,0,1-.694-4.746,4.673,4.673,0,0,0-.137-1.611,6.3,6.3,0,0,1,.137-2.877,26.477,26.477,0,0,0,.259-3.222,5.851,5.851,0,0,0-.486-2.563,17.584,17.584,0,0,1-.051-2.132v-.431a3.345,3.345,0,0,0,.032-.806Z" transform="translate(-412.586 -1372.677)" fill="#fff" stroke="#707070" stroke-width="1"/>
      <path id="Path_309" data-name="Path 309" d="M399.6,1021.175a5.4,5.4,0,0,1-.364-2.391,3.029,3.029,0,0,0-.086-1.4c-.173-.364.086-.729-.086-1.09a4.232,4.232,0,0,0-.137-.988,1.1,1.1,0,0,1,.137-.866.444.444,0,0,1,.364-.137c.137.051.224.086.278.224a2.066,2.066,0,0,0,.313.729c.086.086.086.173.173.278a1.119,1.119,0,0,1,.051.4.575.575,0,0,1-.051.278v.137a.092.092,0,0,0,.086.086c.051.051.086.051.137.137a.674.674,0,0,1-.086.5,1.638,1.638,0,0,0-.086.5.467.467,0,0,0,.051.451.863.863,0,0,1,.173.674c-.051.173-.137.278-.086.451v.4a1.636,1.636,0,0,0-.086.5v.224a1.356,1.356,0,0,1-.313.9c-.153,0-.24.054-.38,0Z" transform="translate(-389.054 -981.88)" fill="#fff" stroke="#707070" stroke-width="1"/>
      <path id="Path_310" data-name="Path 310" d="M418.063,1235.53c-.224-.313-.313-.086-.38.035s.07.313-.121.416c-.38-.38-.224-.85-.192-1.266a1.212,1.212,0,0,0-.035-.5,7.416,7.416,0,0,1-.035-1.646,6.627,6.627,0,0,1,.157-2.1c.07-.07.086-.07.192-.07.451.086.38.38.278.642a1.11,1.11,0,0,0,.07,1.039.8.8,0,0,1,.121.8,1.549,1.549,0,0,0-.035.8,1.886,1.886,0,0,0-.035.451c0,.086.035.07.121.07a.833.833,0,0,1-.105,1.336Z" transform="translate(-406.845 -1191.073)" fill="#fff" stroke="#707070" stroke-width="1"/>
      <path id="Path_311" data-name="Path 311" d="M160.693,130.617c.451-.121.486-.224.157-.607-.035-.035,0-.105,0-.105a2.048,2.048,0,0,1,.313-.345,7.561,7.561,0,0,1,.121-1.889c.157,0,.259-.07.38-.07.451.035.521.224.38.572a3.156,3.156,0,0,1-.294.572.312.312,0,0,0,.035.416c-.105.345.121.674.035,1.023a1.3,1.3,0,0,0-.07.521c0,.121-.035.224-.035.345a.373.373,0,0,1-.035.192.373.373,0,0,0-.035.192.143.143,0,0,1-.035.121c0,.07-.035.07-.035.121a.679.679,0,0,1-.07.121.811.811,0,0,0-.105.415v.157c-.07.192.035.345,0,.572a.456.456,0,0,1-.642.224c-.07-.07-.105-.07-.121-.157a1.1,1.1,0,0,1,.121-.642v-.294a1.281,1.281,0,0,0-.121-.416.188.188,0,0,1-.035-.121,1.24,1.24,0,0,1,.07-.157c.2-.24.006-.431.022-.761Z" transform="translate(-158.379 -123.52)" fill="#fff" stroke="#707070" stroke-width="1"/>
      <path id="Path_312" data-name="Path 312" d="M186.009.682c-.259-.051-.259-.243-.173-.451a1.537,1.537,0,0,1,1.819.051c.243.157.173.259,0,.416a.453.453,0,0,1-.208.051c-.051.035-.086.035-.157.086V.956a2.349,2.349,0,0,0,.051.329,1.334,1.334,0,0,1-.035.78c-.208.208-.415.38-.588-.035-.035-.173.051-.243.051-.38-.035-.035-.035-.051-.051-.121.035-.051.035-.086.051-.086h0c.035.051-.086,0-.035.035-.035.086.035.157.051.243a.478.478,0,0,1-.157.243c-.329.051-.451-.121-.537-.364-.013-.326-.256-.588-.083-.917Z" transform="translate(-182.759 0.042)" fill="#fff" stroke="#707070" stroke-width="1"/>
      <path id="Path_313" data-name="Path 313" d="M179.021,58.972v-.278c0-.035.035-.051.051-.086.051-.051.051-.086.086-.157a.205.205,0,0,1,.086-.051c.051,0,.051,0,.121.035.157.173.086.451.4.486a.146.146,0,0,1,.121.035c.086.086-.173.243.086.294a.3.3,0,0,1,.035.208c-.294.157-.658.243-.451.729.035.051.035.086,0,.157-.051.157-.173.173-.294.243a.176.176,0,0,1-.157.051.315.315,0,0,1-.243-.173,3.033,3.033,0,0,1,0-1.247C178.95,59.145,179.053,59.129,179.021,58.972Z" transform="translate(-175.994 -56.532)" fill="#fff" stroke="#707070" stroke-width="1"/>
      <path id="Path_314" data-name="Path 314" d="M321.8,23.559a3.865,3.865,0,0,0,1.282-.173,2.117,2.117,0,0,1,1.454.105c.035.07.07.07.07.137-.035.105-.105.137-.208.208-.07.035-.105.07-.173.105a.312.312,0,0,0-.105.243.839.839,0,0,1-.07.329.218.218,0,0,0,0,.208c.137.329-.035.431-.329.467a.714.714,0,0,1-.4-.07.426.426,0,0,1-.137-.105l.035.035a.8.8,0,0,1,.137.313.811.811,0,0,1-.07.278.387.387,0,0,1-.137.105c-.313,0-.329-.278-.537-.431-.173-.173-.313-.313-.313-.5a2.1,2.1,0,0,0-.5-1.253Z" transform="translate(-314.426 -22.557)" fill="#fff" stroke="#707070" stroke-width="1"/>
      <path id="Path_315" data-name="Path 315" d="M489.3,74.728a17.974,17.974,0,0,0-.192,2.2.25.25,0,0,1-.224.137.66.66,0,0,1-.4-.208.419.419,0,0,1-.07-.345,1.093,1.093,0,0,1,.224-.345,1.071,1.071,0,0,0-.035-.588c-.1-.521-.326-.764-.847-.521-.105.035-.137.07-.224.07h-.137a.233.233,0,0,0-.259.035.181.181,0,0,1-.137.07.46.46,0,0,1-.224-.035c-.07-.035-.07-.07-.105-.137a.6.6,0,0,1,.137-.623c.259-.208.521-.105.831-.137a3.7,3.7,0,0,1,1.662.428Z" transform="translate(-473.993 -71.924)" fill="#fff" stroke="#707070" stroke-width="1"/>
    </g>
  </g>
</svg>
