<?xml version="1.0" encoding="utf-8"?>
<!-- Generator: Adobe Illustrator 27.2.0, SVG Export Plug-In . SVG Version: 6.00 Build 0)  -->
<svg version="1.1" id="Layer_1" xmlns="http://www.w3.org/2000/svg" xmlns:xlink="http://www.w3.org/1999/xlink" x="0px" y="0px"
	 viewBox="0 0 512 512" style="enable-background:new 0 0 512 512;" xml:space="preserve">
<style type="text/css">
	.st0{fill:#FFFFFF;}
</style>
<path class="st0" d="M64,112c-8.8,0-16,7.2-16,16v22.1l172.5,141.6c20.7,17,50.4,17,71.1,0L464,150.1V128c0-8.8-7.2-16-16-16H64z
	 M48,212.2V384c0,8.8,7.2,16,16,16h384c8.8,0,16-7.2,16-16V212.2L322,328.8c-38.4,31.5-93.7,31.5-132,0L48,212.2z M0,128
	c0-35.3,28.7-64,64-64h384c35.3,0,64,28.7,64,64v256c0,35.3-28.7,64-64,64H64c-35.3,0-64-28.7-64-64V128z"/>
</svg>
