<?xml version="1.0" encoding="utf-8"?>
<!-- Generator: Adobe Illustrator 27.3.0, SVG Export Plug-In . SVG Version: 6.00 Build 0)  -->
<svg version="1.1" id="Layer_1" xmlns="http://www.w3.org/2000/svg" xmlns:xlink="http://www.w3.org/1999/xlink" x="0px" y="0px"
	 viewBox="0 0 66.7 50" style="enable-background:new 0 0 66.7 50;" xml:space="preserve">
<style type="text/css">
	.st0{fill:#FFFFFF;}
</style>
<path class="st0" d="M8.3,6.2c-1.1,0-2.1,0.9-2.1,2.1v2.9l22.5,18.4c2.7,2.2,6.6,2.2,9.3,0l22.4-18.4V8.3c0-1.1-0.9-2.1-2.1-2.1H8.3
	z M6.2,19.3v22.4c0,1.1,0.9,2.1,2.1,2.1h50c1.1,0,2.1-0.9,2.1-2.1V19.3L41.9,34.5c-5,4.1-12.2,4.1-17.2,0L6.2,19.3z M0,8.3
	C0,3.7,3.7,0,8.3,0h50c4.6,0,8.3,3.7,8.3,8.3v33.3c0,4.6-3.7,8.3-8.3,8.3h-50C3.7,50,0,46.3,0,41.7V8.3z"/>
</svg>
