<?xml version="1.0" encoding="utf-8"?>
<!-- Generator: Adobe Illustrator 27.3.0, SVG Export Plug-In . SVG Version: 6.00 Build 0)  -->
<svg version="1.1" id="Layer_1" xmlns="http://www.w3.org/2000/svg" xmlns:xlink="http://www.w3.org/1999/xlink" x="0px" y="0px"
	 viewBox="0 0 50 50" style="enable-background:new 0 0 50 50;" xml:space="preserve">
<style type="text/css">
	.st0{fill-rule:evenodd;clip-rule:evenodd;fill:#D6B68E;}
</style>
<path id="Instagram" class="st0" d="M25,4.4c6.7,0,7.5,0,10,0.3c1.6,0,3.2,0.3,4.7,0.8c2.1,1,3.8,2.6,4.7,4.7
	c0.6,1.5,0.9,3.1,0.8,4.7c0,2.5,0.3,3.3,0.3,10s0,7.5-0.3,10c0,1.6-0.3,3.2-0.8,4.7c-1,2.1-2.6,3.8-4.7,4.7
	c-1.5,0.6-3.1,0.9-4.7,0.8c-2.5,0-3.3,0.3-10,0.3s-7.5,0-10-0.3c-1.6,0-3.2-0.3-4.7-0.8c-2.1-1-3.8-2.6-4.7-4.7
	C5,38.2,4.7,36.6,4.7,35c0-2.5-0.3-3.3-0.3-10s0-7.5,0.3-10c0-1.6,0.3-3.2,0.8-4.7c0.5-1,1.1-2,1.9-2.8c0.7-1,1.6-1.7,2.8-1.9
	C11.8,5,13.4,4.7,15,4.7C17.5,4.4,18.3,4.4,25,4.4 M25,0c-6.7,0-7.8,0-10.3,0.3c-2.1,0-4.2,0.4-6.1,1.1C6.9,1.9,5.4,2.9,4.2,4.2
	C2.9,5.4,1.9,6.9,1.4,8.6c-0.9,1.9-1.3,4-1.1,6.1C0,17.2,0,18.3,0,25s0,7.8,0.3,10.3c0,2.1,0.4,4.2,1.1,6.1c0.5,1.7,1.5,3.2,2.8,4.4
	c1.2,1.3,2.8,2.2,4.4,2.8c2,0.7,4,1.1,6.1,1.1C17.2,50,18.3,50,25,50s7.8,0,10.3-0.3c2.1,0,4.2-0.4,6.1-1.1c3.4-1.2,6.1-3.8,7.2-7.2
	c0.7-2,1.1-4,1.1-6.1c0-2.8,0.3-3.6,0.3-10.3s0-7.8-0.3-10.3c0-2.1-0.4-4.2-1.1-6.1c-0.5-1.7-1.5-3.2-2.8-4.4
	c-1.2-1.3-2.8-2.2-4.4-2.8c-2-0.7-4-1.1-6.1-1.1C32.8,0,31.7,0,25,0 M25,12.2c-6.9-0.1-12.7,5.4-12.8,12.4c0,0.1,0,0.3,0,0.4
	c0,7.1,5.7,12.8,12.8,12.8S37.8,32.1,37.8,25S32.1,12.2,25,12.2L25,12.2 M25,33.3c-4.5,0.1-8.3-3.5-8.3-8c0-0.1,0-0.2,0-0.3
	c-0.1-4.5,3.5-8.3,8-8.3c0.1,0,0.2,0,0.3,0c4.5-0.1,8.3,3.5,8.3,8c0,0.1,0,0.2,0,0.3c0.1,4.5-3.5,8.3-8,8.3
	C25.2,33.3,25.1,33.3,25,33.3 M38.3,8.6c-1.7,0-3.1,1.4-3.1,3.1s1.4,3.1,3.1,3.1s3.1-1.4,3.1-3.1l0,0C41.4,10,40,8.6,38.3,8.6"/>
</svg>
