<?xml version="1.0" encoding="utf-8"?>
<!-- Generator: Adobe Illustrator 27.3.0, SVG Export Plug-In . SVG Version: 6.00 Build 0)  -->
<svg version="1.1" id="Layer_1" xmlns="http://www.w3.org/2000/svg" xmlns:xlink="http://www.w3.org/1999/xlink" x="0px" y="0px"
	 viewBox="0 0 50 50" style="enable-background:new 0 0 50 50;" xml:space="preserve">
<style type="text/css">
	.st0{fill:#D6B68E;}
</style>
<path class="st0" d="M46.9,31.3l-9.6-4.1c-2.1-0.9-4.6-0.3-6,1.5L28.6,32c-4.4-2.5-8-6.2-10.5-10.5l3.3-2.7c1.7-1.4,2.4-3.9,1.5-6
	l-4.1-9.7c-1-2.3-3.5-3.5-5.9-2.9L4,2.2c-2.3,0.5-4,2.6-4,5C0,30.8,19.2,50,42.8,50c2.4,0,4.4-1.6,4.9-4l2.1-8.9
	C50.4,34.7,49.2,32.3,46.9,31.3z M45.3,36.1L43.2,45c0,0.1-0.2,0.3-0.4,0.3c-21,0-38.1-17.1-38.1-38.1C4.7,7,4.8,6.8,5,6.8l8.9-2.1
	H14c0.2,0,0.3,0.1,0.4,0.3l4.1,9.6c0.1,0.2,0,0.4-0.1,0.5l-4.8,3.8c-0.8,0.7-1.1,1.9-0.6,2.8c3.2,6.6,8.6,12,15.2,15.2
	c0.9,0.5,2.2,0.2,2.9-0.6l3.9-4.8c0.1-0.1,0.3-0.2,0.5-0.1l9.6,4.1C45.2,35.7,45.3,35.9,45.3,36.1z"/>
</svg>
