<?xml version="1.0" encoding="utf-8"?>
<!-- Generator: Adobe Illustrator 27.2.0, SVG Export Plug-In . SVG Version: 6.00 Build 0)  -->
<svg version="1.1" id="Layer_1" xmlns="http://www.w3.org/2000/svg" xmlns:xlink="http://www.w3.org/1999/xlink" x="0px" y="0px"
	 viewBox="0 0 512 512" style="enable-background:new 0 0 512 512;" xml:space="preserve">
<style type="text/css">
	.st0{fill:#FFFFFF;}
</style>
<path class="st0" d="M480.3,320.3l-98.2-42.1c-21.4-9.3-46.6-3.1-61.2,15l-27.4,33.5c-44.8-25.8-82.3-63.2-108-107.1l33.6-27.5
	c17.9-14.6,24.1-39.7,15-61.1l-42.3-99.5c-10.3-23.2-35.4-35.8-60-30.2L40.6,22.4C16.7,27.9,0,48.8,0,73.4
	C0,315.3,196.7,512,438.6,512c24.6,0,45.5-16.7,50.1-40.5l21.1-91.3C516.4,355.5,503.6,330.3,480.3,320.3z M463.9,369.3l-21.1,91.4
	c-0.5,1.1-2.1,3.3-4.2,3.3C223.2,464,48,288.8,48,73.4c0-2.1,1.3-3.7,3.3-4.2l91.3-21.1c0.3-0.1,0.6-0.1,1-0.1c1.7,0,3.4,1,4,2.6
	l42.1,98.3c0.8,1.8,0.2,3.8-1.2,5.1l-48.8,39.1c-8.6,7.1-11.2,19.1-6.3,29.1c33,67.2,88.3,122.5,155.5,155.5
	c9.1,4.9,22.1,2.3,29.2-6.3l40-48.9c1.1-1.4,3.2-1.9,4.9-1.1l98.3,42.1C463.2,365.2,464.3,367.3,463.9,369.3z"/>
</svg>
