<?xml version="1.0" encoding="utf-8"?>
<!-- Generator: Adobe Illustrator 27.3.0, SVG Export Plug-In . SVG Version: 6.00 Build 0)  -->
<svg version="1.1" id="Layer_1" xmlns="http://www.w3.org/2000/svg" xmlns:xlink="http://www.w3.org/1999/xlink" x="0px" y="0px"
	 viewBox="0 0 14 24.7" style="enable-background:new 0 0 14 24.7;" xml:space="preserve">
<style type="text/css">
	.st0{fill:#AB917C;}
	.st1{fill:#DCC099;}
	.st2{fill:#C99C73;}
	.st3{fill:#877668;}
	.st4{fill:#6D5744;}
</style>
<g id="obelisk">
	<path class="st0" d="M13.8,6.4c0-0.1,0-0.1-0.1-0.2c-0.4-0.2-0.3-0.8-0.9-1c0,0-0.3-0.1-0.3-0.1c-0.2,0-0.3-0.1-0.3-0.1
		c0,0-0.2,0-0.3,0c-0.5-0.3-0.3-0.3-0.6-0.5c0,0-0.4-0.3-0.5-0.4c0,0,0,0,0,0c-0.4-0.1-0.1,0-0.8-0.2c-0.1,0-0.3-0.2-0.4-0.2
		c0,0-0.1-0.1-0.1-0.1c-0.1,0-0.1-0.1-0.2-0.1C9.2,3.2,9,3.1,8.8,3C8.3,2.8,7.8,2.6,7.3,2.3c-0.1,0-0.1-0.1-0.2-0.1
		C7.1,2.3,6.9,2,6.9,2S6.6,1.5,6.4,1.4c-0.4-0.2-2-0.9-2.3-1C3.9,0.3,2.6,0.2,2.3,0.1c0.2,0-0.3,0-0.4,0C1.9,0.4,1.8,0.7,1.8,0.8
		c0,0-0.1,0.7-0.1,0.9c0,0-0.1,1.1-0.1,1.2C1.4,3.3,1.3,3.8,1.3,4c0,0,0,1.4,0,1.5C0.8,6.2,0.9,6.6,1,7C0.9,7,1.3,7.1,1.3,7.1
		c0.5,0.2,1.6,0.7,2,0.7C4,7.9,4.6,8.3,5.2,8.5C5.9,8.7,6.5,8.9,7.2,9c0.5,0,1,0.1,1.5,0.2c0.4,0.1,0.9,0.1,1.3,0.2c0,0,0,0,0.1,0
		l2.1,1.6c0,0-0.2-1-0.2-1c0.1,0,0.2,0.1,0.8,0.4c0,0,0.6,0.3,0.7,0.3c0.1-0.5,0.3-1.8,0.3-1.9C13.9,8.5,14.1,7.2,13.8,6.4z"/>
	<path class="st0" d="M13.2,24.4c-0.5,0-1.8-0.1-2.3-0.1c-0.7,0-0.7-0.1-1.5,0.1c-0.3,0.1-0.7,0.1-0.9,0.2c-1.1,0.3-1.9,0.1-3,0.1
		c-0.3,0-0.7,0-1,0.1c-0.1,0-0.1-0.1-0.1-0.1c0-0.1,0-0.2,0-0.2c0-0.4-0.1-0.6-0.1-1c0-0.4-0.1-0.9,0-1.3c0,0.1,0-0.2,0-0.2
		c0.1-0.1,0-0.4,0-0.5c0,0-0.1-1-0.1-1.1C4.1,19.4,3.5,9.4,3.4,8c0-0.1,0.1-0.3,0.2-0.3c3.6,0.4,8.7,2.3,8.5,2.5
		c0,0.1,0,2.1,0.1,2.2c0.1,0.2,0.1,0.7,0.1,1.1c0,0-0.1,0.3-0.1,0.3c0,0.1,0.1,0.1,0.1,0.2c0,0.4-0.1-0.2,0,0.4c0,0,0,0.2,0,0.3
		c0.1-0.1,0.1,0.5,0.1,0.5c0.1,0.2,0.1,0.6,0.1,0.8c0,0.2,0.3,1.2,0.2,1.4c-0.1,0.3,0-0.1,0,0.1c-0.1,0.3,0,0.3-0.1,0.6
		c0,0,0,0,0,0.1c0,0.2,0.2,0.6,0.1,0.9c0,0.2,0,0.4,0,0.6c0,0.5,0.1,0.9,0.1,1.4c0,0.6,0,1.2,0.2,1.9c0.1,0.4,0.2,0.8,0.3,1.2
		C13.4,24.3,13.4,24.4,13.2,24.4"/>
</g>
<g id="shadow">
	<path class="st1" d="M2.8,19.7c0,0,0-0.1,0-0.1c0,0,0-0.1,0-0.1c0.2-0.1,0-0.2,0-0.3c0-0.7-0.1-1.5-0.1-2.2c0-0.9,0-1.9,0-2.8
		c0-0.2,0.1-0.5,0.1-0.7c0-0.1,0-0.3,0-0.4c0,0,0,0,0-0.1c0-0.1,0-0.2,0-0.2c-0.3-0.3-0.2-0.7-0.2-1c0-0.8,0-1.7,0-2.5
		c0-0.1-0.1-0.1-0.1-0.2c0,0,0,0,0-0.1c0.2-0.2,0.4-0.5,0.7-0.7c0.1-0.1,0.1-0.1,0.2-0.2c0.1-0.1,0.2,0,0.2,0.1c0,0.1,0,0.1,0,0.2
		c0,0.4,0.1,0.7,0.1,1.1c0,0.1,0,0.1,0,0.2c0,0,0,0,0,0c0,0.1,0,0.3,0,0.4c0,0.1,0,0.2,0,0.3c0,0.1,0,0.3,0,0.4
		c0.1,1.6,0.2,3.3,0.2,4.9C3.9,17,4,18.2,4.1,19.5c0,0.4,0,0.7,0.1,1.1c0,0,0,0,0,0c-0.1,0.4,0,0.5,0.1,1.2c0,0,0,0.1,0,0.1
		c0,0.4,0,0.7,0,1.1c0,0.4,0.1,0.9,0.1,1.3c0,0,0,0.1,0,0.2c0,0.1-0.1,0.1-0.1,0.1c-0.4-0.1-0.8-0.1-1.1-0.2c-0.1,0-0.1-0.1-0.1-0.1
		c0-0.5,0-1-0.1-1.4c-0.1-1-0.1-2-0.2-3c0.1,0,0.1-0.1,0.1-0.1C2.9,19.9,2.8,19.8,2.8,19.7C2.8,19.8,2.8,19.8,2.8,19.7
		C2.8,19.8,2.8,19.8,2.8,19.7z"/>
	<path class="st2" d="M0.4,4.5c0.1-0.7,0.3-1.3,0.4-2c0,0,0,0,0,0c0-0.3,0-0.5,0.1-0.7c0,0,0,0,0,0C1,1.5,1.1,1.3,1.1,1l0,0
		c0.1-0.2,0.1-0.3,0.2-0.5c0.1-0.1,0.2-0.3,0.4-0.4c0.1,0,0.1,0,0.2,0c0,0.2-0.1,0.4-0.1,0.5C1.7,1.2,1.6,1.8,1.6,2.3
		c0,0.1,0.1,0.1,0.1,0.2c0,0,0,0.1,0,0.1C1.4,2.8,1.4,3.1,1.5,3.4l-0.1,0C1.3,3.4,1.7,4,1.5,3.8C1.4,4,1.3,4,1.4,4.1
		C1.6,4.6,1,4.9,1.3,5.4c0,0,0,0.1,0,0.1C1.2,5.7,1.1,6,1,6.2C0.9,6.5,1,6.8,1.1,7C1.1,7.1,3.6,7.7,3.6,7.8c0,0.4-1,1.1-1.1,1.2
		c-0.1,0.1-2-0.8-2.1-0.9c-0.1,0-0.1-0.1-0.1-0.1c0-0.3,0-0.7,0-1c0,0,0,0,0-0.1c0,0,0,0,0-0.1c0-0.3,0.1-0.5,0.1-0.8
		c0.1-0.5,0.1-1,0.2-1.5C0.4,4.6,0.4,4.6,0.4,4.5z"/>
	<path class="st2" d="M12,9.9c-0.1,0.1,1.6,0.7,1.5,0.8c-0.2,0.1-0.5,0.3-0.5,0.2c-0.1-0.2-0.7,0.1-0.8,0.1
		c-0.1,0.1-0.2-0.5-0.2-0.5C12,10.1,12,10.9,12,9.9z"/>
</g>
<g id="dog">
	<path class="st3" d="M5.6,21c0,0-0.1,0-0.1,0.1c0-0.5,0-0.6,0.5-0.8c0,0,0,0,0,0c0.6-0.3,1.2-0.7,1.8-0.9c0.3-0.1,0.6-0.2,1-0.3
		c0.4,0,0.8,0,1.2,0c0.2,0,0.3,0.1,0.4-0.2c0-0.1,0.2-0.1,0.3-0.1c0.1,0,0.2,0.1,0.2,0.2c0.1,0.2,0.2,0.5,0.3,0.7
		c0.1,0.2,0.2,0.3,0.1,0.5c0,0,0,0.1,0.1,0.1c0,0,0,0.1,0,0.2c-0.2,0.3-0.2,0.2-0.5,0c-0.1-0.1-0.2-0.2-0.3-0.3
		c-0.2-0.2-0.5-0.2-0.5,0c0,0.2,0.1,0.4,0.1,0.6c0,0,0,0.1,0,0.1c0.1,0.1,0.3,0.2,0.4,0.3c0,0,0,0.2,0,0.2c0,0-0.1,0-0.2,0
		c-0.1-0.1-0.2-0.2-0.4-0.4c0,0.1,0,0.2,0.1,0.2c0.1,0.1,0.3,0.2,0.2,0.5c-0.2-0.2-0.5-0.4-0.7-0.6c-0.3-0.3-0.1-0.6-0.1-0.9
		c-0.1-0.1-0.1-0.1-0.1-0.1c-0.5,0.1-1.1,0.1-1.6,0.2c0,0,0,0,0,0.1c0.1,0,0.2,0,0.2,0c0.1,0,0.1,0,0.1,0.1c0,0.1,0.1,0.2,0.1,0.2
		c0,0,0,0,0,0c-0.1,0-0.3-0.1-0.3,0.1c0,0.2,0.1,0.3,0.2,0.4c0.1,0,0.1,0.1,0.2,0.2c0,0.2-0.1,0.2-0.2,0.1c-0.1,0-0.2,0-0.3-0.1
		c0.1,0.1,0.1,0.2,0.2,0.2c0,0,0.1,0.1,0.1,0.1C8.2,21.8,8.1,22,8,22c-0.1,0-0.2,0-0.3-0.1c0,0,0-0.1-0.1-0.1
		c-0.4-0.1-0.4-0.4-0.4-0.7c0-0.1-0.1-0.3-0.1-0.5c0-0.1,0-0.1-0.1-0.1c0,0-0.1,0-0.1,0c-0.4,0.1-0.8,0.2-1.2,0.4
		C5.7,20.9,5.7,20.9,5.6,21z"/>
</g>
<g id="dark_shadows">
	<path class="st4" d="M12.7,10.2C12.7,10.2,12.7,10.2,12.7,10.2c0.2,0.1,0.3,0.3,0.5,0.4c0,0-0.1,0-0.1,0c-0.5-0.2-0.9-0.5-1.4-0.7
		c-0.1-0.1-0.2-0.1-0.3-0.1c0,0,0,0,0,0c-0.1,0-0.2,0-0.3-0.1c0,0,0,0-0.1,0c0,0-0.1-0.1-0.1-0.1c0.1,0,0.1,0,0.2,0c0,0,0,0,0.1,0
		c0.2,0.1,0.4,0.2,0.6,0.3C12,9.9,12.3,10.1,12.7,10.2z"/>
	<path class="st4" d="M1.1,7.1c0-0.1,0-0.1,0.1-0.1C1.6,7,2.1,7.2,2.5,7.3c0.7,0.1,1.2,0.5,1.9,0.6c0.7,0.2,1.3,0.4,2,0.5
		c0.1,0,0.2,0,0.4,0c0.9,0.1,1.7,0.2,2.6,0.4c0,0,0,0,0,0c0.1,0,0.2,0,0.3,0.1c0,0,0,0,0,0c0,0,0.1,0,0.1,0.1c0,0,0,0,0,0
		C9.7,9,9.7,9,9.6,9c0,0,0,0,0,0C9.3,9,9,8.9,8.8,8.9c-0.1,0-0.2,0-0.3,0c-0.1,0-0.1,0-0.2,0c0,0,0,0,0,0C8,8.9,7.8,8.8,7.6,8.8
		C7,8.7,6.5,8.5,5.9,8.5c-0.4,0-0.8-0.2-1.2-0.3C4.3,8,3.9,7.9,3.4,7.8C2.8,7.6,2.1,7.4,1.5,7.3C1.4,7.2,1.2,7.1,1.1,7.1z"/>
	<path class="st4" d="M1,4.1C1,4.1,1,4,1,4c0.1,0,0.1-0.1,0.2-0.1C1.1,3.8,1.1,3.7,1.1,3.6c0-0.1,0.1-0.1,0.2,0
		C1.2,3.4,1.1,3.4,1.2,3.2c0-0.1,0.1-0.1,0.1-0.1C1.2,3,1.2,2.9,1.3,2.8c0,0,0.1-0.1,0.1-0.1c0,0,0.1,0,0.1-0.1
		c0.1,0,0.1-0.1,0.2-0.1c0.1,0,0.1,0,0.1,0.1c0,0,0-0.1,0-0.2c0-0.1,0-0.2,0-0.3C1.9,1.9,2,1.8,2,1.6c0-0.1,0.1-0.2,0.1-0.3
		c0-0.1,0-0.1,0-0.1c0-0.1,0-0.1,0.1-0.1c0,0,0.1,0,0.1,0c0,0,0,0,0,0c0,0.1,0,0.1,0.1,0.2c0,0,0,0.1,0,0.1c0,0,0,0,0.1,0
		c0,0,0,0,0,0c0,0,0,0,0,0s0,0,0,0c0.1-0.1,0.2-0.1,0.3-0.1c0,0,0.1,0.1,0.1,0.1c0,0,0,0,0,0.1c0,0,0,0,0,0c0,0,0,0,0.1,0
		c0.1,0,0.2-0.1,0.2-0.2c0,0,0.1,0,0.1,0c0,0,0.1,0,0.1,0c0,0,0,0,0,0.1c0,0,0,0.1,0,0.1c0,0,0,0,0,0c0,0-0.1,0-0.1,0.1
		c-0.1,0-0.1,0.1-0.2,0.1c0,0,0,0-0.1,0c-0.1,0-0.1,0-0.2,0C2.8,2,2.8,2,2.8,2c0,0,0,0-0.1,0c-0.1,0-0.1,0-0.2,0c0,0-0.1,0-0.1,0
		c0,0,0,0.1,0,0.1c0,0.1-0.1,0.1-0.2,0.1C2.1,2.4,2.1,2.5,2.1,2.6c0,0.1,0,0.2-0.1,0.2c0,0,0,0,0,0c0-0.1,0.1-0.1,0.2-0.1
		c0.1,0.1,0,0.1,0.1,0.2c0,0.1,0,0.2,0.1,0.2c0,0.2,0,0.4,0.1,0.6c0,0,0,0.1,0,0.1c0,0,0,0.1,0,0.1c0,0,0,0,0,0.1c0,0,0,0.1,0,0.1
		c0,0.2,0,0.4,0,0.7c0,0,0,0.1,0,0.1c0,0,0,0.1,0,0.1c0,0,0,0.1,0,0.1c0,0,0,0,0,0.1c0,0,0,0,0,0c0,0,0,0.1-0.1,0.1
		c0,0,0,0.1-0.1,0.1c0,0,0,0,0,0c0,0,0,0,0,0.1c0,0,0,0,0,0c0,0,0,0-0.1,0c-0.1,0-0.2,0-0.3,0C1.7,5.6,1.7,5.5,1.6,5.5
		c0,0.1-0.1,0.2-0.2,0.2c-0.1,0-0.1,0.1-0.1,0.2c0,0,0,0.1,0,0.1c0,0.1,0,0.1,0,0.2c0,0,0,0,0,0.1c0,0.1,0,0.1,0,0.2
		c0,0.1,0,0.1,0,0.2c0,0,0,0.1,0,0.1c0,0,0,0.1,0,0.1C1.1,7,1,7,0.9,7c0,0,0,0,0,0c-0.1-0.4,0-0.7,0-1.1c0-0.1,0-0.3,0-0.4
		c0-0.2,0-0.4,0-0.6c0-0.1,0-0.2,0-0.3c0,0,0-0.1,0-0.1C1,4.4,0.9,4.3,1,4.1C1,4.1,1,4.1,1,4.1L1,4.1z"/>
	<path class="st4" d="M9.6,3.6c0.1,0,0.2,0,0.2,0.1c0.1,0,0.2,0.1,0.3,0.1c0,0,0,0,0.1,0c0.1,0,0.1,0,0.1,0.1c0,0,0.1,0,0.1,0
		c0.1,0.1,0.1,0,0.2,0.1c0,0,0,0,0.1,0c0.1,0.1,0.2,0.1,0.3,0.2C11,4.3,11,4.4,11,4.4c0,0,0,0.1-0.1,0.1c-0.1,0-0.1-0.1-0.1,0
		c-0.1,0-0.1,0-0.1,0c0,0,0,0,0,0c0,0,0,0-0.1,0c0,0-0.1,0-0.1,0c0,0,0,0-0.1,0c0,0,0,0,0,0c-0.1,0-0.1-0.1-0.2-0.2c0,0,0,0-0.1-0.1
		c0,0,0-0.1-0.1-0.1c0,0,0,0-0.1-0.1c-0.1,0-0.1-0.1-0.2-0.1c0,0,0,0,0,0c0,0-0.1,0-0.1-0.1C9.7,3.9,9.7,3.9,9.6,3.8c0,0,0,0-0.1,0
		c0,0-0.1,0-0.1-0.1c-0.1,0-0.1,0-0.1,0C9.1,3.7,9.1,3.6,9,3.5c0,0,0,0,0-0.1c0,0,0,0,0-0.1c0,0,0,0,0.1,0c0.1,0.1,0.1,0.1,0.2,0.1
		C9.4,3.5,9.4,3.5,9.6,3.6C9.5,3.6,9.6,3.6,9.6,3.6L9.6,3.6z"/>
	<path class="st4" d="M10,12.5c-0.1,0.1-0.2,0.1-0.2,0.3c-0.1,0.1-0.1,0.2-0.2,0.2c0,0-0.1,0-0.1,0c0,0,0,0,0,0.1c0,0,0,0,0,0
		c-0.1,0.1-0.1,0.1-0.1,0.2c0,0,0,0.1-0.1,0.1c-0.2,0-0.1,0.2-0.2,0.3c0,0,0,0-0.1,0c-0.1-0.1-0.1,0-0.2,0c-0.1,0.2-0.3,0.4-0.4,0.6
		c-0.1,0-0.2,0-0.2,0.1c0,0,0,0.1-0.1,0.1c-0.2,0-0.2,0.2-0.3,0.3c0,0,0,0.1,0,0.1c0,0,0,0,0,0c0,0.1,0,0.1-0.1,0.1c0,0,0,0,0,0
		c0,0,0,0,0,0c0,0,0,0,0,0l0,0c0,0,0,0,0,0.1c0,0,0,0,0,0.1c-0.1,0-0.1,0.2-0.1,0.3c0,0.1-0.1,0.2-0.2,0.2c0,0,0,0,0,0
		c0,0,0,0.1,0,0.1c-0.1,0.2-0.2,0.3-0.3,0.5c-0.1,0.1-0.1,0.2-0.1,0.3c-0.1,0.1-0.1,0.1-0.1,0.1c-0.1,0.1-0.1,0.2-0.2,0.3
		c-0.1,0.2-0.3,0.3-0.3,0.5c-0.1,0.1-0.1,0.1-0.1,0.2c0,0.1-0.1,0.1-0.1,0.2c-0.2,0.2-0.2,0.4-0.3,0.6c0,0,0,0.1-0.1,0.1
		c-0.1,0-0.1,0.1-0.1,0.2c0,0.1-0.1,0.1-0.1,0.1c0,0,0,0-0.1,0.1c0,0,0,0,0,0c0,0,0,0,0,0.1c0,0-0.1,0.1-0.1,0.1
		c-0.1,0.1-0.1,0.2-0.1,0.4c-0.1,0.1-0.1,0.2-0.1,0.3C5.1,19.9,5,19.9,5,20c0,0,0,0,0,0.1c0,0,0,0.1,0,0.1c-0.1,0.2-0.1,0.4-0.1,0.6
		c-0.1,0.1-0.1,0.2-0.1,0.4c0,0,0,0,0,0c0,0,0,0-0.1,0.1c0,0,0,0,0,0.1c0,0.1,0,0.1,0,0.2c0,0.1,0,0.2-0.1,0.2c0,0,0,0,0,0.1
		c0,0,0,0,0,0.1c0,0,0,0,0,0c0,0,0,0.1,0.1,0.1c0.1,0.1,0.2,0.1,0.2,0.3c-0.1,0.1,0,0.2,0,0.2c0.1,0.1,0.1,0.1,0.2,0.2
		c0,0,0,0,0.1,0c0,0,0,0,0,0c0,0,0.1,0,0.1,0c0,0,0,0,0,0c0.1-0.1,0.2,0,0.3,0.1c0,0,0,0,0,0.1c0,0.1,0,0.1,0,0.1c0,0,0,0,0,0
		c-0.1,0-0.1,0-0.1,0c0.1,0.1,0.1,0.2,0,0.3c0,0,0,0,0,0.1c0,0,0,0,0,0c0,0,0,0,0,0.1s0,0,0,0c0,0,0,0.1-0.1,0.1c0,0,0,0,0,0.1
		c0,0,0,0,0,0.1c-0.2,0-0.2-0.1-0.2-0.2c0-0.1,0-0.1,0.1-0.2c0,0,0-0.1,0-0.1c0,0-0.1,0-0.1,0c0,0,0,0-0.1,0c0,0,0,0-0.1,0
		c0,0-0.1,0-0.1,0c0,0,0,0,0-0.1c0,0,0,0,0-0.1c0,0,0,0,0,0c0,0,0,0-0.1-0.1c0,0,0,0,0,0c0-0.1-0.1-0.1-0.2-0.2c0,0,0,0,0,0
		c0,0,0,0-0.1,0c0,0,0,0,0,0c0,0,0,0,0,0c-0.1,0-0.2,0-0.2-0.1c-0.1-0.3-0.1-0.6-0.1-0.9c0-0.1,0-0.2,0-0.3c0,0,0,0,0,0c0,0,0,0,0,0
		c0,0,0,0,0,0c0,0,0,0,0,0c0,0,0,0,0.1,0c0,0,0,0,0,0.1c-0.1,0.2-0.1,0.2-0.2,0.1c0,0-0.1-0.1-0.1-0.1c0-0.1,0-0.1,0-0.2
		c0,0,0,0,0-0.1c0,0,0,0,0-0.1c0,0,0,0,0.1-0.1c0,0,0,0,0,0c0,0,0,0,0,0c0,0,0-0.1,0-0.1c0,0,0-0.1,0-0.1c0,0,0-0.1,0-0.1
		c0,0,0,0,0-0.1c0,0,0.1,0,0.1,0c0.1,0,0.1,0.1,0.2,0.1c0,0,0,0,0,0.1c0,0,0,0,0-0.1c0,0,0,0,0-0.1c0-0.1,0-0.1,0.1-0.2
		c0,0,0,0,0.1,0c0,0,0,0,0.1,0c0,0,0,0,0.1,0c0,0,0,0,0,0c0,0,0,0,0,0c0,0,0-0.1,0-0.1c0,0,0,0,0,0c0.2-0.1,0.2-0.3,0.3-0.5
		c0-0.1,0.1-0.2,0.2-0.3c0,0,0,0,0,0c0-0.1,0.1-0.2,0-0.3c0,0,0,0,0,0c0,0,0-0.1,0-0.1c0,0,0-0.1,0.1-0.1c0,0,0,0,0,0
		c0,0,0.1-0.1,0.1-0.1c0,0,0.1,0,0.1-0.1c0,0,0,0,0,0c0,0,0,0,0-0.1c0,0,0,0,0,0c0,0,0-0.1,0-0.1c0-0.1,0.1-0.2,0.1-0.2
		c0,0,0,0,0.1,0c0.1-0.1,0.1-0.1,0.2-0.1c0.1-0.1,0.2-0.2,0.3-0.3c0,0,0,0,0,0c0.1-0.1,0.1-0.1,0.1-0.1c0.1,0,0.1-0.1,0.1-0.2
		c0,0,0,0,0-0.1c0,0,0,0,0,0c0.1-0.1,0.2-0.2,0.2-0.2c0-0.1,0.1-0.2,0.1-0.3C6.8,16.3,7,16,7.1,15.8c0,0,0.1-0.1,0.1-0.1
		c0.1-0.1,0.1-0.1,0.1-0.2c0,0,0,0,0,0c0,0,0,0,0-0.1c0,0,0-0.1,0.1-0.1c0.1-0.1,0.1-0.1,0.2-0.3c0.1-0.1,0-0.2,0.1-0.3
		c0-0.1,0.1-0.1,0.1-0.2c0,0,0-0.1,0.1-0.1c0,0,0,0,0.1-0.1c0,0,0-0.1,0-0.1c0,0,0,0,0,0c0,0,0,0,0,0c0,0,0,0,0-0.1c0,0,0,0,0-0.1
		c0,0,0,0,0,0C8.1,14,8.2,14,8.2,14c0,0,0,0,0,0c0.1-0.1,0.1-0.1,0.2-0.1c0.1,0,0.1,0,0.1,0c0.3-0.3,0.4-0.6,0.6-0.9c0,0,0,0,0,0
		c0,0,0.1,0,0.1,0c0.1-0.2,0.3-0.3,0.4-0.5c0,0,0,0,0.1,0c0.1-0.1,0.3-0.2,0.5-0.4c0.1-0.1,0.3-0.2,0.3-0.4c0,0,0,0,0.1-0.1
		c0.2-0.1,0.4-0.3,0.6-0.3c0,0,0.1,0,0.1,0c0,0,0,0,0,0.1c0,0,0,0,0,0c0,0-0.1,0-0.1,0.1c0,0.1-0.1,0.1-0.1,0.1
		c-0.1,0.1-0.1,0.2-0.3,0.3c-0.1,0.1-0.2,0.2-0.3,0.2c0,0-0.1,0-0.1,0c0,0,0,0,0,0.1C10.3,12.2,10.2,12.3,10,12.5
		C10.2,12.5,10.1,12.5,10,12.5L10,12.5z"/>
	<path class="st4" d="M3.5,4.5c0-0.1,0-0.2-0.1-0.2C3.3,4.1,3.4,4,3.3,3.9c0-0.1-0.1-0.2,0-0.3c0,0,0,0,0,0c0.2-0.1,0.2,0,0.2,0.1
		c0,0.1,0,0.1,0,0.2c-0.1,0,0,0.1,0,0.1c0.1,0,0.1,0,0.2-0.1c0,0,0,0,0,0c0.1,0,0.1,0.1,0,0.1c0,0,0,0.1,0,0.1c0.1,0.1,0,0.2,0,0.3
		c0,0.1,0.1,0.2,0.1,0.2c0,0,0,0.1,0,0.1c0,0.1-0.1,0.3,0,0.4c-0.1,0,0,0.1-0.1,0.2C3.7,5.1,3.7,5,3.7,5c0,0,0-0.1,0-0.1
		c0-0.1,0-0.2-0.1-0.2c0,0,0,0,0-0.1C3.5,4.5,3.5,4.5,3.5,4.5L3.5,4.5z"/>
	<path class="st4" d="M8.4,5.1c0,0,0.1-0.1,0.1-0.1c0,0,0,0.1,0,0.1c0,0,0,0.1,0,0.1c0,0,0,0,0,0.1c0,0,0,0.1,0,0.1c0,0-0.1,0-0.1,0
		c0,0,0,0,0,0s0,0,0,0c0,0,0,0,0,0c0,0,0,0,0,0c-0.1,0-0.1,0-0.2,0c0,0,0,0,0-0.1c0,0,0-0.1,0-0.1c0,0,0,0,0-0.1c0-0.1,0-0.1,0-0.1
		C8.3,5.1,8.4,5.1,8.4,5.1C8.4,5.1,8.4,5.1,8.4,5.1C8.4,5.1,8.4,5.1,8.4,5.1L8.4,5.1z"/>
	<path class="st4" d="M3.6,14.4c0-0.1,0-0.2,0-0.3c0-0.2,0-0.3,0-0.5c0-0.1,0-0.2,0-0.3c0.1,0,0.1-0.1,0-0.2c0-0.1,0-0.1,0-0.1
		c0-0.1,0-0.1,0-0.2c0,0,0,0,0,0c0,0,0-0.1,0-0.1c0,0,0-0.1,0-0.1c0,0,0-0.1,0-0.1c0-0.1,0-0.1,0-0.2c0,0,0,0,0-0.1c0,0,0-0.1,0-0.1
		c0,0,0,0,0-0.1c0,0,0,0,0-0.1c0,0,0-0.1,0.1-0.1c0,0,0,0,0.1,0c0,0,0,0,0.1,0c0,0,0,0,0.1,0.1c0,0,0,0,0,0.1c0,0,0,0,0,0.1
		c0,0,0,0,0,0.1c0,0,0,0,0,0c0,0,0,0.1,0.1,0c0.1-0.1,0-0.2,0.1-0.3C4,11.9,4,12,4.1,12c0.1,0.1,0.1,0.3-0.1,0.4
		c-0.1,0.1,0,0.2,0,0.3C4,12.8,3.9,13,4,13.1c0-0.1,0-0.2,0.1-0.3c0.1,0,0.1,0,0.2,0c0.1,0.2,0.1,0.4-0.1,0.5c0.1,0,0.2,0,0.3,0
		c0,0,0,0,0,0.1c0,0.1-0.1,0.1-0.1,0.1c0,0-0.1,0-0.1,0c0,0,0,0,0,0.1c0,0,0,0,0,0c0,0,0,0,0.1,0c0.1,0,0.1,0.1,0.1,0.1
		c0.1,0.1,0.1,0.2,0.1,0.3c0,0,0,0.1,0,0.1c0,0-0.1,0-0.1,0c0,0-0.1,0-0.1,0c0,0,0,0,0,0c0.1,0,0.1,0,0.2,0c0,0,0.1,0,0.1,0
		c0,0,0.1,0,0.1,0c0.1,0.1,0.1,0.2,0.1,0.4c0,0.1,0,0.2-0.2,0.2c0,0,0,0,0,0s0,0-0.1,0c0,0,0,0,0,0c0,0,0,0,0,0c0,0,0,0,0,0
		c0,0,0,0,0,0.1c0,0.1,0,0.2-0.1,0.3c0,0.1-0.1,0.1-0.1,0.2c0,0.1,0,0.2,0,0.3c0,0,0,0.1,0,0.1c0,0,0,0,0.1,0c0,0,0,0.1,0,0.1
		c0,0,0,0,0,0c0,0,0,0,0,0c0,0,0,0,0.1,0c0,0,0.1,0,0.1,0.1s0,0.1,0,0.1c0,0,0,0-0.1,0c0,0,0,0,0,0c0,0-0.1,0.1-0.1,0.1
		c0.2,0.1,0.1,0.2,0.1,0.4c0,0,0,0.1,0,0.1c0,0,0,0.1-0.1,0.1c0,0,0,0,0,0c0,0,0,0,0.1,0c0,0,0,0,0,0c0,0,0,0,0.1,0c0,0,0,0,0.1,0.1
		c0,0.1,0,0.2-0.1,0.3c0,0,0,0,0,0.1c0,0.1,0,0.3,0,0.4c0,0,0,0,0,0c0,0,0,0,0,0c0.1,0,0.1,0,0.2,0.1c0,0,0,0.1,0,0.1
		c-0.1,0.1-0.1,0.2-0.3,0.2c0,0-0.1,0.1-0.1,0.1c0,0,0,0.1,0,0.1c0,0,0,0.1-0.1,0.1c0,0,0,0,0,0.1c0,0,0.1,0,0.1,0.1
		c0.1,0.1,0.1,0.1,0.1,0.2c0,0,0,0.1,0,0.1c0,0,0,0-0.1,0c0,0,0,0,0,0c0,0,0,0,0,0c0,0,0,0,0,0c0,0,0,0,0,0c0,0,0,0.1,0,0.1
		c0,0,0,0,0,0.1c0,0,0,0.1,0,0.1c0,0.1,0,0.1,0,0.2c0,0.1-0.1,0.1-0.1,0.1c-0.1,0-0.2,0-0.2,0c0,0,0,0,0,0c0-0.1,0-0.1-0.1-0.2
		c-0.1-0.4-0.2-0.8-0.2-1.2c0-0.1,0-0.3,0-0.4c-0.1-0.2,0-0.5,0-0.8c0-0.3,0.1-0.6,0.1-0.8c0-0.2,0-0.5-0.1-0.7c0-0.2,0-0.4,0-0.6
		c0,0,0-0.1,0-0.1C3.6,14.6,3.6,14.5,3.6,14.4L3.6,14.4z"/>
	<path class="st4" d="M3.5,10.2C3.4,10,3.4,9.8,3.4,9.6c0-0.1,0-0.2,0-0.4c0-0.1,0-0.2,0-0.3c0-0.1,0-0.2,0-0.3c0-0.1,0-0.2,0-0.2
		c0,0,0,0,0.1,0c0,0,0.1,0,0.1,0.1c0,0.1,0,0.1,0.1,0.2c0,0,0,0,0,0.1c0,0,0,0.1,0,0.1c0,0,0,0,0,0.1c0,0,0,0,0,0c0,0,0,0,0,0
		c0,0,0,0,0,0c0,0,0,0.1,0,0.1c0,0,0,0.1,0,0.1c0,0,0,0.1,0,0.1c0,0.1,0.1,0.1,0,0.2c0,0,0,0.1,0,0.1c0,0,0,0.1,0,0.1
		c0,0,0,0.1,0,0.1c0,0,0,0,0,0.1C3.7,10.1,3.6,10.2,3.5,10.2C3.5,10.2,3.5,10.3,3.5,10.2L3.5,10.2z"/>
	<path class="st4" d="M3.7,11.6C3.6,11.5,3.6,11.6,3.7,11.6c-0.1,0-0.1,0.1-0.1,0.1c-0.1-0.1-0.1-0.2,0-0.3c0-0.1,0-0.1,0-0.1
		c0-0.1,0-0.3,0-0.4c0-0.2,0-0.4,0-0.5c0,0,0,0,0,0c0.1,0,0.1,0.1,0.1,0.2c0,0.1,0,0.2,0,0.3c0,0.1,0.1,0.1,0,0.2s0,0.1,0,0.2
		c0,0,0,0.1,0,0.1c0,0,0,0,0,0C3.8,11.4,3.8,11.5,3.7,11.6L3.7,11.6z"/>
	<path class="st4" d="M1.4,1.8c0.1,0,0.1-0.1,0-0.2c0,0,0,0,0,0c0,0,0-0.1,0.1-0.1c0-0.2,0-0.3,0-0.5c0,0,0.1,0,0.1,0
		c0.1,0,0.1,0.1,0.1,0.1c0,0.1,0,0.1-0.1,0.1c0,0,0,0.1,0,0.1c0,0.1,0,0.2,0,0.3c0,0.1,0,0.1,0,0.1c0,0,0,0.1,0,0.1c0,0,0,0,0,0.1
		c0,0,0,0,0,0.1s0,0,0,0c0,0,0,0,0,0c0,0,0,0,0,0c0,0,0,0.1,0,0.1c0,0,0,0,0,0c0,0.1,0,0.1,0,0.1c0,0.1-0.1,0.1-0.2,0.1c0,0,0,0,0,0
		c0-0.1,0-0.1,0-0.2c0,0,0-0.1,0-0.1c0,0,0-0.1,0-0.1c0,0,0,0,0,0c0,0,0,0,0,0C1.5,2,1.4,1.9,1.4,1.8L1.4,1.8z"/>
	<path class="st4" d="M1.7,0.2c-0.1,0-0.1-0.1,0-0.1C1.8,0,1.9,0,2.1,0.1c0.1,0,0,0.1,0,0.1c0,0,0,0-0.1,0c0,0,0,0,0,0c0,0,0,0,0,0
		c0,0,0,0.1,0,0.1c0,0.1,0,0.1,0,0.2c-0.1,0.1-0.1,0.1-0.1,0c0,0,0-0.1,0-0.1c0,0,0,0,0,0c0,0,0,0,0,0l0,0c0,0,0,0,0,0
		c0,0,0,0,0,0.1c0,0,0,0,0,0.1c-0.1,0-0.1,0-0.1-0.1C1.7,0.3,1.6,0.3,1.7,0.2L1.7,0.2z"/>
	<path class="st4" d="M1.6,0.6C1.6,0.6,1.6,0.6,1.6,0.6C1.6,0.5,1.6,0.5,1.6,0.6c0-0.1,0-0.1,0-0.1c0,0,0,0,0,0c0,0,0,0,0,0
		c0,0,0,0.1,0.1,0.1c0,0,0,0,0,0c0,0,0,0.1,0,0.1c0,0,0,0,0,0.1c-0.1,0-0.2,0.1-0.1,0.2c0,0,0,0,0,0c0,0,0,0-0.1,0.1c0,0,0,0,0,0
		c0,0,0,0-0.1,0C1.6,0.9,1.5,0.8,1.6,0.6C1.6,0.7,1.6,0.7,1.6,0.6z"/>
	<path class="st4" d="M2.7,0.2c0.1,0,0.2,0,0.3,0c0.1,0,0.2,0,0.4,0c0,0,0,0,0,0c0,0,0,0-0.1,0.1c0,0,0,0,0,0c0,0,0,0,0,0.1
		c0,0,0,0.1,0,0.1c0,0,0,0,0,0.1c0,0.1,0,0.1-0.1,0.1c0,0-0.1,0-0.1,0c0,0,0,0,0,0c0,0,0,0,0,0c0,0,0,0,0,0.1c0,0,0,0,0,0.1
		c0,0,0,0,0,0C3,0.8,3,0.7,2.9,0.7c0,0-0.1-0.1-0.1-0.1C2.8,0.4,2.8,0.3,2.7,0.2L2.7,0.2z"/>
	<path class="st4" d="M4.7,0.7c0,0.2,0,0.4,0,0.6c0,0,0,0-0.1,0c0,0-0.1,0-0.1-0.1c0,0,0-0.1,0-0.1c0,0,0-0.1,0.1-0.1
		c0-0.1,0-0.1,0-0.2c0-0.1-0.1-0.2-0.2-0.1c0,0,0,0-0.1,0c0,0,0,0,0,0c0,0,0,0-0.1,0c0,0,0,0,0,0c0,0,0,0-0.1,0c0,0,0,0,0,0
		c0-0.1,0-0.1,0-0.2c0.1-0.1,0.1,0,0.2,0C4.4,0.6,4.5,0.6,4.7,0.7L4.7,0.7z"/>
</g>
</svg>
