<?xml version="1.0" encoding="utf-8"?>
<!-- Generator: Adobe Illustrator 27.3.0, SVG Export Plug-In . SVG Version: 6.00 Build 0)  -->
<svg version="1.1" id="Layer_1" xmlns="http://www.w3.org/2000/svg" xmlns:xlink="http://www.w3.org/1999/xlink" x="0px" y="0px"
	 viewBox="0 0 42.8 50" style="enable-background:new 0 0 42.8 50;" xml:space="preserve">
<style type="text/css">
	.st0{fill:#D6B68E;}
</style>
<path id="pinterest" class="st0" d="M22.8,0C11.3,0,0,6.9,0,17.9C0,25,4.4,29,7.1,29c1.1,0,1.7-2.8,1.7-3.5c0-0.9-2.6-2.9-2.6-6.8
	c0-8.1,6.8-13.8,15.7-13.8c7.6,0,13.2,3.9,13.2,11c0,5.3-2.4,15.3-10.1,15.3c-2.8,0-5.2-1.8-5.2-4.4c0-3.8,2.9-7.4,2.9-11.3
	c0-6.6-10.5-5.4-10.5,2.6c-0.1,1.8,0.3,3.5,1.1,5.1c-1.5,5.9-4.7,14.8-4.7,20.9c0.1,1.9,0.2,3.8,0.5,5.6c0.4,0.4,0.2,0.3,0.8,0.2
	c5.6-6.9,5.4-8.3,8-17.3c1.4,2.3,4.9,3.6,7.7,3.6c11.9,0,17.2-10.4,17.2-19.7C42.8,6.5,33.3,0,22.8,0z"/>
</svg>
