<svg xmlns="http://www.w3.org/2000/svg" width="42.848" height="50" viewBox="0 0 42.848 50">
  <path id="pinterest" d="M22.763,32C11.315,32,0,38.851,0,49.932c0,7.052,4.419,11.058,7.1,11.058,1.1,0,1.741-2.756,1.741-3.537,0-.937-2.645-2.912-2.645-6.8C6.193,42.6,13.022,36.9,21.859,36.9c7.6,0,13.223,3.883,13.223,11,0,5.323-2.377,15.3-10.076,15.3-2.778,0-5.155-1.8-5.155-4.385,0-3.794,2.946-7.443,2.946-11.348,0-6.628-10.478-5.434-10.478,2.578A10.732,10.732,0,0,0,13.39,55.12C11.85,61.068,8.7,69.938,8.7,76.064a53.572,53.572,0,0,0,.5,5.646c.379.379.19.335.77.156C15.6,74.949,15.4,73.6,17.943,64.56c1.372,2.343,4.921,3.6,7.733,3.6,11.85-.022,17.173-10.388,17.173-19.728C42.848,38.483,33.274,32,22.763,32Z" transform="translate(0 -32)" fill="#fff"/>
</svg>
