<svg xmlns="http://www.w3.org/2000/svg" width="52.575" height="50" viewBox="0 0 52.575 50">
  <path id="tours" d="M32.859,21.875A3.031,3.031,0,0,0,36.145,25a3.129,3.129,0,1,0,0-6.25A3.031,3.031,0,0,0,32.859,21.875Zm-19.716,0A3.031,3.031,0,0,0,16.43,25a3.129,3.129,0,1,0,0-6.25A3.031,3.031,0,0,0,13.144,21.875Zm36.145-6.563,3.286,31.25a3.451,3.451,0,0,1-.986,2.5,2.615,2.615,0,0,1-2.3.938h-46a2.615,2.615,0,0,1-2.3-.938A3.451,3.451,0,0,1,0,46.562l3.286-31.25A3.437,3.437,0,0,1,6.572,12.5h6.572C13.144,5.625,19.058,0,26.287,0S39.431,5.625,39.431,12.5H46A3.437,3.437,0,0,1,49.289,15.312ZM32.859,12.5H19.716a6.436,6.436,0,0,1,6.572-6.25A6.436,6.436,0,0,1,32.859,12.5Z" fill="#fff" fill-rule="evenodd"/>
</svg>
