<?xml version="1.0" encoding="utf-8"?>
<!-- Generator: Adobe Illustrator 27.3.0, SVG Export Plug-In . SVG Version: 6.00 Build 0)  -->
<svg version="1.1" id="Layer_1" xmlns="http://www.w3.org/2000/svg" xmlns:xlink="http://www.w3.org/1999/xlink" x="0px" y="0px"
	 viewBox="0 0 83 53.9" style="enable-background:new 0 0 83 53.9;" xml:space="preserve">
<style type="text/css">
	.st0{fill:#D6B68E;}
</style>
<path class="st0" d="M41.5,2C31.1,2,21.6,4.7,14.3,9.1H0.4c0,0,3.1,3.8,4.6,8.2c-2.9,3.6-4.6,8.2-4.6,13.2C0.4,42.4,10,52,21.9,52
	c6.2,0,11.9-2.7,15.8-7l3.9,5.2l3.9-5.2c3.9,4.3,9.5,7,15.8,7c11.8,0,21.4-9.6,21.4-21.4c0-5-1.7-9.6-4.6-13.2
	c1.5-4.3,4.6-8.2,4.6-8.2h-14C61.4,4.6,51.9,2,41.5,2z M41.5,5.5c6.9,0,13.6,1.3,19.3,3.6c-8.6,0.1-16,5.4-19.3,12.9
	C38.2,14.5,30.8,9.2,22.2,9.1h0.1C28,6.8,34.6,5.5,41.5,5.5z M21.9,12.7c9.9,0,17.9,8,17.9,17.9s-8,17.9-17.9,17.9S4,40.4,4,30.5
	S12,12.7,21.9,12.7z M61.2,12.7c9.9,0,17.9,8,17.9,17.9s-8,17.9-17.9,17.9s-17.9-8-17.9-17.9S51.3,12.7,61.2,12.7z M21.9,19.8
	c-5.9,0-10.7,4.8-10.7,10.7S16,41.2,21.9,41.2s10.7-4.8,10.7-10.7S27.8,19.8,21.9,19.8z M61.2,19.8c-5.9,0-10.7,4.8-10.7,10.7
	s4.8,10.7,10.7,10.7s10.7-4.8,10.7-10.7S67.1,19.8,61.2,19.8z M21.9,23.4c4,0,7.1,3.2,7.1,7.1s-3.2,7.1-7.1,7.1s-7.1-3.2-7.1-7.1
	S17.9,23.4,21.9,23.4z M61.2,23.4c4,0,7.1,3.2,7.1,7.1s-3.2,7.1-7.1,7.1S54,34.5,54,30.5S57.2,23.4,61.2,23.4z M21.9,27
	c-2,0-3.6,1.6-3.6,3.6s1.6,3.6,3.6,3.6s3.6-1.6,3.6-3.6S23.8,27,21.9,27z M61.2,27c-2,0-3.6,1.6-3.6,3.6s1.6,3.6,3.6,3.6
	s3.6-1.6,3.6-3.6S63.1,27,61.2,27z"/>
</svg>
