<?xml version="1.0" encoding="utf-8"?>
<!-- Generator: Adobe Illustrator 27.3.0, SVG Export Plug-In . SVG Version: 6.00 Build 0)  -->
<svg version="1.1" id="Layer_1" xmlns="http://www.w3.org/2000/svg" xmlns:xlink="http://www.w3.org/1999/xlink" x="0px" y="0px"
	 viewBox="0 0 61.6 50" style="enable-background:new 0 0 61.6 50;" xml:space="preserve">
<style type="text/css">
	.st0{fill-rule:evenodd;clip-rule:evenodd;fill:#D6B68E;}
</style>
<path id="Twitter" class="st0" d="M19.5,50c23.3,0,36-19.2,36-36v-1.7c2.4-1.8,4.5-4,6.2-6.5c-2.3,1-4.7,1.7-7.2,2.1
	c2.5-1.6,4.5-4,5.5-6.8c-2.5,1.4-5.1,2.4-7.9,3.1C49.7,1.5,46.3,0,42.8,0c-7,0.1-12.6,5.7-12.7,12.7c-0.1,0.9,0,1.9,0.3,2.7
	C20.3,14.9,10.8,10,4.5,2.1C3.3,4,2.7,6.3,2.7,8.6c0.1,4.2,2.1,8.1,5.5,10.6c-2.1,0-4.1-0.6-5.8-1.7l0,0c0,6.1,4.3,11.2,10.3,12.3
	c-1.1,0.3-2.3,0.4-3.4,0.3c-0.8,0.1-1.6-0.1-2.4-0.3c1.7,5.2,6.5,8.8,12,8.9c-4.5,3.5-10,5.4-15.8,5.5C2,44.2,1,44.1,0,43.8
	C5.7,47.9,12.5,50.1,19.5,50"/>
</svg>
