<svg xmlns="http://www.w3.org/2000/svg" width="79.774" height="84.194" viewBox="0 0 79.774 84.194">
  <path id="Path_351" data-name="Path 351" d="M36.61,84.01c-5.6-4.4-6.9-10.1-7.4-16.2-.2-3,0-6-4.3-5.9-4,.1-7.2,1.3-7.8,5.7-.3,2.3-.1,4.8-.4,7.1-.4,2.9-1.1,5.7-5,5.9-3.5.1-5.2-1.7-6.2-4.8-4.5-13.5.9-23.3,14.9-26,3.5-.7,5.1-2.1,5-5.5-.1-3.3-.3-6.7-.3-10-.1-4.3-3-5.7-6.4-6.4-3.7-.8-6.6.5-8.1,4.1-.5,1.1-.7,2.3-1.1,3.4-1,3-3.2,4.1-6.2,3.3-2.8-.7-3.4-2.9-3.3-5.6.4-8,5-14.7,12.7-17.4a61.353,61.353,0,0,1,11.1-2.5c4.5-.6,7.7-1.9,10.4-6.2,5.4-8.5,24.2-9.6,32.4-1.5,7.8,7.7,15.5,16.2,12.5,29.1-.8,3.4-1,7.2-5.3,7.2-5.2,0-3.8-4.4-4-7.5-.2-3.7,1.1-8.1-4.4-9.2s-11.6,2.5-13,7.5c-2.5,9.1-.7,13,7.8,17.5,7.6,4,12.6,21.9,8.3,29.4a4.184,4.184,0,0,1-4.1,2.4,3.9,3.9,0,0,1-3.8-2.8c-.7-2.5-.9-5.1-1.4-7.7-.8-4.3-2.7-7.5-7.4-7.6-4.9,7.1,2,22.2-15.2,20.2m23.9-75.9c-8.5-3.3-10.6-2.7-13.4,3.4,7.1,2.9,12,2.9,17.9.1-.5-1.9-2.2-2.3-4.5-3.5Z" transform="translate(0 0.003)"/>
</svg>
