<?xml version="1.0" encoding="utf-8"?>
<!-- Generator: Adobe Illustrator 27.3.0, SVG Export Plug-In . SVG Version: 6.00 Build 0)  -->
<svg version="1.1" id="Layer_1" xmlns="http://www.w3.org/2000/svg" xmlns:xlink="http://www.w3.org/1999/xlink" x="0px" y="0px"
	 viewBox="0 0 71.1 50" style="enable-background:new 0 0 71.1 50;" xml:space="preserve">
<style type="text/css">
	.st0{fill:#D6B68E;}
</style>
<path id="youtube" class="st0" d="M69.6,7.8c-0.8-3.1-3.2-5.5-6.3-6.3C57.8,0,35.5,0,35.5,0S13.3,0,7.8,1.5C4.7,2.3,2.3,4.7,1.5,7.8
	C0,13.4,0,25,0,25s0,11.7,1.5,17.2c0.8,3.1,3.2,5.4,6.3,6.2C13.3,50,35.5,50,35.5,50s22.2,0,27.8-1.5c3.1-0.8,5.5-3.2,6.3-6.2
	c1.5-5.6,1.5-17.2,1.5-17.2S71.1,13.4,69.6,7.8z M28.3,35.6V14.5L46.9,25L28.3,35.6L28.3,35.6z"/>
</svg>
