<svg xmlns="http://www.w3.org/2000/svg" width="71.101" height="50" viewBox="0 0 71.101 50">
  <path id="youtube" d="M74.61,58.821a8.98,8.98,0,0,0-6.284-6.33C62.775,51,40.55,51,40.55,51s-22.225,0-27.775,1.491a8.9,8.9,0,0,0-6.284,6.33C5,64.417,5,76.046,5,76.046S5,87.7,6.491,93.271a8.788,8.788,0,0,0,6.284,6.216C18.326,101,40.55,101,40.55,101s22.225,0,27.775-1.491a8.828,8.828,0,0,0,6.284-6.216C76.1,87.72,76.1,76.069,76.1,76.069S76.1,64.417,74.61,58.821Zm-41.33,27.8V65.472L51.858,76.046,33.28,86.619Z" transform="translate(-5 -51)" fill="#fff"/>
</svg>
