<svg id="Info_Box_4_-_symbol" data-name="Info Box 4 - symbol" xmlns="http://www.w3.org/2000/svg" width="67.582" height="132.152" viewBox="0 0 67.582 132.152">
  <g id="Group_174" data-name="Group 174">
    <path id="Path_345" data-name="Path 345" d="M47.27,125.95c-1-1.9-1.7-3.9-2.8-5.8-.5-1.3-1-2.4-1.5-3.7-1.5-2.9-2.6-5.8-4.1-8.7-.2-.5-.3-.9-.5-1.5-.7-2.2-1.1-4.2-1.6-6.5-.1-.3-.5-2.6-.7-3.4-.3-2.7-1.1-5-3.6-6.4a10.388,10.388,0,0,1-3.4-3.8c-1.8-3-3.6-6-5.5-8.9a11.4,11.4,0,0,1-1-1.9,2.09,2.09,0,0,1,.9-2.8,1.917,1.917,0,0,1,2.8.7c1.3,1.6,2.2,3.5,3.4,5.2.7,1.1,1.4,2.2,2,3.3a13.142,13.142,0,0,0,5.1,5.6,4.286,4.286,0,0,1,1.5,1.5,24.152,24.152,0,0,1,1.2,3.5c1.5,3.8,2.7,7.6,4.4,11.3,1.2,2.6,3.3,4.5,5.1,6.7a13.933,13.933,0,0,1,1.5,1.9c1.2,1.8,2.8,3.1,3.8,5.1a.551.551,0,0,1,.2.5c.1-.1.1-.2-.1-.4a21.762,21.762,0,0,1-1.6-4.7,3.56,3.56,0,0,0-1.9-2.3c-.3-.2-.5-.3-.8-.5a13.9,13.9,0,0,1-7-8.6c-1-3-2.4-5.7-3.5-8.8a30.435,30.435,0,0,0-1.4-3.9,28.117,28.117,0,0,0-8.7-14.1c-1.7-1.4-1.3-2.9.3-4.6,3.4-3.6,7-7,10.4-10.6,3.7-4,4.6-8.8,4.9-13.8.3-5.4-1.1-10.6-2.2-15.9-.6-2.8-1.3-5.6-1.8-8.4-.3-1.8-.6-3.7,1.1-5,1.6-1.3,3.5-.9,5.3-.2a22.2,22.2,0,0,1,4.9,3c2.6,2,5.4,3.5,8.9,3.2,1.5-.1,1.8-.6,1-1.9a9.718,9.718,0,0,0-4-3.5,12.739,12.739,0,0,1-6.4-6.9,11.356,11.356,0,0,0-2.8-3.8c-1.7-1.8-3.8-2.7-6.2-1.6a6.2,6.2,0,0,0-3.9,5.7c0,2.5-.4,5.7-.6,8.3-1.9.8-2.4-3.1-3.5-3.2-.2-3.7-.4-8.1,2.1-11.3,2.8-3.6,6.2-4.7,10.7-3.7,7,4.2,7.8,7.6,8,8.1a7.358,7.358,0,0,0,4.3,4.5,12.944,12.944,0,0,1,7.5,9.6c.4,2.1-.2,2.8-2.3,3.2a17.862,17.862,0,0,1-15.8-4.1c-1.1-1-2.7-2.6-3.8-1.9s0,2.7.3,4.1c1.4,6,2.9,12,3.3,18.1.5,7.8-.9,15.1-6.8,20.9-2.8,2.8-5.5,5.7-8.2,8.5-.6.6-1.1,1.1-.2,1.8,4.5,3.5,6.5,8.5,7.9,13.8.1.6,2,3.5,1.9,4.8,1.4,3.7,2.8,7.2,4.2,10.7,1,2.4,3.2,3.4,5.3,4.4a5.417,5.417,0,0,1,3,3.6c1.5,5,3.2,9.9,4.8,14.9.4,1.1.6,2.1-.6,2.8" transform="translate(-0.005 0.002)" fill="#161c21"/>
    <path id="Path_346" data-name="Path 346" d="M44.97,129.35a10.055,10.055,0,0,1-3.8-5c-.4-.4-4.8-10.2-7.2-14.5-.3-.7-3.1-7-3.6-8-.1-3,1.5-.7,3.6-.8.7,1.4,2.6,5.5,2.8,5.9a102.833,102.833,0,0,1,8.5,16.9,4.044,4.044,0,0,0,2,2.1" transform="translate(-0.005 0.002)"/>
    <path id="Path_347" data-name="Path 347" d="M57.67,127.35c-3-3.7-6.1-7.4-9.1-11.1-.4-.5-.7-1.2-1.6-1.5-.4.9.2,1.5.5,2.1,2.2,5.1,4.5,10.2,6.8,15.3" transform="translate(-0.005 0.002)"/>
    <path id="Path_348" data-name="Path 348" d="M27.17,92.25c-1.2-1.9-3-3-4.7-4.4-.3-.4-.5-.7-1-.8-3.7-1.1-3-4.7-4.4-7.4-3.6,4.8-6.8,9.7-13.3,10.9a.952.952,0,0,0-.7.2c-1.5.4-2.5-.2-2.6-1.5-.3-9.5-1.4-19,1.4-28.3a13.4,13.4,0,0,1,2-4.2c4.3-6,6.7-7.2,7-7.5.7-.2.6-.6,1.8-1a27.167,27.167,0,0,1,10.4-4.2c.3.1,7.1-1.9,10.5-2.5a21.865,21.865,0,0,1,2.5-.4,1.445,1.445,0,0,0,.7-.2,13.7,13.7,0,0,0-.1-3,102.633,102.633,0,0,1-1.9-22.1c1-.7,1.4,1.1,1.7,1.7.4.8,1.9-1.5,1.7,1.1.1,1.8.4,5,.7,6.9.4,2.4.6,4.8.9,7.4.1.5.9,5.6,1.2,8a9.7,9.7,0,0,0,.1,1.7c-.1,1.6-1.2,1.8-2.3,2-2.3.5-4.7.9-7.2,1.5-.4.1-3.7.6-4,.7-4.2,1.5-8.4,2.3-12.1,4.5a23.877,23.877,0,0,0-8.3,7.8,19.481,19.481,0,0,0-1.2,3.7,13.594,13.594,0,0,0-1.2,4.7c-.8,5.8-.4,11.5-.2,17.3,0,1.1.7,1.3,1.6.9a11.05,11.05,0,0,0,4.3-3.7,38.978,38.978,0,0,1,4.6-5.6,7.272,7.272,0,0,0,.9-.8,3.566,3.566,0,0,1,1-1.1,2.471,2.471,0,0,1,.9-.4,2.185,2.185,0,0,1,2.4,1.5,4.179,4.179,0,0,1,.4,1c.3,5.2,3.5,8.4,7.6,11.1a9.329,9.329,0,0,1,4.3,6.5c0,.4,1.4,5.6,1.5,7.1.6,1.1-3.1.7-3.6.9a39.428,39.428,0,0,1-1.4-4.9c-.1-.5-1.4-3.7-1.9-5.1Z" transform="translate(-0.005 0.002)"/>
  </g>
</svg>
