<svg id="Info_Box_3_-_symbol" data-name="Info Box 3 - symbol" xmlns="http://www.w3.org/2000/svg" width="53.962" height="94.35" viewBox="0 0 53.962 94.35">
  <path id="Path_362" data-name="Path 362" d="M20.82,2.35c2.2-3.6,4.1-2.6,5.7-.1q13.35,20.85,26.4,41.8a6.023,6.023,0,0,1-.5,7.4c-10.4,13.2-18.8,27.6-28,41.6a6.529,6.529,0,0,1-1.6,1.3c-3.2,0-3.8-2.7-4.7-4.8-5.6-11.9-11-23.9-16.7-35.7-1.7-3.5-2-6.6-.2-10.2,6.5-13.7,12.9-27.3,19.6-41.3m-5.3,66c2.2,4.3,2.6,9.6,6.5,13.2.9-.4,1.8-.4,2.2-.9,7-9.6,14-19.2,20.9-29,2.2-3.1,1.4-6.3-.5-9.4-5.4-8.7-10.6-17.5-16.1-26.2-1.2-1.9-2.2-4.4-5.7-4.3-5.9,10.4-10.2,21.7-14.3,33.1-.8,2.3-.1,4.7.8,7,2,5.2,3.8,10.3,6.2,16.5Z" transform="translate(-0.001 0)" fill="#d6b68e"/>
  <path id="Path_363" data-name="Path 363" d="M32.62,62.45c-3.1,4.8-4.7,9.9-9,13.2-14.8-12-15-39.2-.4-54.8,4.2,1.1,5,5.3,7.1,8.3,1,1.4,1.6,3,2.6,4.2,8.5,9.6,9.2,19.1-.3,29.1m-14.5-8.4c1.2,3.8,1.9,7.9,5.5,10.3,14-10.3,14.2-25,0-33.1-3.6,6.8-8.7,13-5.5,22.8Z" transform="translate(-0.001 0)" fill="#d6b68e"/>
</svg>
