<svg id="Info_Box_5_-_symbol" data-name="Info Box 5 - symbol" xmlns="http://www.w3.org/2000/svg" width="86.256" height="101.879" viewBox="0 0 86.256 101.879">
  <path id="Path_355" data-name="Path 355" d="M.29,56.21a1.483,1.483,0,0,1-.1-.7c-.1-3.1-.3-6.3-.1-9.4.2-4.7,2.5-8.6,5.6-12.2a47.783,47.783,0,0,1,4.5-4.5,5.141,5.141,0,0,1,7.1-.3c1.7,1.4,3.3,2.8,5.1,4.4.3-.3.8-.7,1.4-1.2-.6-.7-1.1-1.3-1.6-2-2.7-3.6-5.6-7.1-8-10.8-3.5-5.3-2.4-10.7,0-16.1a6.73,6.73,0,0,1,1.1-1.4c.1,0,.3.1.4.1a20.852,20.852,0,0,1,0,2.5c-.3,2.9-.6,5.7.3,8.6.6-3.4,1.2-6.7,1.9-10.2a2.75,2.75,0,0,1,1.6,3c-.2,1.9-.5,3.7-.7,5.6-.7,4.6,1.5,8.1,5.4,11,1-1.3,2.1-2.5,3.3-4-1.5.4-2.8.7-4.5,1.1,1.1-4.4,3.2-7.7,7-9.7.7-.4,1.6-.6,1.2-1.7-.4-1-.7-2-2.2-2-1.1.1-1.9.3-2.2,1.4l-.9,3.3a18.447,18.447,0,0,1-1,1.6c-1-2.4-1.4-4.6-.6-6.7a3.9,3.9,0,0,1,2-2,19.581,19.581,0,0,1,5.3-1.3,2.463,2.463,0,0,1,1.9.9,7.939,7.939,0,0,1,1.3,2.6c.8,2.5.9,2.6,3.7,1.9.2-1,.4-2.1.7-3.1a2.458,2.458,0,0,1,2.7-1.9c1.6.1,3.1,0,4.7.2a3.612,3.612,0,0,1,3.2,2.9,9.489,9.489,0,0,1,.3,5.3c-1.8-1-2.3-2.5-2.9-3.9a1.9,1.9,0,0,0-2.1-1.3c-1,.1-1.9.4-2,1.4-.2,1-.5,2.1.9,2.7a10.732,10.732,0,0,1,2.6,1.9,13.748,13.748,0,0,1,1.3,1,8.768,8.768,0,0,1,1.7,1.7,7.329,7.329,0,0,1,2.4,5.7,16.7,16.7,0,0,0-.6,2,1.409,1.409,0,0,0,.5.3c1.1-3.6,4.4-12.7,3.2-13.5-.3,0-1.5-1.6-2.2-4.4a13.9,13.9,0,0,1-.3-2.7,5.313,5.313,0,0,1,.6-2.3c.6,1.2,1.2,2.2,1.6,3a20.539,20.539,0,0,1,1.4,2.9q.3,0,.3-.1c-.1-1.1-.2-2-.4-3.4a19.978,19.978,0,0,0-.6-2.3,6.781,6.781,0,0,1,2.3,1.6,6.665,6.665,0,0,1,1.2,1.9,9.333,9.333,0,0,1,1.1,3.9c.1.9,0,1.6.1,2.2-.1.7-.1,1.2-.2,1.8-1.7,3.3-3.4,6.7-5.2,10-.4.7-.7,1.4-1.1,2.1,1.2.7,1.8.4,2.3-.7,1.6-3.1,3.2-6.2,4.9-9.2,1.2-2.3,2.8-2.5,4.8-.9,2.3,1.8,4.6,3.5,6.7,5.5,5,4.8,8,10.5,7.7,17.4a4.707,4.707,0,0,0,.4,1.6,14.505,14.505,0,0,1,1.3,7.1,1.344,1.344,0,0,0,.2.9c2.4,4,2.5,8.3,2.4,12.7a13.72,13.72,0,0,0,.5,4,22.343,22.343,0,0,1,1.3,9.1c-4.8-7.2-8.8-14.5-15.4-20.4-.3.9-.4,1.3-.6,1.8a29.549,29.549,0,0,1-4.1,9.7c-2.5,3.6-3.6,4-7.6,1.8-2.6-1.4-5.1-3.1-7.6-4.6-.4-.2-.8-.3-1.2-.5v.1a34.541,34.541,0,0,0,2.6,3.7c.9,1.3,1.8,2.6,1,4.4-.2.4.3,1.2.6,1.6,1.7,1.9,1.4,4.1,1.1,6.3a9.638,9.638,0,0,0,0,2.4c.3,2.2.7,4.4-.6,6.6-.4.6-.1,1.7.1,2.5a4.591,4.591,0,0,1-2.2,5.4,1.779,1.779,0,0,0-.7.8c-.7,2-.9,4.3-3.9,4.7,1.8,1.6,4.5-.4,5.9,2.1-3.9,1.1-7.5,3.1-11.7,2.1a2.774,2.774,0,0,1-2.4-2.8,3.411,3.411,0,0,1,2.5-3.7,22.489,22.489,0,0,1,4-.4c.5-1.9,1.1-4,1.7-6.1a8.146,8.146,0,0,0-.4-6.3c-.2-.4.3-1.4.7-1.9,1.1-1.3,1.2-1.8,0-3.1a4.3,4.3,0,0,1-1.4-4.3c.6-1.8-.3-2.2-1.8-2.7a2.814,2.814,0,0,1-.1-.8c-1.7-1.2-3.7-2.8-3.7-4.6v-1.3c0-.3,0-.5-.1-.6-2.5,0-2.9-.3-3.6-2.6-.4.4-.8.7-1.1,1-2.9,2.5-5.7,5.1-8.7,7.4-2.4,1.9-3.3,1.8-5.9.2a23.428,23.428,0,0,1-7.3-7.4c-1-1.5-1.3-1.6-2.2-.1-2.3,3.7-4.5,7.4-6.6,11.2-1,1.7-1.7,3.6-2.7,5.7a14.371,14.371,0,0,1-.8-7.3,6.1,6.1,0,0,0-.4-3c-.9-2.7-1.8-5.4-1.1-8.3m51.9-18.5c.1,0,.2.1.2.3.3.3.6.7,1,1.2.8.9,1.7,1.8,2.5,2.7.9.9,1.7.9,2.4-.1a8.98,8.98,0,0,0,1.3-2.8c1.1-3.3,2-6.6,3.1-9.9.7-2.1,1.8-2.3,3.7-1a78.738,78.738,0,0,1,12.4,10.7l.3.6.3-.3a2.761,2.761,0,0,1-.6-.8,55.071,55.071,0,0,0-11.6-11c-2.9-2-4.9-1.5-5.9,1.8-1.1,3.4-1.9,6.8-2.9,10.2a29.344,29.344,0,0,1-1.2,2.8c-1.4-1.2-2.5-2.2-3.8-3.3-.3-.3-.6-.5-1-.9q-.15,0-.3-.3c-.1,0-.2,0-.2-.1v.2q.15-.3.3,0m-41.3,8c.9-.7.6-3.5,1.4-4.3,1.8-1.5,2.9-1.4,4.3.4,1.7,2.2,3.2,4.4,4.8,6.6a10.957,10.957,0,0,0,2.1,2.2,1.476,1.476,0,0,0,2.3-.3c.8-1.1,1.6-2.2,2.5-3.4v-.2c-.1.1-.2.1-.4.3-1,1.1-2,1.6-3.2,2.9-.7-.8-1.5-.9-2-1.7-1.7-2.4-3.3-4.9-5.1-7.2-1.8-2.4-3.8-2.5-6.1-.5a50.8,50.8,0,0,0-9.6,11.1,13.7,13.7,0,0,1-.8,1.4c.8.2,1.1.1.8.2,2.4-4.2,10-11.6,10.4-11.8.8,2.7,4.4,2.8.3,7.2-6.1,4.2-7.7,9.3-8.9,11.4.2.1.3.2.5.2.3-.5.5-.9.8-1.4,1.9-3.2,3.9-6.4,7-8.7a1.525,1.525,0,0,1,2.3.1c2.3,2.3,4.7,4.7,7.1,6.9a10.766,10.766,0,0,0,2.4,1.8,2.609,2.609,0,0,0,3.3-.6c1-1,1.9-2.1,3-3.2.1.1-19.2-9.4-19.2-9.4Zm18.7,9c-.9.8-1.9,2.1-2.8,2.9a2.119,2.119,0,0,1-3.1.1,7.106,7.106,0,0,1-1.5-1.5c-1.9-2-5-4.7-7-6.6-.9-.9-1.1-1.3-3-1-.1-.5-2.4-3.8-2.7-4.5m46.4,7.6a5.182,5.182,0,0,0,3.1,1c1.6.1,2.3-1.4,2.9-2.7,1-2,1.9-4.1,3.1-6.1,1.2-2.9,1.5-2.7,3.1-5.9.8.6,3.2,2.3,4.3,3.1,4.2,3.8,7,8.4,10.1,13-2.2-5.6-5.8-10.3-9.9-14.7a25.5,25.5,0,0,0-2.8-1.8c-2.1-1-2.5-1-3.6.9-1.4,2.4-4.1,8.1-4.5,9.2a24.425,24.425,0,0,1-1,2.4c-1,1.8-1.9,2-3.6.7-.8-.6-1.5-1.1-2.3-1.7a10.191,10.191,0,0,0-1.5-.8,10.1,10.1,0,0,1,1.9,2.3m-29.2-10.6a2.118,2.118,0,0,1-2.7-.3c-.5-.4-.9-.8-1.4-1.2-2.6-2-5.2-4.1-7.8-6.1-1-.7-2.1-1.1-3.2-.1-3.4,3.3-6.9,6.6-9.1,10.9-.2.4-.3.7-.6,1.3.4-.3.5-.3.6-.4,7-7.1,6.9-6.6,8.3-9.3,1-1,2.4-1.4,3.4-.6.4.3,2.4,1.8,2.8,2,2.6,1.9,3.6,2.8,6.3,4.6,1.5,1,2.6.8,4.1-.4.1-.2.9-.4.7-.7,0,0-.5-.3-.5-.4a7.051,7.051,0,0,1-.9.7m26.5-11a4.4,4.4,0,0,0-.9.1,5.133,5.133,0,0,1,1,.4c1.7.9,2.4.8,3.6-.8,2.1-2.9,4.1-5.8,6.1-8.8.6-.8,1.2-1.5,1.9-2.4,5,3.8,10,7.2,13.6,12.1a4.128,4.128,0,0,0-.7-1.5c-2.6-3.9-6.3-6.9-9.9-9.9-3-2.5-3.7-2.5-5.9.9-1.9,2.9-3.7,5.9-5.6,8.9-.8,1.3-1.7,1.9-3.2,1" transform="translate(-0.004 -0.003)" fill="#d6b68e"/>
</svg>
