<svg id="Info_Box_8_-_symbol" data-name="Info Box 8 - symbol" xmlns="http://www.w3.org/2000/svg" width="102.429" height="84.85" viewBox="0 0 102.429 84.85">
  <g id="Group_173" data-name="Group 173">
    <path id="Path_331" data-name="Path 331" d="M1.33,48.5a7.457,7.457,0,0,0,.4-2.6c2.1-.9,3-1.1,3.9.3a14.482,14.482,0,0,1-.4,3.7c-.7,2.1-.4,4.9,0,7-1.1.2-2.6.2-3.6.8a10.068,10.068,0,0,1-.8-7.1c0-.2.5-1.8.5-2.1Z" transform="translate(-0.001 0)" fill="#161c21"/>
    <g id="Group_172" data-name="Group 172">
      <path id="Path_332" data-name="Path 332" d="M39.33,66.4c.9.6,2.9,7.3,3.7,9.7.6,1.8.2,2.9-1.8,3.2a30.427,30.427,0,0,0-13,5c-1.4,1-2.5.6-3.3-.9-1.1-2.2-2.4-4.3-3.4-6.6a20.161,20.161,0,0,0-7.4-9.4c-1.4-.9-2.4-1.1-3.2.9-.6,1.4-1.4,3.1-3.6,3.1a36.808,36.808,0,0,1-5.5-13.6c.2-1.9,1.6-1.5,2.8-1.6,1.3.8,1.3,2.1,1.7,3.2A36.565,36.565,0,0,0,8.13,64c.4-4.6,1.8-9.2-.3-13.8-1.8-3.9-1.8-8.1-1.7-12.5-.1-1.4,0-2.6,0-4V32.6a2.116,2.116,0,0,1,2.4-2.1c1.4.1,1.9,1.2,2.1,2.4a44.34,44.34,0,0,1,.1,7.3,21.233,21.233,0,0,0,2.3,10.5c1.4,2.7.7,5.6.3,8.6v2.4a1.464,1.464,0,0,0,.9,1.5c5.7,2.6,9.1,7.4,11.5,12.9a20.988,20.988,0,0,0,1.5,3c-.5-1.6-1.1-3.1-1.5-4.6-.3-1.3-.1-2.5,1.3-3s2.3.4,2.9,1.6a15.019,15.019,0,0,1,1.3,3.7c-.6-5.5-4.7-9.3-8.7-13.3a13.109,13.109,0,0,0-2.8-2,4.36,4.36,0,0,1-1.9-4.2V53.9a16.2,16.2,0,0,1,.1-2.2c1.1-2.6,2.2-2.8,4.2-1a8.618,8.618,0,0,1,.3,3.5c-.3,2.6.5,4.5,3.2,5.6a1.756,1.756,0,0,1,.5.4,8.277,8.277,0,0,1,1.1,1.5c1.5,2.1,3.6,3.6,4.9,5.7a16.525,16.525,0,0,1,2.3,5.6,13.569,13.569,0,0,0,.8,3.4,35.8,35.8,0,0,1-.6-3.7,2.518,2.518,0,0,1,.9-2c.6-.3,1.3-.4,1-1.2a8.982,8.982,0,0,0-1.2-2.4,19.128,19.128,0,0,0-4.6-5.2,22.145,22.145,0,0,1-5.8-6.7,14.648,14.648,0,0,1-1.1-4.1c.6-3.5,1.1-4,4.5-3.7,5.2.4,9.5-1.3,12.6-5.6.8-1,1.6-2.1,3.2-1.9a1.623,1.623,0,0,1,.9.5,7.434,7.434,0,0,1,1.8,3.8c.8,3.6,3.4,5.4,6.5,6.8,2.7,1.2,5.6,1.5,8.4,2.9a4.17,4.17,0,0,0,.6.2,5.973,5.973,0,0,1,1.1.6,15,15,0,0,1,2.5,1.9c1.4,1.4,1.4,3,1.5,4.7,0,1.8-.3,3.7.1,5.3.2-.6,0-1.7.2-2.5.2-.9.5-1.2,1.5-1.3,1.4-.3,2.2.7,2.8,3.3.5-.5.1-1,0-1.4-.7-3-1.5-5.9-2.1-8.9a4.783,4.783,0,0,0-2.8-3.7c-2.5-1.9-5.4-2.3-8.1-3.4-2.7-1.5-4.3-3.8-6.1-6.2a4.779,4.779,0,0,1-1-2.8c1-2.3,1.6-2.6,3.8-1.4,1,1.4,1.6,2.9,2.7,4.2a3.178,3.178,0,0,0,1,1,2.736,2.736,0,0,1,.5.4,3.811,3.811,0,0,0,2,1,28.7,28.7,0,0,1,7.6,3.3c2.6,1.7,4.4,3.8,4.9,6.9a66.309,66.309,0,0,0,1.7,7.2c.2-1.9.4-3.7,2.4-3.7,1.6,0,1.2.9,2.2,3.2-.2-1.6-.6-3.1-.7-4.6-.1-3.3-2.2-5.4-4.5-7.4-4.2-3.5-8.6-6.8-12.9-10.2l-1.2-.9a2.455,2.455,0,0,1-1.1-2.4,2.714,2.714,0,0,1,2.1-1.9,18.724,18.724,0,0,1,4.2-.4,9.005,9.005,0,0,0,1.6-.3,1.486,1.486,0,0,1,.6-.1c4.3-.4,5,.6,4.2,4.7a1.412,1.412,0,0,0,.1.9c.2-1.2.4-2.3.5-3.5a1.96,1.96,0,0,1,1.3-1.8,4.125,4.125,0,0,1,5.6,3l.3,2.1c.8,5.7,4.6,8.3,10.2,7.1a4.441,4.441,0,0,0,2.3-.9s-3.2.6-5-.1c-.3-1.7,3.4-2.4,4.1-3.1a9.9,9.9,0,0,1,4.2,0,2.791,2.791,0,0,1,2.4,1.9,2.656,2.656,0,0,1-1,3c-3.5,2.8-7.3,4.3-11.8,3.2-1.9-.5-3.7-1.2-5.8-1.8,1.7,2.4,3.5,4.8,3.6,8,.1.7.5,6.1.7,8.2a1.89,1.89,0,0,1-2,2.4c-1.4.1-2.9.1-4.3.3-1.2.1-3-.3-2.6,2,.1.6-.6,1.1-1.3,1.2-2.8.6-5.5,1.2-8.3,1.8-1.5.3-2.1-.7-2.2-2-.2-3-.5-6-.5-9,0-1.5-.4-2.3-1.7-2.8-1.7-.7-3.4-1.4-5.2-2-1-.4-2.1-.6-3.1-.9-6.2-2-7.7-3.5-10.4-9.5-2.5,2.4-5.1,4.5-8.7,5.3a12.5,12.5,0,0,1-3.7.9c-2,0-2.3.4-1.2,2.2a10.991,10.991,0,0,0,1.4,1.8c.2.2.9,1,1.2,1.3a42.021,42.021,0,0,1,5.6,5.9c.5-.1,1.4,2.5,1.6,3Z" transform="translate(-0.001 0)" fill="#161c21"/>
      <path id="Path_333" data-name="Path 333" d="M92.13,41.6c.2,1.4.7,2.5-.3,2.1-1.4-.5-2.1,1.2-2.7,1.2-1.5,0-6-1-7.2-3.4a7.172,7.172,0,0,1-.7-2.5c-.7-4.2.7-5.7,4.9-5.2a26.75,26.75,0,0,0,4.9.1c4.3-.4,6.1-2.1,7.6-7.6.3-.6.3-1.7,2.2-1.9.7-.1,1.1.2,1.6.9,0,3-1,7.2-2,7.9-3.5,4.5-8.2,5.2-13.3,4.9-.6,0-1.7-.7-1.9.5a1.842,1.842,0,0,0,1.4,2.1,12.507,12.507,0,0,0,5.5.9Z" transform="translate(-0.001 0)" fill="#161c21"/>
      <path id="Path_334" data-name="Path 334" d="M94.73,16.2c-2.1-.7-3.8-.7-6-1.4-.5-.2-3.4-.2-3.3-1,.1-1.6-.8-3.3.5-4.7a1.967,1.967,0,0,1,2.9-.5,40.389,40.389,0,0,1,5.4,3.8c2.4,2.1,4.7,1.8,6.6-.9a7.855,7.855,0,0,0-.1-4.4,7.461,7.461,0,0,0-3.7-4.2c-2.2-1.3-4.6-1.8-7-2.6a9.656,9.656,0,0,0-1.8-.3c-.5,0-1,.1-1.5.1a.1.1,0,0,0-.1.1c-4.9-.2-7.1,2.8-8.6,7-.4-2-1.4-2.3-2.9-2a29.75,29.75,0,0,1-4.3.5.831.831,0,0,0-1.1.8c-.8,1.2,0,2.4-.5,3.7-2-1.3-4-2.5-6-3.9a20.675,20.675,0,0,0-2.5-1.5,2.65,2.65,0,0,0-1-.3,9.959,9.959,0,0,0-2.1.2c-.8.2-3.3.8-3.4.8-2.2.7-6.2,1.9-6.6,2-.6.2-4.1,1.1-4.3,1.3-.6.1-1.1.2-1.7.3-.1,0-.2.1-.3.1-.2,0-3.5.9-3.5.9-1.3.4-5.1,1.4-5.2,1.5-4.4,1.4-15.9,3.2-16,3.2-2.7.4-9.2,3.2-9.2,3.2-3.3,1.5-4.8,4.2-5.3,7.7-.7,1.3-2,9.2-2.1,12-.2.5.7,3.2.9,4.3.3,1.3.5,2.6.9,3.8,1.7.2,2.1,1.7,3.2,2.4.9-.8.7-1.8.6-2.7a81.763,81.763,0,0,0-1.5-8.1,10.206,10.206,0,0,1,.3-3c.6-3.2,2.1-6,2-9.2A3.887,3.887,0,0,1,8.63,22a17.138,17.138,0,0,1,3.6-1.7,13.087,13.087,0,0,1,2.8-.9c2.7-.9,5.4-.9,8.1-1.4a2.483,2.483,0,0,0,.9-.1,3.085,3.085,0,0,0,.9-.1,2.353,2.353,0,0,0,.8-.2,8.4,8.4,0,0,1,1.2-.4c.2-.1.3-.1.5-.2a.9.9,0,0,1,.5-.1c.2,0,.3-.1.5-.1a9.363,9.363,0,0,1,1.6-.4c.7-.2,1.3-.3,2.1-.5,2.9-.8,5.6-1.6,8.4-2.4a56.867,56.867,0,0,1,5.9-1.6,4.22,4.22,0,0,0,1.2-.3c.5-.2.9-.3,1.5-.5,1.3-.3,2.5-.8,3.8-1a4.22,4.22,0,0,0,1.2-.3c1.9-.6,3.5-2,5.4-.8,2.2,1.4,4.6,2.6,6.9,4.1.8.4,1.5.9,2.2,1.2,2.2,1,3.8.1,4.2-2.2a4.186,4.186,0,0,1,.5-2.3,11.442,11.442,0,0,1,0,3.7,4.161,4.161,0,0,0,.5,3.4,4.173,4.173,0,0,0,.8.6,6.381,6.381,0,0,0,2.4.1c.3-.1.4-.1.7-.2a10.564,10.564,0,0,0,1.9-.6c2.5-1.9.9-5,1.6-6.6a7.789,7.789,0,0,1,.4,2.1c-.1,5.9-.1,4.9,4.4,5.8a24.607,24.607,0,0,1,3.9.8,18.915,18.915,0,0,1,2.3.5c.2,0,.3.1.6.1.3.1.5.2.8.3,1.7.7,3.3,1.2,4.2,3a5.1,5.1,0,0,1,.6,3.1c.7-.6,2.3-1.5,2.8-1.1.9.8-.5,1.2-.7,1.8-.4,1.1.5,1.4,1.4,1.5,1.2-6.6-.7-9.7-7.2-11.9Z" transform="translate(-0.001 0)" fill="#161c21"/>
    </g>
  </g>
</svg>
