<svg id="Info_Box_6_-_symbol" data-name="Info Box 6 - symbol" xmlns="http://www.w3.org/2000/svg" width="64.554" height="57.905" viewBox="0 0 64.554 57.905">
  <g id="Group_171" data-name="Group 171">
    <path id="Path_321" data-name="Path 321" d="M12.2,16.31C13.2,2.71,26.3-.99,37.1.21c12.2,1.3,18.9,9.1,18.5,20.5-.6,14.1-16.2,22.1-30.9,15.8-8.5-3.7-13.3-10-12.5-20.2m17.2-2.3c-2.4,2.5-6.3,4.9-1.7,8.4,3.3,2.5,7.2,1.9,10.6-.3a3.255,3.255,0,0,0,1.1-4.9c-2.3-3.1-4.6-6.4-10-3.2Z" transform="translate(0.004 0.002)" fill="#161c21"/>
    <path id="Path_322" data-name="Path 322" d="M5.8,43.01A41.524,41.524,0,0,1,0,21.41c0-2.2.4-4.6,2.9-5.2,2.6-.7,3.8,1.6,4.8,3.5,2.2,4.3,4,8.7,6.2,12.9,4.2,8.2,10.8,12.4,20.2,11.9s16.6-4.1,20.2-13.3a23.292,23.292,0,0,1,1.4-3.3c1.5-3,1.7-8.5,6.3-7,4,1.3,2.2,6.3,1.8,9.6-1.3,12.1-11.4,23.2-23.3,26.4-12.7,3.3-25.5-1.7-34.7-13.9Z" transform="translate(0.004 0.002)" fill="#161c21"/>
  </g>
</svg>
