<svg xmlns="http://www.w3.org/2000/svg" width="87.087" height="87.806" viewBox="0 0 87.087 87.806">
  <g id="Info_Box_2_-_symbol" data-name="Info Box 2 - symbol" transform="translate(-53.5 26)">
    <path id="Path_354" data-name="Path 354" d="M36.08,86.66a134.283,134.283,0,0,0-26.9.1c-2.6.3-5.2.5-7.8,1-1.4.2-1.5-.3-1.3-1.4,2.4-16.4,3-32.9,5.7-49.2.1-.8.1-1.7,1.3-1.9,1.2-1.4,3.2-2,3.4-4.3,1.4-5.5,2.8-10.9,4.5-16.1,2.5-7.6,8.5-11.3,15.5-13.8,4.6-1.6,9.3-1,14-.7a51.256,51.256,0,0,1,11.1,1.6,9.811,9.811,0,0,1,6.9,6.5,57.358,57.358,0,0,1,3,14.7c.3,3.3.5,6.7.6,10-.1-.2,2.5,5.8,6.7,5.3,1.9-.3,9.8-.1,10.8,12.9.1.4.8,7,.8,7.5-.4,2.4,1,7.7,1,8.3,0,4.5.9,8.7,1.5,13a14.919,14.919,0,0,1,.2,2.1c.1,3.3-.6,4.1-4,4.2a11.012,11.012,0,0,0-2.4.2,9.15,9.15,0,0,1-1.7.1c-2.1.5-4.1-.1-6.2.4a7.5,7.5,0,0,1-3,.2,20.038,20.038,0,0,0-7.3-.2,131.73,131.73,0,0,1-15.4.1c-1.3-.2-2.5-.1-3.8-.3a2.506,2.506,0,0,1-.7-.4,17.745,17.745,0,0,0-3.3-.2c-1.3.7-2.1.9-3.2.3Zm15.6-76.7c-3.4-1.2-7.9-2.9-11.6-2.4a28.011,28.011,0,0,0-10.1,3.4c-2.8,1.8-3.4,4.1-4.6,6.9-.9,2.1-2.8,8.8-2.2,10,.9,2,4.1,4.6,8.2,5.4,3.4.6,22.3,3.1,24.7,1.4,2.5-1.8,1.6-10.5,1.7-13.3.2-3.1-2.9-10.3-6.1-11.4Z" transform="translate(53.498 -25.997)" fill="#161c21"/>
  </g>
</svg>
