<svg xmlns="http://www.w3.org/2000/svg" width="134.606" height="82.247" viewBox="0 0 134.606 82.247">
  <g id="Info_Box_1_-_Symbol" data-name="Info Box 1 - Symbol" transform="translate(85 208)">
    <path id="Path_353" data-name="Path 353" d="M132.9,26.423a21.146,21.146,0,0,0-3.18-2.453c-3.089-1.908-6.451-3.453-9.268-5.724-4-3.089-7.542-6.633-7.269-12.539.363-6.088-.273-6.451-6.36-5-5.088,1.272-9.632,4.18-15.265,3.362-2-.273-2.908,1.454-2.362,3.453.454,2,1.09,4,1.726,5.906-1,.636-2,.363-2.908.454-5.724.363-11.631.363-16.628,3.271-11.54,6.724-23.352,12.993-32.62,23.079C31.039,48.593,23.5,57.135,14.956,65.04a1.122,1.122,0,0,0-.363.727,13.325,13.325,0,0,1-5.179,3.453c-2.272.909-4.634,1.545-6.27,3.544C.781,74.308-.582,76.307.236,78.942c.909,2.726,3.362,3.089,5.815,3.271H6.96c7.269.363,13.266-2.544,18.9-6.724,4-3,7.814-6.179,12.176-8.632,1.908-1.09,3.725-3.089,5.634-3.089s2.362,3,3.907,4.452L49.757,70.4c4.816,4.634,10.268,6.36,16.81,4.18a25.881,25.881,0,0,1,7.905-1.454c2.908,0,3.635-1.272,2.817-4-.273-.818-.818-1.363.545-1.817q4.543-1.636,3.089-6.27a22.467,22.467,0,0,1-1-3.271c-.545-2.635-2.09-3.453-4.725-3.362-4,.182-8.087,0-12.176.091A2.755,2.755,0,0,1,60.3,52.41c-.636-1.545.909-1.636,1.636-2.09,6.27-3.635,12.9-6.542,18.536-11.267A7.888,7.888,0,0,1,84.921,37.6c0,5.361.091,10.631,0,15.9-.091,2.817.909,4.18,3.816,4.452,8.178.727,16.265,1.636,24.442,2.453,4.907.454,5.724-.727,3.725-5.634-2.544-.727-2.272-2.362-1.545-4,1-2.362,2.635-1.726,4.543-.909,1.363-2.453-1.09-3.907-1.545-6.088,3.362.091,6.27-.636,7.633-4.089.909-2.362.545-4.361-2-5.906,2.544-.273,4.634-.454,6.633-.636,1.636-.182,3.089-.636,3.816-2.272.545-1.817-.363-3.271-1.545-4.452Zm-9.086,1.454a12.158,12.158,0,0,1-2.817-1.09,31.008,31.008,0,0,1-3-1.545c-2.817-1.545-4-2.453-5.27-2.453s-1.545.454-1.545.454c-.727.545-1,1.817-.909,3.18.636,2.726.545,3.089,2.181,5.543,1.726,2.453,5.27,4.452,7.269,5.634a8.372,8.372,0,0,1-4.543.273,7.381,7.381,0,0,1-4.907-4.271c-2-3.544-2.362-4.634-3.453-6.451a6.915,6.915,0,0,0-1.545-2.181,1.852,1.852,0,0,0-2.09-.273,2.454,2.454,0,0,0-1.636,1.636,7.162,7.162,0,0,0-.363,2.09c-.091,1-.182,1.09-.273,2-.091.818-.182,1.09-.273,1.726l-1.09,7.905c-.091.636.091,2.272.818,2.726a4.116,4.116,0,0,0,2,.727c2.453.273,7.451.909,9.45,1.817a6.286,6.286,0,0,1-2.272,1.726c-.454,0-.363-.091-3.18-.454-1.09-.182-3.635-.636-4.725-.818-1.636-.273-3-.273-4-1.09-.727-.545-.363-2.817-.454-3.816a28.378,28.378,0,0,1,.091-3.907V33.692c0-.818.091-3.089-.363-3.816-.909-1.363-1.363-1.272-2.272-1.363a2.445,2.445,0,0,0-2.453,2.272c0,1.545-.091,12.63-.182,14.356s-.182,2.544.909,3.725c.727.818,2.817.818,3.635,1.09a40.242,40.242,0,0,0,4.634.545,62.43,62.43,0,0,1,6.724,1.181c1.454.363,2.908,1.726,3,2.362,0,0-6.724-.727-10.177-1.09-3.089-.363-8.632-.818-9.9-1.09a1.762,1.762,0,0,1-1.545-2.453c.091-2.453.273-6.724.273-8.178V36.781c0-2.453.454-4.907-.727-6-.909-.818-4,0-4.18.091-7.36,1.817-11.721,5.906-14.084,7.542A43.606,43.606,0,0,1,64.2,41.96c-2.272,1.09-5.724,3-7.905,4.271a9.794,9.794,0,0,0-2.544,2c-.545.909-.273,1.272,0,2.817a12.079,12.079,0,0,0,1.272,3.18c.636,1.545-.182.273,1.636,2.181a17.1,17.1,0,0,0,2.09,1.454,10.538,10.538,0,0,0,3.907.727,47.452,47.452,0,0,1,5-.091c.636,0,5.634-.545,6.542.727.545.818,1,3.271-1.363,2.635-1.363-.363-1.726-.818-3-1.181a8.522,8.522,0,0,0-4-.182c-2.362.545-2.726.273-5.634.545-1.726.182-2.908.091-4-1.363-1.272-1.636-1.545-2.817-2.635-4.816-.545-1.09-1.09-1.908-1.817-3.089a2.983,2.983,0,0,0-1.817-1.636,2.868,2.868,0,0,0-2.181.545,1.9,1.9,0,0,0-.909,2.09c.182,1.363,2.181,4.361,2.362,4.634,1.272,2.181,3.907,7.542,4.816,8a4.721,4.721,0,0,0,2.908.818c3.362,0,6.815.454,9.813-.454,1.545-.454,3.271,1.454,2.908,1.545-2.453.545-2.817.909-4.907,1.454-1.908.545-5.724,1.09-6.633.727a23.006,23.006,0,0,1-5.361-3.453,29.75,29.75,0,0,1-6.542-8.359c-.909-2-2.362-1.454-2.453-1.454a66.414,66.414,0,0,0-6,3.362c-.818.545-1,.636-2.272,1.454-1,.636-2.817,1.817-3.089,2-1.363.909-.818.454-2.908,1.908-2,1.454-3.725,2.272-5.452,3.907a10.908,10.908,0,0,1-1.908,1.454c-.363.363-3.18,2.272-3.453,2.453a20.717,20.717,0,0,1-3.453,1.817q-.818.363-1.636.636c-.091.091-3.725.909-3.635.909a19.057,19.057,0,0,1-4,.273c-.454-.091-.363-.363,0-.545a17.28,17.28,0,0,0,1.908-1c1-.636,1.726-1,2.726-1.545a14.8,14.8,0,0,0,1.545-1c.091-.091,1.181-.818,1.454-1,1.726-1.363,2.635-2,4.271-3.453.273-.273.727-.636,1-.909a18.5,18.5,0,0,1,1.545-1.363A64.867,64.867,0,0,0,25.314,60.5c1.726-1.817,2.817-3,4.361-4.907a5.448,5.448,0,0,1,1-1.09c1.908-2.272,2.453-2.726,4-4.634.909-1.09,2.362-2.635,3.362-3.635,1.636-1.726,2.908-3,4.725-4.634,2-1.726,3.635-3.18,5.452-4.816,1.545-1.272,1.636-1.181,3.362-2.635.091-.091,2.272-1.636,2.362-1.726,1.545-1.09,2.635-1.908,4.089-2.817,3.635-2.181,5.179-3.362,8.9-5.634,4-2.362,7.814-4.816,12.267-5.27,1.908-.182,7.178-.545,8.632-.545,6.179.182,6.724,0,7.723-1.272,0-.091.727-.727-.091-3.18C94.825,11.885,94.1,9.25,94.1,9.068c.182-.545.363-.545,1.181-.727a2.114,2.114,0,0,1,1.636.363,30.5,30.5,0,0,1,1.636,3.907,21.571,21.571,0,0,0,1.545,3.725,2.547,2.547,0,0,0,1.726,1.181,2.665,2.665,0,0,0,2.726-1.363,6.337,6.337,0,0,0,.182-2.544c0-1-.091-2.09-.091-3.089-.091-1,0-1.545-.182-2.635-.091-.818,0-.636-.091-1.454-.091-.636,1-1.363,1.545-1.363.727,0,1.363.091,1.272.727a10.12,10.12,0,0,0,.273,3.362c.091.545.363,1.272.454,1.817.273.909.909,1.817,1.181,2.635.363.909.363.636.818,1.363l.727,1a9.229,9.229,0,0,0,1.817,1.908,23.408,23.408,0,0,0,7.087,5.634c2.362,1.363,5.906,3.362,5.906,3.362.091.818-1.454,1-1.636,1Z" transform="translate(-84.998 -207.996)" fill="#d6b68e"/>
  </g>
</svg>
