<svg xmlns="http://www.w3.org/2000/svg" width="35.067" height="93.408" viewBox="0 0 35.067 93.408">
  <g id="Info_Box_7_-_symbol" data-name="Info Box 7 - symbol" transform="translate(6)">
    <path id="Path_328" data-name="Path 328" d="M18.51,8.61a51.572,51.572,0,0,1,8.9,10c10,14.9,10,16.9-1.4,31.2-2.8,3.5-3,7.2-.6,10.6,4.8,6.8,6.6,14.7,9.2,22.3,1.4,4.1-.7,7.2-3.1,9.6-2.9,2.8-4.9-.5-7.3-1.8-6.5-3.5-10.1-7.6-6.2-15.4,1.2-2.4-1.3-4.9-2.4-7.2-2.2-4.2-4.7-8.3-7.1-12.4-3.1-5.3-2.8-10.6,2.1-14.1,16.3-11.8,7.2-24-4.3-32.7C3.61,6.61-.19,5.41,0,.01c7.6-.3,12.5,4.9,18.5,8.6Z" transform="translate(-5.993 0.002)" fill="#d6b68e"/>
  </g>
</svg>
